<?xml version="1.0" standalone="no"?>
<!DOCTYPE svg PUBLIC "-//W3C//DTD SVG 1.1//EN" "http://www.w3.org/Graphics/SVG/1.1/DTD/svg11.dtd" >
<svg xmlns="http://www.w3.org/2000/svg" xmlns:xlink="http://www.w3.org/1999/xlink" version="1.1">
<metadata>
Created by FontForge 20230101 at Wed May 27 13:18:30 1998
 By Glenn Lewis
http://members.aol.com/vroomfonde/ttf/ - Dysprosium Copyright (c) 1998 Tom Murphy 7. Use freely, but don't sell (on CD, for instance!). Imightbetm@aol.com / 339 Still Hill Rd - Hamden CT 06158.1830 - If you knew where you stood, you'd be standing still.
</metadata>
<defs>
<font id="Dysprosium" horiz-adv-x="458" >
  <font-face 
    font-family="Dysprosium"
    font-weight="400"
    font-stretch="normal"
    units-per-em="1000"
    panose-1="0 0 4 0 0 0 0 0 0 0"
    ascent="800"
    descent="-200"
    x-height="445"
    cap-height="791"
    bbox="4 -171.143 808 800"
    underline-thickness="20"
    underline-position="-143"
    unicode-range="U+0020-2026"
  />
<missing-glyph horiz-adv-x="500" 
d="M63 0v800h375v-800h-375zM125 63h250v675h-250v-675z" />
    <glyph glyph-name=".notdef" horiz-adv-x="500" 
d="M63 0v800h375v-800h-375zM125 63h250v675h-250v-675z" />
    <glyph glyph-name=".null" horiz-adv-x="0" 
 />
    <glyph glyph-name="nonmarkingreturn" horiz-adv-x="737" 
 />
    <glyph glyph-name="space" unicode=" " horiz-adv-x="737" 
 />
    <glyph glyph-name="exclam" unicode="!" horiz-adv-x="178" 
d="M154 706q0 -85 -25 -190q-29 -124 -35 -193q-3 -30 -3 -54t3 -54t3 -44q0 -23 -4 -50q-2 -12 -12 -20t-20 -8q-30 0 -30 76q0 40 6 78l10 64q6 24 17 71q3 29 11 85l16 80q10 52 10 88q0 34 -8 54q-10 24 -10 58q0 52 34 52q28 0 35 -39q2 -11 2 -54zM95 14
q0 -44 -31 -44q-11 0 -20 21q-8 18 -8 29q0 6 7 22q8 22 18 22q34 0 34 -50z" />
    <glyph glyph-name="quotedbl" unicode="&#x22;" horiz-adv-x="276" 
d="M113 684q0 -21 -8 -52q-11 -40 -27 -40t-12 26t-1 29q0 1 -12 6.5t-13 13.5q-3 12 -11 46q-4 16 15 27q16 10 35 10q16 0 26 -26q8 -20 8 -40zM245 685q0 -21 -8 -52q-11 -40 -27 -40t-12 26t-1 29q0 1 -12 6.5t-13 13.5q-3 12 -11 46q-4 16 15 27q16 10 35 10
q16 0 26 -26q8 -20 8 -40z" />
    <glyph glyph-name="numbersign" unicode="#" 
d="M424 484q0 -13 -31 -30q-13 -7 -25 -7q-18 0 -26 21q-8 22 6 34q9 7 24 7q32 0 42 -9t10 -16zM215 591q0 -13 -14.5 -21.5t-27.5 -8.5t-26 32q-12 29 -12 44q0 25 16 25q13 0 38.5 -29t25.5 -42zM415 341q-5 -12 -36 -12q-36 0 -36 37q0 26 29 26q10 0 25 -9.5t18 -23.5
q3 -11 0 -18zM318 399q0 -34 -14 -64q-18 -37 -48 -37q-114 0 -114 123q0 45 25.5 77.5t57.5 32.5q15 0 28 -7t29 -27q36 -43 36 -98zM111 487q0 -27 -15 -27q-9 0 -37 21.5t-28 32.5q0 26 23 26q18 0 37.5 -18t19.5 -35zM349 238q0 -26 -22 -26q-10 0 -23 16.5t-13 26.5
q0 12 9 24t20 12q10 0 19.5 -21t9.5 -32zM84 322q-26 0 -32 30q-3 16 15 31.5t28 15.5q15 0 25.5 -16.5t10.5 -36.5q1 -24 -47 -24z" />
    <glyph glyph-name="dollar" unicode="$" 
d="M424 484q0 -13 -31 -30q-13 -7 -25 -7q-18 0 -26 21q-8 22 6 34q9 7 24 7q32 0 42 -9t10 -16zM215 591q0 -13 -14.5 -21.5t-27.5 -8.5t-26 32q-12 29 -12 44q0 25 16 25q13 0 38.5 -29t25.5 -42zM415 341q-5 -12 -36 -12q-36 0 -36 37q0 26 29 26q10 0 25 -9.5t18 -23.5
q3 -11 0 -18zM318 399q0 -34 -14 -64q-18 -37 -48 -37q-114 0 -114 123q0 45 25.5 77.5t57.5 32.5q15 0 28 -7t29 -27q36 -43 36 -98zM111 487q0 -27 -15 -27q-9 0 -37 21.5t-28 32.5q0 26 23 26q18 0 37.5 -18t19.5 -35zM349 238q0 -26 -22 -26q-10 0 -23 16.5t-13 26.5
q0 12 9 24t20 12q10 0 19.5 -21t9.5 -32zM84 322q-26 0 -32 30q-3 16 15 31.5t28 15.5q15 0 25.5 -16.5t10.5 -36.5q1 -24 -47 -24z" />
    <glyph glyph-name="percent" unicode="%" 
d="M424 484q0 -13 -31 -30q-13 -7 -25 -7q-18 0 -26 21q-8 22 6 34q9 7 24 7q32 0 42 -9t10 -16zM215 591q0 -13 -14.5 -21.5t-27.5 -8.5t-26 32q-12 29 -12 44q0 25 16 25q13 0 38.5 -29t25.5 -42zM415 341q-5 -12 -36 -12q-36 0 -36 37q0 26 29 26q10 0 25 -9.5t18 -23.5
q3 -11 0 -18zM318 399q0 -34 -14 -64q-18 -37 -48 -37q-114 0 -114 123q0 45 25.5 77.5t57.5 32.5q15 0 28 -7t29 -27q36 -43 36 -98zM111 487q0 -27 -15 -27q-9 0 -37 21.5t-28 32.5q0 26 23 26q18 0 37.5 -18t19.5 -35zM349 238q0 -26 -22 -26q-10 0 -23 16.5t-13 26.5
q0 12 9 24t20 12q10 0 19.5 -21t9.5 -32zM84 322q-26 0 -32 30q-3 16 15 31.5t28 15.5q15 0 25.5 -16.5t10.5 -36.5q1 -24 -47 -24z" />
    <glyph glyph-name="ampersand" unicode="&#x26;" 
d="M424 484q0 -13 -31 -30q-13 -7 -25 -7q-18 0 -26 21q-8 22 6 34q9 7 24 7q32 0 42 -9t10 -16zM215 591q0 -13 -14.5 -21.5t-27.5 -8.5t-26 32q-12 29 -12 44q0 25 16 25q13 0 38.5 -29t25.5 -42zM415 341q-5 -12 -36 -12q-36 0 -36 37q0 26 29 26q10 0 25 -9.5t18 -23.5
q3 -11 0 -18zM318 399q0 -34 -14 -64q-18 -37 -48 -37q-114 0 -114 123q0 45 25.5 77.5t57.5 32.5q15 0 28 -7t29 -27q36 -43 36 -98zM111 487q0 -27 -15 -27q-9 0 -37 21.5t-28 32.5q0 26 23 26q18 0 37.5 -18t19.5 -35zM349 238q0 -26 -22 -26q-10 0 -23 16.5t-13 26.5
q0 12 9 24t20 12q10 0 19.5 -21t9.5 -32zM84 322q-26 0 -32 30q-3 16 15 31.5t28 15.5q15 0 25.5 -16.5t10.5 -36.5q1 -24 -47 -24z" />
    <glyph glyph-name="quotesingle" unicode="'" horiz-adv-x="149" 
d="M116 682q0 -21 -8 -52q-11 -40 -27 -40t-12 26t-1 29q0 1 -12 6.5t-13 13.5q-3 12 -11 46q-4 16 15 27q16 10 35 10q16 0 26 -26q8 -20 8 -40z" />
    <glyph glyph-name="parenleft" unicode="(" horiz-adv-x="227" 
d="M239 756q0 -16 -25 -54q-29 -40 -57 -81q-36 -55 -37 -100q-4 -30 -11 -90q-19 -155 -19 -178q0 3 4 -38.5t3 -63.5q-3 -40 43.5 -108.5t46.5 -98.5q0 -12 -9 -24t-22 -12q-54 0 -80 133q-18 86 -18 160q0 75 12.5 201.5t27.5 209.5q7 19 18 53q4 14 34 61q36 56 53 56
q12 0 24 -7.5t12 -18.5z" />
    <glyph glyph-name="parenright" unicode=")" horiz-adv-x="233" 
d="M204 487q0 -75 -12.5 -201.5t-27.5 -209.5q-7 -19 -18 -53q-4 -14 -34 -61q-36 -56 -53 -56q-12 0 -24 8t-12 18q0 16 25 54q29 40 57 81q36 55 37 100q4 31 11 90q19 155 19 178q0 -3 -4 39t-3 63q3 40 -43.5 108.5t-46.5 98.5q0 13 9 24.5t22 11.5q54 0 80 -133
q18 -85 18 -160z" />
    <glyph glyph-name="asterisk" unicode="*" 
d="M424 484q0 -13 -31 -30q-13 -7 -25 -7q-18 0 -26 21q-8 22 6 34q9 7 24 7q32 0 42 -9t10 -16zM215 591q0 -13 -14.5 -21.5t-27.5 -8.5t-26 32q-12 29 -12 44q0 25 16 25q13 0 38.5 -29t25.5 -42zM415 341q-5 -12 -36 -12q-36 0 -36 37q0 26 29 26q10 0 25 -9.5t18 -23.5
q3 -11 0 -18zM318 399q0 -34 -14 -64q-18 -37 -48 -37q-114 0 -114 123q0 45 25.5 77.5t57.5 32.5q15 0 28 -7t29 -27q36 -43 36 -98zM111 487q0 -27 -15 -27q-9 0 -37 21.5t-28 32.5q0 26 23 26q18 0 37.5 -18t19.5 -35zM349 238q0 -26 -22 -26q-10 0 -23 16.5t-13 26.5
q0 12 9 24t20 12q10 0 19.5 -21t9.5 -32zM84 322q-26 0 -32 30q-3 16 15 31.5t28 15.5q15 0 25.5 -16.5t10.5 -36.5q1 -24 -47 -24z" />
    <glyph glyph-name="plus" unicode="+" 
d="M424 484q0 -13 -31 -30q-13 -7 -25 -7q-18 0 -26 21q-8 22 6 34q9 7 24 7q32 0 42 -9t10 -16zM215 591q0 -13 -14.5 -21.5t-27.5 -8.5t-26 32q-12 29 -12 44q0 25 16 25q13 0 38.5 -29t25.5 -42zM415 341q-5 -12 -36 -12q-36 0 -36 37q0 26 29 26q10 0 25 -9.5t18 -23.5
q3 -11 0 -18zM318 399q0 -34 -14 -64q-18 -37 -48 -37q-114 0 -114 123q0 45 25.5 77.5t57.5 32.5q15 0 28 -7t29 -27q36 -43 36 -98zM111 487q0 -27 -15 -27q-9 0 -37 21.5t-28 32.5q0 26 23 26q18 0 37.5 -18t19.5 -35zM349 238q0 -26 -22 -26q-10 0 -23 16.5t-13 26.5
q0 12 9 24t20 12q10 0 19.5 -21t9.5 -32zM84 322q-26 0 -32 30q-3 16 15 31.5t28 15.5q15 0 25.5 -16.5t10.5 -36.5q1 -24 -47 -24z" />
    <glyph glyph-name="comma" unicode="," horiz-adv-x="149" 
d="M110 50q0 -21 -8 -52q-11 -40 -27 -40t-12 26t-1 29q0 1 -12 6.5t-13 13.5q-3 12 -11 46q-4 16 15 27q16 10 35 10q16 0 26 -26q8 -20 8 -40z" />
    <glyph glyph-name="hyphen" unicode="-" horiz-adv-x="481" 
d="M444 393q0 -7 -19 -21q-11 -8 -24 -8q-8 0 -24.5 4t-26.5 4q-20 1 -55.5 6t-56.5 5q-30 0 -87 -19.5t-84 -19.5q-7 0 -29.5 10.5t-22.5 15.5q0 41 54 41q12 0 50 -2q43 -2 42 -2l92 18q58 11 76 11q29 0 66 -10q49 -13 49 -33z" />
    <glyph glyph-name="hyphen" unicode="&#x2010;" horiz-adv-x="481" 
d="M444 393q0 -7 -19 -21q-11 -8 -24 -8q-8 0 -24.5 4t-26.5 4q-20 1 -55.5 6t-56.5 5q-30 0 -87 -19.5t-84 -19.5q-7 0 -29.5 10.5t-22.5 15.5q0 41 54 41q12 0 50 -2q43 -2 42 -2l92 18q58 11 76 11q29 0 66 -10q49 -13 49 -33z" />
    <glyph glyph-name="hyphen" unicode="&#x2010;" horiz-adv-x="481" 
d="M444 393q0 -7 -19 -21q-11 -8 -24 -8q-8 0 -24.5 4t-26.5 4q-20 1 -55.5 6t-56.5 5q-30 0 -87 -19.5t-84 -19.5q-7 0 -29.5 10.5t-22.5 15.5q0 41 54 41q12 0 50 -2q43 -2 42 -2l92 18q58 11 76 11q29 0 66 -10q49 -13 49 -33z" />
    <glyph glyph-name="period" unicode="." horiz-adv-x="172" 
d="M25 53q0 25 15 42.5t36 17.5q23 0 36.5 -20.5t13.5 -39.5q0 -26 -15 -43.5t-35 -17.5q-17 0 -25 6q-26 20 -26 55z" />
    <glyph glyph-name="slash" unicode="/" horiz-adv-x="452" 
d="M439 761q17 -9 17 -28q0 -22 -25 -62q-31 -49 -31 -50q-60 -152 -196 -403q-48 -89 -95 -224q-19 -53 -49 -53q-11 0 -22 29q0 33 23 72q21 32 43 64q46 76 99 187q45 96 89 192q49 103 59 173q17 122 64 112q13 -2 24 -9z" />
    <glyph glyph-name="zero" unicode="0" 
d="M424 484q0 -13 -31 -30q-13 -7 -25 -7q-18 0 -26 21q-8 22 6 34q9 7 24 7q32 0 42 -9t10 -16zM215 591q0 -13 -14.5 -21.5t-27.5 -8.5t-26 32q-12 29 -12 44q0 25 16 25q13 0 38.5 -29t25.5 -42zM415 341q-5 -12 -36 -12q-36 0 -36 37q0 26 29 26q10 0 25 -9.5t18 -23.5
q3 -11 0 -18zM318 399q0 -34 -14 -64q-18 -37 -48 -37q-114 0 -114 123q0 45 25.5 77.5t57.5 32.5q15 0 28 -7t29 -27q36 -43 36 -98zM111 487q0 -27 -15 -27q-9 0 -37 21.5t-28 32.5q0 26 23 26q18 0 37.5 -18t19.5 -35zM349 238q0 -26 -22 -26q-10 0 -23 16.5t-13 26.5
q0 12 9 24t20 12q10 0 19.5 -21t9.5 -32zM84 322q-26 0 -32 30q-3 16 15 31.5t28 15.5q15 0 25.5 -16.5t10.5 -36.5q1 -24 -47 -24z" />
    <glyph glyph-name="one" unicode="1" 
d="M424 484q0 -13 -31 -30q-13 -7 -25 -7q-18 0 -26 21q-8 22 6 34q9 7 24 7q32 0 42 -9t10 -16zM215 591q0 -13 -14.5 -21.5t-27.5 -8.5t-26 32q-12 29 -12 44q0 25 16 25q13 0 38.5 -29t25.5 -42zM415 341q-5 -12 -36 -12q-36 0 -36 37q0 26 29 26q10 0 25 -9.5t18 -23.5
q3 -11 0 -18zM318 399q0 -34 -14 -64q-18 -37 -48 -37q-114 0 -114 123q0 45 25.5 77.5t57.5 32.5q15 0 28 -7t29 -27q36 -43 36 -98zM111 487q0 -27 -15 -27q-9 0 -37 21.5t-28 32.5q0 26 23 26q18 0 37.5 -18t19.5 -35zM349 238q0 -26 -22 -26q-10 0 -23 16.5t-13 26.5
q0 12 9 24t20 12q10 0 19.5 -21t9.5 -32zM84 322q-26 0 -32 30q-3 16 15 31.5t28 15.5q15 0 25.5 -16.5t10.5 -36.5q1 -24 -47 -24z" />
    <glyph glyph-name="two" unicode="2" 
d="M424 484q0 -13 -31 -30q-13 -7 -25 -7q-18 0 -26 21q-8 22 6 34q9 7 24 7q32 0 42 -9t10 -16zM215 591q0 -13 -14.5 -21.5t-27.5 -8.5t-26 32q-12 29 -12 44q0 25 16 25q13 0 38.5 -29t25.5 -42zM415 341q-5 -12 -36 -12q-36 0 -36 37q0 26 29 26q10 0 25 -9.5t18 -23.5
q3 -11 0 -18zM318 399q0 -34 -14 -64q-18 -37 -48 -37q-114 0 -114 123q0 45 25.5 77.5t57.5 32.5q15 0 28 -7t29 -27q36 -43 36 -98zM111 487q0 -27 -15 -27q-9 0 -37 21.5t-28 32.5q0 26 23 26q18 0 37.5 -18t19.5 -35zM349 238q0 -26 -22 -26q-10 0 -23 16.5t-13 26.5
q0 12 9 24t20 12q10 0 19.5 -21t9.5 -32zM84 322q-26 0 -32 30q-3 16 15 31.5t28 15.5q15 0 25.5 -16.5t10.5 -36.5q1 -24 -47 -24z" />
    <glyph glyph-name="three" unicode="3" 
d="M424 484q0 -13 -31 -30q-13 -7 -25 -7q-18 0 -26 21q-8 22 6 34q9 7 24 7q32 0 42 -9t10 -16zM215 591q0 -13 -14.5 -21.5t-27.5 -8.5t-26 32q-12 29 -12 44q0 25 16 25q13 0 38.5 -29t25.5 -42zM415 341q-5 -12 -36 -12q-36 0 -36 37q0 26 29 26q10 0 25 -9.5t18 -23.5
q3 -11 0 -18zM318 399q0 -34 -14 -64q-18 -37 -48 -37q-114 0 -114 123q0 45 25.5 77.5t57.5 32.5q15 0 28 -7t29 -27q36 -43 36 -98zM111 487q0 -27 -15 -27q-9 0 -37 21.5t-28 32.5q0 26 23 26q18 0 37.5 -18t19.5 -35zM349 238q0 -26 -22 -26q-10 0 -23 16.5t-13 26.5
q0 12 9 24t20 12q10 0 19.5 -21t9.5 -32zM84 322q-26 0 -32 30q-3 16 15 31.5t28 15.5q15 0 25.5 -16.5t10.5 -36.5q1 -24 -47 -24z" />
    <glyph glyph-name="four" unicode="4" 
d="M424 484q0 -13 -31 -30q-13 -7 -25 -7q-18 0 -26 21q-8 22 6 34q9 7 24 7q32 0 42 -9t10 -16zM215 591q0 -13 -14.5 -21.5t-27.5 -8.5t-26 32q-12 29 -12 44q0 25 16 25q13 0 38.5 -29t25.5 -42zM415 341q-5 -12 -36 -12q-36 0 -36 37q0 26 29 26q10 0 25 -9.5t18 -23.5
q3 -11 0 -18zM318 399q0 -34 -14 -64q-18 -37 -48 -37q-114 0 -114 123q0 45 25.5 77.5t57.5 32.5q15 0 28 -7t29 -27q36 -43 36 -98zM111 487q0 -27 -15 -27q-9 0 -37 21.5t-28 32.5q0 26 23 26q18 0 37.5 -18t19.5 -35zM349 238q0 -26 -22 -26q-10 0 -23 16.5t-13 26.5
q0 12 9 24t20 12q10 0 19.5 -21t9.5 -32zM84 322q-26 0 -32 30q-3 16 15 31.5t28 15.5q15 0 25.5 -16.5t10.5 -36.5q1 -24 -47 -24z" />
    <glyph glyph-name="five" unicode="5" 
d="M424 484q0 -13 -31 -30q-13 -7 -25 -7q-18 0 -26 21q-8 22 6 34q9 7 24 7q32 0 42 -9t10 -16zM215 591q0 -13 -14.5 -21.5t-27.5 -8.5t-26 32q-12 29 -12 44q0 25 16 25q13 0 38.5 -29t25.5 -42zM415 341q-5 -12 -36 -12q-36 0 -36 37q0 26 29 26q10 0 25 -9.5t18 -23.5
q3 -11 0 -18zM318 399q0 -34 -14 -64q-18 -37 -48 -37q-114 0 -114 123q0 45 25.5 77.5t57.5 32.5q15 0 28 -7t29 -27q36 -43 36 -98zM111 487q0 -27 -15 -27q-9 0 -37 21.5t-28 32.5q0 26 23 26q18 0 37.5 -18t19.5 -35zM349 238q0 -26 -22 -26q-10 0 -23 16.5t-13 26.5
q0 12 9 24t20 12q10 0 19.5 -21t9.5 -32zM84 322q-26 0 -32 30q-3 16 15 31.5t28 15.5q15 0 25.5 -16.5t10.5 -36.5q1 -24 -47 -24z" />
    <glyph glyph-name="six" unicode="6" 
d="M424 484q0 -13 -31 -30q-13 -7 -25 -7q-18 0 -26 21q-8 22 6 34q9 7 24 7q32 0 42 -9t10 -16zM215 591q0 -13 -14.5 -21.5t-27.5 -8.5t-26 32q-12 29 -12 44q0 25 16 25q13 0 38.5 -29t25.5 -42zM415 341q-5 -12 -36 -12q-36 0 -36 37q0 26 29 26q10 0 25 -9.5t18 -23.5
q3 -11 0 -18zM318 399q0 -34 -14 -64q-18 -37 -48 -37q-114 0 -114 123q0 45 25.5 77.5t57.5 32.5q15 0 28 -7t29 -27q36 -43 36 -98zM111 487q0 -27 -15 -27q-9 0 -37 21.5t-28 32.5q0 26 23 26q18 0 37.5 -18t19.5 -35zM349 238q0 -26 -22 -26q-10 0 -23 16.5t-13 26.5
q0 12 9 24t20 12q10 0 19.5 -21t9.5 -32zM84 322q-26 0 -32 30q-3 16 15 31.5t28 15.5q15 0 25.5 -16.5t10.5 -36.5q1 -24 -47 -24z" />
    <glyph glyph-name="seven" unicode="7" 
d="M424 484q0 -13 -31 -30q-13 -7 -25 -7q-18 0 -26 21q-8 22 6 34q9 7 24 7q32 0 42 -9t10 -16zM215 591q0 -13 -14.5 -21.5t-27.5 -8.5t-26 32q-12 29 -12 44q0 25 16 25q13 0 38.5 -29t25.5 -42zM415 341q-5 -12 -36 -12q-36 0 -36 37q0 26 29 26q10 0 25 -9.5t18 -23.5
q3 -11 0 -18zM318 399q0 -34 -14 -64q-18 -37 -48 -37q-114 0 -114 123q0 45 25.5 77.5t57.5 32.5q15 0 28 -7t29 -27q36 -43 36 -98zM111 487q0 -27 -15 -27q-9 0 -37 21.5t-28 32.5q0 26 23 26q18 0 37.5 -18t19.5 -35zM349 238q0 -26 -22 -26q-10 0 -23 16.5t-13 26.5
q0 12 9 24t20 12q10 0 19.5 -21t9.5 -32zM84 322q-26 0 -32 30q-3 16 15 31.5t28 15.5q15 0 25.5 -16.5t10.5 -36.5q1 -24 -47 -24z" />
    <glyph glyph-name="eight" unicode="8" 
d="M424 484q0 -13 -31 -30q-13 -7 -25 -7q-18 0 -26 21q-8 22 6 34q9 7 24 7q32 0 42 -9t10 -16zM215 591q0 -13 -14.5 -21.5t-27.5 -8.5t-26 32q-12 29 -12 44q0 25 16 25q13 0 38.5 -29t25.5 -42zM415 341q-5 -12 -36 -12q-36 0 -36 37q0 26 29 26q10 0 25 -9.5t18 -23.5
q3 -11 0 -18zM318 399q0 -34 -14 -64q-18 -37 -48 -37q-114 0 -114 123q0 45 25.5 77.5t57.5 32.5q15 0 28 -7t29 -27q36 -43 36 -98zM111 487q0 -27 -15 -27q-9 0 -37 21.5t-28 32.5q0 26 23 26q18 0 37.5 -18t19.5 -35zM349 238q0 -26 -22 -26q-10 0 -23 16.5t-13 26.5
q0 12 9 24t20 12q10 0 19.5 -21t9.5 -32zM84 322q-26 0 -32 30q-3 16 15 31.5t28 15.5q15 0 25.5 -16.5t10.5 -36.5q1 -24 -47 -24z" />
    <glyph glyph-name="nine" unicode="9" 
d="M424 484q0 -13 -31 -30q-13 -7 -25 -7q-18 0 -26 21q-8 22 6 34q9 7 24 7q32 0 42 -9t10 -16zM215 591q0 -13 -14.5 -21.5t-27.5 -8.5t-26 32q-12 29 -12 44q0 25 16 25q13 0 38.5 -29t25.5 -42zM415 341q-5 -12 -36 -12q-36 0 -36 37q0 26 29 26q10 0 25 -9.5t18 -23.5
q3 -11 0 -18zM318 399q0 -34 -14 -64q-18 -37 -48 -37q-114 0 -114 123q0 45 25.5 77.5t57.5 32.5q15 0 28 -7t29 -27q36 -43 36 -98zM111 487q0 -27 -15 -27q-9 0 -37 21.5t-28 32.5q0 26 23 26q18 0 37.5 -18t19.5 -35zM349 238q0 -26 -22 -26q-10 0 -23 16.5t-13 26.5
q0 12 9 24t20 12q10 0 19.5 -21t9.5 -32zM84 322q-26 0 -32 30q-3 16 15 31.5t28 15.5q15 0 25.5 -16.5t10.5 -36.5q1 -24 -47 -24z" />
    <glyph glyph-name="colon" unicode=":" horiz-adv-x="172" 
d="M25 53q0 25 15 42.5t36 17.5q23 0 36.5 -20.5t13.5 -39.5q0 -26 -15 -43.5t-35 -17.5q-17 0 -25 6q-26 20 -26 55zM34 387q0 25 15 42.5t36 17.5q23 0 36.5 -20.5t13.5 -39.5q0 -26 -15 -43.5t-35 -17.5q-17 0 -25 6q-26 20 -26 55z" />
    <glyph glyph-name="semicolon" unicode=";" horiz-adv-x="149" 
d="M110 50q0 -21 -8 -52q-11 -40 -27 -40t-12 26t-1 29q0 1 -12 6.5t-13 13.5q-3 12 -11 46q-4 16 15 27q16 10 35 10q16 0 26 -26q8 -20 8 -40zM25 384q0 25 15 42.5t36 17.5q23 0 36.5 -20.5t13.5 -39.5q0 -26 -15 -43.5t-35 -17.5q-17 0 -25 6q-26 20 -26 55z" />
    <glyph glyph-name="less" unicode="&#x3c;" horiz-adv-x="227" 
d="M239 756q0 -16 -25 -54q-29 -40 -57 -81q-36 -55 -37 -100q-4 -30 -11 -90q-19 -155 -19 -178q0 3 4 -38.5t3 -63.5q-3 -40 43.5 -108.5t46.5 -98.5q0 -12 -9 -24t-22 -12q-54 0 -80 133q-18 86 -18 160q0 75 12.5 201.5t27.5 209.5q7 19 18 53q4 14 34 61q36 56 53 56
q12 0 24 -7.5t12 -18.5z" />
    <glyph glyph-name="equal" unicode="=" 
d="M439 318q0 -7 -19 -21q-11 -8 -24 -8q-8 0 -24.5 4t-26.5 4q-20 1 -55.5 6t-56.5 5q-30 0 -87 -19.5t-84 -19.5q-7 0 -29.5 10.5t-22.5 15.5q0 41 54 41q12 0 50 -2q43 -2 42 -2l92 18q58 11 76 11q29 0 66 -10q49 -13 49 -33zM444 467q0 -7 -19 -21q-11 -8 -24 -8
q-8 0 -24.5 4t-26.5 4q-20 1 -55.5 6t-56.5 5q-30 0 -87 -19.5t-84 -19.5q-7 0 -29.5 10.5t-22.5 15.5q0 41 54 41q12 0 50 -2q43 -2 42 -2l92 18q58 11 76 11q29 0 66 -10q49 -13 49 -33z" />
    <glyph glyph-name="greater" unicode="&#x3e;" horiz-adv-x="233" 
d="M204 487q0 -75 -12.5 -201.5t-27.5 -209.5q-7 -19 -18 -53q-4 -14 -34 -61q-36 -56 -53 -56q-12 0 -24 8t-12 18q0 16 25 54q29 40 57 81q36 55 37 100q4 31 11 90q19 155 19 178q0 -3 -4 39t-3 63q3 40 -43.5 108.5t-46.5 98.5q0 13 9 24.5t22 11.5q54 0 80 -133
q18 -85 18 -160z" />
    <glyph glyph-name="question" unicode="?" horiz-adv-x="366" 
d="M346 622q0 -55 -35 -130q-7 -16 -65 -122q-34 -64 -34 -92q0 -10 3 -30t3 -30q0 -83 -39 -83q-36 0 -36 47q0 41 70.5 207.5t70.5 231.5q0 127 -76 127q-45 0 -87 -31q-45 -33 -45 -76q0 -45 24 -75q9 -11 46 -40q24 -19 24 -37q0 -17 -11.5 -28.5t-28.5 -11.5
q-39 0 -68 67q-23 55 -23 103q0 63 53 118.5t116 55.5q60 0 101 -58q37 -52 37 -113zM187 54q0 -41 -33 -48q-11 -2 -20 0q-28 8 -28 41q0 20 14 38t31 18q16 0 26 -16t10 -33z" />
    <glyph glyph-name="at" unicode="@" 
d="M424 484q0 -13 -31 -30q-13 -7 -25 -7q-18 0 -26 21q-8 22 6 34q9 7 24 7q32 0 42 -9t10 -16zM215 591q0 -13 -14.5 -21.5t-27.5 -8.5t-26 32q-12 29 -12 44q0 25 16 25q13 0 38.5 -29t25.5 -42zM415 341q-5 -12 -36 -12q-36 0 -36 37q0 26 29 26q10 0 25 -9.5t18 -23.5
q3 -11 0 -18zM318 399q0 -34 -14 -64q-18 -37 -48 -37q-114 0 -114 123q0 45 25.5 77.5t57.5 32.5q15 0 28 -7t29 -27q36 -43 36 -98zM111 487q0 -27 -15 -27q-9 0 -37 21.5t-28 32.5q0 26 23 26q18 0 37.5 -18t19.5 -35zM349 238q0 -26 -22 -26q-10 0 -23 16.5t-13 26.5
q0 12 9 24t20 12q10 0 19.5 -21t9.5 -32zM84 322q-26 0 -32 30q-3 16 15 31.5t28 15.5q15 0 25.5 -16.5t10.5 -36.5q1 -24 -47 -24z" />
    <glyph glyph-name="A" unicode="A" horiz-adv-x="492" 
d="M468 50q0 -32 -69 -32q-18 0 -44 35q-20 27 -31 53q-34 -2 -52 1q-117 24 -118 112q-2 111 119 183q-7 27 -59 165q-53 143 -57 138q-14 -16 -44.5 -28.5t-51.5 -12.5q-8 0 -12 2q-29 12 -29 29q0 56 77 76q8 3 47 3q63 0 113 -155q16 -49 49 -206q28 -133 36 -162
q33 -122 67 -145q4 -3 25 -12q16 -6 23 -16q10 -15 11 -28zM316 146l-35 206q-40 -37 -40 -97q0 -104 75 -109z" />
    <glyph glyph-name="B" unicode="B" horiz-adv-x="331" 
d="M298 176q-8 -70 -80 -104q-14 -7 -39 -11q-12 -2 -25 -4l-4 -48q-6 -27 -30 -27q-5 0 -11 1q-17 3 -17 26q0 21 12.5 53t13.5 55q1 21 -1 310q-1 65 -23 136q-18 48 -36 97.5t-18 89.5q0 39 17 39q16 0 38 -42q17 -33 24 -57q18 -65 27 -150q4 -38 21 -174
q29 -21 57 -42.5t45 -51.5q33 -58 29 -96zM240 171q0 42 -14 83q-18 56 -50 56q-3 0 -15 -10q1 -40 1 -131l-2 -69q25 0 38 6q42 18 42 65z" />
    <glyph glyph-name="C" unicode="C" horiz-adv-x="426" 
d="M398 536q0 -18 -49 -48q-66 -40 -85 -58l-100 -80q-53 -45 -73 -101q-11 -33 -14 -64q-1 -14 13 -36q25 -41 91 -41q25 0 53 32.5t41 32.5q8 0 15 -5q21 -14 27 -34q2 -6 2 -12q0 -36 -92 -62q-36 -9 -75 0q-106 27 -113 117q-3 37 25 104q19 46 71 100q50 51 101 101
l68 76q38 40 46 40q20 0 34 -20.5t14 -41.5z" />
    <glyph glyph-name="D" unicode="D" horiz-adv-x="365" 
d="M329 738q0 -33 -39 -93q-26 -37 -51 -74q-25 -49 -41 -155q-2 -10 -8 -143q-4 -70 -4 -116q0 -112 5 -139q4 -15 12 -50l9 -28q4 -15 4 -29q-2 -29 -31 -29q-28 0 -28 62v17q1 12 1 17q0 30 -10 30q-3 0 -9 -4q-61 17 -83 56q-16 29 -18 90q-1 33 8 55q11 29 38 47
q7 5 58 30q3 48 18 157q35 178 49 226q36 120 84 120q17 0 28 -18q8 -15 8 -29zM149 41q-6 178 -6 191q-12 -9 -33 -33q-20 -31 -13 -76q11 -69 52 -82z" />
    <glyph glyph-name="E" unicode="E" horiz-adv-x="317" 
d="M299 237q-5 -7 -26 -16q-8 -3 -55 -6q-20 -1 -94 3q-16 1 -16 -21q0 -124 56 -121q23 1 32 27q15 42 17 45q11 14 29 14q10 0 19.5 -7t9.5 -16q0 -42 -35.5 -72t-83.5 -29q-66 1 -86 76q-8 32 -8 116q0 62 8 84q15 41 43 74q36 43 75 43q82 0 114 -108q6 -19 4 -47
q-3 -46 -3 -39zM228 306q-10 61 -50 61q-37 0 -58 -42q-16 -33 -16 -71q34 4 45 1q14 -5 20 -5l50 2q3 2 7.5 21t1.5 33z" />
    <glyph glyph-name="F" unicode="F" horiz-adv-x="380" 
d="M346 687q0 -17 -29 -29q-9 -3 -18 -3q-21 0 -32 21q-4 9 -12 39q-35 -61 -53 -131q-10 -39 -26 -140q10 0 72 12q31 6 64 6q12 0 12 -20q0 -22 -16 -27.5t-30 -5.5q-13 1 -26 1h-49q-12 -1 -35 -3q-2 -26 -6 -77q-10 -71 -19 -143q-10 -80 -10 -146q0 -26 -2 -30
q-9 -16 -30 -16q-20 0 -20 17q0 84 49 391l-8 2l-32 -22q-19 -11 -33 -8q-6 2 -12 13t-6 23q0 11 6.5 16.5t17.5 4.5q17 -2 20 -2q25 1 54 9q6 13 21 105q16 100 32 147q25 74 60 74q28 0 62 -26t34 -52z" />
    <glyph glyph-name="G" unicode="G" horiz-adv-x="645" 
d="M604 721q0 -26 -47 -63q-31 -22 -62 -43q-68 -47 -79 -125q-6 -44 -6 -140v-36q0 -190 -31 -271q-50 -130 -198 -130q-38 0 -94 33q-61 37 -61 72q0 49 60 49q26 0 41 -28q12 -25 24 -51q16 -28 47 -28q97 0 134 82q27 58 26 170v18q-52 -11 -56 -11q-119 0 -119 171
q0 53 38 87.5t91 34.5q25 0 52 -23q22 61 27 73q16 36 43 65q16 17 38 58q21 37 37 52q25 22 65 22q8 0 19 -15t11 -23zM366 310q0 5 1 24v32q0 97 -36 97q-75 0 -75 -105q0 -31 9 -59q13 -40 37 -40q34 0 47 8q17 11 17 43z" />
    <glyph glyph-name="H" unicode="H" horiz-adv-x="363" 
d="M340 29q0 -26 -25 -26q-23 0 -45.5 20t-34.5 52q-9 23 -20 74q-13 59 -18 77q-14 46 -42 74q-6 -9 -6 -30q0 -18 3 -55.5t3 -56.5q0 -36 -8 -70q-12 -49 -34 -49q-12 0 -21.5 14t-9.5 26q0 40 10 117.5t10 119.5q0 212 -31 327q-5 18 -26 55q-18 30 -18 50q0 26 26 26
q62 0 66 -39q0 -32 4 -105q3 -38 12 -88q11 -63 14 -79q0 -25 5 -75q2 -13 28 -31t32 -34l40 -122q24 -66 59 -115q27 -37 27 -57z" />
    <glyph glyph-name="I" unicode="I" horiz-adv-x="195" 
d="M130 755q0 -11 -15.5 -35.5t-24.5 -24.5q-35 0 -35 44q0 22 16 37t40 15q4 0 11.5 -15t7.5 -21zM175 547q-7 -161 -7 -218q0 -118 -34 -209q-58 -150 -89 -150q-19 0 -19 21q0 2 16 34.5t20 47.5q18 66 36 131q20 79 20 132q0 80 -37 190q-8 24 -8 53q0 19 9 38
q11 25 29 25q30 0 48 -29.5t16 -65.5z" />
    <glyph glyph-name="J" unicode="J" horiz-adv-x="339" 
d="M192 774q0 -11 -18.5 -29.5t-29.5 -18.5q-8 0 -18.5 7t-10.5 14q0 21 22 37q20 13 42 13q13 0 13 -23zM296 128q0 -91 -36 -158q-45 -83 -127 -83q-47 0 -79 41q-28 38 -28 86q0 68 27 68q42 1 42 -41q0 -20 -13 -45.5l-13 -25.5q0 -19 17 -29.5t37 -10.5q66 0 100 64
q27 51 27 122q0 124 -65 315q-6 16 -52 107q-35 69 -35 107q0 23 13 41.5t34 18.5q11 0 29 -15q23 -19 27 -48q7 -64 32 -208q20 -75 40 -151q23 -89 23 -155z" />
    <glyph glyph-name="K" unicode="K" horiz-adv-x="309" 
d="M290 462q-3 -22 -26 -40l-52 -36q-84 -63 -84 -87t37.5 -83.5t60.5 -71.5q15 -9 33 -35.5t18 -43.5q0 -12 -12 -26t-26 -12q-7 1 -22 25t-29 47q-56 85 -89 139l-4 2q0 -8 0.5 -28t3.5 -66q1 -7 5 -22.5t4 -42.5l1 -23q1 -15 -1 -24q-3 -13 -11 -21q-18 -18 -32 -17
q-29 2 -29 31q0 25 13 100q7 44 9 98q2 38 0 99q-2 78 -2 99q0 64 -12 190q-2 20 -18 62q-15 38 -15 63q0 18 13 34.5t30 16.5q46 0 46 -264q0 -127 -1 -91q2 -78 16 -79q27 22 81 82q11 13 29 49q12 26 25 26q16 0 29.5 -17t10.5 -33z" />
    <glyph glyph-name="L" unicode="L" horiz-adv-x="285" 
d="M242 156q4 -46 -8 -91q-13 -50 -39 -50q-8 0 -17 5q-32 20 -32 57q0 19 12.5 60.5t14.5 66.5q3 42 3 68q0 76 -26 152q-16 53 -31 106q-15 43 -69 119q-7 11 -14.5 38t-7.5 45q4 50 22 50q45 0 69 -43q18 -32 30 -75q16 -60 35 -148q27 -129 33 -163q13 -72 25 -197z" />
    <glyph glyph-name="M" unicode="M" horiz-adv-x="596" 
d="M550 35q0 -11 -11 -20.5t-22 -9.5q-19 0 -39.5 28t-20.5 49q0 51 14.5 149t14.5 150q0 65 -2 77q-10 43 -50 43q-15 0 -30 -13.5t-15 -28.5q0 -9 2 -25.5t2 -25.5q0 -64 -33 -64q-7 0 -20 9.5t-13 17.5q1 18 12 47t11 44q0 60 -35 70q-8 2 -14 2q-21 0 -46 -27t-31 -54
q-4 -16 -4 -61q0 -104 22 -276q3 -19 -10 -56q-14 -42 -33 -42q-9 0 -18 12.5t-9 20.5q0 20 11.5 59.5t11.5 59.5q0 90 -21 236q-26 177 -63 247q-6 11 -48 50q-36 33 -36 54q0 32 37 32q49 0 88 -91q23 -53 48 -165l11 -7q38 35 41 37q23 17 51 17q52 0 73 -59l28 24
q18 12 34 12q48 0 77 -58q24 -48 24 -102q0 -45 -17 -129t-17 -127q0 -39 22.5 -71t22.5 -35z" />
    <glyph glyph-name="N" unicode="N" horiz-adv-x="449" 
d="M411 109q0 -38 -43 -38q-10 0 -31 11q-24 13 -38 28q-25 27 -31 59q-3 16 -3 77q0 40 16.5 118.5t16.5 116.5q0 78 -63 78q-48 0 -65 -48q0 -1 -16 -85q0 3 0 -43q0 -21 3.5 -56t3.5 -55q0 -4 1 -28t1 -41q0 -26 -2 -48q-10 -83 -14 -97q-14 -50 -51 -50q-14 0 -22 15
t-8 30q0 26 14 67q17 51 20 66q10 52 10 145q0 187 -36 327q-4 14 -29 47q-21 28 -21 49q0 25 22 25q46 0 68 -106q10 -72 19 -144q75 98 157 98q61 0 61 -108q0 -50 -22 -146.5t-22 -145.5q0 -44 12 -60q10 -12 32 -13q-7 0 29 1q18 1 24.5 -6t6.5 -40z" />
    <glyph glyph-name="O" unicode="O" horiz-adv-x="360" 
d="M305 278q0 -102 -39 -166q-47 -76 -142 -76q-40 0 -62 45q-17 36 -17 81q0 79 33 169q41 114 104 114q62 0 95 -56q28 -46 28 -111zM222 276q0 29 -13 58q-16 37 -42 37q-29 0 -51 -83q-17 -65 -17 -109q0 -100 37 -100q86 0 86 197z" />
    <glyph glyph-name="P" unicode="P" horiz-adv-x="302" 
d="M284 248q0 -45 -29.5 -80t-73.5 -36q-11 0 -31 4q-2 -19 0 -29q2 -15 2 -29q0 -30 -1 -89v-89q0 -33 -5 -44q-8 -19 -34 -20q-21 18 -21 39q0 12 7.5 31.5t8.5 29.5q5 23 4 50q-1 47 -1 51.5t-2 70.5q-1 38 5 77q5 32 8 96q3 80 5 102q4 53 -17 102q-49 116 -49 205
q0 20 23 20q38 0 71 -118q22 -78 32 -156q1 -10 -2 -36q-4 -29 -4 -36q45 -8 74.5 -40t29.5 -76zM178 331q-22 -131 -22 -142q0 -6 21 -9q24 -4 38.5 19t14.5 53q0 53 -52 79z" />
    <glyph glyph-name="Q" unicode="Q" horiz-adv-x="380" 
d="M355 753q-1 -41 -37 -81l-62 -60q-76 -84 -73 -215q2 -84 9 -276q5 -95 22 -140q29 49 56 49q9 0 15 -7q14 -13 14 -44q0 -30 -21.5 -52.5t-50.5 -22.5q-38 0 -55 53q-15 46 -20 138l-6 112q-12 -7 -39 -5q-84 7 -84 91q0 55 21 92q25 44 70 45q21 0 25 11q10 22 26 79
q25 87 30 103q23 74 56 120q40 54 80 48q25 -3 24 -38zM146 250q-12 58 -12 154q-4 3 -22 -3q-30 -10 -35 -68q-7 -86 39 -89q15 -1 30 6z" />
    <glyph glyph-name="R" unicode="R" horiz-adv-x="463" 
d="M442 392q0 -8 -8.5 -19.5t-16.5 -11.5q-31 0 -54 29q-7 7 -35 55q-33 56 -86 56q-52 0 -52 -50q0 -14 3.5 -40t3.5 -40q0 -140 -2 -172q-6 -100 -35 -162q-6 -12 -24 -10q-15 1 -21 37q-1 12 14 51q23 56 28 110q2 20 2 96q0 71 -21 160q-2 33 -15 93q-21 44 -41 87
q-22 49 -22 88q0 10 6.5 23t15.5 13q44 0 70 -95q11 -37 19.5 -99t9.5 -69q45 28 64 28q27 0 59 -17q11 -5 47 -60q13 -19 43.5 -34t39 -25t8.5 -22z" />
    <glyph glyph-name="S" unicode="S" horiz-adv-x="406" 
d="M382 770q0 -30 -69 -87q-92 -75 -129 -125q-69 -95 -69 -217q0 -43 5 -58q9 -29 42 -29q23 0 72 20.5t72 20.5q36 0 36 -45q0 -96 -93.5 -183.5t-189.5 -87.5q-8 0 -18 13.5t-10 21.5q0 41 49 61q12 5 98 26q62 14 81 38q6 8 20 37.5t14 37.5q0 21 -17 21
q-21 0 -65.5 -14.5t-65.5 -14.5q-39 0 -57 52q-13 37 -13 87q0 111 19 161q28 74 105 174q91 117 149 117q9 0 21.5 -9t12.5 -18z" />
    <glyph glyph-name="T" unicode="T" horiz-adv-x="279" 
d="M248 331q-9 -25 -43 -41q-26 -10 -51 -20q0 -27 9 -69q8 -34 16 -69q3 -19 21.5 -44.5t18.5 -37.5q0 -5 -15 -18.5t-21 -13.5q-11 0 -25.5 13t-17.5 29q-17 82 -31 197q-17 -11 -33 -22q-21 -12 -46 -9q-11 2 1 29q9 19 38 28q35 10 43 19q10 10 -5 256q-3 52 -20 84
q-2 4 -29 38q-14 18 -11 40q1 8 9.5 21t16.5 13q15 0 40.5 -29.5t29.5 -45.5q15 -63 15 -140q2 -133 2 -137q-1 9 -2 -43q-1 -35 6 -38q3 -1 42 23q2 1 12 11t16 10q10 0 14 -13q4 -12 0 -21z" />
    <glyph glyph-name="U" unicode="U" horiz-adv-x="449" 
d="M418 -6q0 -11 -12 -26.5t-23 -15.5q-53 0 -104 181q-14 -7 -51 -43q-27 -27 -56 -27q-52 0 -90 43q-23 26 -37 93q-12 56 -12 106q0 83 25 83q32 0 32 -51q0 -16 -6 -49.5t-6 -50.5q0 -126 92 -126q55 0 88 75q29 64 26 132q0 45 -7 134q-4 20 -23 86q-15 52 -15 89
q0 60 37 60q26 0 40 -70q10 -49 10 -93q0 -45 -7 -143q-6 -93 -5 -156q1 -84 28 -131q12 -21 49 -52q27 -22 27 -48z" />
    <glyph glyph-name="V" unicode="V" horiz-adv-x="547" 
d="M517 728q0 -17 -15 -55q-9 -23 -34 -62q-27 -42 -36 -62q-5 -12 -112 -277q-46 -114 -52 -126q-45 -100 -66 -100q-29 0 -131 263q-2 6 -29 59q-14 27 -13 55q-1 6 1 18q9 14 17 12q41 -5 60 -113q10 -54 40 -123l56 -116l6 5q15 40 98 231q63 143 90 235q7 24 21 96
q7 33 26 60q23 32 53 32q7 0 13.5 -12t6.5 -20z" />
    <glyph glyph-name="W" unicode="W" horiz-adv-x="544" 
d="M509 364q0 -119 -23 -206q-37 -140 -127 -157q-16 -3 -49 11q-45 19 -59 47q-18 -13 -36 -24.5t-44 -11.5q-20 0 -53 28q-36 30 -58 68q-40 67 -40 179q0 32 9 68q13 50 33 50q34 0 45 -36q8 -26 -5 -39q-21 -22 -27 -50q-4 -18 -4 -60q0 -60 34 -109t82 -49q24 0 47 35
q10 15 21 31q7 7 29 10q8 0 8 -6q0 -3 -3.5 -17t-3.5 -23q0 -20 20 -35.5t43 -11.5q74 11 96 159q9 62 9 200q0 100 -7 148q-5 33 -47 87q-40 50 -40 88q0 45 46 44q51 -31 81 -194q23 -122 23 -224z" />
    <glyph glyph-name="X" unicode="X" horiz-adv-x="411" 
d="M387 66q0 -45 -26 -45q-38 0 -97 89q-21 29 -56 82q-40 -39 -80 -79q-58 -57 -83 -63q-27 3 -27 29q0 27 12 38q8 7 28.5 12t29.5 11q92 73 92 103q0 14 -32 49.5t-57 47.5q-19 2 -55 19q-23 21 -21 34q2 24 45 29q20 2 35 -10q3 -3 31 -34q31 -42 76 -101q86 106 86 232
q0 53 -30.5 96.5t-30.5 67.5t9 32t33 8q44 -40 60 -141q5 -34 0 -90q-6 -65 -51 -161.5t-45 -88.5q0 -29 75 -90q27 -21 53 -42.5t26 -33.5z" />
    <glyph glyph-name="Y" unicode="Y" horiz-adv-x="544" 
d="M513 677q0 -51 -27 -165q-16 -67 -32 -133q-6 -39 -12 -73q-17 -109 -35 -217q-20 -115 -47 -160q-20 -34 -46 -54q-19 -15 -61 -35q-6 -3 -16 -6q-41 -12 -91 4q-114 36 -114 119q0 32 28 32q13 0 47.5 -54t69.5 -62q12 -3 55 -3q59 0 105 91q41 79 40 144
q-25 -15 -51 -15q-70 0 -131 95q-56 85 -56 159q0 24 7 46q9 28 25 28q5 0 10 -3q32 -17 32 -72v-23q-1 -15 -1 -24q0 -23 3 -41q11 -63 59 -96q31 -22 59 -22q39 0 52 62q14 76 21 220q8 152 19 221q2 11 23 45t29 34q15 0 25.5 -13t10.5 -29z" />
    <glyph glyph-name="Z" unicode="Z" horiz-adv-x="651" 
d="M618 110q0 -69 -147 -69q-26 0 -78 16t-77 16q-55 0 -130 -16q-6 -1 -30.5 -10t-30.5 -9q-14 0 -15 18q37 24 117.5 54.5t117.5 55.5q2 1 63 31q52 24 52 32q0 6 -55 47q-34 25 -67 50q-67 62 -206 175q-29 16 -70 49q-10 12 -20 25t-10 25q0 18 13.5 31.5t31.5 13.5
q10 0 43 -22q20 -13 35 -45q18 -38 23 -44q43 -51 79.5 -82t73.5 -62q83 -72 140 -111q16 -8 33 -15q25 -13 25 -23q0 -16 -54 -50q-82 -51 -160 -82q83 -18 152 -18q12 0 48.5 30t59.5 30q15 0 29 -12.5t14 -28.5z" />
    <glyph glyph-name="bracketleft" unicode="[" horiz-adv-x="227" 
d="M239 756q0 -16 -25 -54q-29 -40 -57 -81q-36 -55 -37 -100q-4 -30 -11 -90q-19 -155 -19 -178q0 3 4 -38.5t3 -63.5q-3 -40 43.5 -108.5t46.5 -98.5q0 -12 -9 -24t-22 -12q-54 0 -80 133q-18 86 -18 160q0 75 12.5 201.5t27.5 209.5q7 19 18 53q4 14 34 61q36 56 53 56
q12 0 24 -7.5t12 -18.5z" />
    <glyph glyph-name="backslash" unicode="\" horiz-adv-x="452" 
d="M426 -11q-15 -26 -27 -26q-30 0 -49 53q-46 135 -94 224q-65 118 -94 176q-61 121 -102 227q-1 1 -31 50q-25 40 -25 62q0 19 16 28q12 7 25 9q47 9 64 -112q10 -70 58 -173l90 -192q53 -111 99 -187q1 -2 46 -57q29 -36 29 -60q0 -11 -5 -22z" />
    <glyph glyph-name="bracketright" unicode="]" horiz-adv-x="233" 
d="M204 487q0 -75 -12.5 -201.5t-27.5 -209.5q-7 -19 -18 -53q-4 -14 -34 -61q-36 -56 -53 -56q-12 0 -24 8t-12 18q0 16 25 54q29 40 57 81q36 55 37 100q4 31 11 90q19 155 19 178q0 -3 -4 39t-3 63q3 40 -43.5 108.5t-46.5 98.5q0 13 9 24.5t22 11.5q54 0 80 -133
q18 -85 18 -160z" />
    <glyph glyph-name="asciicircum" unicode="^" 
d="M424 484q0 -13 -31 -30q-13 -7 -25 -7q-18 0 -26 21q-8 22 6 34q9 7 24 7q32 0 42 -9t10 -16zM215 591q0 -13 -14.5 -21.5t-27.5 -8.5t-26 32q-12 29 -12 44q0 25 16 25q13 0 38.5 -29t25.5 -42zM415 341q-5 -12 -36 -12q-36 0 -36 37q0 26 29 26q10 0 25 -9.5t18 -23.5
q3 -11 0 -18zM318 399q0 -34 -14 -64q-18 -37 -48 -37q-114 0 -114 123q0 45 25.5 77.5t57.5 32.5q15 0 28 -7t29 -27q36 -43 36 -98zM111 487q0 -27 -15 -27q-9 0 -37 21.5t-28 32.5q0 26 23 26q18 0 37.5 -18t19.5 -35zM349 238q0 -26 -22 -26q-10 0 -23 16.5t-13 26.5
q0 12 9 24t20 12q10 0 19.5 -21t9.5 -32zM84 322q-26 0 -32 30q-3 16 15 31.5t28 15.5q15 0 25.5 -16.5t10.5 -36.5q1 -24 -47 -24z" />
    <glyph glyph-name="underscore" unicode="_" horiz-adv-x="481" 
d="M456 65q0 -7 -19 -21q-11 -8 -24 -8q-8 0 -24.5 4t-26.5 4q-20 1 -55.5 6t-56.5 5q-30 0 -87 -19.5t-84 -19.5q-7 0 -29.5 10.5t-22.5 15.5q0 41 54 41q12 0 50 -2q43 -2 42 -2l92 18q58 11 76 11q29 0 66 -10q49 -13 49 -33z" />
    <glyph glyph-name="grave" unicode="`" horiz-adv-x="465" 
d="M442 77h-418v577h418v-577zM422 97v537h-378v-537h378zM333 495q0 -30 -29 -30q-30 0 -30 42q0 47 30 47q7 0 27 -11l-3 -9q-10 10 -22 10q-8 0 -15 -13q-2 -5 -3 -15q16 12 28 9q17 -5 17 -30zM344 369l-69 -184l-20 12l21 53l-46 119h26l33 -93l29 93h26zM209 331
q0 -41 -13 -63q-18 -28 -60 -27h-70v179h70q72 0 73 -89zM315 485q4 3 4 10q0 16 -13 17q-6 1 -11.5 -5t-5.5 -13q0 -10 10 -13t16 4zM184 331q0 35 -5 47q-9 22 -43 22h-51v-139h51q34 1 42 18q6 12 6 52zM406 494q0 -30 -30 -30t-30 42q0 48 30 48q8 0 27 -12l-2 -9
q-11 11 -23 11q-8 0 -14 -14q-3 -5 -4 -15q16 12 28 9q18 -5 18 -30zM388 484q3 3 3 10q0 15 -12 18q-7 1 -12.5 -5.5t-5.5 -13.5q0 -10 10 -13t17 4z" />
    <glyph glyph-name="a" unicode="a" horiz-adv-x="492" 
d="M468 50q0 -32 -69 -32q-18 0 -44 35q-20 27 -31 53q-34 -2 -52 1q-117 24 -118 112q-2 111 119 183q-7 27 -59 165q-53 143 -57 138q-14 -16 -44.5 -28.5t-51.5 -12.5q-8 0 -12 2q-29 12 -29 29q0 56 77 76q8 3 47 3q63 0 113 -155q16 -49 49 -206q28 -133 36 -162
q33 -122 67 -145q4 -3 25 -12q16 -6 23 -16q10 -15 11 -28zM316 146l-35 206q-40 -37 -40 -97q0 -104 75 -109z" />
    <glyph glyph-name="b" unicode="b" horiz-adv-x="331" 
d="M298 176q-8 -70 -80 -104q-14 -7 -39 -11q-12 -2 -25 -4l-4 -48q-6 -27 -30 -27q-5 0 -11 1q-17 3 -17 26q0 21 12.5 53t13.5 55q1 21 -1 310q-1 65 -23 136q-18 48 -36 97.5t-18 89.5q0 39 17 39q16 0 38 -42q17 -33 24 -57q18 -65 27 -150q4 -38 21 -174
q29 -21 57 -42.5t45 -51.5q33 -58 29 -96zM240 171q0 42 -14 83q-18 56 -50 56q-3 0 -15 -10q1 -40 1 -131l-2 -69q25 0 38 6q42 18 42 65z" />
    <glyph glyph-name="c" unicode="c" horiz-adv-x="426" 
d="M398 536q0 -18 -49 -48q-66 -40 -85 -58l-100 -80q-53 -45 -73 -101q-11 -33 -14 -64q-1 -14 13 -36q25 -41 91 -41q25 0 53 32.5t41 32.5q8 0 15 -5q21 -14 27 -34q2 -6 2 -12q0 -36 -92 -62q-36 -9 -75 0q-106 27 -113 117q-3 37 25 104q19 46 71 100q50 51 101 101
l68 76q38 40 46 40q20 0 34 -20.5t14 -41.5z" />
    <glyph glyph-name="d" unicode="d" horiz-adv-x="365" 
d="M329 738q0 -33 -39 -93q-26 -37 -51 -74q-25 -49 -41 -155q-2 -10 -8 -143q-4 -70 -4 -116q0 -112 5 -139q4 -15 12 -50l9 -28q4 -15 4 -29q-2 -29 -31 -29q-28 0 -28 62v17q1 12 1 17q0 30 -10 30q-3 0 -9 -4q-61 17 -83 56q-16 29 -18 90q-1 33 8 55q11 29 38 47
q7 5 58 30q3 48 18 157q35 178 49 226q36 120 84 120q17 0 28 -18q8 -15 8 -29zM149 41q-6 178 -6 191q-12 -9 -33 -33q-20 -31 -13 -76q11 -69 52 -82z" />
    <glyph glyph-name="e" unicode="e" horiz-adv-x="317" 
d="M299 237q-5 -7 -26 -16q-8 -3 -55 -6q-20 -1 -94 3q-16 1 -16 -21q0 -124 56 -121q23 1 32 27q15 42 17 45q11 14 29 14q10 0 19.5 -7t9.5 -16q0 -42 -35.5 -72t-83.5 -29q-66 1 -86 76q-8 32 -8 116q0 62 8 84q15 41 43 74q36 43 75 43q82 0 114 -108q6 -19 4 -47
q-3 -46 -3 -39zM228 306q-10 61 -50 61q-37 0 -58 -42q-16 -33 -16 -71q34 4 45 1q14 -5 20 -5l50 2q3 2 7.5 21t1.5 33z" />
    <glyph glyph-name="f" unicode="f" horiz-adv-x="380" 
d="M346 687q0 -17 -29 -29q-9 -3 -18 -3q-21 0 -32 21q-4 9 -12 39q-35 -61 -53 -131q-10 -39 -26 -140q10 0 72 12q31 6 64 6q12 0 12 -20q0 -22 -16 -27.5t-30 -5.5q-13 1 -26 1h-49q-12 -1 -35 -3q-2 -26 -6 -77q-10 -71 -19 -143q-10 -80 -10 -146q0 -26 -2 -30
q-9 -16 -30 -16q-20 0 -20 17q0 84 49 391l-8 2l-32 -22q-19 -11 -33 -8q-6 2 -12 13t-6 23q0 11 6.5 16.5t17.5 4.5q17 -2 20 -2q25 1 54 9q6 13 21 105q16 100 32 147q25 74 60 74q28 0 62 -26t34 -52z" />
    <glyph glyph-name="g" unicode="g" horiz-adv-x="645" 
d="M604 721q0 -26 -47 -63q-31 -22 -62 -43q-68 -47 -79 -125q-6 -44 -6 -140v-36q0 -190 -31 -271q-50 -130 -198 -130q-38 0 -94 33q-61 37 -61 72q0 49 60 49q26 0 41 -28q12 -25 24 -51q16 -28 47 -28q97 0 134 82q27 58 26 170v18q-52 -11 -56 -11q-119 0 -119 171
q0 53 38 87.5t91 34.5q25 0 52 -23q22 61 27 73q16 36 43 65q16 17 38 58q21 37 37 52q25 22 65 22q8 0 19 -15t11 -23zM366 310q0 5 1 24v32q0 97 -36 97q-75 0 -75 -105q0 -31 9 -59q13 -40 37 -40q34 0 47 8q17 11 17 43z" />
    <glyph glyph-name="h" unicode="h" horiz-adv-x="363" 
d="M340 29q0 -26 -25 -26q-23 0 -45.5 20t-34.5 52q-9 23 -20 74q-13 59 -18 77q-14 46 -42 74q-6 -9 -6 -30q0 -18 3 -55.5t3 -56.5q0 -36 -8 -70q-12 -49 -34 -49q-12 0 -21.5 14t-9.5 26q0 40 10 117.5t10 119.5q0 212 -31 327q-5 18 -26 55q-18 30 -18 50q0 26 26 26
q62 0 66 -39q0 -32 4 -105q3 -38 12 -88q11 -63 14 -79q0 -25 5 -75q2 -13 28 -31t32 -34l40 -122q24 -66 59 -115q27 -37 27 -57z" />
    <glyph glyph-name="i" unicode="i" horiz-adv-x="195" 
d="M130 755q0 -11 -15.5 -35.5t-24.5 -24.5q-35 0 -35 44q0 22 16 37t40 15q4 0 11.5 -15t7.5 -21zM175 547q-7 -161 -7 -218q0 -118 -34 -209q-58 -150 -89 -150q-19 0 -19 21q0 2 16 34.5t20 47.5q18 66 36 131q20 79 20 132q0 80 -37 190q-8 24 -8 53q0 19 9 38
q11 25 29 25q30 0 48 -29.5t16 -65.5z" />
    <glyph glyph-name="j" unicode="j" horiz-adv-x="339" 
d="M192 774q0 -11 -18.5 -29.5t-29.5 -18.5q-8 0 -18.5 7t-10.5 14q0 21 22 37q20 13 42 13q13 0 13 -23zM296 128q0 -91 -36 -158q-45 -83 -127 -83q-47 0 -79 41q-28 38 -28 86q0 68 27 68q42 1 42 -41q0 -20 -13 -45.5l-13 -25.5q0 -19 17 -29.5t37 -10.5q66 0 100 64
q27 51 27 122q0 124 -65 315q-6 16 -52 107q-35 69 -35 107q0 23 13 41.5t34 18.5q11 0 29 -15q23 -19 27 -48q7 -64 32 -208q20 -75 40 -151q23 -89 23 -155z" />
    <glyph glyph-name="k" unicode="k" horiz-adv-x="309" 
d="M290 462q-3 -22 -26 -40l-52 -36q-84 -63 -84 -87t37.5 -83.5t60.5 -71.5q15 -9 33 -35.5t18 -43.5q0 -12 -12 -26t-26 -12q-7 1 -22 25t-29 47q-56 85 -89 139l-4 2q0 -8 0.5 -28t3.5 -66q1 -7 5 -22.5t4 -42.5l1 -23q1 -15 -1 -24q-3 -13 -11 -21q-18 -18 -32 -17
q-29 2 -29 31q0 25 13 100q7 44 9 98q2 38 0 99q-2 78 -2 99q0 64 -12 190q-2 20 -18 62q-15 38 -15 63q0 18 13 34.5t30 16.5q46 0 46 -264q0 -127 -1 -91q2 -78 16 -79q27 22 81 82q11 13 29 49q12 26 25 26q16 0 29.5 -17t10.5 -33z" />
    <glyph glyph-name="l" unicode="l" horiz-adv-x="285" 
d="M242 156q4 -46 -8 -91q-13 -50 -39 -50q-8 0 -17 5q-32 20 -32 57q0 19 12.5 60.5t14.5 66.5q3 42 3 68q0 76 -26 152q-16 53 -31 106q-15 43 -69 119q-7 11 -14.5 38t-7.5 45q4 50 22 50q45 0 69 -43q18 -32 30 -75q16 -60 35 -148q27 -129 33 -163q13 -72 25 -197z" />
    <glyph glyph-name="m" unicode="m" horiz-adv-x="596" 
d="M550 35q0 -11 -11 -20.5t-22 -9.5q-19 0 -39.5 28t-20.5 49q0 51 14.5 149t14.5 150q0 65 -2 77q-10 43 -50 43q-15 0 -30 -13.5t-15 -28.5q0 -9 2 -25.5t2 -25.5q0 -64 -33 -64q-7 0 -20 9.5t-13 17.5q1 18 12 47t11 44q0 60 -35 70q-8 2 -14 2q-21 0 -46 -27t-31 -54
q-4 -16 -4 -61q0 -104 22 -276q3 -19 -10 -56q-14 -42 -33 -42q-9 0 -18 12.5t-9 20.5q0 20 11.5 59.5t11.5 59.5q0 90 -21 236q-26 177 -63 247q-6 11 -48 50q-36 33 -36 54q0 32 37 32q49 0 88 -91q23 -53 48 -165l11 -7q38 35 41 37q23 17 51 17q52 0 73 -59l28 24
q18 12 34 12q48 0 77 -58q24 -48 24 -102q0 -45 -17 -129t-17 -127q0 -39 22.5 -71t22.5 -35z" />
    <glyph glyph-name="n" unicode="n" horiz-adv-x="449" 
d="M411 109q0 -38 -43 -38q-10 0 -31 11q-24 13 -38 28q-25 27 -31 59q-3 16 -3 77q0 40 16.5 118.5t16.5 116.5q0 78 -63 78q-48 0 -65 -48q0 -1 -16 -85q0 3 0 -43q0 -21 3.5 -56t3.5 -55q0 -4 1 -28t1 -41q0 -26 -2 -48q-10 -83 -14 -97q-14 -50 -51 -50q-14 0 -22 15
t-8 30q0 26 14 67q17 51 20 66q10 52 10 145q0 187 -36 327q-4 14 -29 47q-21 28 -21 49q0 25 22 25q46 0 68 -106q10 -72 19 -144q75 98 157 98q61 0 61 -108q0 -50 -22 -146.5t-22 -145.5q0 -44 12 -60q10 -12 32 -13q-7 0 29 1q18 1 24.5 -6t6.5 -40z" />
    <glyph glyph-name="o" unicode="o" horiz-adv-x="360" 
d="M305 278q0 -102 -39 -166q-47 -76 -142 -76q-40 0 -62 45q-17 36 -17 81q0 79 33 169q41 114 104 114q62 0 95 -56q28 -46 28 -111zM222 276q0 29 -13 58q-16 37 -42 37q-29 0 -51 -83q-17 -65 -17 -109q0 -100 37 -100q86 0 86 197z" />
    <glyph glyph-name="p" unicode="p" horiz-adv-x="302" 
d="M284 248q0 -45 -29.5 -80t-73.5 -36q-11 0 -31 4q-2 -19 0 -29q2 -15 2 -29q0 -30 -1 -89v-89q0 -33 -5 -44q-8 -19 -34 -20q-21 18 -21 39q0 12 7.5 31.5t8.5 29.5q5 23 4 50q-1 47 -1 51.5t-2 70.5q-1 38 5 77q5 32 8 96q3 80 5 102q4 53 -17 102q-49 116 -49 205
q0 20 23 20q38 0 71 -118q22 -78 32 -156q1 -10 -2 -36q-4 -29 -4 -36q45 -8 74.5 -40t29.5 -76zM178 331q-22 -131 -22 -142q0 -6 21 -9q24 -4 38.5 19t14.5 53q0 53 -52 79z" />
    <glyph glyph-name="q" unicode="q" horiz-adv-x="380" 
d="M355 753q-1 -41 -37 -81l-62 -60q-76 -84 -73 -215q2 -84 9 -276q5 -95 22 -140q29 49 56 49q9 0 15 -7q14 -13 14 -44q0 -30 -21.5 -52.5t-50.5 -22.5q-38 0 -55 53q-15 46 -20 138l-6 112q-12 -7 -39 -5q-84 7 -84 91q0 55 21 92q25 44 70 45q21 0 25 11q10 22 26 79
q25 87 30 103q23 74 56 120q40 54 80 48q25 -3 24 -38zM146 250q-12 58 -12 154q-4 3 -22 -3q-30 -10 -35 -68q-7 -86 39 -89q15 -1 30 6z" />
    <glyph glyph-name="r" unicode="r" horiz-adv-x="463" 
d="M442 392q0 -8 -8.5 -19.5t-16.5 -11.5q-31 0 -54 29q-7 7 -35 55q-33 56 -86 56q-52 0 -52 -50q0 -14 3.5 -40t3.5 -40q0 -140 -2 -172q-6 -100 -35 -162q-6 -12 -24 -10q-15 1 -21 37q-1 12 14 51q23 56 28 110q2 20 2 96q0 71 -21 160q-2 33 -15 93q-21 44 -41 87
q-22 49 -22 88q0 10 6.5 23t15.5 13q44 0 70 -95q11 -37 19.5 -99t9.5 -69q45 28 64 28q27 0 59 -17q11 -5 47 -60q13 -19 43.5 -34t39 -25t8.5 -22z" />
    <glyph glyph-name="s" unicode="s" horiz-adv-x="406" 
d="M382 770q0 -30 -69 -87q-92 -75 -129 -125q-69 -95 -69 -217q0 -43 5 -58q9 -29 42 -29q23 0 72 20.5t72 20.5q36 0 36 -45q0 -96 -93.5 -183.5t-189.5 -87.5q-8 0 -18 13.5t-10 21.5q0 41 49 61q12 5 98 26q62 14 81 38q6 8 20 37.5t14 37.5q0 21 -17 21
q-21 0 -65.5 -14.5t-65.5 -14.5q-39 0 -57 52q-13 37 -13 87q0 111 19 161q28 74 105 174q91 117 149 117q9 0 21.5 -9t12.5 -18z" />
    <glyph glyph-name="t" unicode="t" horiz-adv-x="279" 
d="M248 331q-9 -25 -43 -41q-26 -10 -51 -20q0 -27 9 -69q8 -34 16 -69q3 -19 21.5 -44.5t18.5 -37.5q0 -5 -15 -18.5t-21 -13.5q-11 0 -25.5 13t-17.5 29q-17 82 -31 197q-17 -11 -33 -22q-21 -12 -46 -9q-11 2 1 29q9 19 38 28q35 10 43 19q10 10 -5 256q-3 52 -20 84
q-2 4 -29 38q-14 18 -11 40q1 8 9.5 21t16.5 13q15 0 40.5 -29.5t29.5 -45.5q15 -63 15 -140q2 -133 2 -137q-1 9 -2 -43q-1 -35 6 -38q3 -1 42 23q2 1 12 11t16 10q10 0 14 -13q4 -12 0 -21z" />
    <glyph glyph-name="u" unicode="u" horiz-adv-x="449" 
d="M418 -6q0 -11 -12 -26.5t-23 -15.5q-53 0 -104 181q-14 -7 -51 -43q-27 -27 -56 -27q-52 0 -90 43q-23 26 -37 93q-12 56 -12 106q0 83 25 83q32 0 32 -51q0 -16 -6 -49.5t-6 -50.5q0 -126 92 -126q55 0 88 75q29 64 26 132q0 45 -7 134q-4 20 -23 86q-15 52 -15 89
q0 60 37 60q26 0 40 -70q10 -49 10 -93q0 -45 -7 -143q-6 -93 -5 -156q1 -84 28 -131q12 -21 49 -52q27 -22 27 -48z" />
    <glyph glyph-name="v" unicode="v" horiz-adv-x="547" 
d="M517 728q0 -17 -15 -55q-9 -23 -34 -62q-27 -42 -36 -62q-5 -12 -112 -277q-46 -114 -52 -126q-45 -100 -66 -100q-29 0 -131 263q-2 6 -29 59q-14 27 -13 55q-1 6 1 18q9 14 17 12q41 -5 60 -113q10 -54 40 -123l56 -116l6 5q15 40 98 231q63 143 90 235q7 24 21 96
q7 33 26 60q23 32 53 32q7 0 13.5 -12t6.5 -20z" />
    <glyph glyph-name="w" unicode="w" horiz-adv-x="544" 
d="M509 364q0 -119 -23 -206q-37 -140 -127 -157q-16 -3 -49 11q-45 19 -59 47q-18 -13 -36 -24.5t-44 -11.5q-20 0 -53 28q-36 30 -58 68q-40 67 -40 179q0 32 9 68q13 50 33 50q34 0 45 -36q8 -26 -5 -39q-21 -22 -27 -50q-4 -18 -4 -60q0 -60 34 -109t82 -49q24 0 47 35
q10 15 21 31q7 7 29 10q8 0 8 -6q0 -3 -3.5 -17t-3.5 -23q0 -20 20 -35.5t43 -11.5q74 11 96 159q9 62 9 200q0 100 -7 148q-5 33 -47 87q-40 50 -40 88q0 45 46 44q51 -31 81 -194q23 -122 23 -224z" />
    <glyph glyph-name="x" unicode="x" horiz-adv-x="411" 
d="M387 66q0 -45 -26 -45q-38 0 -97 89q-21 29 -56 82q-40 -39 -80 -79q-58 -57 -83 -63q-27 3 -27 29q0 27 12 38q8 7 28.5 12t29.5 11q92 73 92 103q0 14 -32 49.5t-57 47.5q-19 2 -55 19q-23 21 -21 34q2 24 45 29q20 2 35 -10q3 -3 31 -34q31 -42 76 -101q86 106 86 232
q0 53 -30.5 96.5t-30.5 67.5t9 32t33 8q44 -40 60 -141q5 -34 0 -90q-6 -65 -51 -161.5t-45 -88.5q0 -29 75 -90q27 -21 53 -42.5t26 -33.5z" />
    <glyph glyph-name="y" unicode="y" horiz-adv-x="544" 
d="M513 677q0 -51 -27 -165q-16 -67 -32 -133q-6 -39 -12 -73q-17 -109 -35 -217q-20 -115 -47 -160q-20 -34 -46 -54q-19 -15 -61 -35q-6 -3 -16 -6q-41 -12 -91 4q-114 36 -114 119q0 32 28 32q13 0 47.5 -54t69.5 -62q12 -3 55 -3q59 0 105 91q41 79 40 144
q-25 -15 -51 -15q-70 0 -131 95q-56 85 -56 159q0 24 7 46q9 28 25 28q5 0 10 -3q32 -17 32 -72v-23q-1 -15 -1 -24q0 -23 3 -41q11 -63 59 -96q31 -22 59 -22q39 0 52 62q14 76 21 220q8 152 19 221q2 11 23 45t29 34q15 0 25.5 -13t10.5 -29z" />
    <glyph glyph-name="z" unicode="z" horiz-adv-x="651" 
d="M618 110q0 -69 -147 -69q-26 0 -78 16t-77 16q-55 0 -130 -16q-6 -1 -30.5 -10t-30.5 -9q-14 0 -15 18q37 24 117.5 54.5t117.5 55.5q2 1 63 31q52 24 52 32q0 6 -55 47q-34 25 -67 50q-67 62 -206 175q-29 16 -70 49q-10 12 -20 25t-10 25q0 18 13.5 31.5t31.5 13.5
q10 0 43 -22q20 -13 35 -45q18 -38 23 -44q43 -51 79.5 -82t73.5 -62q83 -72 140 -111q16 -8 33 -15q25 -13 25 -23q0 -16 -54 -50q-82 -51 -160 -82q83 -18 152 -18q12 0 48.5 30t59.5 30q15 0 29 -12.5t14 -28.5z" />
    <glyph glyph-name="braceleft" unicode="{" horiz-adv-x="227" 
d="M239 756q0 -16 -25 -54q-29 -40 -57 -81q-36 -55 -37 -100q-4 -30 -11 -90q-19 -155 -19 -178q0 3 4 -38.5t3 -63.5q-3 -40 43.5 -108.5t46.5 -98.5q0 -12 -9 -24t-22 -12q-54 0 -80 133q-18 86 -18 160q0 75 12.5 201.5t27.5 209.5q7 19 18 53q4 14 34 61q36 56 53 56
q12 0 24 -7.5t12 -18.5z" />
    <glyph glyph-name="bar" unicode="|" horiz-adv-x="452" 
d="M439 761q17 -9 17 -28q0 -22 -25 -62q-31 -49 -31 -50q-60 -152 -196 -403q-48 -89 -95 -224q-19 -53 -49 -53q-11 0 -22 29q0 33 23 72q21 32 43 64q46 76 99 187q45 96 89 192q49 103 59 173q17 122 64 112q13 -2 24 -9z" />
    <glyph glyph-name="braceright" unicode="}" horiz-adv-x="233" 
d="M204 487q0 -75 -12.5 -201.5t-27.5 -209.5q-7 -19 -18 -53q-4 -14 -34 -61q-36 -56 -53 -56q-12 0 -24 8t-12 18q0 16 25 54q29 40 57 81q36 55 37 100q4 31 11 90q19 155 19 178q0 -3 -4 39t-3 63q3 40 -43.5 108.5t-46.5 98.5q0 13 9 24.5t22 11.5q54 0 80 -133
q18 -85 18 -160z" />
    <glyph glyph-name="asciitilde" unicode="~" 
d="M424 484q0 -13 -31 -30q-13 -7 -25 -7q-18 0 -26 21q-8 22 6 34q9 7 24 7q32 0 42 -9t10 -16zM215 591q0 -13 -14.5 -21.5t-27.5 -8.5t-26 32q-12 29 -12 44q0 25 16 25q13 0 38.5 -29t25.5 -42zM415 341q-5 -12 -36 -12q-36 0 -36 37q0 26 29 26q10 0 25 -9.5t18 -23.5
q3 -11 0 -18zM318 399q0 -34 -14 -64q-18 -37 -48 -37q-114 0 -114 123q0 45 25.5 77.5t57.5 32.5q15 0 28 -7t29 -27q36 -43 36 -98zM111 487q0 -27 -15 -27q-9 0 -37 21.5t-28 32.5q0 26 23 26q18 0 37.5 -18t19.5 -35zM349 238q0 -26 -22 -26q-10 0 -23 16.5t-13 26.5
q0 12 9 24t20 12q10 0 19.5 -21t9.5 -32zM84 322q-26 0 -32 30q-3 16 15 31.5t28 15.5q15 0 25.5 -16.5t10.5 -36.5q1 -24 -47 -24z" />
    <glyph glyph-name="exclamdown" unicode="&#xa1;" horiz-adv-x="178" 
d="M31 64q0 85 24 190q29 123 35 192q3 30 3 54t-3 54t-3 44q0 23 4 51q2 11 12 19t20 8q31 0 31 -76q0 -40 -6 -78q-6 -32 -11 -64q-5 -24 -16 -71q-4 -29 -12 -85q-8 -40 -16 -79q-10 -53 -10 -89q0 -34 8 -54q10 -24 10 -57q0 -53 -34 -53q-28 0 -35 39q-1 11 -1 55z
M89 755q0 44 31 44q11 0 20 -21q8 -17 8 -28q0 -7 -7 -23q-8 -21 -18 -21q-34 0 -34 49z" />
    <glyph glyph-name="section" unicode="&#xa7;" horiz-adv-x="835" 
d="M808 384q0 -76 -20 -130q-30 -79 -66 -121q-23 -27 -55 -55q-10 -9 -50 -34q-51 -31 -68 -31q-2 0 -22 -7.5t-33 -7.5q-3 0 -8.5 -1.5t-9.5 -1.5t-11.5 -2t-10.5 -3q-42 -3 -85 0q-14 1 -24 1q-30 0 -86 26q-43 19 -72 39q-40 28 -80 74q-54 62 -72 133q-17 68 -17 121
q0 137 84 245q91 117 243 144q30 6 109 6q4 0 11 -3t10.5 -3t27.5 -6.5t27 -6.5q20 0 100 -44q91 -60 138 -156q40 -84 40 -176zM790 384q0 43 -19 117q-15 56 -68 122q-58 72 -119 97q-55 22 -63 22q-4 0 -37 9t-37 9q-119 0 -200 -37q-98 -47 -163 -158q-48 -82 -48 -181
q0 -66 23 -127q35 -97 115.5 -165t179.5 -82q28 -3 93 -3q4 0 12 1.5t12 1.5t8.5 1.5t8.5 1.5t27.5 7.5t25.5 7.5t44 19q69 32 119 94q25 32 47 76q39 79 39 167zM644 633q0 -8 -16 -45t-22 -37q-5 0 -19 7q0 2 1 6q5 2 17 10q-2 12 -11.5 39t-9.5 30q0 4 4 8q19 -12 19 -40
q3 0 8 -6q6 12 18 37q11 0 11 -9zM577 619q0 -29 -25 -29q-4 0 -15.5 2t-16.5 2v41.5v42.5q15 -8 15 -25q3 -1 8.5 1.5t8.5 2.5q8 0 16.5 -15t8.5 -23zM438 637q-7 -8 -25 -9t-18 -10q0 -5 8 -13q5 0 14 9h11q0 -8 -1 -11q-5 -10 -15 -10h-11q-13 0 -21 16q-6 12 -6 19
q0 38 44 38q4 0 9.5 -10t10.5 -19zM371 594q-40 -10 -47 -10q-17 0 -17 27q0 22 19 35q7 2 23 10q3 10 3 12t5 7q1 0 9 -5q5 -18 5 -17v-59zM297 657q-1 0 -6.5 -1.5t-6.5 -1.5q-7 6 -1 18h14v-15zM495 446q0 -11 -12 -11q-4 0 -18 7v11q10 0 23 6q7 -7 7 -13zM304 637
q0 -2 -6 -9q-1 -11 -1 -53q-1 0 -7.5 -1.5t-9.5 -1.5q0 3 -1.5 8.5t-1.5 9.5q0 24 7 56q4 1 12 5q8 -8 8 -14zM431 448q-8 -5 -26 -16l-1.5 7.5t-1.5 16.5l8 1.5t18 1.5l3 -3v-8zM272 638l-10 -38q-6 -22 -17 -37q-15 5 -32 57q1 0 3.5 2t6.5 2t8.5 -10t7.5 -18
q11 3 16.5 21.5t16.5 20.5zM204 638l-4 -14h-14v9q-1 5 2.5 6t3.5 2q8 0 12 -3zM538 270l-11 5l5 31zM206 555q-5 -9 -20 -16q-1 46 3 73l-3 5h20v-62zM656 336q0 -24 -7 -34q-17 -16 -47 -52q0 -5 -5 -15q-18 -22 -54 -24q-30 -1 -61 -2q-6 -4 -4 -9q-37 -23 -48 -23
q-3 0 -17 7.5t-18 7.5t-40.5 -6t-39.5 -6q-34 0 -73 16.5t-58 16.5q-22 0 -62 -11q6 7 46 23t46 16q8 0 35 -24.5t43 -24.5h39q27 0 59 13q5 2 6 3.5t1 3.5q-2 4 -2 7q54 2 153 7q25 2 38 17q3 3 7 43q0 -5 7 -18q11 15 11 24q0 4 -6 21.5t-6 21.5q0 11 12 23q2 7 -11 7
q-17 0 -45 -25q1 -3 4 -3q-8 -9 -16 -10q-32 -7 -70 -7q4 0 -66 20q31 2 31 19q0 13 -18 24q5 -2 19 -8.5t18 -6.5q10 0 17 12q4 10 8 19v-31h24q11 6 35 15q-8 -8 -15 -22v-17l0.5 -1.5t5.5 -1.5l28 20q6 4 39 18q0 7 -4 17q-54 64 -146 106l-6 -6q-18 -3 -81 -24
q20 17 43 29q10 3 20 5q14 5 19 15h-50q-5 -1 -49 -20q-49 -21 -75 -36q-3 -2 -50 -36q-40 -30 -46 -30h-65q20 12 23 12q4 0 5 -1.5t4 -1.5q29 0 39 6q22 19 73 56q45 29 79 43q63 25 78 25q47 0 95 -31q38 -26 64 -60q13 -13 37 -46q6 -9 -4 -19q3 -6 16 -9t14 -3
q24 -20 24 -34zM179 539q-41 -25 -47 -25q-15 0 -13 26q0 23 23 46q12 2 14.5 8t8.5 23h11q3 -26 3 -78zM571 107q0 -23 -10 -42q-3 -4 -9 -9q-2 0 -8 -3.5t-11 -3.5q-18 0 -29 23q-9 18 -9 38q0 10 2 17q4 12 20.5 23.5t24.5 11.5q17 0 24 -26q5 -15 5 -29zM486 117l-7 -7
q-2 1 -9 16q-5 11 -10 11q-21 0 -21 -44q0 -27 5 -46q-13 -7 -21 -3v79q-1 6 12.5 19.5t18.5 13.5q32 0 32 -23v-16zM407 98q-6 0 -23.5 1.5t-20.5 1.5q-10 0 -10 -9q0 -34 23.5 -34t27.5 -4q-8 -11 -24 -11q-20 0 -31.5 18t-11.5 35q0 29 11 39.5t39 10.5q6 0 13 -11t7 -17
v-20zM325 135q-17 -17 -52 -56q33 -9 37 -9q11 0 15 -4v-10q-35 5 -50 5l-9 -3q-6 0 -20 7v14q12 20 52 54q-3 7 -25.5 10.5t-26.5 10.5v10q29 -6 79 -15v-14zM559 606v29q-7 7 -12 7q-4 0 -12 -7v-26q8 -7 14 -7t10 4zM412 640q3 8 -10 14l-7 -7v-11h14zM517 487l-17 10
l-2 -4l17 -10zM349 618q0 17 -10 18q-14 3 -14 -22q0 -11 4 -18h13q7 8 7 22zM641 324v20q-5 0 -12 1.5t-11 1.5q-10 0 -10 -18q0 -11 7 -31q1 1 13 4q13 11 13 22zM161 558q0 15 -11 20q-16 -19 -16 -30q0 -4 1.5 -9t1.5 -6q1 0 2 1t5 1q17 0 17 23zM465 209q-5 0 -16 2
t-14 2q-12 0 -19 -14q8 -4 19 -4q18 0 30 14zM556 107q0 39 -15 39q-13 0 -21.5 -12t-8.5 -29q4 -38 21 -38q4 0 4 1.5t3 1.5q17 0 17 37zM395 114q-3 6 -10.5 13t-10.5 7q-15 0 -18 -20q40 0 39 0z" />
    <glyph glyph-name="questiondown" unicode="&#xbf;" horiz-adv-x="366" 
d="M39 177q0 55 35 130q7 16 64 122q35 64 35 92q0 10 -3 30t-3 30q0 83 39 83q36 0 36 -47q0 -41 -71 -207.5t-71 -231.5q0 -127 77 -127q45 0 88.5 32t43.5 75q0 45 -25 75q-9 11 -45 40q-24 19 -24 37q0 17 11.5 28.5t27.5 11.5q40 0 68 -67q24 -55 24 -102
q0 -64 -53.5 -119.5t-116.5 -55.5q-60 0 -100 58q-37 52 -37 113zM198 746q0 40 33 47q11 2 19 0q28 -8 28 -41q0 -20 -14 -38t-30 -18q-17 0 -26.5 16t-9.5 34z" />
    <glyph glyph-name="quoteleft" unicode="&#x2018;" horiz-adv-x="149" 
d="M32 656q0 21 8 51q11 41 28 41q15 0 11 -25q-4 -28 1 -31q1 0 14 -7q10 -5 11 -12q3 -13 11 -47q4 -16 -13.5 -26.5t-36.5 -10.5q-16 0 -26 26q-8 21 -8 41z" />
    <glyph glyph-name="quoteright" unicode="&#x2019;" horiz-adv-x="149" 
d="M116 682q0 -21 -8 -52q-11 -40 -27 -40t-12 26t-1 29q0 1 -12 6.5t-13 13.5q-3 12 -11 46q-4 16 15 27q16 10 35 10q16 0 26 -26q8 -20 8 -40z" />
    <glyph glyph-name="quotedblleft" unicode="&#x201c;" horiz-adv-x="276" 
d="M161 659q0 21 8 52q11 40 27 40t12 -25q-4 -28 1 -30q0 -1 12 -7t13 -13q3 -13 11 -46q4 -17 -13.5 -27.5t-36.5 -10.5q-16 0 -26 26q-8 21 -8 41zM29 658q0 21 8 52q11 40 27 40t12 -25q-4 -28 1 -30q0 -1 14 -7q10 -6 11 -13q3 -13 11 -46q4 -16 -13.5 -26.5
t-36.5 -10.5q-16 0 -26 26q-8 20 -8 40z" />
    <glyph glyph-name="quotedblright" unicode="&#x201d;" horiz-adv-x="276" 
d="M113 684q0 -21 -8 -52q-11 -40 -27 -40t-12 26t-1 29q0 1 -12 6.5t-13 13.5q-3 12 -11 46q-4 16 15 27q16 10 35 10q16 0 26 -26q8 -20 8 -40zM245 685q0 -21 -8 -52q-11 -40 -27 -40t-12 26t-1 29q0 1 -12 6.5t-13 13.5q-3 12 -11 46q-4 16 15 27q16 10 35 10
q16 0 26 -26q8 -20 8 -40z" />
    <glyph glyph-name="ellipsis" unicode="&#x2026;" horiz-adv-x="460" 
d="M25 53q0 25 15 42.5t36 17.5q23 0 36.5 -20.5t13.5 -39.5q0 -26 -15 -43.5t-35 -17.5q-17 0 -25 6q-26 20 -26 55zM171 62q0 25 15 42.5t36 17.5q23 0 36.5 -20.5t13.5 -39.5q0 -26 -15 -43.5t-35 -17.5q-17 0 -25 6q-26 20 -26 55zM321 59q0 25 15 42.5t36 17.5
q23 0 36.5 -20.5t13.5 -39.5q0 -26 -15 -43.5t-35 -17.5q-17 0 -25 6q-26 20 -26 55z" />
    </font>
</defs>
</svg>
