<?xml version="1.0" standalone="no"?>
<!DOCTYPE svg PUBLIC "-//W3C//DTD SVG 1.1//EN" "http://www.w3.org/Graphics/SVG/1.1/DTD/svg11.dtd" >
<svg xmlns="http://www.w3.org/2000/svg" xmlns:xlink="http://www.w3.org/1999/xlink" version="1.1">
<metadata>
Created by FontForge 20230101 at Sat May 12 12:20:30 2001
 By Glenn Lewis
http://fonts.tom7.com/ - Douglas Adams Hand, In memory of a great man: May 11, 2001. You will be missed. - Tom 7
</metadata>
<defs>
<font id="DouglasAdamsHand" horiz-adv-x="837" >
  <font-face 
    font-family="Douglas Adams Hand"
    font-weight="400"
    font-stretch="normal"
    units-per-em="1000"
    panose-1="0 0 4 0 0 0 0 0 0 0"
    ascent="800"
    descent="-200"
    x-height="677"
    cap-height="754"
    bbox="-8 -207.286 2299 812"
    underline-thickness="20"
    underline-position="-143"
    unicode-range="U+0020-2026"
  />
<missing-glyph horiz-adv-x="500" 
d="M63 0v800h375v-800h-375zM125 63h250v675h-250v-675z" />
    <glyph glyph-name=".notdef" horiz-adv-x="500" 
d="M63 0v800h375v-800h-375zM125 63h250v675h-250v-675z" />
    <glyph glyph-name=".null" horiz-adv-x="0" 
 />
    <glyph glyph-name="nonmarkingreturn" horiz-adv-x="500" 
 />
    <glyph glyph-name="space" unicode=" " horiz-adv-x="500" 
 />
    <glyph glyph-name="exclam" unicode="!" horiz-adv-x="218" 
d="M184 730q0 -3 -21 -79q-24 -84 -31 -128q-14 -63 -28 -127q-16 -73 -16 -128q0 -52 29 -66v-23q-72 6 -72 82q0 98 45 273q28 100 57 199q1 2 20 21q17 -17 17 -24zM128 68q5 -9 5 -17q0 -27 -47 -27q-25 0 -33 12q-8 9 -8 34q0 14 7 26q7 16 13 19t26 3t24 -13
q13 -36 13 -37z" />
    <glyph glyph-name="quotedbl" unicode="&#x22;" horiz-adv-x="316" 
d="M117 659q-6 -63 -71 -68v23q15 2 19 15t6 25q-26 5 -26 45q0 14 7 26q7 16 13 19t26 3q23 0 31 -10q5 -6 10 -27q9 -40 -15 -51zM264 659q-6 -63 -71 -68v23q15 2 19 15t6 25q-26 5 -26 45q0 14 7 26q7 16 13 19t26 3q23 0 31 -10q5 -6 10 -27q9 -40 -15 -51z" />
    <glyph glyph-name="numbersign" unicode="#" 
d="M715 563q-10 7 -29 24q-7 7 -19 43q2 -2 14 -8q4 4 -5 22l21 -19q7 -14 18 -46v-16zM723 481q-3 -20 -15 -58q0 3 -3 15t-3 18q0 7 10 14.5t11 10.5zM334 797l-30 4v8l30 -5v-7zM661 498q-3 -2 -48 -4q-25 -2 -45 -17q0 9 16 16l-5.5 5.5l-5.5 5.5q-12 -7 -17 -15
q-1 -3 -17 -3t-29 18q-11 -13 -39 -22q2 2 10 8.5t13 11.5q-4 3 -22 -6l13 15l-8 7q-10 -5 -37 -23q3 14 6 27q4 19 13 27q23 18 60 18q28 0 71 -18q7 7 14 32q1 -2 32 -24q26 -19 25 -38q-10 0 -25 -5q-3 -1 -11 -7q18 -9 36 -9zM290 806q-11 -11 -11 -16q-7 7 -7 16h18z
M828 2h-89q13 27 13 29q0 13 -16 29q-7 -7 -14 -26q-8 -23 -14 -33q0 34 -8 104q-1 -8 -4 -26q-12 -8 -34 -27q-6 -7 -29 -50h-166q41 2 81 23q13 6 37 39q21 31 30 32q-3 -25 -1 -32q16 15 17 30q4 0 11 6q9 22 30 63q18 24 51 77q10 18 3 43q8 12 8 27q0 4 -6 37
q-4 22 4 35q-1 -19 -1 -37q0 -27 23 -27q15 0 26 11.5t11 27.5q0 12 -4 53q-4 35 -2 56q0 3 8.5 28.5t8.5 32.5q0 24 -16 54q-9 -14 -23 -45q0 14 -4 18q-13 -13 -15 -13q2 8 2 24q-5 15 -14 45q0 -4 13 -11q2 2 -6 18l22 -20q-7 -8 -15 -2q-5 -8 4 -23q8 10 29 30
q-6 1 -17 3q-8 17 -21 30q-5 -4 -5 -9q1 5 -4.5 16.5t-5.5 17.5q0 21 5 46q3 19 -13 43q-2 -2 -5 -7.5t-6 -5.5q9 43 -25 62q-6 -6 10 -24v-21q-11 13 -21 26q-15 18 -13 28h170v-805zM597 448h-30v8h30v-8zM661 186l-6 -22q-9 0 -19 -21l-14 -28q0 1 14 43q9 27 25 28z
M130 658q-4 1 -12 6q7 6 7 10q0 -2 2.5 -7.5t2.5 -8.5zM688 292q-7 1 -23.5 -2.5t-23.5 -25.5q0 5 -9 13q-86 -72 -91 -72q-6 0 -4 3q2 4 0 6q-9 -9 -16 -9q-6 0 -5.5 6t-1.5 8q-15 -14 -12 -23q-9 14 -17 14q-6 0 -24 -9.5t-24 -9.5q2 0 -53 10q-6 -11 -7 -19v15
q-1 0 -3.5 1.5t-8.5 1.5q-8 0 -8 -17q-28 9 -94 37q1 2 1.5 7t7.5 5q14 0 33 18q3 -1 24 -22q5 2 12 2q7 -9 15 -15q15 0 50.5 -2.5t39.5 -2.5q11 0 38 7q33 9 52 21q10 13 29 35q0 -1 -1 -5q-1 -2 0 -3q2 -1 7 -1t10 2t10.5 2t9 7t8.5 7q7 0 9.5 -2.5t3.5 -2.5l3 3v9
q-19 20 -25 20t-10 -2t-5 -2q0 3 8 11q-2 2 -63 51q16 -8 68 -40q44 -27 50 -27q3 0 3 1t-2 3.5t-2 3.5t3 1q6 0 7 -4.5t7 -4.5q11 0 18 14zM369 333h-8l-5 34h8zM525 306q-7 -3 -18.5 -17t-14.5 -22l-8 -6.5t-8 -11.5q0 -3 4 -6q-61 -24 -79 -24q-5 0 -16.5 6t-19.5 6
q-5 0 -11 -3q0 2 -2.5 10t-1.5 10q-5 2 -11 4q-6 9 -26 50v47q8 5 21 14q0 -4 -4 -14.5t-4 -16.5q0 -11 8 -18q12 -3 41 -16q4 -2 21 -18t23 -16q34 0 61 23q36 32 45 35v-16zM245 415h-32l6 7zM439 2h-438v805h148q-4 -13 -15 -30q1 -6 5 -21q-21 -25 -21 -39q0 -16 11 -16
l-9 -3q-8 -27 -3 -47q-6 -1 -3 -12q-1 -4 2 -13q5 7 19 18q2 -19 1 -34q-2 -19 -2 -13q0 11 -9 11q-6 0 -6 -4.5t-6 -4.5q-9 0 -9 -4q0 -13 23 -41q-15 -9 0 -9q7 0 8.5 3t3.5 6q0 -3 -12 -16q11 -4 10 -8t2 -8q2 1 12 11q8 7 14 7t13.5 -3.5t10.5 -4.5q5 -1 16.5 1.5
t17 2.5t30 4.5t30.5 4.5t15 -8t13 -9q40 -15 57 -36t17 -60q0 -21 -11 -55q1 2 -6 7.5t-9 12.5q-3 10 0 29q5 29 5 32q-10 18 -32 40q-43 15 -101 15q-36 0 -56 -12q0 -1 -7 -8q6 -7 13 -7q13 0 5 8h104q-3 3 -18 3q30 6 68 -19q-1 0 -16.5 6t-24.5 6q-5 0 -9 -2
q16 -11 41 -23q-5 0 -18 6t-19 6q-5 0 -9 -9t-9 -9q-24 0 -38 9l-11 -12q8 -8 13 -8q-10 -1 -29 2q-7 -8 2 -17q-14 -1 -36 10q9 0 18 9q2 2 -2 7q-3 -3 -10 -5t-9 -4q0 8 7 15q-5 2 -20 7q-11 -13 -13 -16q-9 -9 -18 -11q-3 2 -8 -2q9 -9 23 -9q-5 -2 -16 -2.5t-16 -2.5
q9 -8 21 -23q3 -7 0 -32q-2 -19 4 -19q7 0 8.5 1.5t2.5 1.5l-6 -46q1 -2 -3 -3.5t-4 -8.5q0 -14 27 -24q31 -12 32 -15.5t2.5 -11.5t1.5 -10q-1 -28 4 -38q-15 25 -40 37q-3 1 -7.5 15.5t-15.5 15.5q0 -6 -2 -18.5t-2 -18.5q0 -31 22 -55q6 -7 39 -33q3 -6 10 -16q3 0 4 5
q1 4 -2 8q8 -5 12 -5q0 -2 -8 -10q7 -10 26 -27q15 -4 32 -13l14 -13q123 -67 132 -67q19 0 22 -4zM171 434h-12v8h12v-8zM760 623l-7 30h-7l7 -30h7zM695 609v17h-8v-17h8zM611 524q-9 9 -9 11q-71 -5 -58 -6q11 0 33.5 -2.5t33.5 -2.5zM110 776l-4 6l-16 -11l3 -6z
M100 753l-2 6l-11 -5v-7zM51 760l-6 3l-6 -12l6 -3zM94 730q-11 -13 -11.5 -35t-14.5 -36q8 0 16 8q4 -4 4 -13q6 17 6 76zM83 642l-6 3l-6 -12l6 -3zM70 631q0 -10 -8 -18q-3 5 -1 12q1 6 1 8q4 3 4 23q0 5 -4.5 13t-4.5 9q0 -7 -3 -22t-3 -21q-4 4 -4 9q0 -2 -3 -10.5
t-3 -10.5q17 -9 25 -28q11 22 4 36zM83 585h-8l-4 -30h7zM100 445q0 4 -2 16q-2 9 -1 13q-11 -1 -14 11q-2 9 -4 19q0 -16 -1 -41t-1 -29q0 -2 6.5 -6t6.5 -24q10 20 10 41zM97 307l-7 3l-6 -12l7 -3zM565 179q0 -9 -14 -14q-21 -7 -22 -7q4 -4 9 -4q-15 -17 -25 -17
q-30 0 -37 -4.5t-8 -4.5q-5 0 -13 7t-14 7t-14 -9t-13 -9q-10 0 -27.5 6t-27.5 6q-7 0 -14 -3q-3 6 -9.5 10.5t-9.5 9.5q9 0 31 4.5t34 4.5q11 0 18 -6.5t11 -6.5q23 0 58 18q6 2 16 9q7 5 26 5q13 -2 23 5.5t17 7.5q0 -1 2.5 -5.5t2.5 -9.5z" />
    <glyph glyph-name="dollar" unicode="$" horiz-adv-x="633" 
d="M622 103q0 -66 -135 -66q-93 0 -215 24q-1 -9 -1 -17q0 -52 29 -66v-23q-72 6 -72 82q0 14 1 33q-53 12 -126 32q-20 5 -31 22.5t-22 35.5q4 3 8.5 10.5t7.5 11.5q27 -27 33 -32q21 -19 37 -24q40 -11 122 -27q91 -18 122 -18q6 0 49 -3t52 -3q49 0 78 29q-23 46 -87 101
q-60 53 -150 113q-8 5 -26 16q-277 156 -277 215q0 62 117 116q85 38 124 42l64 6q11 60 16 78q1 2 20 21q17 -17 17 -24q0 -4 -16 -73q7 1 10 1q188 0 188 -85q0 -21 -52 -71h-35q18 26 31 77q-18 15 -64 27t-86 14q-80 -3 -175 -44q-103 -44 -103 -88q0 -51 226 -169
q104 -66 192 -134q129 -100 129 -140z" />
    <glyph glyph-name="percent" unicode="%" horiz-adv-x="2344" 
d="M1611 524q-12 12 -23 13q35 -2 -45 -2q-31 0 -58 -33q-23 -30 -23 -57q0 -37 15 -64q20 -34 57 -34q45 0 67 46q12 37 25 75q3 9 3 17q0 21 -18 39zM2299 133q0 -42 -113 -54q-6 0 -165 -5q-303 -6 -709 -15q-45 -2 -145 -9q-93 -17 -256 -43q-39 -11 -128 -35
q-32 -5 -104 -23q-12 -3 -42 -18q-23 -11 -36 -11h-36q1 11 -18 48q195 77 455 114q186 26 455 36q226 5 453 10q258 7 338 29q-8 22 -73 33q-91 15 -294 58q-180 39 -189 39q-83 0 -114 -11q-14 -6 -60 -30q-36 -19 -48 -19q-31 0 -57 31q-11 14 -35 58q-17 31 -28 31
q-40 0 -61 -51q-13 -39 -27 -77q-14 8 -33 23q0 13 12 52q11 36 9 47q-12 6 -23 13q-16 10 -21 26q10 -2 19 -2q42 0 66 35q14 22 28.5 76t25.5 71q18 -4 32 -51q11 -43 23 -86h20q11 91 30 119q24 36 88 36q44 0 51 -14q11 -7 33 -28q14 -18 22 -58q4 -23 2 -49
q-3 -42 -14 -75q176 -25 322 -73q96 -18 192 -35q153 -37 153 -113zM1501 303l-32 20q-1 -5 -3 -16q-1 -13 6 -35q5 2 16 10q6 6 13 21zM1368 397l-21 66l-21 -64q14 7 22 6t20 -8zM1439 312q0 9 -3 30q-2 13 -9 34l-26 -2q1 -14 11 -41q7 -10 27 -21zM1103 318
q-46 -31 -82 -31q-21 0 -23 40q-2 57 -9 74q-18 40 -79 40q-56 0 -100 -40q-47 -42 -58 -109q28 -11 82 -62q63 -59 63 -92q0 -30 -51 -30q-42 0 -62 17q-1 0 -46 53q-9 10 -17 43t-14 42q-23 36 -107 90q-17 11 -44 11q-9 0 -23 -13q-17 -18 -31 -25q-25 -13 -62 -13
q-68 0 -188 33q-141 39 -141 82q0 9 14.5 27.5t17.5 27t0.5 40t4.5 44.5q11 22 94 147q7 0 19 -4q4 -7 9 -14q6 -10 6 -20q0 -14 -12 -32q105 -2 189 -70q79 -63 96 -144q5 -3 19 -15q14 24 29 47q23 30 57 30q81 0 95 -85q68 85 148 85q77 0 110 -66q7 -24 13 -47
q10 -36 22 -36q4 0 14.5 4.5t15.5 4.5q7 -13 10 -17q10 -13 21 -17zM687 421v15q-15 8 -23 6t-17 -16v-15zM725 372q-21 -6 -58 -20q4 -4 19.5 -15t19.5 -16q19 38 19 51zM834 163q-7 13 -28 40q-17 17 -56 36q4 -16 21 -47q17 -19 63 -29zM503 441v31q-16 56 -83 89
q-54 25 -108 25q-61 0 -77 -22q-7 -9 -38 -108q32 -5 57 -5q27 0 66.5 8t68.5 8q65 0 114 -26zM485 392q-26 9 -87 20q-37 1 -100 -18q72 -21 114 -18q27 2 73 16z" />
    <glyph glyph-name="ampersand" unicode="&#x26;" 
d="M715 563q-10 7 -29 24q-7 7 -19 43q2 -2 14 -8q4 4 -5 22l21 -19q7 -14 18 -46v-16zM723 481q-3 -20 -15 -58q0 3 -3 15t-3 18q0 7 10 14.5t11 10.5zM334 797l-30 4v8l30 -5v-7zM661 498q-3 -2 -48 -4q-25 -2 -45 -17q0 9 16 16l-5.5 5.5l-5.5 5.5q-12 -7 -17 -15
q-1 -3 -17 -3t-29 18q-11 -13 -39 -22q2 2 10 8.5t13 11.5q-4 3 -22 -6l13 15l-8 7q-10 -5 -37 -23q3 14 6 27q4 19 13 27q23 18 60 18q28 0 71 -18q7 7 14 32q1 -2 32 -24q26 -19 25 -38q-10 0 -25 -5q-3 -1 -11 -7q18 -9 36 -9zM290 806q-11 -11 -11 -16q-7 7 -7 16h18z
M828 2h-89q13 27 13 29q0 13 -16 29q-7 -7 -14 -26q-8 -23 -14 -33q0 34 -8 104q-1 -8 -4 -26q-12 -8 -34 -27q-6 -7 -29 -50h-166q41 2 81 23q13 6 37 39q21 31 30 32q-3 -25 -1 -32q16 15 17 30q4 0 11 6q9 22 30 63q18 24 51 77q10 18 3 43q8 12 8 27q0 4 -6 37
q-4 22 4 35q-1 -19 -1 -37q0 -27 23 -27q15 0 26 11.5t11 27.5q0 12 -4 53q-4 35 -2 56q0 3 8.5 28.5t8.5 32.5q0 24 -16 54q-9 -14 -23 -45q0 14 -4 18q-13 -13 -15 -13q2 8 2 24q-5 15 -14 45q0 -4 13 -11q2 2 -6 18l22 -20q-7 -8 -15 -2q-5 -8 4 -23q8 10 29 30
q-6 1 -17 3q-8 17 -21 30q-5 -4 -5 -9q1 5 -4.5 16.5t-5.5 17.5q0 21 5 46q3 19 -13 43q-2 -2 -5 -7.5t-6 -5.5q9 43 -25 62q-6 -6 10 -24v-21q-11 13 -21 26q-15 18 -13 28h170v-805zM597 448h-30v8h30v-8zM661 186l-6 -22q-9 0 -19 -21l-14 -28q0 1 14 43q9 27 25 28z
M130 658q-4 1 -12 6q7 6 7 10q0 -2 2.5 -7.5t2.5 -8.5zM688 292q-7 1 -23.5 -2.5t-23.5 -25.5q0 5 -9 13q-86 -72 -91 -72q-6 0 -4 3q2 4 0 6q-9 -9 -16 -9q-6 0 -5.5 6t-1.5 8q-15 -14 -12 -23q-9 14 -17 14q-6 0 -24 -9.5t-24 -9.5q2 0 -53 10q-6 -11 -7 -19v15
q-1 0 -3.5 1.5t-8.5 1.5q-8 0 -8 -17q-28 9 -94 37q1 2 1.5 7t7.5 5q14 0 33 18q3 -1 24 -22q5 2 12 2q7 -9 15 -15q15 0 50.5 -2.5t39.5 -2.5q11 0 38 7q33 9 52 21q10 13 29 35q0 -1 -1 -5q-1 -2 0 -3q2 -1 7 -1t10 2t10.5 2t9 7t8.5 7q7 0 9.5 -2.5t3.5 -2.5l3 3v9
q-19 20 -25 20t-10 -2t-5 -2q0 3 8 11q-2 2 -63 51q16 -8 68 -40q44 -27 50 -27q3 0 3 1t-2 3.5t-2 3.5t3 1q6 0 7 -4.5t7 -4.5q11 0 18 14zM369 333h-8l-5 34h8zM525 306q-7 -3 -18.5 -17t-14.5 -22l-8 -6.5t-8 -11.5q0 -3 4 -6q-61 -24 -79 -24q-5 0 -16.5 6t-19.5 6
q-5 0 -11 -3q0 2 -2.5 10t-1.5 10q-5 2 -11 4q-6 9 -26 50v47q8 5 21 14q0 -4 -4 -14.5t-4 -16.5q0 -11 8 -18q12 -3 41 -16q4 -2 21 -18t23 -16q34 0 61 23q36 32 45 35v-16zM245 415h-32l6 7zM439 2h-438v805h148q-4 -13 -15 -30q1 -6 5 -21q-21 -25 -21 -39q0 -16 11 -16
l-9 -3q-8 -27 -3 -47q-6 -1 -3 -12q-1 -4 2 -13q5 7 19 18q2 -19 1 -34q-2 -19 -2 -13q0 11 -9 11q-6 0 -6 -4.5t-6 -4.5q-9 0 -9 -4q0 -13 23 -41q-15 -9 0 -9q7 0 8.5 3t3.5 6q0 -3 -12 -16q11 -4 10 -8t2 -8q2 1 12 11q8 7 14 7t13.5 -3.5t10.5 -4.5q5 -1 16.5 1.5
t17 2.5t30 4.5t30.5 4.5t15 -8t13 -9q40 -15 57 -36t17 -60q0 -21 -11 -55q1 2 -6 7.5t-9 12.5q-3 10 0 29q5 29 5 32q-10 18 -32 40q-43 15 -101 15q-36 0 -56 -12q0 -1 -7 -8q6 -7 13 -7q13 0 5 8h104q-3 3 -18 3q30 6 68 -19q-1 0 -16.5 6t-24.5 6q-5 0 -9 -2
q16 -11 41 -23q-5 0 -18 6t-19 6q-5 0 -9 -9t-9 -9q-24 0 -38 9l-11 -12q8 -8 13 -8q-10 -1 -29 2q-7 -8 2 -17q-14 -1 -36 10q9 0 18 9q2 2 -2 7q-3 -3 -10 -5t-9 -4q0 8 7 15q-5 2 -20 7q-11 -13 -13 -16q-9 -9 -18 -11q-3 2 -8 -2q9 -9 23 -9q-5 -2 -16 -2.5t-16 -2.5
q9 -8 21 -23q3 -7 0 -32q-2 -19 4 -19q7 0 8.5 1.5t2.5 1.5l-6 -46q1 -2 -3 -3.5t-4 -8.5q0 -14 27 -24q31 -12 32 -15.5t2.5 -11.5t1.5 -10q-1 -28 4 -38q-15 25 -40 37q-3 1 -7.5 15.5t-15.5 15.5q0 -6 -2 -18.5t-2 -18.5q0 -31 22 -55q6 -7 39 -33q3 -6 10 -16q3 0 4 5
q1 4 -2 8q8 -5 12 -5q0 -2 -8 -10q7 -10 26 -27q15 -4 32 -13l14 -13q123 -67 132 -67q19 0 22 -4zM171 434h-12v8h12v-8zM760 623l-7 30h-7l7 -30h7zM695 609v17h-8v-17h8zM611 524q-9 9 -9 11q-71 -5 -58 -6q11 0 33.5 -2.5t33.5 -2.5zM110 776l-4 6l-16 -11l3 -6z
M100 753l-2 6l-11 -5v-7zM51 760l-6 3l-6 -12l6 -3zM94 730q-11 -13 -11.5 -35t-14.5 -36q8 0 16 8q4 -4 4 -13q6 17 6 76zM83 642l-6 3l-6 -12l6 -3zM70 631q0 -10 -8 -18q-3 5 -1 12q1 6 1 8q4 3 4 23q0 5 -4.5 13t-4.5 9q0 -7 -3 -22t-3 -21q-4 4 -4 9q0 -2 -3 -10.5
t-3 -10.5q17 -9 25 -28q11 22 4 36zM83 585h-8l-4 -30h7zM100 445q0 4 -2 16q-2 9 -1 13q-11 -1 -14 11q-2 9 -4 19q0 -16 -1 -41t-1 -29q0 -2 6.5 -6t6.5 -24q10 20 10 41zM97 307l-7 3l-6 -12l7 -3zM565 179q0 -9 -14 -14q-21 -7 -22 -7q4 -4 9 -4q-15 -17 -25 -17
q-30 0 -37 -4.5t-8 -4.5q-5 0 -13 7t-14 7t-14 -9t-13 -9q-10 0 -27.5 6t-27.5 6q-7 0 -14 -3q-3 6 -9.5 10.5t-9.5 9.5q9 0 31 4.5t34 4.5q11 0 18 -6.5t11 -6.5q23 0 58 18q6 2 16 9q7 5 26 5q13 -2 23 5.5t17 7.5q0 -1 2.5 -5.5t2.5 -9.5z" />
    <glyph glyph-name="quotesingle" unicode="'" horiz-adv-x="174" 
d="M112 653q-6 -63 -71 -68v23q15 2 19 15t6 25q-26 5 -26 45q0 14 7 26q7 16 13 19t26 3q23 0 31 -10q5 -6 10 -27q9 -40 -15 -51z" />
    <glyph glyph-name="parenleft" unicode="(" 
d="M715 563q-10 7 -29 24q-7 7 -19 43q2 -2 14 -8q4 4 -5 22l21 -19q7 -14 18 -46v-16zM723 481q-3 -20 -15 -58q0 3 -3 15t-3 18q0 7 10 14.5t11 10.5zM334 797l-30 4v8l30 -5v-7zM661 498q-3 -2 -48 -4q-25 -2 -45 -17q0 9 16 16l-5.5 5.5l-5.5 5.5q-12 -7 -17 -15
q-1 -3 -17 -3t-29 18q-11 -13 -39 -22q2 2 10 8.5t13 11.5q-4 3 -22 -6l13 15l-8 7q-10 -5 -37 -23q3 14 6 27q4 19 13 27q23 18 60 18q28 0 71 -18q7 7 14 32q1 -2 32 -24q26 -19 25 -38q-10 0 -25 -5q-3 -1 -11 -7q18 -9 36 -9zM290 806q-11 -11 -11 -16q-7 7 -7 16h18z
M828 2h-89q13 27 13 29q0 13 -16 29q-7 -7 -14 -26q-8 -23 -14 -33q0 34 -8 104q-1 -8 -4 -26q-12 -8 -34 -27q-6 -7 -29 -50h-166q41 2 81 23q13 6 37 39q21 31 30 32q-3 -25 -1 -32q16 15 17 30q4 0 11 6q9 22 30 63q18 24 51 77q10 18 3 43q8 12 8 27q0 4 -6 37
q-4 22 4 35q-1 -19 -1 -37q0 -27 23 -27q15 0 26 11.5t11 27.5q0 12 -4 53q-4 35 -2 56q0 3 8.5 28.5t8.5 32.5q0 24 -16 54q-9 -14 -23 -45q0 14 -4 18q-13 -13 -15 -13q2 8 2 24q-5 15 -14 45q0 -4 13 -11q2 2 -6 18l22 -20q-7 -8 -15 -2q-5 -8 4 -23q8 10 29 30
q-6 1 -17 3q-8 17 -21 30q-5 -4 -5 -9q1 5 -4.5 16.5t-5.5 17.5q0 21 5 46q3 19 -13 43q-2 -2 -5 -7.5t-6 -5.5q9 43 -25 62q-6 -6 10 -24v-21q-11 13 -21 26q-15 18 -13 28h170v-805zM597 448h-30v8h30v-8zM661 186l-6 -22q-9 0 -19 -21l-14 -28q0 1 14 43q9 27 25 28z
M130 658q-4 1 -12 6q7 6 7 10q0 -2 2.5 -7.5t2.5 -8.5zM688 292q-7 1 -23.5 -2.5t-23.5 -25.5q0 5 -9 13q-86 -72 -91 -72q-6 0 -4 3q2 4 0 6q-9 -9 -16 -9q-6 0 -5.5 6t-1.5 8q-15 -14 -12 -23q-9 14 -17 14q-6 0 -24 -9.5t-24 -9.5q2 0 -53 10q-6 -11 -7 -19v15
q-1 0 -3.5 1.5t-8.5 1.5q-8 0 -8 -17q-28 9 -94 37q1 2 1.5 7t7.5 5q14 0 33 18q3 -1 24 -22q5 2 12 2q7 -9 15 -15q15 0 50.5 -2.5t39.5 -2.5q11 0 38 7q33 9 52 21q10 13 29 35q0 -1 -1 -5q-1 -2 0 -3q2 -1 7 -1t10 2t10.5 2t9 7t8.5 7q7 0 9.5 -2.5t3.5 -2.5l3 3v9
q-19 20 -25 20t-10 -2t-5 -2q0 3 8 11q-2 2 -63 51q16 -8 68 -40q44 -27 50 -27q3 0 3 1t-2 3.5t-2 3.5t3 1q6 0 7 -4.5t7 -4.5q11 0 18 14zM369 333h-8l-5 34h8zM525 306q-7 -3 -18.5 -17t-14.5 -22l-8 -6.5t-8 -11.5q0 -3 4 -6q-61 -24 -79 -24q-5 0 -16.5 6t-19.5 6
q-5 0 -11 -3q0 2 -2.5 10t-1.5 10q-5 2 -11 4q-6 9 -26 50v47q8 5 21 14q0 -4 -4 -14.5t-4 -16.5q0 -11 8 -18q12 -3 41 -16q4 -2 21 -18t23 -16q34 0 61 23q36 32 45 35v-16zM245 415h-32l6 7zM439 2h-438v805h148q-4 -13 -15 -30q1 -6 5 -21q-21 -25 -21 -39q0 -16 11 -16
l-9 -3q-8 -27 -3 -47q-6 -1 -3 -12q-1 -4 2 -13q5 7 19 18q2 -19 1 -34q-2 -19 -2 -13q0 11 -9 11q-6 0 -6 -4.5t-6 -4.5q-9 0 -9 -4q0 -13 23 -41q-15 -9 0 -9q7 0 8.5 3t3.5 6q0 -3 -12 -16q11 -4 10 -8t2 -8q2 1 12 11q8 7 14 7t13.5 -3.5t10.5 -4.5q5 -1 16.5 1.5
t17 2.5t30 4.5t30.5 4.5t15 -8t13 -9q40 -15 57 -36t17 -60q0 -21 -11 -55q1 2 -6 7.5t-9 12.5q-3 10 0 29q5 29 5 32q-10 18 -32 40q-43 15 -101 15q-36 0 -56 -12q0 -1 -7 -8q6 -7 13 -7q13 0 5 8h104q-3 3 -18 3q30 6 68 -19q-1 0 -16.5 6t-24.5 6q-5 0 -9 -2
q16 -11 41 -23q-5 0 -18 6t-19 6q-5 0 -9 -9t-9 -9q-24 0 -38 9l-11 -12q8 -8 13 -8q-10 -1 -29 2q-7 -8 2 -17q-14 -1 -36 10q9 0 18 9q2 2 -2 7q-3 -3 -10 -5t-9 -4q0 8 7 15q-5 2 -20 7q-11 -13 -13 -16q-9 -9 -18 -11q-3 2 -8 -2q9 -9 23 -9q-5 -2 -16 -2.5t-16 -2.5
q9 -8 21 -23q3 -7 0 -32q-2 -19 4 -19q7 0 8.5 1.5t2.5 1.5l-6 -46q1 -2 -3 -3.5t-4 -8.5q0 -14 27 -24q31 -12 32 -15.5t2.5 -11.5t1.5 -10q-1 -28 4 -38q-15 25 -40 37q-3 1 -7.5 15.5t-15.5 15.5q0 -6 -2 -18.5t-2 -18.5q0 -31 22 -55q6 -7 39 -33q3 -6 10 -16q3 0 4 5
q1 4 -2 8q8 -5 12 -5q0 -2 -8 -10q7 -10 26 -27q15 -4 32 -13l14 -13q123 -67 132 -67q19 0 22 -4zM171 434h-12v8h12v-8zM760 623l-7 30h-7l7 -30h7zM695 609v17h-8v-17h8zM611 524q-9 9 -9 11q-71 -5 -58 -6q11 0 33.5 -2.5t33.5 -2.5zM110 776l-4 6l-16 -11l3 -6z
M100 753l-2 6l-11 -5v-7zM51 760l-6 3l-6 -12l6 -3zM94 730q-11 -13 -11.5 -35t-14.5 -36q8 0 16 8q4 -4 4 -13q6 17 6 76zM83 642l-6 3l-6 -12l6 -3zM70 631q0 -10 -8 -18q-3 5 -1 12q1 6 1 8q4 3 4 23q0 5 -4.5 13t-4.5 9q0 -7 -3 -22t-3 -21q-4 4 -4 9q0 -2 -3 -10.5
t-3 -10.5q17 -9 25 -28q11 22 4 36zM83 585h-8l-4 -30h7zM100 445q0 4 -2 16q-2 9 -1 13q-11 -1 -14 11q-2 9 -4 19q0 -16 -1 -41t-1 -29q0 -2 6.5 -6t6.5 -24q10 20 10 41zM97 307l-7 3l-6 -12l7 -3zM565 179q0 -9 -14 -14q-21 -7 -22 -7q4 -4 9 -4q-15 -17 -25 -17
q-30 0 -37 -4.5t-8 -4.5q-5 0 -13 7t-14 7t-14 -9t-13 -9q-10 0 -27.5 6t-27.5 6q-7 0 -14 -3q-3 6 -9.5 10.5t-9.5 9.5q9 0 31 4.5t34 4.5q11 0 18 -6.5t11 -6.5q23 0 58 18q6 2 16 9q7 5 26 5q13 -2 23 5.5t17 7.5q0 -1 2.5 -5.5t2.5 -9.5z" />
    <glyph glyph-name="parenright" unicode=")" horiz-adv-x="1000" 
d="M748 -194h-747v998h747v-998zM551 650l-19 6v-7l16 -5zM562 603v17h-8v-17h8zM419 721v8h-17v-8h17zM357 715v9l-23 5v-8zM284 689q0 3 -2.5 9.5t-2.5 9.5q-17 -9 -17 -23q2 0 11 2t11 2zM667 360q0 16 -18 34q-2 -12 -7 -36t-7 -36q-3 6 -6 32q-1 12 -20 15q8 -21 5 -43
q-4 0 -5 2.5t-8 2.5q-8 0 -17 -33q-9 -29 -9 -42q0 -7 7 -15q8 -11 22 -11q20 0 27 26q4 13 21 59q15 40 15 45zM584 482v26q-33 46 -33 58q0 4 7 12q14 -14 22 -11q-23 35 -65 93q-8 -7 -8 -18q3 -2 10 -6.5t10 -6.5q-4 -1 -8 -1q-11 0 -24.5 16.5t-17.5 18.5q-23 9 -71 20
q-44 11 -53 11q-7 0 -16.5 -6.5t-13.5 -7.5q-7 -14 -21 -19q-4 3 -7 -1q0 -17 -2 -20q-10 20 -20 20q-14 0 -21 -14l-8 -20q-19 17 -13 33q-4 -2 -13 -8t-12 -6q0 7 -3 20q-32 -55 -65 -109q-27 -49 -27 -109q0 -40 4 -47q12 -23 14 -28q4 -14 3.5 -45t5.5 -40.5t15 -21.5
q4 -12 4.5 -39.5t3.5 -37.5q27 -106 79 -151q0 2 -2 9.5t-2 10.5q23 -6 51 -6q-8 0 103 21q3 4 7 8.5t11 4.5q8 0 33 -29q20 5 37 45.5t30 46.5v-12q-11 -15 -19 -35q-3 -10 -2 -30q2 -34 2 -32q0 -14 -8 -29l-11 -22h-6q-4 0 -4 -14q27 8 69 42q38 32 50 53q-9 0 -11 5
q-10 11 -19 23q-13 16 -13 22q0 3 12 73q14 74 16 111q3 0 1 4q-2 6 -2 7q0 -7 -8 -7q-6 0 -7 8q-2 14 -3 16q-2 0 -7 -3q-4 -2 -7 1q5 17 16 48q-1 4 -7 39q-3 18 -1 27q8 3 19.5 11.5t15.5 8.5q-10 20 -6 28q9 -9 16 -9zM401 -82q0 10 -12 22q-5 -5 -10 -5q-2 0 -33 6
q-33 28 -94 86v-36q-1 -17 16.5 -36t34.5 -38q8 -10 13 -32q7 -26 9 -31q5 -10 41 -25q35 71 35 89zM459 406q-11 -12 -34 -12q-6 0 -20.5 7.5t-20.5 7.5t-9.5 -5t-9.5 -5t-8.5 5t-8.5 5t-8.5 -7.5t-8.5 -7.5q-14 0 -34 10q-2 -3 -2 -12q0 -6 5 -26q6 -23 7 -32
q5 -12 16 -18q-15 5 -32 -4q0 6 7 17q-5 9 -12 29q-1 9 -1 64q21 20 43 20q6 0 29 -9.5t29 -9.5t7 9.5t8 9.5q22 0 58 -36zM246 401q0 -17 -12 -17q-6 0 -9.5 5t-9.5 5q-5 0 -10.5 -7t-11.5 -7t-7 4.5t-7 4.5q-8 0 -11.5 -6.5t-7.5 -12.5q4 7 10 42q4 21 28 21
q9 0 28.5 -13.5t19.5 -18.5zM147 391h-6v22q13 -6 6 -22zM401 227q-10 -19 -10 -45q-12 0 -57 -6q-38 -4 -61 -4q-22 0 -40 3l-6 10q14 8 53 12q55 4 61 6t13 5q13 5 25 2q7 7 7 22q0 10 -10 28t-19 18q-24 0 -84 -48q-18 19 -48 39q-5 -8 -15.5 -24.5t-14.5 -24.5
q8 35 25 68q10 -19 26 -19q7 0 19 6q17 9 22 11q15 6 42 6q0 4 1 20q11 -7 39 -37q32 -34 32 -48zM362 146q-13 -12 -23 -12q-5 4 -5 13h12q11 -1 16 -1z" />
    <glyph glyph-name="asterisk" unicode="*" horiz-adv-x="1484" 
d="M601 725l-1 -8l-6 3l1 4zM551 732l-4 -7l-3 2l3 6zM531 684l-6 -9l-3 3l5 8zM524 673l-3 -14l-4 -10l2 24h5zM525 632l-1 -13l-3 -7l1 14zM1157 -18l-3 -7l-4 2l3 6zM532 588l-4 -3q2 8 0 12q-5 0 1 12q3 -5 3 -21zM695 501q-12 2 -39 2q-1 -10 -1.5 -20.5t-8.5 -18.5
q5 -8 14 -8q2 0 12.5 1t17.5 1q3 0 3 -6q0 -7 -10 -11t-10 -17q-2 -1 -5 -5h-17q-14 0 -19 4v1q-3 0 -6 -1.5t-6 -1.5h-7q-3 1 -4 1q4 3 10 14h-27q0 1 -2.5 6t-2.5 6h17l4 -5q6 0 9 2q-1 3 -14 20q15 9 51 29l-3 7q-3 4 -6 4q-15 0 -10 -1h9v8q19 -6 51 -11zM599 538
q-5 -5 -6 -3q-2 0 -7 5q-6 -12 -18 -12q-3 0 -13.5 9.5t-13.5 9.5q-16 0 -15 -19q1 0 -11 6q1 0 19 30q19 6 28 6q15 0 28 -11q3 -1 9 -21zM595 506l-6 -6h-3l10 12zM582 497h-7l-3 3l10 1v-4zM1398 -197h-148v116h-16q-2 0 -384.5 -30t-385.5 -30h-86q-1 0 -7 -4
q-33 -6 -61 -6q-11 0 -16 3q-3 -21 1 -49h-141v23q0 7 31 77q3 2 5 5q10 1 15 12t10 21q0 -14 5 -23q2 1 4 -2q7 7 5 15q-3 9 -3 10q13 0 37 19l34 30v9q-4 4 -8 4q-3 0 -29 -17.5t-29 -17.5t-8.5 6.5t-9.5 6.5q-3 0 -4 -1.5t-4 -1.5l-37.5 32.5l-37.5 32.5q-3 0 -2.5 -1.5
t-2.5 -1.5q-5 0 -14 17.5t-9 21.5v13q2 -2 12 -24q8 -18 18 -18q18 0 49 18q-4 3 -15 -3q7 7 14 7q3 0 4 -1t4 -1q4 0 12.5 5t11.5 6q24 9 77 22q4 2 14 8q10 1 30 4q42 9 36 9q14 0 23 -24q6 -20 12 -41q29 -68 54 -118q5 0 5 4t-35 88q-8 10 -19 30q-8 27 -29 80
q-30 -1 -87 4q2 6 18 65q1 15 7 40q25 58 82 86q61 28 168 76q7 4 7 12q10 -5 17 -13q-8 4 -13 3q8 -25 24 -30q2 2 -3 13q7 -9 14 -17q3 -3 17 -3q3 0 11.5 1.5t12.5 1.5l2 3.5t5 3.5t3 -1.5t4 -1.5q12 0 26 24q12 21 12 30q1 14 -1 17q7 3 19 13q5 9 1 17q4 1 9 5
q-9 17 -65 24l-36 9h-3q3 -5 10 -12q-7 3 -18 10q-1 3 -2 5q-1 6 -4 9l2.5 1.5t5.5 1.5q4 0 6.5 -3.5t4.5 -6.5q8 -5 16 -5q4 0 10.5 1.5t9.5 1.5t20 -5t20 -5q6 0 18 17.5t14 26.5q0 -2 5 -7q9 4 9 10q0 22 -10 22q-7 0 -17 -16l-10 -16q-4 0 -7 -1.5t-6 -1.5t-3 3v0
q0 2 -3 2t-18.5 -10t-18.5 -10t-20 5t-20 5t-4 -2t-2 -2q1 8 -2 21q7 7 13 7q99 6 89 6l14 14q-4 3 -4 13q3 0 5 -2q4 8 21 27q3 4 3 16v15q-1 2 -12 14q0 24 1 18q-4 11 -11 34l-4 -5q-8 9 -25 21q-28 6 -71 6q-9 0 -31.5 -12.5l-22.5 -12.5q-4 0 -3.5 2t-0.5 3
q-2 -5 -8 -13t-14 -14q-11 -10 -11 -19q0 -2 1 -4q7 3 21 7q0 2 -1 7t-1 7q9 12 23 22q10 -10 13 -10t5 1t3 1q0 -6 -10 -11q7 -3 15 1q-8 -9 -27 -17q-23 -9 -30 -14q7 -7 7 -5q0 -3 -6 -3q-2 0 -6 3.5t-7 3.5q-6 0 -14 -12q0 4 3 12.5t3 11.5q0 6 -9 6q9 15 13 29
q0 -1 3 -5q5 8 18 18q2 -1 5 1q1 4 -10 10q1 0 23 22q14 13 30 13q3 0 6.5 -1t6.5 -1q6 0 8 6q2 1 12.5 3.5t13.5 2.5l6 -4q4 0 16.5 -1.5t15.5 -1.5t3 -1.5t3 -1.5q2 0 10 1.5t11 1.5q2 0 6 -3.5t7 -3.5t3 1t4 1q2 0 14 -12q4 3 12 5h-6q0 -1 -1 -2t-1 -5q0 -1 15.5 -14.5
t20.5 -21.5q18 -27 25 -70q8 -47 8 -64q0 -13 -6 -30l-10 -30q-2 -8 -9 -23q-3 -3 -9 -7.5t-6 -5.5q0 -56 13 -72q8 -9 36 -16l45 -10q14 0 40 -4q63 -22 91 -42q37 -26 69 -74q10 -15 20 -52q6 -22 9 -53q3 -26 11 -49q5 -15 15 -89v-26q3 -17 18 -16q-4 -2 -13 -1
q-2 -2 -2 -5q0 -15 14 -15q5 0 5 6q0 -1 1.5 -5t1.5 -8q-16 -6 -28 -6q-17 0 -18 23h-14q-34 -1 -89 -6q-55 -8 -163 -21q-81 -8 -185 -14q-5 -8 -5 -13q-56 -4 -159 -12q-10 -1 -34 -6t-27 -5t-3.5 2.5t-4.5 2.5q-13 0 -24 -4q9 -3 22 -2q-25 0 -40 -3q4 -1 10 3
q-5 1 -31 1q-17 0 -83 -8q-4 -4 -4 -12t2 -10q1 5 4 13q0 -13 3 -13q4 0 4 5q1 -2 4 -6q-8 0 -10 -2q-6 1 56 1q8 0 178 11q43 4 136 10q38 3 119 8q31 2 101 7q24 2 69 5q26 2 80 5q71 6 214 16q4 5 5 34q49 -5 150 -10v-155zM581 453q-6 7 -6 8q0 3 3 5.5l3 2.5v-16z
M814 -70h-14v4h14v-4zM277 112l-10 -3l-4 4l26 4zM285 135q-23 -1 -51 -10q-24 -7 -47 -15q0 7 2 8q14 6 44 13.5t35 7.5q13 0 17 -4zM255 104l-22 -7l13 7l14 6zM136 216q-1 -1 -3 -4q-22 -11 -65 -31l1 7q29 18 58 28h9zM102 100q-3 0 -7 7t-19 33q-12 23 -12 25l-4 11h9
q10 -23 33 -68v-8zM303 -155l-6 -10l-3 7l6 6zM756 698l-4 3l-2 -2l9 -16zM676 763q-16 12 -25 12q-3 0 -10.5 -2t-11.5 -2q12 -3 22 -3q4 0 6.5 -2.5t5.5 -2.5h13zM654 751q-4 1 -9 6.5t-9 5.5q-7 0 -14 -12q13 1 32 0zM780 582q-1 1 -14 15q0 -3 -3 -7t-3 -5zM824 583
l-3 11q-3 -4 -5.5 -21.5t-9.5 -22.5v22q-1 -4 -12.5 -22.5t-11.5 -28.5q0 -11 10 -11q12 0 26 53q3 13 6 20zM603 742l-10 -3l-9 -6l2 -3zM730 504l-5 7l-11 3l3 -4zM676 555l-6 7q-2 0 -6 -3q3 -4 12 -4zM658 562q-4 0 -8 -2t-5 -2q6 0 10 -3q2 2 3 7zM577 543q0 4 -3 9
q-6 1 -19 -1q11 -11 10 -11q3 0 7 1.5t5 1.5zM540 556l-5 -1l-3 -6l3 1zM319 -32l3 6h-9v-4zM260 -97q-1 1 -4.5 3.5t-5.5 3.5q5 5 10 5q-2 2 -16 4q-3 -7 -10 -18q-1 4 -4 9q-2 1 -7 -2q4 -14 15 -16q-4 4 -1 7l6 -6t3 -4q10 5 14 14zM256 -119l-4 5l-2 -4l9 -7z" />
    <glyph glyph-name="plus" unicode="+" 
d="M715 563q-10 7 -29 24q-7 7 -19 43q2 -2 14 -8q4 4 -5 22l21 -19q7 -14 18 -46v-16zM723 481q-3 -20 -15 -58q0 3 -3 15t-3 18q0 7 10 14.5t11 10.5zM334 797l-30 4v8l30 -5v-7zM661 498q-3 -2 -48 -4q-25 -2 -45 -17q0 9 16 16l-5.5 5.5l-5.5 5.5q-12 -7 -17 -15
q-1 -3 -17 -3t-29 18q-11 -13 -39 -22q2 2 10 8.5t13 11.5q-4 3 -22 -6l13 15l-8 7q-10 -5 -37 -23q3 14 6 27q4 19 13 27q23 18 60 18q28 0 71 -18q7 7 14 32q1 -2 32 -24q26 -19 25 -38q-10 0 -25 -5q-3 -1 -11 -7q18 -9 36 -9zM290 806q-11 -11 -11 -16q-7 7 -7 16h18z
M828 2h-89q13 27 13 29q0 13 -16 29q-7 -7 -14 -26q-8 -23 -14 -33q0 34 -8 104q-1 -8 -4 -26q-12 -8 -34 -27q-6 -7 -29 -50h-166q41 2 81 23q13 6 37 39q21 31 30 32q-3 -25 -1 -32q16 15 17 30q4 0 11 6q9 22 30 63q18 24 51 77q10 18 3 43q8 12 8 27q0 4 -6 37
q-4 22 4 35q-1 -19 -1 -37q0 -27 23 -27q15 0 26 11.5t11 27.5q0 12 -4 53q-4 35 -2 56q0 3 8.5 28.5t8.5 32.5q0 24 -16 54q-9 -14 -23 -45q0 14 -4 18q-13 -13 -15 -13q2 8 2 24q-5 15 -14 45q0 -4 13 -11q2 2 -6 18l22 -20q-7 -8 -15 -2q-5 -8 4 -23q8 10 29 30
q-6 1 -17 3q-8 17 -21 30q-5 -4 -5 -9q1 5 -4.5 16.5t-5.5 17.5q0 21 5 46q3 19 -13 43q-2 -2 -5 -7.5t-6 -5.5q9 43 -25 62q-6 -6 10 -24v-21q-11 13 -21 26q-15 18 -13 28h170v-805zM597 448h-30v8h30v-8zM661 186l-6 -22q-9 0 -19 -21l-14 -28q0 1 14 43q9 27 25 28z
M130 658q-4 1 -12 6q7 6 7 10q0 -2 2.5 -7.5t2.5 -8.5zM688 292q-7 1 -23.5 -2.5t-23.5 -25.5q0 5 -9 13q-86 -72 -91 -72q-6 0 -4 3q2 4 0 6q-9 -9 -16 -9q-6 0 -5.5 6t-1.5 8q-15 -14 -12 -23q-9 14 -17 14q-6 0 -24 -9.5t-24 -9.5q2 0 -53 10q-6 -11 -7 -19v15
q-1 0 -3.5 1.5t-8.5 1.5q-8 0 -8 -17q-28 9 -94 37q1 2 1.5 7t7.5 5q14 0 33 18q3 -1 24 -22q5 2 12 2q7 -9 15 -15q15 0 50.5 -2.5t39.5 -2.5q11 0 38 7q33 9 52 21q10 13 29 35q0 -1 -1 -5q-1 -2 0 -3q2 -1 7 -1t10 2t10.5 2t9 7t8.5 7q7 0 9.5 -2.5t3.5 -2.5l3 3v9
q-19 20 -25 20t-10 -2t-5 -2q0 3 8 11q-2 2 -63 51q16 -8 68 -40q44 -27 50 -27q3 0 3 1t-2 3.5t-2 3.5t3 1q6 0 7 -4.5t7 -4.5q11 0 18 14zM369 333h-8l-5 34h8zM525 306q-7 -3 -18.5 -17t-14.5 -22l-8 -6.5t-8 -11.5q0 -3 4 -6q-61 -24 -79 -24q-5 0 -16.5 6t-19.5 6
q-5 0 -11 -3q0 2 -2.5 10t-1.5 10q-5 2 -11 4q-6 9 -26 50v47q8 5 21 14q0 -4 -4 -14.5t-4 -16.5q0 -11 8 -18q12 -3 41 -16q4 -2 21 -18t23 -16q34 0 61 23q36 32 45 35v-16zM245 415h-32l6 7zM439 2h-438v805h148q-4 -13 -15 -30q1 -6 5 -21q-21 -25 -21 -39q0 -16 11 -16
l-9 -3q-8 -27 -3 -47q-6 -1 -3 -12q-1 -4 2 -13q5 7 19 18q2 -19 1 -34q-2 -19 -2 -13q0 11 -9 11q-6 0 -6 -4.5t-6 -4.5q-9 0 -9 -4q0 -13 23 -41q-15 -9 0 -9q7 0 8.5 3t3.5 6q0 -3 -12 -16q11 -4 10 -8t2 -8q2 1 12 11q8 7 14 7t13.5 -3.5t10.5 -4.5q5 -1 16.5 1.5
t17 2.5t30 4.5t30.5 4.5t15 -8t13 -9q40 -15 57 -36t17 -60q0 -21 -11 -55q1 2 -6 7.5t-9 12.5q-3 10 0 29q5 29 5 32q-10 18 -32 40q-43 15 -101 15q-36 0 -56 -12q0 -1 -7 -8q6 -7 13 -7q13 0 5 8h104q-3 3 -18 3q30 6 68 -19q-1 0 -16.5 6t-24.5 6q-5 0 -9 -2
q16 -11 41 -23q-5 0 -18 6t-19 6q-5 0 -9 -9t-9 -9q-24 0 -38 9l-11 -12q8 -8 13 -8q-10 -1 -29 2q-7 -8 2 -17q-14 -1 -36 10q9 0 18 9q2 2 -2 7q-3 -3 -10 -5t-9 -4q0 8 7 15q-5 2 -20 7q-11 -13 -13 -16q-9 -9 -18 -11q-3 2 -8 -2q9 -9 23 -9q-5 -2 -16 -2.5t-16 -2.5
q9 -8 21 -23q3 -7 0 -32q-2 -19 4 -19q7 0 8.5 1.5t2.5 1.5l-6 -46q1 -2 -3 -3.5t-4 -8.5q0 -14 27 -24q31 -12 32 -15.5t2.5 -11.5t1.5 -10q-1 -28 4 -38q-15 25 -40 37q-3 1 -7.5 15.5t-15.5 15.5q0 -6 -2 -18.5t-2 -18.5q0 -31 22 -55q6 -7 39 -33q3 -6 10 -16q3 0 4 5
q1 4 -2 8q8 -5 12 -5q0 -2 -8 -10q7 -10 26 -27q15 -4 32 -13l14 -13q123 -67 132 -67q19 0 22 -4zM171 434h-12v8h12v-8zM760 623l-7 30h-7l7 -30h7zM695 609v17h-8v-17h8zM611 524q-9 9 -9 11q-71 -5 -58 -6q11 0 33.5 -2.5t33.5 -2.5zM110 776l-4 6l-16 -11l3 -6z
M100 753l-2 6l-11 -5v-7zM51 760l-6 3l-6 -12l6 -3zM94 730q-11 -13 -11.5 -35t-14.5 -36q8 0 16 8q4 -4 4 -13q6 17 6 76zM83 642l-6 3l-6 -12l6 -3zM70 631q0 -10 -8 -18q-3 5 -1 12q1 6 1 8q4 3 4 23q0 5 -4.5 13t-4.5 9q0 -7 -3 -22t-3 -21q-4 4 -4 9q0 -2 -3 -10.5
t-3 -10.5q17 -9 25 -28q11 22 4 36zM83 585h-8l-4 -30h7zM100 445q0 4 -2 16q-2 9 -1 13q-11 -1 -14 11q-2 9 -4 19q0 -16 -1 -41t-1 -29q0 -2 6.5 -6t6.5 -24q10 20 10 41zM97 307l-7 3l-6 -12l7 -3zM565 179q0 -9 -14 -14q-21 -7 -22 -7q4 -4 9 -4q-15 -17 -25 -17
q-30 0 -37 -4.5t-8 -4.5q-5 0 -13 7t-14 7t-14 -9t-13 -9q-10 0 -27.5 6t-27.5 6q-7 0 -14 -3q-3 6 -9.5 10.5t-9.5 9.5q9 0 31 4.5t34 4.5q11 0 18 -6.5t11 -6.5q23 0 58 18q6 2 16 9q7 5 26 5q13 -2 23 5.5t17 7.5q0 -1 2.5 -5.5t2.5 -9.5z" />
    <glyph glyph-name="comma" unicode="," horiz-adv-x="174" 
d="M117 30q-6 -63 -71 -68v23q15 2 19 15t6 25q-26 5 -26 45q0 14 7 26q7 16 13 19t26 3q23 0 31 -10q5 -6 10 -27q9 -40 -15 -51z" />
    <glyph glyph-name="hyphen" unicode="-" horiz-adv-x="657" 
d="M617 408q-5 -7 -9 -13.5t-12 -7.5q-3 -1 -81 7q-88 9 -132 9q-26 0 -78 1.5t-78 1.5q-63 0 -111 -8q-16 -2 -31 -3q-31 -6 -37 -24l-22 -4q-3 38 22 55q15 11 53 17q55 10 139 10q88 0 213 -11l140 -14q2 -1 24 -16z" />
    <glyph glyph-name="hyphen" unicode="&#x2010;" horiz-adv-x="657" 
d="M617 408q-5 -7 -9 -13.5t-12 -7.5q-3 -1 -81 7q-88 9 -132 9q-26 0 -78 1.5t-78 1.5q-63 0 -111 -8q-16 -2 -31 -3q-31 -6 -37 -24l-22 -4q-3 38 22 55q15 11 53 17q55 10 139 10q88 0 213 -11l140 -14q2 -1 24 -16z" />
    <glyph glyph-name="hyphen" unicode="&#x2010;" horiz-adv-x="657" 
d="M617 408q-5 -7 -9 -13.5t-12 -7.5q-3 -1 -81 7q-88 9 -132 9q-26 0 -78 1.5t-78 1.5q-63 0 -111 -8q-16 -2 -31 -3q-31 -6 -37 -24l-22 -4q-3 38 22 55q15 11 53 17q55 10 139 10q88 0 213 -11l140 -14q2 -1 24 -16z" />
    <glyph glyph-name="period" unicode="." horiz-adv-x="259" 
d="M128 68q5 -9 5 -17q0 -27 -47 -27q-25 0 -33 12q-8 9 -8 34q0 14 7 26q7 16 13 19t26 3t24 -13q13 -36 13 -37z" />
    <glyph glyph-name="slash" unicode="/" horiz-adv-x="2344" 
d="M1611 524q-12 12 -23 13q35 -2 -45 -2q-31 0 -58 -33q-23 -30 -23 -57q0 -37 15 -64q20 -34 57 -34q45 0 67 46q12 37 25 75q3 9 3 17q0 21 -18 39zM2299 133q0 -42 -113 -54q-6 0 -165 -5q-303 -6 -709 -15q-45 -2 -145 -9q-93 -17 -256 -43q-39 -11 -128 -35
q-32 -5 -104 -23q-12 -3 -42 -18q-23 -11 -36 -11h-36q1 11 -18 48q195 77 455 114q186 26 455 36q226 5 453 10q258 7 338 29q-8 22 -73 33q-91 15 -294 58q-180 39 -189 39q-83 0 -114 -11q-14 -6 -60 -30q-36 -19 -48 -19q-31 0 -57 31q-11 14 -35 58q-17 31 -28 31
q-40 0 -61 -51q-13 -39 -27 -77q-14 8 -33 23q0 13 12 52q11 36 9 47q-12 6 -23 13q-16 10 -21 26q10 -2 19 -2q42 0 66 35q14 22 28.5 76t25.5 71q18 -4 32 -51q11 -43 23 -86h20q11 91 30 119q24 36 88 36q44 0 51 -14q11 -7 33 -28q14 -18 22 -58q4 -23 2 -49
q-3 -42 -14 -75q176 -25 322 -73q96 -18 192 -35q153 -37 153 -113zM1501 303l-32 20q-1 -5 -3 -16q-1 -13 6 -35q5 2 16 10q6 6 13 21zM1368 397l-21 66l-21 -64q14 7 22 6t20 -8zM1439 312q0 9 -3 30q-2 13 -9 34l-26 -2q1 -14 11 -41q7 -10 27 -21zM1103 318
q-46 -31 -82 -31q-21 0 -23 40q-2 57 -9 74q-18 40 -79 40q-56 0 -100 -40q-47 -42 -58 -109q28 -11 82 -62q63 -59 63 -92q0 -30 -51 -30q-42 0 -62 17q-1 0 -46 53q-9 10 -17 43t-14 42q-23 36 -107 90q-17 11 -44 11q-9 0 -23 -13q-17 -18 -31 -25q-25 -13 -62 -13
q-68 0 -188 33q-141 39 -141 82q0 9 14.5 27.5t17.5 27t0.5 40t4.5 44.5q11 22 94 147q7 0 19 -4q4 -7 9 -14q6 -10 6 -20q0 -14 -12 -32q105 -2 189 -70q79 -63 96 -144q5 -3 19 -15q14 24 29 47q23 30 57 30q81 0 95 -85q68 85 148 85q77 0 110 -66q7 -24 13 -47
q10 -36 22 -36q4 0 14.5 4.5t15.5 4.5q7 -13 10 -17q10 -13 21 -17zM687 421v15q-15 8 -23 6t-17 -16v-15zM725 372q-21 -6 -58 -20q4 -4 19.5 -15t19.5 -16q19 38 19 51zM834 163q-7 13 -28 40q-17 17 -56 36q4 -16 21 -47q17 -19 63 -29zM503 441v31q-16 56 -83 89
q-54 25 -108 25q-61 0 -77 -22q-7 -9 -38 -108q32 -5 57 -5q27 0 66.5 8t68.5 8q65 0 114 -26zM485 392q-26 9 -87 20q-37 1 -100 -18q72 -21 114 -18q27 2 73 16z" />
    <glyph glyph-name="zero" unicode="0" 
d="M715 563q-10 7 -29 24q-7 7 -19 43q2 -2 14 -8q4 4 -5 22l21 -19q7 -14 18 -46v-16zM723 481q-3 -20 -15 -58q0 3 -3 15t-3 18q0 7 10 14.5t11 10.5zM334 797l-30 4v8l30 -5v-7zM661 498q-3 -2 -48 -4q-25 -2 -45 -17q0 9 16 16l-5.5 5.5l-5.5 5.5q-12 -7 -17 -15
q-1 -3 -17 -3t-29 18q-11 -13 -39 -22q2 2 10 8.5t13 11.5q-4 3 -22 -6l13 15l-8 7q-10 -5 -37 -23q3 14 6 27q4 19 13 27q23 18 60 18q28 0 71 -18q7 7 14 32q1 -2 32 -24q26 -19 25 -38q-10 0 -25 -5q-3 -1 -11 -7q18 -9 36 -9zM290 806q-11 -11 -11 -16q-7 7 -7 16h18z
M828 2h-89q13 27 13 29q0 13 -16 29q-7 -7 -14 -26q-8 -23 -14 -33q0 34 -8 104q-1 -8 -4 -26q-12 -8 -34 -27q-6 -7 -29 -50h-166q41 2 81 23q13 6 37 39q21 31 30 32q-3 -25 -1 -32q16 15 17 30q4 0 11 6q9 22 30 63q18 24 51 77q10 18 3 43q8 12 8 27q0 4 -6 37
q-4 22 4 35q-1 -19 -1 -37q0 -27 23 -27q15 0 26 11.5t11 27.5q0 12 -4 53q-4 35 -2 56q0 3 8.5 28.5t8.5 32.5q0 24 -16 54q-9 -14 -23 -45q0 14 -4 18q-13 -13 -15 -13q2 8 2 24q-5 15 -14 45q0 -4 13 -11q2 2 -6 18l22 -20q-7 -8 -15 -2q-5 -8 4 -23q8 10 29 30
q-6 1 -17 3q-8 17 -21 30q-5 -4 -5 -9q1 5 -4.5 16.5t-5.5 17.5q0 21 5 46q3 19 -13 43q-2 -2 -5 -7.5t-6 -5.5q9 43 -25 62q-6 -6 10 -24v-21q-11 13 -21 26q-15 18 -13 28h170v-805zM597 448h-30v8h30v-8zM661 186l-6 -22q-9 0 -19 -21l-14 -28q0 1 14 43q9 27 25 28z
M130 658q-4 1 -12 6q7 6 7 10q0 -2 2.5 -7.5t2.5 -8.5zM688 292q-7 1 -23.5 -2.5t-23.5 -25.5q0 5 -9 13q-86 -72 -91 -72q-6 0 -4 3q2 4 0 6q-9 -9 -16 -9q-6 0 -5.5 6t-1.5 8q-15 -14 -12 -23q-9 14 -17 14q-6 0 -24 -9.5t-24 -9.5q2 0 -53 10q-6 -11 -7 -19v15
q-1 0 -3.5 1.5t-8.5 1.5q-8 0 -8 -17q-28 9 -94 37q1 2 1.5 7t7.5 5q14 0 33 18q3 -1 24 -22q5 2 12 2q7 -9 15 -15q15 0 50.5 -2.5t39.5 -2.5q11 0 38 7q33 9 52 21q10 13 29 35q0 -1 -1 -5q-1 -2 0 -3q2 -1 7 -1t10 2t10.5 2t9 7t8.5 7q7 0 9.5 -2.5t3.5 -2.5l3 3v9
q-19 20 -25 20t-10 -2t-5 -2q0 3 8 11q-2 2 -63 51q16 -8 68 -40q44 -27 50 -27q3 0 3 1t-2 3.5t-2 3.5t3 1q6 0 7 -4.5t7 -4.5q11 0 18 14zM369 333h-8l-5 34h8zM525 306q-7 -3 -18.5 -17t-14.5 -22l-8 -6.5t-8 -11.5q0 -3 4 -6q-61 -24 -79 -24q-5 0 -16.5 6t-19.5 6
q-5 0 -11 -3q0 2 -2.5 10t-1.5 10q-5 2 -11 4q-6 9 -26 50v47q8 5 21 14q0 -4 -4 -14.5t-4 -16.5q0 -11 8 -18q12 -3 41 -16q4 -2 21 -18t23 -16q34 0 61 23q36 32 45 35v-16zM245 415h-32l6 7zM439 2h-438v805h148q-4 -13 -15 -30q1 -6 5 -21q-21 -25 -21 -39q0 -16 11 -16
l-9 -3q-8 -27 -3 -47q-6 -1 -3 -12q-1 -4 2 -13q5 7 19 18q2 -19 1 -34q-2 -19 -2 -13q0 11 -9 11q-6 0 -6 -4.5t-6 -4.5q-9 0 -9 -4q0 -13 23 -41q-15 -9 0 -9q7 0 8.5 3t3.5 6q0 -3 -12 -16q11 -4 10 -8t2 -8q2 1 12 11q8 7 14 7t13.5 -3.5t10.5 -4.5q5 -1 16.5 1.5
t17 2.5t30 4.5t30.5 4.5t15 -8t13 -9q40 -15 57 -36t17 -60q0 -21 -11 -55q1 2 -6 7.5t-9 12.5q-3 10 0 29q5 29 5 32q-10 18 -32 40q-43 15 -101 15q-36 0 -56 -12q0 -1 -7 -8q6 -7 13 -7q13 0 5 8h104q-3 3 -18 3q30 6 68 -19q-1 0 -16.5 6t-24.5 6q-5 0 -9 -2
q16 -11 41 -23q-5 0 -18 6t-19 6q-5 0 -9 -9t-9 -9q-24 0 -38 9l-11 -12q8 -8 13 -8q-10 -1 -29 2q-7 -8 2 -17q-14 -1 -36 10q9 0 18 9q2 2 -2 7q-3 -3 -10 -5t-9 -4q0 8 7 15q-5 2 -20 7q-11 -13 -13 -16q-9 -9 -18 -11q-3 2 -8 -2q9 -9 23 -9q-5 -2 -16 -2.5t-16 -2.5
q9 -8 21 -23q3 -7 0 -32q-2 -19 4 -19q7 0 8.5 1.5t2.5 1.5l-6 -46q1 -2 -3 -3.5t-4 -8.5q0 -14 27 -24q31 -12 32 -15.5t2.5 -11.5t1.5 -10q-1 -28 4 -38q-15 25 -40 37q-3 1 -7.5 15.5t-15.5 15.5q0 -6 -2 -18.5t-2 -18.5q0 -31 22 -55q6 -7 39 -33q3 -6 10 -16q3 0 4 5
q1 4 -2 8q8 -5 12 -5q0 -2 -8 -10q7 -10 26 -27q15 -4 32 -13l14 -13q123 -67 132 -67q19 0 22 -4zM171 434h-12v8h12v-8zM760 623l-7 30h-7l7 -30h7zM695 609v17h-8v-17h8zM611 524q-9 9 -9 11q-71 -5 -58 -6q11 0 33.5 -2.5t33.5 -2.5zM110 776l-4 6l-16 -11l3 -6z
M100 753l-2 6l-11 -5v-7zM51 760l-6 3l-6 -12l6 -3zM94 730q-11 -13 -11.5 -35t-14.5 -36q8 0 16 8q4 -4 4 -13q6 17 6 76zM83 642l-6 3l-6 -12l6 -3zM70 631q0 -10 -8 -18q-3 5 -1 12q1 6 1 8q4 3 4 23q0 5 -4.5 13t-4.5 9q0 -7 -3 -22t-3 -21q-4 4 -4 9q0 -2 -3 -10.5
t-3 -10.5q17 -9 25 -28q11 22 4 36zM83 585h-8l-4 -30h7zM100 445q0 4 -2 16q-2 9 -1 13q-11 -1 -14 11q-2 9 -4 19q0 -16 -1 -41t-1 -29q0 -2 6.5 -6t6.5 -24q10 20 10 41zM97 307l-7 3l-6 -12l7 -3zM565 179q0 -9 -14 -14q-21 -7 -22 -7q4 -4 9 -4q-15 -17 -25 -17
q-30 0 -37 -4.5t-8 -4.5q-5 0 -13 7t-14 7t-14 -9t-13 -9q-10 0 -27.5 6t-27.5 6q-7 0 -14 -3q-3 6 -9.5 10.5t-9.5 9.5q9 0 31 4.5t34 4.5q11 0 18 -6.5t11 -6.5q23 0 58 18q6 2 16 9q7 5 26 5q13 -2 23 5.5t17 7.5q0 -1 2.5 -5.5t2.5 -9.5z" />
    <glyph glyph-name="one" unicode="1" horiz-adv-x="1000" 
d="M748 -194h-747v998h747v-998zM551 650l-19 6v-7l16 -5zM562 603v17h-8v-17h8zM419 721v8h-17v-8h17zM357 715v9l-23 5v-8zM284 689q0 3 -2.5 9.5t-2.5 9.5q-17 -9 -17 -23q2 0 11 2t11 2zM667 360q0 16 -18 34q-2 -12 -7 -36t-7 -36q-3 6 -6 32q-1 12 -20 15q8 -21 5 -43
q-4 0 -5 2.5t-8 2.5q-8 0 -17 -33q-9 -29 -9 -42q0 -7 7 -15q8 -11 22 -11q20 0 27 26q4 13 21 59q15 40 15 45zM584 482v26q-33 46 -33 58q0 4 7 12q14 -14 22 -11q-23 35 -65 93q-8 -7 -8 -18q3 -2 10 -6.5t10 -6.5q-4 -1 -8 -1q-11 0 -24.5 16.5t-17.5 18.5q-23 9 -71 20
q-44 11 -53 11q-7 0 -16.5 -6.5t-13.5 -7.5q-7 -14 -21 -19q-4 3 -7 -1q0 -17 -2 -20q-10 20 -20 20q-14 0 -21 -14l-8 -20q-19 17 -13 33q-4 -2 -13 -8t-12 -6q0 7 -3 20q-32 -55 -65 -109q-27 -49 -27 -109q0 -40 4 -47q12 -23 14 -28q4 -14 3.5 -45t5.5 -40.5t15 -21.5
q4 -12 4.5 -39.5t3.5 -37.5q27 -106 79 -151q0 2 -2 9.5t-2 10.5q23 -6 51 -6q-8 0 103 21q3 4 7 8.5t11 4.5q8 0 33 -29q20 5 37 45.5t30 46.5v-12q-11 -15 -19 -35q-3 -10 -2 -30q2 -34 2 -32q0 -14 -8 -29l-11 -22h-6q-4 0 -4 -14q27 8 69 42q38 32 50 53q-9 0 -11 5
q-10 11 -19 23q-13 16 -13 22q0 3 12 73q14 74 16 111q3 0 1 4q-2 6 -2 7q0 -7 -8 -7q-6 0 -7 8q-2 14 -3 16q-2 0 -7 -3q-4 -2 -7 1q5 17 16 48q-1 4 -7 39q-3 18 -1 27q8 3 19.5 11.5t15.5 8.5q-10 20 -6 28q9 -9 16 -9zM401 -82q0 10 -12 22q-5 -5 -10 -5q-2 0 -33 6
q-33 28 -94 86v-36q-1 -17 16.5 -36t34.5 -38q8 -10 13 -32q7 -26 9 -31q5 -10 41 -25q35 71 35 89zM459 406q-11 -12 -34 -12q-6 0 -20.5 7.5t-20.5 7.5t-9.5 -5t-9.5 -5t-8.5 5t-8.5 5t-8.5 -7.5t-8.5 -7.5q-14 0 -34 10q-2 -3 -2 -12q0 -6 5 -26q6 -23 7 -32
q5 -12 16 -18q-15 5 -32 -4q0 6 7 17q-5 9 -12 29q-1 9 -1 64q21 20 43 20q6 0 29 -9.5t29 -9.5t7 9.5t8 9.5q22 0 58 -36zM246 401q0 -17 -12 -17q-6 0 -9.5 5t-9.5 5q-5 0 -10.5 -7t-11.5 -7t-7 4.5t-7 4.5q-8 0 -11.5 -6.5t-7.5 -12.5q4 7 10 42q4 21 28 21
q9 0 28.5 -13.5t19.5 -18.5zM147 391h-6v22q13 -6 6 -22zM401 227q-10 -19 -10 -45q-12 0 -57 -6q-38 -4 -61 -4q-22 0 -40 3l-6 10q14 8 53 12q55 4 61 6t13 5q13 5 25 2q7 7 7 22q0 10 -10 28t-19 18q-24 0 -84 -48q-18 19 -48 39q-5 -8 -15.5 -24.5t-14.5 -24.5
q8 35 25 68q10 -19 26 -19q7 0 19 6q17 9 22 11q15 6 42 6q0 4 1 20q11 -7 39 -37q32 -34 32 -48zM362 146q-13 -12 -23 -12q-5 4 -5 13h12q11 -1 16 -1z" />
    <glyph glyph-name="two" unicode="2" horiz-adv-x="1423" 
d="M601 725l-1 -8l-6 3l1 4zM551 732l-4 -7l-3 2l3 6zM531 684l-6 -9l-3 3l5 8zM524 673l-3 -14l-4 -10l2 24h5zM525 632l-1 -13l-3 -7l1 14zM1157 -18l-3 -7l-4 2l3 6zM532 588l-4 -3q2 8 0 12q-5 0 1 12q3 -5 3 -21zM695 501q-12 2 -39 2q-1 -10 -1.5 -20.5t-8.5 -18.5
q5 -8 14 -8q2 0 12.5 1t17.5 1q3 0 3 -6q0 -7 -10 -11t-10 -17q-2 -1 -5 -5h-17q-14 0 -19 4v1q-3 0 -6 -1.5t-6 -1.5h-7q-3 1 -4 1q4 3 10 14h-27q0 1 -2.5 6t-2.5 6h17l4 -5q6 0 9 2q-1 3 -14 20q15 9 51 29l-3 7q-3 4 -6 4q-15 0 -10 -1h9v8q19 -6 51 -11zM599 538
q-5 -5 -6 -3q-2 0 -7 5q-6 -12 -18 -12q-3 0 -13.5 9.5t-13.5 9.5q-16 0 -15 -19q1 0 -11 6q1 0 19 30q19 6 28 6q15 0 28 -11q3 -1 9 -21zM595 506l-6 -6h-3l10 12zM582 497h-7l-3 3l10 1v-4zM1398 -197h-148v116h-16q-2 0 -384.5 -30t-385.5 -30h-86q-1 0 -7 -4
q-33 -6 -61 -6q-11 0 -16 3q-3 -21 1 -49h-141v23q0 7 31 77q3 2 5 5q10 1 15 12t10 21q0 -14 5 -23q2 1 4 -2q7 7 5 15q-3 9 -3 10q13 0 37 19l34 30v9q-4 4 -8 4q-3 0 -29 -17.5t-29 -17.5t-8.5 6.5t-9.5 6.5q-3 0 -4 -1.5t-4 -1.5l-37.5 32.5l-37.5 32.5q-3 0 -2.5 -1.5
t-2.5 -1.5q-5 0 -14 17.5t-9 21.5v13q2 -2 12 -24q8 -18 18 -18q18 0 49 18q-4 3 -15 -3q7 7 14 7q3 0 4 -1t4 -1q4 0 12.5 5t11.5 6q24 9 77 22q4 2 14 8q10 1 30 4q42 9 36 9q14 0 23 -24q6 -20 12 -41q29 -68 54 -118q5 0 5 4t-35 88q-8 10 -19 30q-8 27 -29 80
q-30 -1 -87 4q2 6 18 65q1 15 7 40q25 58 82 86q61 28 168 76q7 4 7 12q10 -5 17 -13q-8 4 -13 3q8 -25 24 -30q2 2 -3 13q7 -9 14 -17q3 -3 17 -3q3 0 11.5 1.5t12.5 1.5l2 3.5t5 3.5t3 -1.5t4 -1.5q12 0 26 24q12 21 12 30q1 14 -1 17q7 3 19 13q5 9 1 17q4 1 9 5
q-9 17 -65 24l-36 9h-3q3 -5 10 -12q-7 3 -18 10q-1 3 -2 5q-1 6 -4 9l2.5 1.5t5.5 1.5q4 0 6.5 -3.5t4.5 -6.5q8 -5 16 -5q4 0 10.5 1.5t9.5 1.5t20 -5t20 -5q6 0 18 17.5t14 26.5q0 -2 5 -7q9 4 9 10q0 22 -10 22q-7 0 -17 -16l-10 -16q-4 0 -7 -1.5t-6 -1.5t-3 3v0
q0 2 -3 2t-18.5 -10t-18.5 -10t-20 5t-20 5t-4 -2t-2 -2q1 8 -2 21q7 7 13 7q99 6 89 6l14 14q-4 3 -4 13q3 0 5 -2q4 8 21 27q3 4 3 16v15q-1 2 -12 14q0 24 1 18q-4 11 -11 34l-4 -5q-8 9 -25 21q-28 6 -71 6q-9 0 -31.5 -12.5l-22.5 -12.5q-4 0 -3.5 2t-0.5 3
q-2 -5 -8 -13t-14 -14q-11 -10 -11 -19q0 -2 1 -4q7 3 21 7q0 2 -1 7t-1 7q9 12 23 22q10 -10 13 -10t5 1t3 1q0 -6 -10 -11q7 -3 15 1q-8 -9 -27 -17q-23 -9 -30 -14q7 -7 7 -5q0 -3 -6 -3q-2 0 -6 3.5t-7 3.5q-6 0 -14 -12q0 4 3 12.5t3 11.5q0 6 -9 6q9 15 13 29
q0 -1 3 -5q5 8 18 18q2 -1 5 1q1 4 -10 10q1 0 23 22q14 13 30 13q3 0 6.5 -1t6.5 -1q6 0 8 6q2 1 12.5 3.5t13.5 2.5l6 -4q4 0 16.5 -1.5t15.5 -1.5t3 -1.5t3 -1.5q2 0 10 1.5t11 1.5q2 0 6 -3.5t7 -3.5t3 1t4 1q2 0 14 -12q4 3 12 5h-6q0 -1 -1 -2t-1 -5q0 -1 15.5 -14.5
t20.5 -21.5q18 -27 25 -70q8 -47 8 -64q0 -13 -6 -30l-10 -30q-2 -8 -9 -23q-3 -3 -9 -7.5t-6 -5.5q0 -56 13 -72q8 -9 36 -16l45 -10q14 0 40 -4q63 -22 91 -42q37 -26 69 -74q10 -15 20 -52q6 -22 9 -53q3 -26 11 -49q5 -15 15 -89v-26q3 -17 18 -16q-4 -2 -13 -1
q-2 -2 -2 -5q0 -15 14 -15q5 0 5 6q0 -1 1.5 -5t1.5 -8q-16 -6 -28 -6q-17 0 -18 23h-14q-34 -1 -89 -6q-55 -8 -163 -21q-81 -8 -185 -14q-5 -8 -5 -13q-56 -4 -159 -12q-10 -1 -34 -6t-27 -5t-3.5 2.5t-4.5 2.5q-13 0 -24 -4q9 -3 22 -2q-25 0 -40 -3q4 -1 10 3
q-5 1 -31 1q-17 0 -83 -8q-4 -4 -4 -12t2 -10q1 5 4 13q0 -13 3 -13q4 0 4 5q1 -2 4 -6q-8 0 -10 -2q-6 1 56 1q8 0 178 11q43 4 136 10q38 3 119 8q31 2 101 7q24 2 69 5q26 2 80 5q71 6 214 16q4 5 5 34q49 -5 150 -10v-155zM581 453q-6 7 -6 8q0 3 3 5.5l3 2.5v-16z
M814 -70h-14v4h14v-4zM277 112l-10 -3l-4 4l26 4zM285 135q-23 -1 -51 -10q-24 -7 -47 -15q0 7 2 8q14 6 44 13.5t35 7.5q13 0 17 -4zM255 104l-22 -7l13 7l14 6zM136 216q-1 -1 -3 -4q-22 -11 -65 -31l1 7q29 18 58 28h9zM102 100q-3 0 -7 7t-19 33q-12 23 -12 25l-4 11h9
q10 -23 33 -68v-8zM303 -155l-6 -10l-3 7l6 6zM756 698l-4 3l-2 -2l9 -16zM676 763q-16 12 -25 12q-3 0 -10.5 -2t-11.5 -2q12 -3 22 -3q4 0 6.5 -2.5t5.5 -2.5h13zM654 751q-4 1 -9 6.5t-9 5.5q-7 0 -14 -12q13 1 32 0zM780 582q-1 1 -14 15q0 -3 -3 -7t-3 -5zM824 583
l-3 11q-3 -4 -5.5 -21.5t-9.5 -22.5v22q-1 -4 -12.5 -22.5t-11.5 -28.5q0 -11 10 -11q12 0 26 53q3 13 6 20zM603 742l-10 -3l-9 -6l2 -3zM730 504l-5 7l-11 3l3 -4zM676 555l-6 7q-2 0 -6 -3q3 -4 12 -4zM658 562q-4 0 -8 -2t-5 -2q6 0 10 -3q2 2 3 7zM577 543q0 4 -3 9
q-6 1 -19 -1q11 -11 10 -11q3 0 7 1.5t5 1.5zM540 556l-5 -1l-3 -6l3 1zM319 -32l3 6h-9v-4zM260 -97q-1 1 -4.5 3.5t-5.5 3.5q5 5 10 5q-2 2 -16 4q-3 -7 -10 -18q-1 4 -4 9q-2 1 -7 -2q4 -14 15 -16q-4 4 -1 7l6 -6t3 -4q10 5 14 14zM256 -119l-4 5l-2 -4l9 -7z" />
    <glyph glyph-name="three" unicode="3" 
d="M715 563q-10 7 -29 24q-7 7 -19 43q2 -2 14 -8q4 4 -5 22l21 -19q7 -14 18 -46v-16zM723 481q-3 -20 -15 -58q0 3 -3 15t-3 18q0 7 10 14.5t11 10.5zM334 797l-30 4v8l30 -5v-7zM661 498q-3 -2 -48 -4q-25 -2 -45 -17q0 9 16 16l-5.5 5.5l-5.5 5.5q-12 -7 -17 -15
q-1 -3 -17 -3t-29 18q-11 -13 -39 -22q2 2 10 8.5t13 11.5q-4 3 -22 -6l13 15l-8 7q-10 -5 -37 -23q3 14 6 27q4 19 13 27q23 18 60 18q28 0 71 -18q7 7 14 32q1 -2 32 -24q26 -19 25 -38q-10 0 -25 -5q-3 -1 -11 -7q18 -9 36 -9zM290 806q-11 -11 -11 -16q-7 7 -7 16h18z
M828 2h-89q13 27 13 29q0 13 -16 29q-7 -7 -14 -26q-8 -23 -14 -33q0 34 -8 104q-1 -8 -4 -26q-12 -8 -34 -27q-6 -7 -29 -50h-166q41 2 81 23q13 6 37 39q21 31 30 32q-3 -25 -1 -32q16 15 17 30q4 0 11 6q9 22 30 63q18 24 51 77q10 18 3 43q8 12 8 27q0 4 -6 37
q-4 22 4 35q-1 -19 -1 -37q0 -27 23 -27q15 0 26 11.5t11 27.5q0 12 -4 53q-4 35 -2 56q0 3 8.5 28.5t8.5 32.5q0 24 -16 54q-9 -14 -23 -45q0 14 -4 18q-13 -13 -15 -13q2 8 2 24q-5 15 -14 45q0 -4 13 -11q2 2 -6 18l22 -20q-7 -8 -15 -2q-5 -8 4 -23q8 10 29 30
q-6 1 -17 3q-8 17 -21 30q-5 -4 -5 -9q1 5 -4.5 16.5t-5.5 17.5q0 21 5 46q3 19 -13 43q-2 -2 -5 -7.5t-6 -5.5q9 43 -25 62q-6 -6 10 -24v-21q-11 13 -21 26q-15 18 -13 28h170v-805zM597 448h-30v8h30v-8zM661 186l-6 -22q-9 0 -19 -21l-14 -28q0 1 14 43q9 27 25 28z
M130 658q-4 1 -12 6q7 6 7 10q0 -2 2.5 -7.5t2.5 -8.5zM688 292q-7 1 -23.5 -2.5t-23.5 -25.5q0 5 -9 13q-86 -72 -91 -72q-6 0 -4 3q2 4 0 6q-9 -9 -16 -9q-6 0 -5.5 6t-1.5 8q-15 -14 -12 -23q-9 14 -17 14q-6 0 -24 -9.5t-24 -9.5q2 0 -53 10q-6 -11 -7 -19v15
q-1 0 -3.5 1.5t-8.5 1.5q-8 0 -8 -17q-28 9 -94 37q1 2 1.5 7t7.5 5q14 0 33 18q3 -1 24 -22q5 2 12 2q7 -9 15 -15q15 0 50.5 -2.5t39.5 -2.5q11 0 38 7q33 9 52 21q10 13 29 35q0 -1 -1 -5q-1 -2 0 -3q2 -1 7 -1t10 2t10.5 2t9 7t8.5 7q7 0 9.5 -2.5t3.5 -2.5l3 3v9
q-19 20 -25 20t-10 -2t-5 -2q0 3 8 11q-2 2 -63 51q16 -8 68 -40q44 -27 50 -27q3 0 3 1t-2 3.5t-2 3.5t3 1q6 0 7 -4.5t7 -4.5q11 0 18 14zM369 333h-8l-5 34h8zM525 306q-7 -3 -18.5 -17t-14.5 -22l-8 -6.5t-8 -11.5q0 -3 4 -6q-61 -24 -79 -24q-5 0 -16.5 6t-19.5 6
q-5 0 -11 -3q0 2 -2.5 10t-1.5 10q-5 2 -11 4q-6 9 -26 50v47q8 5 21 14q0 -4 -4 -14.5t-4 -16.5q0 -11 8 -18q12 -3 41 -16q4 -2 21 -18t23 -16q34 0 61 23q36 32 45 35v-16zM245 415h-32l6 7zM439 2h-438v805h148q-4 -13 -15 -30q1 -6 5 -21q-21 -25 -21 -39q0 -16 11 -16
l-9 -3q-8 -27 -3 -47q-6 -1 -3 -12q-1 -4 2 -13q5 7 19 18q2 -19 1 -34q-2 -19 -2 -13q0 11 -9 11q-6 0 -6 -4.5t-6 -4.5q-9 0 -9 -4q0 -13 23 -41q-15 -9 0 -9q7 0 8.5 3t3.5 6q0 -3 -12 -16q11 -4 10 -8t2 -8q2 1 12 11q8 7 14 7t13.5 -3.5t10.5 -4.5q5 -1 16.5 1.5
t17 2.5t30 4.5t30.5 4.5t15 -8t13 -9q40 -15 57 -36t17 -60q0 -21 -11 -55q1 2 -6 7.5t-9 12.5q-3 10 0 29q5 29 5 32q-10 18 -32 40q-43 15 -101 15q-36 0 -56 -12q0 -1 -7 -8q6 -7 13 -7q13 0 5 8h104q-3 3 -18 3q30 6 68 -19q-1 0 -16.5 6t-24.5 6q-5 0 -9 -2
q16 -11 41 -23q-5 0 -18 6t-19 6q-5 0 -9 -9t-9 -9q-24 0 -38 9l-11 -12q8 -8 13 -8q-10 -1 -29 2q-7 -8 2 -17q-14 -1 -36 10q9 0 18 9q2 2 -2 7q-3 -3 -10 -5t-9 -4q0 8 7 15q-5 2 -20 7q-11 -13 -13 -16q-9 -9 -18 -11q-3 2 -8 -2q9 -9 23 -9q-5 -2 -16 -2.5t-16 -2.5
q9 -8 21 -23q3 -7 0 -32q-2 -19 4 -19q7 0 8.5 1.5t2.5 1.5l-6 -46q1 -2 -3 -3.5t-4 -8.5q0 -14 27 -24q31 -12 32 -15.5t2.5 -11.5t1.5 -10q-1 -28 4 -38q-15 25 -40 37q-3 1 -7.5 15.5t-15.5 15.5q0 -6 -2 -18.5t-2 -18.5q0 -31 22 -55q6 -7 39 -33q3 -6 10 -16q3 0 4 5
q1 4 -2 8q8 -5 12 -5q0 -2 -8 -10q7 -10 26 -27q15 -4 32 -13l14 -13q123 -67 132 -67q19 0 22 -4zM171 434h-12v8h12v-8zM760 623l-7 30h-7l7 -30h7zM695 609v17h-8v-17h8zM611 524q-9 9 -9 11q-71 -5 -58 -6q11 0 33.5 -2.5t33.5 -2.5zM110 776l-4 6l-16 -11l3 -6z
M100 753l-2 6l-11 -5v-7zM51 760l-6 3l-6 -12l6 -3zM94 730q-11 -13 -11.5 -35t-14.5 -36q8 0 16 8q4 -4 4 -13q6 17 6 76zM83 642l-6 3l-6 -12l6 -3zM70 631q0 -10 -8 -18q-3 5 -1 12q1 6 1 8q4 3 4 23q0 5 -4.5 13t-4.5 9q0 -7 -3 -22t-3 -21q-4 4 -4 9q0 -2 -3 -10.5
t-3 -10.5q17 -9 25 -28q11 22 4 36zM83 585h-8l-4 -30h7zM100 445q0 4 -2 16q-2 9 -1 13q-11 -1 -14 11q-2 9 -4 19q0 -16 -1 -41t-1 -29q0 -2 6.5 -6t6.5 -24q10 20 10 41zM97 307l-7 3l-6 -12l7 -3zM565 179q0 -9 -14 -14q-21 -7 -22 -7q4 -4 9 -4q-15 -17 -25 -17
q-30 0 -37 -4.5t-8 -4.5q-5 0 -13 7t-14 7t-14 -9t-13 -9q-10 0 -27.5 6t-27.5 6q-7 0 -14 -3q-3 6 -9.5 10.5t-9.5 9.5q9 0 31 4.5t34 4.5q11 0 18 -6.5t11 -6.5q23 0 58 18q6 2 16 9q7 5 26 5q13 -2 23 5.5t17 7.5q0 -1 2.5 -5.5t2.5 -9.5z" />
    <glyph glyph-name="four" unicode="4" horiz-adv-x="1000" 
d="M748 -194h-747v998h747v-998zM551 650l-19 6v-7l16 -5zM562 603v17h-8v-17h8zM419 721v8h-17v-8h17zM357 715v9l-23 5v-8zM284 689q0 3 -2.5 9.5t-2.5 9.5q-17 -9 -17 -23q2 0 11 2t11 2zM667 360q0 16 -18 34q-2 -12 -7 -36t-7 -36q-3 6 -6 32q-1 12 -20 15q8 -21 5 -43
q-4 0 -5 2.5t-8 2.5q-8 0 -17 -33q-9 -29 -9 -42q0 -7 7 -15q8 -11 22 -11q20 0 27 26q4 13 21 59q15 40 15 45zM584 482v26q-33 46 -33 58q0 4 7 12q14 -14 22 -11q-23 35 -65 93q-8 -7 -8 -18q3 -2 10 -6.5t10 -6.5q-4 -1 -8 -1q-11 0 -24.5 16.5t-17.5 18.5q-23 9 -71 20
q-44 11 -53 11q-7 0 -16.5 -6.5t-13.5 -7.5q-7 -14 -21 -19q-4 3 -7 -1q0 -17 -2 -20q-10 20 -20 20q-14 0 -21 -14l-8 -20q-19 17 -13 33q-4 -2 -13 -8t-12 -6q0 7 -3 20q-32 -55 -65 -109q-27 -49 -27 -109q0 -40 4 -47q12 -23 14 -28q4 -14 3.5 -45t5.5 -40.5t15 -21.5
q4 -12 4.5 -39.5t3.5 -37.5q27 -106 79 -151q0 2 -2 9.5t-2 10.5q23 -6 51 -6q-8 0 103 21q3 4 7 8.5t11 4.5q8 0 33 -29q20 5 37 45.5t30 46.5v-12q-11 -15 -19 -35q-3 -10 -2 -30q2 -34 2 -32q0 -14 -8 -29l-11 -22h-6q-4 0 -4 -14q27 8 69 42q38 32 50 53q-9 0 -11 5
q-10 11 -19 23q-13 16 -13 22q0 3 12 73q14 74 16 111q3 0 1 4q-2 6 -2 7q0 -7 -8 -7q-6 0 -7 8q-2 14 -3 16q-2 0 -7 -3q-4 -2 -7 1q5 17 16 48q-1 4 -7 39q-3 18 -1 27q8 3 19.5 11.5t15.5 8.5q-10 20 -6 28q9 -9 16 -9zM401 -82q0 10 -12 22q-5 -5 -10 -5q-2 0 -33 6
q-33 28 -94 86v-36q-1 -17 16.5 -36t34.5 -38q8 -10 13 -32q7 -26 9 -31q5 -10 41 -25q35 71 35 89zM459 406q-11 -12 -34 -12q-6 0 -20.5 7.5t-20.5 7.5t-9.5 -5t-9.5 -5t-8.5 5t-8.5 5t-8.5 -7.5t-8.5 -7.5q-14 0 -34 10q-2 -3 -2 -12q0 -6 5 -26q6 -23 7 -32
q5 -12 16 -18q-15 5 -32 -4q0 6 7 17q-5 9 -12 29q-1 9 -1 64q21 20 43 20q6 0 29 -9.5t29 -9.5t7 9.5t8 9.5q22 0 58 -36zM246 401q0 -17 -12 -17q-6 0 -9.5 5t-9.5 5q-5 0 -10.5 -7t-11.5 -7t-7 4.5t-7 4.5q-8 0 -11.5 -6.5t-7.5 -12.5q4 7 10 42q4 21 28 21
q9 0 28.5 -13.5t19.5 -18.5zM147 391h-6v22q13 -6 6 -22zM401 227q-10 -19 -10 -45q-12 0 -57 -6q-38 -4 -61 -4q-22 0 -40 3l-6 10q14 8 53 12q55 4 61 6t13 5q13 5 25 2q7 7 7 22q0 10 -10 28t-19 18q-24 0 -84 -48q-18 19 -48 39q-5 -8 -15.5 -24.5t-14.5 -24.5
q8 35 25 68q10 -19 26 -19q7 0 19 6q17 9 22 11q15 6 42 6q0 4 1 20q11 -7 39 -37q32 -34 32 -48zM362 146q-13 -12 -23 -12q-5 4 -5 13h12q11 -1 16 -1z" />
    <glyph glyph-name="five" unicode="5" horiz-adv-x="1442" 
d="M601 725l-1 -8l-6 3l1 4zM551 732l-4 -7l-3 2l3 6zM531 684l-6 -9l-3 3l5 8zM524 673l-3 -14l-4 -10l2 24h5zM525 632l-1 -13l-3 -7l1 14zM1157 -18l-3 -7l-4 2l3 6zM532 588l-4 -3q2 8 0 12q-5 0 1 12q3 -5 3 -21zM695 501q-12 2 -39 2q-1 -10 -1.5 -20.5t-8.5 -18.5
q5 -8 14 -8q2 0 12.5 1t17.5 1q3 0 3 -6q0 -7 -10 -11t-10 -17q-2 -1 -5 -5h-17q-14 0 -19 4v1q-3 0 -6 -1.5t-6 -1.5h-7q-3 1 -4 1q4 3 10 14h-27q0 1 -2.5 6t-2.5 6h17l4 -5q6 0 9 2q-1 3 -14 20q15 9 51 29l-3 7q-3 4 -6 4q-15 0 -10 -1h9v8q19 -6 51 -11zM599 538
q-5 -5 -6 -3q-2 0 -7 5q-6 -12 -18 -12q-3 0 -13.5 9.5t-13.5 9.5q-16 0 -15 -19q1 0 -11 6q1 0 19 30q19 6 28 6q15 0 28 -11q3 -1 9 -21zM595 506l-6 -6h-3l10 12zM582 497h-7l-3 3l10 1v-4zM1398 -197h-148v116h-16q-2 0 -384.5 -30t-385.5 -30h-86q-1 0 -7 -4
q-33 -6 -61 -6q-11 0 -16 3q-3 -21 1 -49h-141v23q0 7 31 77q3 2 5 5q10 1 15 12t10 21q0 -14 5 -23q2 1 4 -2q7 7 5 15q-3 9 -3 10q13 0 37 19l34 30v9q-4 4 -8 4q-3 0 -29 -17.5t-29 -17.5t-8.5 6.5t-9.5 6.5q-3 0 -4 -1.5t-4 -1.5l-37.5 32.5l-37.5 32.5q-3 0 -2.5 -1.5
t-2.5 -1.5q-5 0 -14 17.5t-9 21.5v13q2 -2 12 -24q8 -18 18 -18q18 0 49 18q-4 3 -15 -3q7 7 14 7q3 0 4 -1t4 -1q4 0 12.5 5t11.5 6q24 9 77 22q4 2 14 8q10 1 30 4q42 9 36 9q14 0 23 -24q6 -20 12 -41q29 -68 54 -118q5 0 5 4t-35 88q-8 10 -19 30q-8 27 -29 80
q-30 -1 -87 4q2 6 18 65q1 15 7 40q25 58 82 86q61 28 168 76q7 4 7 12q10 -5 17 -13q-8 4 -13 3q8 -25 24 -30q2 2 -3 13q7 -9 14 -17q3 -3 17 -3q3 0 11.5 1.5t12.5 1.5l2 3.5t5 3.5t3 -1.5t4 -1.5q12 0 26 24q12 21 12 30q1 14 -1 17q7 3 19 13q5 9 1 17q4 1 9 5
q-9 17 -65 24l-36 9h-3q3 -5 10 -12q-7 3 -18 10q-1 3 -2 5q-1 6 -4 9l2.5 1.5t5.5 1.5q4 0 6.5 -3.5t4.5 -6.5q8 -5 16 -5q4 0 10.5 1.5t9.5 1.5t20 -5t20 -5q6 0 18 17.5t14 26.5q0 -2 5 -7q9 4 9 10q0 22 -10 22q-7 0 -17 -16l-10 -16q-4 0 -7 -1.5t-6 -1.5t-3 3v0
q0 2 -3 2t-18.5 -10t-18.5 -10t-20 5t-20 5t-4 -2t-2 -2q1 8 -2 21q7 7 13 7q99 6 89 6l14 14q-4 3 -4 13q3 0 5 -2q4 8 21 27q3 4 3 16v15q-1 2 -12 14q0 24 1 18q-4 11 -11 34l-4 -5q-8 9 -25 21q-28 6 -71 6q-9 0 -31.5 -12.5l-22.5 -12.5q-4 0 -3.5 2t-0.5 3
q-2 -5 -8 -13t-14 -14q-11 -10 -11 -19q0 -2 1 -4q7 3 21 7q0 2 -1 7t-1 7q9 12 23 22q10 -10 13 -10t5 1t3 1q0 -6 -10 -11q7 -3 15 1q-8 -9 -27 -17q-23 -9 -30 -14q7 -7 7 -5q0 -3 -6 -3q-2 0 -6 3.5t-7 3.5q-6 0 -14 -12q0 4 3 12.5t3 11.5q0 6 -9 6q9 15 13 29
q0 -1 3 -5q5 8 18 18q2 -1 5 1q1 4 -10 10q1 0 23 22q14 13 30 13q3 0 6.5 -1t6.5 -1q6 0 8 6q2 1 12.5 3.5t13.5 2.5l6 -4q4 0 16.5 -1.5t15.5 -1.5t3 -1.5t3 -1.5q2 0 10 1.5t11 1.5q2 0 6 -3.5t7 -3.5t3 1t4 1q2 0 14 -12q4 3 12 5h-6q0 -1 -1 -2t-1 -5q0 -1 15.5 -14.5
t20.5 -21.5q18 -27 25 -70q8 -47 8 -64q0 -13 -6 -30l-10 -30q-2 -8 -9 -23q-3 -3 -9 -7.5t-6 -5.5q0 -56 13 -72q8 -9 36 -16l45 -10q14 0 40 -4q63 -22 91 -42q37 -26 69 -74q10 -15 20 -52q6 -22 9 -53q3 -26 11 -49q5 -15 15 -89v-26q3 -17 18 -16q-4 -2 -13 -1
q-2 -2 -2 -5q0 -15 14 -15q5 0 5 6q0 -1 1.5 -5t1.5 -8q-16 -6 -28 -6q-17 0 -18 23h-14q-34 -1 -89 -6q-55 -8 -163 -21q-81 -8 -185 -14q-5 -8 -5 -13q-56 -4 -159 -12q-10 -1 -34 -6t-27 -5t-3.5 2.5t-4.5 2.5q-13 0 -24 -4q9 -3 22 -2q-25 0 -40 -3q4 -1 10 3
q-5 1 -31 1q-17 0 -83 -8q-4 -4 -4 -12t2 -10q1 5 4 13q0 -13 3 -13q4 0 4 5q1 -2 4 -6q-8 0 -10 -2q-6 1 56 1q8 0 178 11q43 4 136 10q38 3 119 8q31 2 101 7q24 2 69 5q26 2 80 5q71 6 214 16q4 5 5 34q49 -5 150 -10v-155zM581 453q-6 7 -6 8q0 3 3 5.5l3 2.5v-16z
M814 -70h-14v4h14v-4zM277 112l-10 -3l-4 4l26 4zM285 135q-23 -1 -51 -10q-24 -7 -47 -15q0 7 2 8q14 6 44 13.5t35 7.5q13 0 17 -4zM255 104l-22 -7l13 7l14 6zM136 216q-1 -1 -3 -4q-22 -11 -65 -31l1 7q29 18 58 28h9zM102 100q-3 0 -7 7t-19 33q-12 23 -12 25l-4 11h9
q10 -23 33 -68v-8zM303 -155l-6 -10l-3 7l6 6zM756 698l-4 3l-2 -2l9 -16zM676 763q-16 12 -25 12q-3 0 -10.5 -2t-11.5 -2q12 -3 22 -3q4 0 6.5 -2.5t5.5 -2.5h13zM654 751q-4 1 -9 6.5t-9 5.5q-7 0 -14 -12q13 1 32 0zM780 582q-1 1 -14 15q0 -3 -3 -7t-3 -5zM824 583
l-3 11q-3 -4 -5.5 -21.5t-9.5 -22.5v22q-1 -4 -12.5 -22.5t-11.5 -28.5q0 -11 10 -11q12 0 26 53q3 13 6 20zM603 742l-10 -3l-9 -6l2 -3zM730 504l-5 7l-11 3l3 -4zM676 555l-6 7q-2 0 -6 -3q3 -4 12 -4zM658 562q-4 0 -8 -2t-5 -2q6 0 10 -3q2 2 3 7zM577 543q0 4 -3 9
q-6 1 -19 -1q11 -11 10 -11q3 0 7 1.5t5 1.5zM540 556l-5 -1l-3 -6l3 1zM319 -32l3 6h-9v-4zM260 -97q-1 1 -4.5 3.5t-5.5 3.5q5 5 10 5q-2 2 -16 4q-3 -7 -10 -18q-1 4 -4 9q-2 1 -7 -2q4 -14 15 -16q-4 4 -1 7l6 -6t3 -4q10 5 14 14zM256 -119l-4 5l-2 -4l9 -7z" />
    <glyph glyph-name="six" unicode="6" 
d="M715 563q-10 7 -29 24q-7 7 -19 43q2 -2 14 -8q4 4 -5 22l21 -19q7 -14 18 -46v-16zM723 481q-3 -20 -15 -58q0 3 -3 15t-3 18q0 7 10 14.5t11 10.5zM334 797l-30 4v8l30 -5v-7zM661 498q-3 -2 -48 -4q-25 -2 -45 -17q0 9 16 16l-5.5 5.5l-5.5 5.5q-12 -7 -17 -15
q-1 -3 -17 -3t-29 18q-11 -13 -39 -22q2 2 10 8.5t13 11.5q-4 3 -22 -6l13 15l-8 7q-10 -5 -37 -23q3 14 6 27q4 19 13 27q23 18 60 18q28 0 71 -18q7 7 14 32q1 -2 32 -24q26 -19 25 -38q-10 0 -25 -5q-3 -1 -11 -7q18 -9 36 -9zM290 806q-11 -11 -11 -16q-7 7 -7 16h18z
M828 2h-89q13 27 13 29q0 13 -16 29q-7 -7 -14 -26q-8 -23 -14 -33q0 34 -8 104q-1 -8 -4 -26q-12 -8 -34 -27q-6 -7 -29 -50h-166q41 2 81 23q13 6 37 39q21 31 30 32q-3 -25 -1 -32q16 15 17 30q4 0 11 6q9 22 30 63q18 24 51 77q10 18 3 43q8 12 8 27q0 4 -6 37
q-4 22 4 35q-1 -19 -1 -37q0 -27 23 -27q15 0 26 11.5t11 27.5q0 12 -4 53q-4 35 -2 56q0 3 8.5 28.5t8.5 32.5q0 24 -16 54q-9 -14 -23 -45q0 14 -4 18q-13 -13 -15 -13q2 8 2 24q-5 15 -14 45q0 -4 13 -11q2 2 -6 18l22 -20q-7 -8 -15 -2q-5 -8 4 -23q8 10 29 30
q-6 1 -17 3q-8 17 -21 30q-5 -4 -5 -9q1 5 -4.5 16.5t-5.5 17.5q0 21 5 46q3 19 -13 43q-2 -2 -5 -7.5t-6 -5.5q9 43 -25 62q-6 -6 10 -24v-21q-11 13 -21 26q-15 18 -13 28h170v-805zM597 448h-30v8h30v-8zM661 186l-6 -22q-9 0 -19 -21l-14 -28q0 1 14 43q9 27 25 28z
M130 658q-4 1 -12 6q7 6 7 10q0 -2 2.5 -7.5t2.5 -8.5zM688 292q-7 1 -23.5 -2.5t-23.5 -25.5q0 5 -9 13q-86 -72 -91 -72q-6 0 -4 3q2 4 0 6q-9 -9 -16 -9q-6 0 -5.5 6t-1.5 8q-15 -14 -12 -23q-9 14 -17 14q-6 0 -24 -9.5t-24 -9.5q2 0 -53 10q-6 -11 -7 -19v15
q-1 0 -3.5 1.5t-8.5 1.5q-8 0 -8 -17q-28 9 -94 37q1 2 1.5 7t7.5 5q14 0 33 18q3 -1 24 -22q5 2 12 2q7 -9 15 -15q15 0 50.5 -2.5t39.5 -2.5q11 0 38 7q33 9 52 21q10 13 29 35q0 -1 -1 -5q-1 -2 0 -3q2 -1 7 -1t10 2t10.5 2t9 7t8.5 7q7 0 9.5 -2.5t3.5 -2.5l3 3v9
q-19 20 -25 20t-10 -2t-5 -2q0 3 8 11q-2 2 -63 51q16 -8 68 -40q44 -27 50 -27q3 0 3 1t-2 3.5t-2 3.5t3 1q6 0 7 -4.5t7 -4.5q11 0 18 14zM369 333h-8l-5 34h8zM525 306q-7 -3 -18.5 -17t-14.5 -22l-8 -6.5t-8 -11.5q0 -3 4 -6q-61 -24 -79 -24q-5 0 -16.5 6t-19.5 6
q-5 0 -11 -3q0 2 -2.5 10t-1.5 10q-5 2 -11 4q-6 9 -26 50v47q8 5 21 14q0 -4 -4 -14.5t-4 -16.5q0 -11 8 -18q12 -3 41 -16q4 -2 21 -18t23 -16q34 0 61 23q36 32 45 35v-16zM245 415h-32l6 7zM439 2h-438v805h148q-4 -13 -15 -30q1 -6 5 -21q-21 -25 -21 -39q0 -16 11 -16
l-9 -3q-8 -27 -3 -47q-6 -1 -3 -12q-1 -4 2 -13q5 7 19 18q2 -19 1 -34q-2 -19 -2 -13q0 11 -9 11q-6 0 -6 -4.5t-6 -4.5q-9 0 -9 -4q0 -13 23 -41q-15 -9 0 -9q7 0 8.5 3t3.5 6q0 -3 -12 -16q11 -4 10 -8t2 -8q2 1 12 11q8 7 14 7t13.5 -3.5t10.5 -4.5q5 -1 16.5 1.5
t17 2.5t30 4.5t30.5 4.5t15 -8t13 -9q40 -15 57 -36t17 -60q0 -21 -11 -55q1 2 -6 7.5t-9 12.5q-3 10 0 29q5 29 5 32q-10 18 -32 40q-43 15 -101 15q-36 0 -56 -12q0 -1 -7 -8q6 -7 13 -7q13 0 5 8h104q-3 3 -18 3q30 6 68 -19q-1 0 -16.5 6t-24.5 6q-5 0 -9 -2
q16 -11 41 -23q-5 0 -18 6t-19 6q-5 0 -9 -9t-9 -9q-24 0 -38 9l-11 -12q8 -8 13 -8q-10 -1 -29 2q-7 -8 2 -17q-14 -1 -36 10q9 0 18 9q2 2 -2 7q-3 -3 -10 -5t-9 -4q0 8 7 15q-5 2 -20 7q-11 -13 -13 -16q-9 -9 -18 -11q-3 2 -8 -2q9 -9 23 -9q-5 -2 -16 -2.5t-16 -2.5
q9 -8 21 -23q3 -7 0 -32q-2 -19 4 -19q7 0 8.5 1.5t2.5 1.5l-6 -46q1 -2 -3 -3.5t-4 -8.5q0 -14 27 -24q31 -12 32 -15.5t2.5 -11.5t1.5 -10q-1 -28 4 -38q-15 25 -40 37q-3 1 -7.5 15.5t-15.5 15.5q0 -6 -2 -18.5t-2 -18.5q0 -31 22 -55q6 -7 39 -33q3 -6 10 -16q3 0 4 5
q1 4 -2 8q8 -5 12 -5q0 -2 -8 -10q7 -10 26 -27q15 -4 32 -13l14 -13q123 -67 132 -67q19 0 22 -4zM171 434h-12v8h12v-8zM760 623l-7 30h-7l7 -30h7zM695 609v17h-8v-17h8zM611 524q-9 9 -9 11q-71 -5 -58 -6q11 0 33.5 -2.5t33.5 -2.5zM110 776l-4 6l-16 -11l3 -6z
M100 753l-2 6l-11 -5v-7zM51 760l-6 3l-6 -12l6 -3zM94 730q-11 -13 -11.5 -35t-14.5 -36q8 0 16 8q4 -4 4 -13q6 17 6 76zM83 642l-6 3l-6 -12l6 -3zM70 631q0 -10 -8 -18q-3 5 -1 12q1 6 1 8q4 3 4 23q0 5 -4.5 13t-4.5 9q0 -7 -3 -22t-3 -21q-4 4 -4 9q0 -2 -3 -10.5
t-3 -10.5q17 -9 25 -28q11 22 4 36zM83 585h-8l-4 -30h7zM100 445q0 4 -2 16q-2 9 -1 13q-11 -1 -14 11q-2 9 -4 19q0 -16 -1 -41t-1 -29q0 -2 6.5 -6t6.5 -24q10 20 10 41zM97 307l-7 3l-6 -12l7 -3zM565 179q0 -9 -14 -14q-21 -7 -22 -7q4 -4 9 -4q-15 -17 -25 -17
q-30 0 -37 -4.5t-8 -4.5q-5 0 -13 7t-14 7t-14 -9t-13 -9q-10 0 -27.5 6t-27.5 6q-7 0 -14 -3q-3 6 -9.5 10.5t-9.5 9.5q9 0 31 4.5t34 4.5q11 0 18 -6.5t11 -6.5q23 0 58 18q6 2 16 9q7 5 26 5q13 -2 23 5.5t17 7.5q0 -1 2.5 -5.5t2.5 -9.5z" />
    <glyph glyph-name="seven" unicode="7" horiz-adv-x="1000" 
d="M748 -194h-747v998h747v-998zM551 650l-19 6v-7l16 -5zM562 603v17h-8v-17h8zM419 721v8h-17v-8h17zM357 715v9l-23 5v-8zM284 689q0 3 -2.5 9.5t-2.5 9.5q-17 -9 -17 -23q2 0 11 2t11 2zM667 360q0 16 -18 34q-2 -12 -7 -36t-7 -36q-3 6 -6 32q-1 12 -20 15q8 -21 5 -43
q-4 0 -5 2.5t-8 2.5q-8 0 -17 -33q-9 -29 -9 -42q0 -7 7 -15q8 -11 22 -11q20 0 27 26q4 13 21 59q15 40 15 45zM584 482v26q-33 46 -33 58q0 4 7 12q14 -14 22 -11q-23 35 -65 93q-8 -7 -8 -18q3 -2 10 -6.5t10 -6.5q-4 -1 -8 -1q-11 0 -24.5 16.5t-17.5 18.5q-23 9 -71 20
q-44 11 -53 11q-7 0 -16.5 -6.5t-13.5 -7.5q-7 -14 -21 -19q-4 3 -7 -1q0 -17 -2 -20q-10 20 -20 20q-14 0 -21 -14l-8 -20q-19 17 -13 33q-4 -2 -13 -8t-12 -6q0 7 -3 20q-32 -55 -65 -109q-27 -49 -27 -109q0 -40 4 -47q12 -23 14 -28q4 -14 3.5 -45t5.5 -40.5t15 -21.5
q4 -12 4.5 -39.5t3.5 -37.5q27 -106 79 -151q0 2 -2 9.5t-2 10.5q23 -6 51 -6q-8 0 103 21q3 4 7 8.5t11 4.5q8 0 33 -29q20 5 37 45.5t30 46.5v-12q-11 -15 -19 -35q-3 -10 -2 -30q2 -34 2 -32q0 -14 -8 -29l-11 -22h-6q-4 0 -4 -14q27 8 69 42q38 32 50 53q-9 0 -11 5
q-10 11 -19 23q-13 16 -13 22q0 3 12 73q14 74 16 111q3 0 1 4q-2 6 -2 7q0 -7 -8 -7q-6 0 -7 8q-2 14 -3 16q-2 0 -7 -3q-4 -2 -7 1q5 17 16 48q-1 4 -7 39q-3 18 -1 27q8 3 19.5 11.5t15.5 8.5q-10 20 -6 28q9 -9 16 -9zM401 -82q0 10 -12 22q-5 -5 -10 -5q-2 0 -33 6
q-33 28 -94 86v-36q-1 -17 16.5 -36t34.5 -38q8 -10 13 -32q7 -26 9 -31q5 -10 41 -25q35 71 35 89zM459 406q-11 -12 -34 -12q-6 0 -20.5 7.5t-20.5 7.5t-9.5 -5t-9.5 -5t-8.5 5t-8.5 5t-8.5 -7.5t-8.5 -7.5q-14 0 -34 10q-2 -3 -2 -12q0 -6 5 -26q6 -23 7 -32
q5 -12 16 -18q-15 5 -32 -4q0 6 7 17q-5 9 -12 29q-1 9 -1 64q21 20 43 20q6 0 29 -9.5t29 -9.5t7 9.5t8 9.5q22 0 58 -36zM246 401q0 -17 -12 -17q-6 0 -9.5 5t-9.5 5q-5 0 -10.5 -7t-11.5 -7t-7 4.5t-7 4.5q-8 0 -11.5 -6.5t-7.5 -12.5q4 7 10 42q4 21 28 21
q9 0 28.5 -13.5t19.5 -18.5zM147 391h-6v22q13 -6 6 -22zM401 227q-10 -19 -10 -45q-12 0 -57 -6q-38 -4 -61 -4q-22 0 -40 3l-6 10q14 8 53 12q55 4 61 6t13 5q13 5 25 2q7 7 7 22q0 10 -10 28t-19 18q-24 0 -84 -48q-18 19 -48 39q-5 -8 -15.5 -24.5t-14.5 -24.5
q8 35 25 68q10 -19 26 -19q7 0 19 6q17 9 22 11q15 6 42 6q0 4 1 20q11 -7 39 -37q32 -34 32 -48zM362 146q-13 -12 -23 -12q-5 4 -5 13h12q11 -1 16 -1z" />
    <glyph glyph-name="eight" unicode="8" horiz-adv-x="1446" 
d="M601 725l-1 -8l-6 3l1 4zM551 732l-4 -7l-3 2l3 6zM531 684l-6 -9l-3 3l5 8zM524 673l-3 -14l-4 -10l2 24h5zM525 632l-1 -13l-3 -7l1 14zM1157 -18l-3 -7l-4 2l3 6zM532 588l-4 -3q2 8 0 12q-5 0 1 12q3 -5 3 -21zM695 501q-12 2 -39 2q-1 -10 -1.5 -20.5t-8.5 -18.5
q5 -8 14 -8q2 0 12.5 1t17.5 1q3 0 3 -6q0 -7 -10 -11t-10 -17q-2 -1 -5 -5h-17q-14 0 -19 4v1q-3 0 -6 -1.5t-6 -1.5h-7q-3 1 -4 1q4 3 10 14h-27q0 1 -2.5 6t-2.5 6h17l4 -5q6 0 9 2q-1 3 -14 20q15 9 51 29l-3 7q-3 4 -6 4q-15 0 -10 -1h9v8q19 -6 51 -11zM599 538
q-5 -5 -6 -3q-2 0 -7 5q-6 -12 -18 -12q-3 0 -13.5 9.5t-13.5 9.5q-16 0 -15 -19q1 0 -11 6q1 0 19 30q19 6 28 6q15 0 28 -11q3 -1 9 -21zM595 506l-6 -6h-3l10 12zM582 497h-7l-3 3l10 1v-4zM1398 -197h-148v116h-16q-2 0 -384.5 -30t-385.5 -30h-86q-1 0 -7 -4
q-33 -6 -61 -6q-11 0 -16 3q-3 -21 1 -49h-141v23q0 7 31 77q3 2 5 5q10 1 15 12t10 21q0 -14 5 -23q2 1 4 -2q7 7 5 15q-3 9 -3 10q13 0 37 19l34 30v9q-4 4 -8 4q-3 0 -29 -17.5t-29 -17.5t-8.5 6.5t-9.5 6.5q-3 0 -4 -1.5t-4 -1.5l-37.5 32.5l-37.5 32.5q-3 0 -2.5 -1.5
t-2.5 -1.5q-5 0 -14 17.5t-9 21.5v13q2 -2 12 -24q8 -18 18 -18q18 0 49 18q-4 3 -15 -3q7 7 14 7q3 0 4 -1t4 -1q4 0 12.5 5t11.5 6q24 9 77 22q4 2 14 8q10 1 30 4q42 9 36 9q14 0 23 -24q6 -20 12 -41q29 -68 54 -118q5 0 5 4t-35 88q-8 10 -19 30q-8 27 -29 80
q-30 -1 -87 4q2 6 18 65q1 15 7 40q25 58 82 86q61 28 168 76q7 4 7 12q10 -5 17 -13q-8 4 -13 3q8 -25 24 -30q2 2 -3 13q7 -9 14 -17q3 -3 17 -3q3 0 11.5 1.5t12.5 1.5l2 3.5t5 3.5t3 -1.5t4 -1.5q12 0 26 24q12 21 12 30q1 14 -1 17q7 3 19 13q5 9 1 17q4 1 9 5
q-9 17 -65 24l-36 9h-3q3 -5 10 -12q-7 3 -18 10q-1 3 -2 5q-1 6 -4 9l2.5 1.5t5.5 1.5q4 0 6.5 -3.5t4.5 -6.5q8 -5 16 -5q4 0 10.5 1.5t9.5 1.5t20 -5t20 -5q6 0 18 17.5t14 26.5q0 -2 5 -7q9 4 9 10q0 22 -10 22q-7 0 -17 -16l-10 -16q-4 0 -7 -1.5t-6 -1.5t-3 3v0
q0 2 -3 2t-18.5 -10t-18.5 -10t-20 5t-20 5t-4 -2t-2 -2q1 8 -2 21q7 7 13 7q99 6 89 6l14 14q-4 3 -4 13q3 0 5 -2q4 8 21 27q3 4 3 16v15q-1 2 -12 14q0 24 1 18q-4 11 -11 34l-4 -5q-8 9 -25 21q-28 6 -71 6q-9 0 -31.5 -12.5l-22.5 -12.5q-4 0 -3.5 2t-0.5 3
q-2 -5 -8 -13t-14 -14q-11 -10 -11 -19q0 -2 1 -4q7 3 21 7q0 2 -1 7t-1 7q9 12 23 22q10 -10 13 -10t5 1t3 1q0 -6 -10 -11q7 -3 15 1q-8 -9 -27 -17q-23 -9 -30 -14q7 -7 7 -5q0 -3 -6 -3q-2 0 -6 3.5t-7 3.5q-6 0 -14 -12q0 4 3 12.5t3 11.5q0 6 -9 6q9 15 13 29
q0 -1 3 -5q5 8 18 18q2 -1 5 1q1 4 -10 10q1 0 23 22q14 13 30 13q3 0 6.5 -1t6.5 -1q6 0 8 6q2 1 12.5 3.5t13.5 2.5l6 -4q4 0 16.5 -1.5t15.5 -1.5t3 -1.5t3 -1.5q2 0 10 1.5t11 1.5q2 0 6 -3.5t7 -3.5t3 1t4 1q2 0 14 -12q4 3 12 5h-6q0 -1 -1 -2t-1 -5q0 -1 15.5 -14.5
t20.5 -21.5q18 -27 25 -70q8 -47 8 -64q0 -13 -6 -30l-10 -30q-2 -8 -9 -23q-3 -3 -9 -7.5t-6 -5.5q0 -56 13 -72q8 -9 36 -16l45 -10q14 0 40 -4q63 -22 91 -42q37 -26 69 -74q10 -15 20 -52q6 -22 9 -53q3 -26 11 -49q5 -15 15 -89v-26q3 -17 18 -16q-4 -2 -13 -1
q-2 -2 -2 -5q0 -15 14 -15q5 0 5 6q0 -1 1.5 -5t1.5 -8q-16 -6 -28 -6q-17 0 -18 23h-14q-34 -1 -89 -6q-55 -8 -163 -21q-81 -8 -185 -14q-5 -8 -5 -13q-56 -4 -159 -12q-10 -1 -34 -6t-27 -5t-3.5 2.5t-4.5 2.5q-13 0 -24 -4q9 -3 22 -2q-25 0 -40 -3q4 -1 10 3
q-5 1 -31 1q-17 0 -83 -8q-4 -4 -4 -12t2 -10q1 5 4 13q0 -13 3 -13q4 0 4 5q1 -2 4 -6q-8 0 -10 -2q-6 1 56 1q8 0 178 11q43 4 136 10q38 3 119 8q31 2 101 7q24 2 69 5q26 2 80 5q71 6 214 16q4 5 5 34q49 -5 150 -10v-155zM581 453q-6 7 -6 8q0 3 3 5.5l3 2.5v-16z
M814 -70h-14v4h14v-4zM277 112l-10 -3l-4 4l26 4zM285 135q-23 -1 -51 -10q-24 -7 -47 -15q0 7 2 8q14 6 44 13.5t35 7.5q13 0 17 -4zM255 104l-22 -7l13 7l14 6zM136 216q-1 -1 -3 -4q-22 -11 -65 -31l1 7q29 18 58 28h9zM102 100q-3 0 -7 7t-19 33q-12 23 -12 25l-4 11h9
q10 -23 33 -68v-8zM303 -155l-6 -10l-3 7l6 6zM756 698l-4 3l-2 -2l9 -16zM676 763q-16 12 -25 12q-3 0 -10.5 -2t-11.5 -2q12 -3 22 -3q4 0 6.5 -2.5t5.5 -2.5h13zM654 751q-4 1 -9 6.5t-9 5.5q-7 0 -14 -12q13 1 32 0zM780 582q-1 1 -14 15q0 -3 -3 -7t-3 -5zM824 583
l-3 11q-3 -4 -5.5 -21.5t-9.5 -22.5v22q-1 -4 -12.5 -22.5t-11.5 -28.5q0 -11 10 -11q12 0 26 53q3 13 6 20zM603 742l-10 -3l-9 -6l2 -3zM730 504l-5 7l-11 3l3 -4zM676 555l-6 7q-2 0 -6 -3q3 -4 12 -4zM658 562q-4 0 -8 -2t-5 -2q6 0 10 -3q2 2 3 7zM577 543q0 4 -3 9
q-6 1 -19 -1q11 -11 10 -11q3 0 7 1.5t5 1.5zM540 556l-5 -1l-3 -6l3 1zM319 -32l3 6h-9v-4zM260 -97q-1 1 -4.5 3.5t-5.5 3.5q5 5 10 5q-2 2 -16 4q-3 -7 -10 -18q-1 4 -4 9q-2 1 -7 -2q4 -14 15 -16q-4 4 -1 7l6 -6t3 -4q10 5 14 14zM256 -119l-4 5l-2 -4l9 -7z" />
    <glyph glyph-name="nine" unicode="9" 
d="M715 563q-10 7 -29 24q-7 7 -19 43q2 -2 14 -8q4 4 -5 22l21 -19q7 -14 18 -46v-16zM723 481q-3 -20 -15 -58q0 3 -3 15t-3 18q0 7 10 14.5t11 10.5zM334 797l-30 4v8l30 -5v-7zM661 498q-3 -2 -48 -4q-25 -2 -45 -17q0 9 16 16l-5.5 5.5l-5.5 5.5q-12 -7 -17 -15
q-1 -3 -17 -3t-29 18q-11 -13 -39 -22q2 2 10 8.5t13 11.5q-4 3 -22 -6l13 15l-8 7q-10 -5 -37 -23q3 14 6 27q4 19 13 27q23 18 60 18q28 0 71 -18q7 7 14 32q1 -2 32 -24q26 -19 25 -38q-10 0 -25 -5q-3 -1 -11 -7q18 -9 36 -9zM290 806q-11 -11 -11 -16q-7 7 -7 16h18z
M828 2h-89q13 27 13 29q0 13 -16 29q-7 -7 -14 -26q-8 -23 -14 -33q0 34 -8 104q-1 -8 -4 -26q-12 -8 -34 -27q-6 -7 -29 -50h-166q41 2 81 23q13 6 37 39q21 31 30 32q-3 -25 -1 -32q16 15 17 30q4 0 11 6q9 22 30 63q18 24 51 77q10 18 3 43q8 12 8 27q0 4 -6 37
q-4 22 4 35q-1 -19 -1 -37q0 -27 23 -27q15 0 26 11.5t11 27.5q0 12 -4 53q-4 35 -2 56q0 3 8.5 28.5t8.5 32.5q0 24 -16 54q-9 -14 -23 -45q0 14 -4 18q-13 -13 -15 -13q2 8 2 24q-5 15 -14 45q0 -4 13 -11q2 2 -6 18l22 -20q-7 -8 -15 -2q-5 -8 4 -23q8 10 29 30
q-6 1 -17 3q-8 17 -21 30q-5 -4 -5 -9q1 5 -4.5 16.5t-5.5 17.5q0 21 5 46q3 19 -13 43q-2 -2 -5 -7.5t-6 -5.5q9 43 -25 62q-6 -6 10 -24v-21q-11 13 -21 26q-15 18 -13 28h170v-805zM597 448h-30v8h30v-8zM661 186l-6 -22q-9 0 -19 -21l-14 -28q0 1 14 43q9 27 25 28z
M130 658q-4 1 -12 6q7 6 7 10q0 -2 2.5 -7.5t2.5 -8.5zM688 292q-7 1 -23.5 -2.5t-23.5 -25.5q0 5 -9 13q-86 -72 -91 -72q-6 0 -4 3q2 4 0 6q-9 -9 -16 -9q-6 0 -5.5 6t-1.5 8q-15 -14 -12 -23q-9 14 -17 14q-6 0 -24 -9.5t-24 -9.5q2 0 -53 10q-6 -11 -7 -19v15
q-1 0 -3.5 1.5t-8.5 1.5q-8 0 -8 -17q-28 9 -94 37q1 2 1.5 7t7.5 5q14 0 33 18q3 -1 24 -22q5 2 12 2q7 -9 15 -15q15 0 50.5 -2.5t39.5 -2.5q11 0 38 7q33 9 52 21q10 13 29 35q0 -1 -1 -5q-1 -2 0 -3q2 -1 7 -1t10 2t10.5 2t9 7t8.5 7q7 0 9.5 -2.5t3.5 -2.5l3 3v9
q-19 20 -25 20t-10 -2t-5 -2q0 3 8 11q-2 2 -63 51q16 -8 68 -40q44 -27 50 -27q3 0 3 1t-2 3.5t-2 3.5t3 1q6 0 7 -4.5t7 -4.5q11 0 18 14zM369 333h-8l-5 34h8zM525 306q-7 -3 -18.5 -17t-14.5 -22l-8 -6.5t-8 -11.5q0 -3 4 -6q-61 -24 -79 -24q-5 0 -16.5 6t-19.5 6
q-5 0 -11 -3q0 2 -2.5 10t-1.5 10q-5 2 -11 4q-6 9 -26 50v47q8 5 21 14q0 -4 -4 -14.5t-4 -16.5q0 -11 8 -18q12 -3 41 -16q4 -2 21 -18t23 -16q34 0 61 23q36 32 45 35v-16zM245 415h-32l6 7zM439 2h-438v805h148q-4 -13 -15 -30q1 -6 5 -21q-21 -25 -21 -39q0 -16 11 -16
l-9 -3q-8 -27 -3 -47q-6 -1 -3 -12q-1 -4 2 -13q5 7 19 18q2 -19 1 -34q-2 -19 -2 -13q0 11 -9 11q-6 0 -6 -4.5t-6 -4.5q-9 0 -9 -4q0 -13 23 -41q-15 -9 0 -9q7 0 8.5 3t3.5 6q0 -3 -12 -16q11 -4 10 -8t2 -8q2 1 12 11q8 7 14 7t13.5 -3.5t10.5 -4.5q5 -1 16.5 1.5
t17 2.5t30 4.5t30.5 4.5t15 -8t13 -9q40 -15 57 -36t17 -60q0 -21 -11 -55q1 2 -6 7.5t-9 12.5q-3 10 0 29q5 29 5 32q-10 18 -32 40q-43 15 -101 15q-36 0 -56 -12q0 -1 -7 -8q6 -7 13 -7q13 0 5 8h104q-3 3 -18 3q30 6 68 -19q-1 0 -16.5 6t-24.5 6q-5 0 -9 -2
q16 -11 41 -23q-5 0 -18 6t-19 6q-5 0 -9 -9t-9 -9q-24 0 -38 9l-11 -12q8 -8 13 -8q-10 -1 -29 2q-7 -8 2 -17q-14 -1 -36 10q9 0 18 9q2 2 -2 7q-3 -3 -10 -5t-9 -4q0 8 7 15q-5 2 -20 7q-11 -13 -13 -16q-9 -9 -18 -11q-3 2 -8 -2q9 -9 23 -9q-5 -2 -16 -2.5t-16 -2.5
q9 -8 21 -23q3 -7 0 -32q-2 -19 4 -19q7 0 8.5 1.5t2.5 1.5l-6 -46q1 -2 -3 -3.5t-4 -8.5q0 -14 27 -24q31 -12 32 -15.5t2.5 -11.5t1.5 -10q-1 -28 4 -38q-15 25 -40 37q-3 1 -7.5 15.5t-15.5 15.5q0 -6 -2 -18.5t-2 -18.5q0 -31 22 -55q6 -7 39 -33q3 -6 10 -16q3 0 4 5
q1 4 -2 8q8 -5 12 -5q0 -2 -8 -10q7 -10 26 -27q15 -4 32 -13l14 -13q123 -67 132 -67q19 0 22 -4zM171 434h-12v8h12v-8zM760 623l-7 30h-7l7 -30h7zM695 609v17h-8v-17h8zM611 524q-9 9 -9 11q-71 -5 -58 -6q11 0 33.5 -2.5t33.5 -2.5zM110 776l-4 6l-16 -11l3 -6z
M100 753l-2 6l-11 -5v-7zM51 760l-6 3l-6 -12l6 -3zM94 730q-11 -13 -11.5 -35t-14.5 -36q8 0 16 8q4 -4 4 -13q6 17 6 76zM83 642l-6 3l-6 -12l6 -3zM70 631q0 -10 -8 -18q-3 5 -1 12q1 6 1 8q4 3 4 23q0 5 -4.5 13t-4.5 9q0 -7 -3 -22t-3 -21q-4 4 -4 9q0 -2 -3 -10.5
t-3 -10.5q17 -9 25 -28q11 22 4 36zM83 585h-8l-4 -30h7zM100 445q0 4 -2 16q-2 9 -1 13q-11 -1 -14 11q-2 9 -4 19q0 -16 -1 -41t-1 -29q0 -2 6.5 -6t6.5 -24q10 20 10 41zM97 307l-7 3l-6 -12l7 -3zM565 179q0 -9 -14 -14q-21 -7 -22 -7q4 -4 9 -4q-15 -17 -25 -17
q-30 0 -37 -4.5t-8 -4.5q-5 0 -13 7t-14 7t-14 -9t-13 -9q-10 0 -27.5 6t-27.5 6q-7 0 -14 -3q-3 6 -9.5 10.5t-9.5 9.5q9 0 31 4.5t34 4.5q11 0 18 -6.5t11 -6.5q23 0 58 18q6 2 16 9q7 5 26 5q13 -2 23 5.5t17 7.5q0 -1 2.5 -5.5t2.5 -9.5z" />
    <glyph glyph-name="colon" unicode=":" horiz-adv-x="1000" 
d="M748 -194h-747v998h747v-998zM551 650l-19 6v-7l16 -5zM562 603v17h-8v-17h8zM419 721v8h-17v-8h17zM357 715v9l-23 5v-8zM284 689q0 3 -2.5 9.5t-2.5 9.5q-17 -9 -17 -23q2 0 11 2t11 2zM667 360q0 16 -18 34q-2 -12 -7 -36t-7 -36q-3 6 -6 32q-1 12 -20 15q8 -21 5 -43
q-4 0 -5 2.5t-8 2.5q-8 0 -17 -33q-9 -29 -9 -42q0 -7 7 -15q8 -11 22 -11q20 0 27 26q4 13 21 59q15 40 15 45zM584 482v26q-33 46 -33 58q0 4 7 12q14 -14 22 -11q-23 35 -65 93q-8 -7 -8 -18q3 -2 10 -6.5t10 -6.5q-4 -1 -8 -1q-11 0 -24.5 16.5t-17.5 18.5q-23 9 -71 20
q-44 11 -53 11q-7 0 -16.5 -6.5t-13.5 -7.5q-7 -14 -21 -19q-4 3 -7 -1q0 -17 -2 -20q-10 20 -20 20q-14 0 -21 -14l-8 -20q-19 17 -13 33q-4 -2 -13 -8t-12 -6q0 7 -3 20q-32 -55 -65 -109q-27 -49 -27 -109q0 -40 4 -47q12 -23 14 -28q4 -14 3.5 -45t5.5 -40.5t15 -21.5
q4 -12 4.5 -39.5t3.5 -37.5q27 -106 79 -151q0 2 -2 9.5t-2 10.5q23 -6 51 -6q-8 0 103 21q3 4 7 8.5t11 4.5q8 0 33 -29q20 5 37 45.5t30 46.5v-12q-11 -15 -19 -35q-3 -10 -2 -30q2 -34 2 -32q0 -14 -8 -29l-11 -22h-6q-4 0 -4 -14q27 8 69 42q38 32 50 53q-9 0 -11 5
q-10 11 -19 23q-13 16 -13 22q0 3 12 73q14 74 16 111q3 0 1 4q-2 6 -2 7q0 -7 -8 -7q-6 0 -7 8q-2 14 -3 16q-2 0 -7 -3q-4 -2 -7 1q5 17 16 48q-1 4 -7 39q-3 18 -1 27q8 3 19.5 11.5t15.5 8.5q-10 20 -6 28q9 -9 16 -9zM401 -82q0 10 -12 22q-5 -5 -10 -5q-2 0 -33 6
q-33 28 -94 86v-36q-1 -17 16.5 -36t34.5 -38q8 -10 13 -32q7 -26 9 -31q5 -10 41 -25q35 71 35 89zM459 406q-11 -12 -34 -12q-6 0 -20.5 7.5t-20.5 7.5t-9.5 -5t-9.5 -5t-8.5 5t-8.5 5t-8.5 -7.5t-8.5 -7.5q-14 0 -34 10q-2 -3 -2 -12q0 -6 5 -26q6 -23 7 -32
q5 -12 16 -18q-15 5 -32 -4q0 6 7 17q-5 9 -12 29q-1 9 -1 64q21 20 43 20q6 0 29 -9.5t29 -9.5t7 9.5t8 9.5q22 0 58 -36zM246 401q0 -17 -12 -17q-6 0 -9.5 5t-9.5 5q-5 0 -10.5 -7t-11.5 -7t-7 4.5t-7 4.5q-8 0 -11.5 -6.5t-7.5 -12.5q4 7 10 42q4 21 28 21
q9 0 28.5 -13.5t19.5 -18.5zM147 391h-6v22q13 -6 6 -22zM401 227q-10 -19 -10 -45q-12 0 -57 -6q-38 -4 -61 -4q-22 0 -40 3l-6 10q14 8 53 12q55 4 61 6t13 5q13 5 25 2q7 7 7 22q0 10 -10 28t-19 18q-24 0 -84 -48q-18 19 -48 39q-5 -8 -15.5 -24.5t-14.5 -24.5
q8 35 25 68q10 -19 26 -19q7 0 19 6q17 9 22 11q15 6 42 6q0 4 1 20q11 -7 39 -37q32 -34 32 -48zM362 146q-13 -12 -23 -12q-5 4 -5 13h12q11 -1 16 -1z" />
    <glyph glyph-name="semicolon" unicode=";" horiz-adv-x="1459" 
d="M601 725l-1 -8l-6 3l1 4zM551 732l-4 -7l-3 2l3 6zM531 684l-6 -9l-3 3l5 8zM524 673l-3 -14l-4 -10l2 24h5zM525 632l-1 -13l-3 -7l1 14zM1157 -18l-3 -7l-4 2l3 6zM532 588l-4 -3q2 8 0 12q-5 0 1 12q3 -5 3 -21zM695 501q-12 2 -39 2q-1 -10 -1.5 -20.5t-8.5 -18.5
q5 -8 14 -8q2 0 12.5 1t17.5 1q3 0 3 -6q0 -7 -10 -11t-10 -17q-2 -1 -5 -5h-17q-14 0 -19 4v1q-3 0 -6 -1.5t-6 -1.5h-7q-3 1 -4 1q4 3 10 14h-27q0 1 -2.5 6t-2.5 6h17l4 -5q6 0 9 2q-1 3 -14 20q15 9 51 29l-3 7q-3 4 -6 4q-15 0 -10 -1h9v8q19 -6 51 -11zM599 538
q-5 -5 -6 -3q-2 0 -7 5q-6 -12 -18 -12q-3 0 -13.5 9.5t-13.5 9.5q-16 0 -15 -19q1 0 -11 6q1 0 19 30q19 6 28 6q15 0 28 -11q3 -1 9 -21zM595 506l-6 -6h-3l10 12zM582 497h-7l-3 3l10 1v-4zM1398 -197h-148v116h-16q-2 0 -384.5 -30t-385.5 -30h-86q-1 0 -7 -4
q-33 -6 -61 -6q-11 0 -16 3q-3 -21 1 -49h-141v23q0 7 31 77q3 2 5 5q10 1 15 12t10 21q0 -14 5 -23q2 1 4 -2q7 7 5 15q-3 9 -3 10q13 0 37 19l34 30v9q-4 4 -8 4q-3 0 -29 -17.5t-29 -17.5t-8.5 6.5t-9.5 6.5q-3 0 -4 -1.5t-4 -1.5l-37.5 32.5l-37.5 32.5q-3 0 -2.5 -1.5
t-2.5 -1.5q-5 0 -14 17.5t-9 21.5v13q2 -2 12 -24q8 -18 18 -18q18 0 49 18q-4 3 -15 -3q7 7 14 7q3 0 4 -1t4 -1q4 0 12.5 5t11.5 6q24 9 77 22q4 2 14 8q10 1 30 4q42 9 36 9q14 0 23 -24q6 -20 12 -41q29 -68 54 -118q5 0 5 4t-35 88q-8 10 -19 30q-8 27 -29 80
q-30 -1 -87 4q2 6 18 65q1 15 7 40q25 58 82 86q61 28 168 76q7 4 7 12q10 -5 17 -13q-8 4 -13 3q8 -25 24 -30q2 2 -3 13q7 -9 14 -17q3 -3 17 -3q3 0 11.5 1.5t12.5 1.5l2 3.5t5 3.5t3 -1.5t4 -1.5q12 0 26 24q12 21 12 30q1 14 -1 17q7 3 19 13q5 9 1 17q4 1 9 5
q-9 17 -65 24l-36 9h-3q3 -5 10 -12q-7 3 -18 10q-1 3 -2 5q-1 6 -4 9l2.5 1.5t5.5 1.5q4 0 6.5 -3.5t4.5 -6.5q8 -5 16 -5q4 0 10.5 1.5t9.5 1.5t20 -5t20 -5q6 0 18 17.5t14 26.5q0 -2 5 -7q9 4 9 10q0 22 -10 22q-7 0 -17 -16l-10 -16q-4 0 -7 -1.5t-6 -1.5t-3 3v0
q0 2 -3 2t-18.5 -10t-18.5 -10t-20 5t-20 5t-4 -2t-2 -2q1 8 -2 21q7 7 13 7q99 6 89 6l14 14q-4 3 -4 13q3 0 5 -2q4 8 21 27q3 4 3 16v15q-1 2 -12 14q0 24 1 18q-4 11 -11 34l-4 -5q-8 9 -25 21q-28 6 -71 6q-9 0 -31.5 -12.5l-22.5 -12.5q-4 0 -3.5 2t-0.5 3
q-2 -5 -8 -13t-14 -14q-11 -10 -11 -19q0 -2 1 -4q7 3 21 7q0 2 -1 7t-1 7q9 12 23 22q10 -10 13 -10t5 1t3 1q0 -6 -10 -11q7 -3 15 1q-8 -9 -27 -17q-23 -9 -30 -14q7 -7 7 -5q0 -3 -6 -3q-2 0 -6 3.5t-7 3.5q-6 0 -14 -12q0 4 3 12.5t3 11.5q0 6 -9 6q9 15 13 29
q0 -1 3 -5q5 8 18 18q2 -1 5 1q1 4 -10 10q1 0 23 22q14 13 30 13q3 0 6.5 -1t6.5 -1q6 0 8 6q2 1 12.5 3.5t13.5 2.5l6 -4q4 0 16.5 -1.5t15.5 -1.5t3 -1.5t3 -1.5q2 0 10 1.5t11 1.5q2 0 6 -3.5t7 -3.5t3 1t4 1q2 0 14 -12q4 3 12 5h-6q0 -1 -1 -2t-1 -5q0 -1 15.5 -14.5
t20.5 -21.5q18 -27 25 -70q8 -47 8 -64q0 -13 -6 -30l-10 -30q-2 -8 -9 -23q-3 -3 -9 -7.5t-6 -5.5q0 -56 13 -72q8 -9 36 -16l45 -10q14 0 40 -4q63 -22 91 -42q37 -26 69 -74q10 -15 20 -52q6 -22 9 -53q3 -26 11 -49q5 -15 15 -89v-26q3 -17 18 -16q-4 -2 -13 -1
q-2 -2 -2 -5q0 -15 14 -15q5 0 5 6q0 -1 1.5 -5t1.5 -8q-16 -6 -28 -6q-17 0 -18 23h-14q-34 -1 -89 -6q-55 -8 -163 -21q-81 -8 -185 -14q-5 -8 -5 -13q-56 -4 -159 -12q-10 -1 -34 -6t-27 -5t-3.5 2.5t-4.5 2.5q-13 0 -24 -4q9 -3 22 -2q-25 0 -40 -3q4 -1 10 3
q-5 1 -31 1q-17 0 -83 -8q-4 -4 -4 -12t2 -10q1 5 4 13q0 -13 3 -13q4 0 4 5q1 -2 4 -6q-8 0 -10 -2q-6 1 56 1q8 0 178 11q43 4 136 10q38 3 119 8q31 2 101 7q24 2 69 5q26 2 80 5q71 6 214 16q4 5 5 34q49 -5 150 -10v-155zM581 453q-6 7 -6 8q0 3 3 5.5l3 2.5v-16z
M814 -70h-14v4h14v-4zM277 112l-10 -3l-4 4l26 4zM285 135q-23 -1 -51 -10q-24 -7 -47 -15q0 7 2 8q14 6 44 13.5t35 7.5q13 0 17 -4zM255 104l-22 -7l13 7l14 6zM136 216q-1 -1 -3 -4q-22 -11 -65 -31l1 7q29 18 58 28h9zM102 100q-3 0 -7 7t-19 33q-12 23 -12 25l-4 11h9
q10 -23 33 -68v-8zM303 -155l-6 -10l-3 7l6 6zM756 698l-4 3l-2 -2l9 -16zM676 763q-16 12 -25 12q-3 0 -10.5 -2t-11.5 -2q12 -3 22 -3q4 0 6.5 -2.5t5.5 -2.5h13zM654 751q-4 1 -9 6.5t-9 5.5q-7 0 -14 -12q13 1 32 0zM780 582q-1 1 -14 15q0 -3 -3 -7t-3 -5zM824 583
l-3 11q-3 -4 -5.5 -21.5t-9.5 -22.5v22q-1 -4 -12.5 -22.5t-11.5 -28.5q0 -11 10 -11q12 0 26 53q3 13 6 20zM603 742l-10 -3l-9 -6l2 -3zM730 504l-5 7l-11 3l3 -4zM676 555l-6 7q-2 0 -6 -3q3 -4 12 -4zM658 562q-4 0 -8 -2t-5 -2q6 0 10 -3q2 2 3 7zM577 543q0 4 -3 9
q-6 1 -19 -1q11 -11 10 -11q3 0 7 1.5t5 1.5zM540 556l-5 -1l-3 -6l3 1zM319 -32l3 6h-9v-4zM260 -97q-1 1 -4.5 3.5t-5.5 3.5q5 5 10 5q-2 2 -16 4q-3 -7 -10 -18q-1 4 -4 9q-2 1 -7 -2q4 -14 15 -16q-4 4 -1 7l6 -6t3 -4q10 5 14 14zM256 -119l-4 5l-2 -4l9 -7z" />
    <glyph glyph-name="less" unicode="&#x3c;" 
d="M715 563q-10 7 -29 24q-7 7 -19 43q2 -2 14 -8q4 4 -5 22l21 -19q7 -14 18 -46v-16zM723 481q-3 -20 -15 -58q0 3 -3 15t-3 18q0 7 10 14.5t11 10.5zM334 797l-30 4v8l30 -5v-7zM661 498q-3 -2 -48 -4q-25 -2 -45 -17q0 9 16 16l-5.5 5.5l-5.5 5.5q-12 -7 -17 -15
q-1 -3 -17 -3t-29 18q-11 -13 -39 -22q2 2 10 8.5t13 11.5q-4 3 -22 -6l13 15l-8 7q-10 -5 -37 -23q3 14 6 27q4 19 13 27q23 18 60 18q28 0 71 -18q7 7 14 32q1 -2 32 -24q26 -19 25 -38q-10 0 -25 -5q-3 -1 -11 -7q18 -9 36 -9zM290 806q-11 -11 -11 -16q-7 7 -7 16h18z
M828 2h-89q13 27 13 29q0 13 -16 29q-7 -7 -14 -26q-8 -23 -14 -33q0 34 -8 104q-1 -8 -4 -26q-12 -8 -34 -27q-6 -7 -29 -50h-166q41 2 81 23q13 6 37 39q21 31 30 32q-3 -25 -1 -32q16 15 17 30q4 0 11 6q9 22 30 63q18 24 51 77q10 18 3 43q8 12 8 27q0 4 -6 37
q-4 22 4 35q-1 -19 -1 -37q0 -27 23 -27q15 0 26 11.5t11 27.5q0 12 -4 53q-4 35 -2 56q0 3 8.5 28.5t8.5 32.5q0 24 -16 54q-9 -14 -23 -45q0 14 -4 18q-13 -13 -15 -13q2 8 2 24q-5 15 -14 45q0 -4 13 -11q2 2 -6 18l22 -20q-7 -8 -15 -2q-5 -8 4 -23q8 10 29 30
q-6 1 -17 3q-8 17 -21 30q-5 -4 -5 -9q1 5 -4.5 16.5t-5.5 17.5q0 21 5 46q3 19 -13 43q-2 -2 -5 -7.5t-6 -5.5q9 43 -25 62q-6 -6 10 -24v-21q-11 13 -21 26q-15 18 -13 28h170v-805zM597 448h-30v8h30v-8zM661 186l-6 -22q-9 0 -19 -21l-14 -28q0 1 14 43q9 27 25 28z
M130 658q-4 1 -12 6q7 6 7 10q0 -2 2.5 -7.5t2.5 -8.5zM688 292q-7 1 -23.5 -2.5t-23.5 -25.5q0 5 -9 13q-86 -72 -91 -72q-6 0 -4 3q2 4 0 6q-9 -9 -16 -9q-6 0 -5.5 6t-1.5 8q-15 -14 -12 -23q-9 14 -17 14q-6 0 -24 -9.5t-24 -9.5q2 0 -53 10q-6 -11 -7 -19v15
q-1 0 -3.5 1.5t-8.5 1.5q-8 0 -8 -17q-28 9 -94 37q1 2 1.5 7t7.5 5q14 0 33 18q3 -1 24 -22q5 2 12 2q7 -9 15 -15q15 0 50.5 -2.5t39.5 -2.5q11 0 38 7q33 9 52 21q10 13 29 35q0 -1 -1 -5q-1 -2 0 -3q2 -1 7 -1t10 2t10.5 2t9 7t8.5 7q7 0 9.5 -2.5t3.5 -2.5l3 3v9
q-19 20 -25 20t-10 -2t-5 -2q0 3 8 11q-2 2 -63 51q16 -8 68 -40q44 -27 50 -27q3 0 3 1t-2 3.5t-2 3.5t3 1q6 0 7 -4.5t7 -4.5q11 0 18 14zM369 333h-8l-5 34h8zM525 306q-7 -3 -18.5 -17t-14.5 -22l-8 -6.5t-8 -11.5q0 -3 4 -6q-61 -24 -79 -24q-5 0 -16.5 6t-19.5 6
q-5 0 -11 -3q0 2 -2.5 10t-1.5 10q-5 2 -11 4q-6 9 -26 50v47q8 5 21 14q0 -4 -4 -14.5t-4 -16.5q0 -11 8 -18q12 -3 41 -16q4 -2 21 -18t23 -16q34 0 61 23q36 32 45 35v-16zM245 415h-32l6 7zM439 2h-438v805h148q-4 -13 -15 -30q1 -6 5 -21q-21 -25 -21 -39q0 -16 11 -16
l-9 -3q-8 -27 -3 -47q-6 -1 -3 -12q-1 -4 2 -13q5 7 19 18q2 -19 1 -34q-2 -19 -2 -13q0 11 -9 11q-6 0 -6 -4.5t-6 -4.5q-9 0 -9 -4q0 -13 23 -41q-15 -9 0 -9q7 0 8.5 3t3.5 6q0 -3 -12 -16q11 -4 10 -8t2 -8q2 1 12 11q8 7 14 7t13.5 -3.5t10.5 -4.5q5 -1 16.5 1.5
t17 2.5t30 4.5t30.5 4.5t15 -8t13 -9q40 -15 57 -36t17 -60q0 -21 -11 -55q1 2 -6 7.5t-9 12.5q-3 10 0 29q5 29 5 32q-10 18 -32 40q-43 15 -101 15q-36 0 -56 -12q0 -1 -7 -8q6 -7 13 -7q13 0 5 8h104q-3 3 -18 3q30 6 68 -19q-1 0 -16.5 6t-24.5 6q-5 0 -9 -2
q16 -11 41 -23q-5 0 -18 6t-19 6q-5 0 -9 -9t-9 -9q-24 0 -38 9l-11 -12q8 -8 13 -8q-10 -1 -29 2q-7 -8 2 -17q-14 -1 -36 10q9 0 18 9q2 2 -2 7q-3 -3 -10 -5t-9 -4q0 8 7 15q-5 2 -20 7q-11 -13 -13 -16q-9 -9 -18 -11q-3 2 -8 -2q9 -9 23 -9q-5 -2 -16 -2.5t-16 -2.5
q9 -8 21 -23q3 -7 0 -32q-2 -19 4 -19q7 0 8.5 1.5t2.5 1.5l-6 -46q1 -2 -3 -3.5t-4 -8.5q0 -14 27 -24q31 -12 32 -15.5t2.5 -11.5t1.5 -10q-1 -28 4 -38q-15 25 -40 37q-3 1 -7.5 15.5t-15.5 15.5q0 -6 -2 -18.5t-2 -18.5q0 -31 22 -55q6 -7 39 -33q3 -6 10 -16q3 0 4 5
q1 4 -2 8q8 -5 12 -5q0 -2 -8 -10q7 -10 26 -27q15 -4 32 -13l14 -13q123 -67 132 -67q19 0 22 -4zM171 434h-12v8h12v-8zM760 623l-7 30h-7l7 -30h7zM695 609v17h-8v-17h8zM611 524q-9 9 -9 11q-71 -5 -58 -6q11 0 33.5 -2.5t33.5 -2.5zM110 776l-4 6l-16 -11l3 -6z
M100 753l-2 6l-11 -5v-7zM51 760l-6 3l-6 -12l6 -3zM94 730q-11 -13 -11.5 -35t-14.5 -36q8 0 16 8q4 -4 4 -13q6 17 6 76zM83 642l-6 3l-6 -12l6 -3zM70 631q0 -10 -8 -18q-3 5 -1 12q1 6 1 8q4 3 4 23q0 5 -4.5 13t-4.5 9q0 -7 -3 -22t-3 -21q-4 4 -4 9q0 -2 -3 -10.5
t-3 -10.5q17 -9 25 -28q11 22 4 36zM83 585h-8l-4 -30h7zM100 445q0 4 -2 16q-2 9 -1 13q-11 -1 -14 11q-2 9 -4 19q0 -16 -1 -41t-1 -29q0 -2 6.5 -6t6.5 -24q10 20 10 41zM97 307l-7 3l-6 -12l7 -3zM565 179q0 -9 -14 -14q-21 -7 -22 -7q4 -4 9 -4q-15 -17 -25 -17
q-30 0 -37 -4.5t-8 -4.5q-5 0 -13 7t-14 7t-14 -9t-13 -9q-10 0 -27.5 6t-27.5 6q-7 0 -14 -3q-3 6 -9.5 10.5t-9.5 9.5q9 0 31 4.5t34 4.5q11 0 18 -6.5t11 -6.5q23 0 58 18q6 2 16 9q7 5 26 5q13 -2 23 5.5t17 7.5q0 -1 2.5 -5.5t2.5 -9.5z" />
    <glyph glyph-name="equal" unicode="=" horiz-adv-x="657" 
d="M615 429q-4 -7 -8.5 -13.5t-12.5 -7.5q-3 0 -93 9q-99 10 -144 10q-26 0 -78 2t-78 2q-63 0 -111 -9q-52 -9 -61 -40l-22 -4q-6 68 71 87q33 8 131 8q94 0 231 -13q76 -7 151 -14q2 -1 24 -17zM591 244q-5 -7 -9 -13t-12 -8q-3 0 -81 7q-88 9 -132 9q-26 0 -78 2t-78 2
q-63 0 -111 -9q-16 -1 -31 -3q-31 -6 -37 -24l-22 -4q-3 38 22 55q15 11 53 18q55 10 139 10q88 0 213 -12q70 -7 140 -13q2 -1 24 -17z" />
    <glyph glyph-name="greater" unicode="&#x3e;" 
d="M715 563q-10 7 -29 24q-7 7 -19 43q2 -2 14 -8q4 4 -5 22l21 -19q7 -14 18 -46v-16zM723 481q-3 -20 -15 -58q0 3 -3 15t-3 18q0 7 10 14.5t11 10.5zM334 797l-30 4v8l30 -5v-7zM661 498q-3 -2 -48 -4q-25 -2 -45 -17q0 9 16 16l-5.5 5.5l-5.5 5.5q-12 -7 -17 -15
q-1 -3 -17 -3t-29 18q-11 -13 -39 -22q2 2 10 8.5t13 11.5q-4 3 -22 -6l13 15l-8 7q-10 -5 -37 -23q3 14 6 27q4 19 13 27q23 18 60 18q28 0 71 -18q7 7 14 32q1 -2 32 -24q26 -19 25 -38q-10 0 -25 -5q-3 -1 -11 -7q18 -9 36 -9zM290 806q-11 -11 -11 -16q-7 7 -7 16h18z
M828 2h-89q13 27 13 29q0 13 -16 29q-7 -7 -14 -26q-8 -23 -14 -33q0 34 -8 104q-1 -8 -4 -26q-12 -8 -34 -27q-6 -7 -29 -50h-166q41 2 81 23q13 6 37 39q21 31 30 32q-3 -25 -1 -32q16 15 17 30q4 0 11 6q9 22 30 63q18 24 51 77q10 18 3 43q8 12 8 27q0 4 -6 37
q-4 22 4 35q-1 -19 -1 -37q0 -27 23 -27q15 0 26 11.5t11 27.5q0 12 -4 53q-4 35 -2 56q0 3 8.5 28.5t8.5 32.5q0 24 -16 54q-9 -14 -23 -45q0 14 -4 18q-13 -13 -15 -13q2 8 2 24q-5 15 -14 45q0 -4 13 -11q2 2 -6 18l22 -20q-7 -8 -15 -2q-5 -8 4 -23q8 10 29 30
q-6 1 -17 3q-8 17 -21 30q-5 -4 -5 -9q1 5 -4.5 16.5t-5.5 17.5q0 21 5 46q3 19 -13 43q-2 -2 -5 -7.5t-6 -5.5q9 43 -25 62q-6 -6 10 -24v-21q-11 13 -21 26q-15 18 -13 28h170v-805zM597 448h-30v8h30v-8zM661 186l-6 -22q-9 0 -19 -21l-14 -28q0 1 14 43q9 27 25 28z
M130 658q-4 1 -12 6q7 6 7 10q0 -2 2.5 -7.5t2.5 -8.5zM688 292q-7 1 -23.5 -2.5t-23.5 -25.5q0 5 -9 13q-86 -72 -91 -72q-6 0 -4 3q2 4 0 6q-9 -9 -16 -9q-6 0 -5.5 6t-1.5 8q-15 -14 -12 -23q-9 14 -17 14q-6 0 -24 -9.5t-24 -9.5q2 0 -53 10q-6 -11 -7 -19v15
q-1 0 -3.5 1.5t-8.5 1.5q-8 0 -8 -17q-28 9 -94 37q1 2 1.5 7t7.5 5q14 0 33 18q3 -1 24 -22q5 2 12 2q7 -9 15 -15q15 0 50.5 -2.5t39.5 -2.5q11 0 38 7q33 9 52 21q10 13 29 35q0 -1 -1 -5q-1 -2 0 -3q2 -1 7 -1t10 2t10.5 2t9 7t8.5 7q7 0 9.5 -2.5t3.5 -2.5l3 3v9
q-19 20 -25 20t-10 -2t-5 -2q0 3 8 11q-2 2 -63 51q16 -8 68 -40q44 -27 50 -27q3 0 3 1t-2 3.5t-2 3.5t3 1q6 0 7 -4.5t7 -4.5q11 0 18 14zM369 333h-8l-5 34h8zM525 306q-7 -3 -18.5 -17t-14.5 -22l-8 -6.5t-8 -11.5q0 -3 4 -6q-61 -24 -79 -24q-5 0 -16.5 6t-19.5 6
q-5 0 -11 -3q0 2 -2.5 10t-1.5 10q-5 2 -11 4q-6 9 -26 50v47q8 5 21 14q0 -4 -4 -14.5t-4 -16.5q0 -11 8 -18q12 -3 41 -16q4 -2 21 -18t23 -16q34 0 61 23q36 32 45 35v-16zM245 415h-32l6 7zM439 2h-438v805h148q-4 -13 -15 -30q1 -6 5 -21q-21 -25 -21 -39q0 -16 11 -16
l-9 -3q-8 -27 -3 -47q-6 -1 -3 -12q-1 -4 2 -13q5 7 19 18q2 -19 1 -34q-2 -19 -2 -13q0 11 -9 11q-6 0 -6 -4.5t-6 -4.5q-9 0 -9 -4q0 -13 23 -41q-15 -9 0 -9q7 0 8.5 3t3.5 6q0 -3 -12 -16q11 -4 10 -8t2 -8q2 1 12 11q8 7 14 7t13.5 -3.5t10.5 -4.5q5 -1 16.5 1.5
t17 2.5t30 4.5t30.5 4.5t15 -8t13 -9q40 -15 57 -36t17 -60q0 -21 -11 -55q1 2 -6 7.5t-9 12.5q-3 10 0 29q5 29 5 32q-10 18 -32 40q-43 15 -101 15q-36 0 -56 -12q0 -1 -7 -8q6 -7 13 -7q13 0 5 8h104q-3 3 -18 3q30 6 68 -19q-1 0 -16.5 6t-24.5 6q-5 0 -9 -2
q16 -11 41 -23q-5 0 -18 6t-19 6q-5 0 -9 -9t-9 -9q-24 0 -38 9l-11 -12q8 -8 13 -8q-10 -1 -29 2q-7 -8 2 -17q-14 -1 -36 10q9 0 18 9q2 2 -2 7q-3 -3 -10 -5t-9 -4q0 8 7 15q-5 2 -20 7q-11 -13 -13 -16q-9 -9 -18 -11q-3 2 -8 -2q9 -9 23 -9q-5 -2 -16 -2.5t-16 -2.5
q9 -8 21 -23q3 -7 0 -32q-2 -19 4 -19q7 0 8.5 1.5t2.5 1.5l-6 -46q1 -2 -3 -3.5t-4 -8.5q0 -14 27 -24q31 -12 32 -15.5t2.5 -11.5t1.5 -10q-1 -28 4 -38q-15 25 -40 37q-3 1 -7.5 15.5t-15.5 15.5q0 -6 -2 -18.5t-2 -18.5q0 -31 22 -55q6 -7 39 -33q3 -6 10 -16q3 0 4 5
q1 4 -2 8q8 -5 12 -5q0 -2 -8 -10q7 -10 26 -27q15 -4 32 -13l14 -13q123 -67 132 -67q19 0 22 -4zM171 434h-12v8h12v-8zM760 623l-7 30h-7l7 -30h7zM695 609v17h-8v-17h8zM611 524q-9 9 -9 11q-71 -5 -58 -6q11 0 33.5 -2.5t33.5 -2.5zM110 776l-4 6l-16 -11l3 -6z
M100 753l-2 6l-11 -5v-7zM51 760l-6 3l-6 -12l6 -3zM94 730q-11 -13 -11.5 -35t-14.5 -36q8 0 16 8q4 -4 4 -13q6 17 6 76zM83 642l-6 3l-6 -12l6 -3zM70 631q0 -10 -8 -18q-3 5 -1 12q1 6 1 8q4 3 4 23q0 5 -4.5 13t-4.5 9q0 -7 -3 -22t-3 -21q-4 4 -4 9q0 -2 -3 -10.5
t-3 -10.5q17 -9 25 -28q11 22 4 36zM83 585h-8l-4 -30h7zM100 445q0 4 -2 16q-2 9 -1 13q-11 -1 -14 11q-2 9 -4 19q0 -16 -1 -41t-1 -29q0 -2 6.5 -6t6.5 -24q10 20 10 41zM97 307l-7 3l-6 -12l7 -3zM565 179q0 -9 -14 -14q-21 -7 -22 -7q4 -4 9 -4q-15 -17 -25 -17
q-30 0 -37 -4.5t-8 -4.5q-5 0 -13 7t-14 7t-14 -9t-13 -9q-10 0 -27.5 6t-27.5 6q-7 0 -14 -3q-3 6 -9.5 10.5t-9.5 9.5q9 0 31 4.5t34 4.5q11 0 18 -6.5t11 -6.5q23 0 58 18q6 2 16 9q7 5 26 5q13 -2 23 5.5t17 7.5q0 -1 2.5 -5.5t2.5 -9.5z" />
    <glyph glyph-name="question" unicode="?" horiz-adv-x="700" 
d="M648 415q-47 -61 -167 -61q-67 0 -85 3q-13 3 -98 35q-25 -38 -25 -106q0 -5 6 -60t6 -61q0 -12 -18 -24t-35 -10v20q4 4 7 8q-11 97 -11 129q0 44 8 88q12 65 35 65q5 0 47 -21q15 -7 38 -15q50 -17 58 -18q15 -3 67 -3q50 0 55 1q31 4 59 27q32 26 36 70q3 22 -5 42
t-17 40q-67 161 -241 186q-41 6 -69 6q-68 0 -121 -38q-25 -18 -25 -35q0 -19 29 -46q17 -16 35 -31q-21 -5 -57 22q-39 29 -39 54q0 51 68 78q54 21 133 23q45 0 105 -19q93 -31 146 -88q101 -110 101 -187q0 -40 -26 -74zM295 32q5 -9 5 -17q0 -27 -47 -27q-25 0 -34 12
q-7 9 -7 34q0 14 6 26q8 16 14 19t26 3t24 -13q13 -36 13 -37z" />
    <glyph glyph-name="at" unicode="@" horiz-adv-x="2344" 
d="M1611 524q-12 12 -23 13q35 -2 -45 -2q-31 0 -58 -33q-23 -30 -23 -57q0 -37 15 -64q20 -34 57 -34q45 0 67 46q12 37 25 75q3 9 3 17q0 21 -18 39zM2299 133q0 -42 -113 -54q-6 0 -165 -5q-303 -6 -709 -15q-45 -2 -145 -9q-93 -17 -256 -43q-39 -11 -128 -35
q-32 -5 -104 -23q-12 -3 -42 -18q-23 -11 -36 -11h-36q1 11 -18 48q195 77 455 114q186 26 455 36q226 5 453 10q258 7 338 29q-8 22 -73 33q-91 15 -294 58q-180 39 -189 39q-83 0 -114 -11q-14 -6 -60 -30q-36 -19 -48 -19q-31 0 -57 31q-11 14 -35 58q-17 31 -28 31
q-40 0 -61 -51q-13 -39 -27 -77q-14 8 -33 23q0 13 12 52q11 36 9 47q-12 6 -23 13q-16 10 -21 26q10 -2 19 -2q42 0 66 35q14 22 28.5 76t25.5 71q18 -4 32 -51q11 -43 23 -86h20q11 91 30 119q24 36 88 36q44 0 51 -14q11 -7 33 -28q14 -18 22 -58q4 -23 2 -49
q-3 -42 -14 -75q176 -25 322 -73q96 -18 192 -35q153 -37 153 -113zM1501 303l-32 20q-1 -5 -3 -16q-1 -13 6 -35q5 2 16 10q6 6 13 21zM1368 397l-21 66l-21 -64q14 7 22 6t20 -8zM1439 312q0 9 -3 30q-2 13 -9 34l-26 -2q1 -14 11 -41q7 -10 27 -21zM1103 318
q-46 -31 -82 -31q-21 0 -23 40q-2 57 -9 74q-18 40 -79 40q-56 0 -100 -40q-47 -42 -58 -109q28 -11 82 -62q63 -59 63 -92q0 -30 -51 -30q-42 0 -62 17q-1 0 -46 53q-9 10 -17 43t-14 42q-23 36 -107 90q-17 11 -44 11q-9 0 -23 -13q-17 -18 -31 -25q-25 -13 -62 -13
q-68 0 -188 33q-141 39 -141 82q0 9 14.5 27.5t17.5 27t0.5 40t4.5 44.5q11 22 94 147q7 0 19 -4q4 -7 9 -14q6 -10 6 -20q0 -14 -12 -32q105 -2 189 -70q79 -63 96 -144q5 -3 19 -15q14 24 29 47q23 30 57 30q81 0 95 -85q68 85 148 85q77 0 110 -66q7 -24 13 -47
q10 -36 22 -36q4 0 14.5 4.5t15.5 4.5q7 -13 10 -17q10 -13 21 -17zM687 421v15q-15 8 -23 6t-17 -16v-15zM725 372q-21 -6 -58 -20q4 -4 19.5 -15t19.5 -16q19 38 19 51zM834 163q-7 13 -28 40q-17 17 -56 36q4 -16 21 -47q17 -19 63 -29zM503 441v31q-16 56 -83 89
q-54 25 -108 25q-61 0 -77 -22q-7 -9 -38 -108q32 -5 57 -5q27 0 66.5 8t68.5 8q65 0 114 -26zM485 392q-26 9 -87 20q-37 1 -100 -18q72 -21 114 -18q27 2 73 16z" />
    <glyph glyph-name="A" unicode="A" horiz-adv-x="760" 
d="M813 394q-52 -17 -80 -20q-31 -3 -63 -5q-40 -6 -56 -19q17 -6 19 -27l2 -34q3 -22 10 -60q22 -86 76 -281q-26 -3 -41 0q-23 4 -40.5 23t-33 37t-29.5 49.5t-28 49.5q16 -13 33 -34q19 -25 23 -29q15 -14 27 -12q14 2 17 1q-17 90 -49 258q-5 29 -17 60
q-209 -30 -355 -62q-5 -2 -34 -22q7 -4 17 -9t48 -23q-22 0 -53 3.5t-32 3.5q-18 0 -60 -86q-34 -70 -45 -107q-9 -31 -52 -36q-2 2 -2 3h-2q-5 4 -5 15q0 18 122 214q-12 8 -12 17q0 13 47 49q17 12 86 111q43 63 87 126q86 120 162 244q18 0 26 -13q18 -71 27 -110
q15 -57 49 -187q5 -32 21 -94q47 1 190 6zM579 384q-29 128 -86 339q-91 -132 -267 -394q33 1 97 12q51 14 69 14q27 0 96 13q33 6 91 16z" />
    <glyph glyph-name="B" unicode="B" horiz-adv-x="770" 
d="M752 167q0 -184 -316 -184q-69 0 -90 2q-52 7 -82 33l-6 -7q-12 2 -31 10q8 16 20 49q8 27 22 112q16 100 16 151q0 43 -18 116q0 3 -5.5 13t-5.5 17q0 12 8 18l13 13q25 -21 32 -55l8 -62q3 -14 8 -22q12 18 17 32q42 137 42 241q0 124 -77 124q-91 0 -183.5 -104.5
t-84.5 -195.5q0 -14 2 -46q1 -8 4 -28h-32q-20 34 -20 81q0 102 110 215t212 113q104 0 104 -143q0 -56 -23 -161q-10 -51 -43 -152q20 -5 47 -13q36 -11 136 -33q75 -17 141 -43q27 -10 51 -41t24 -50zM701 150q0 38 -21 54q-52 40 -130 58q-69 13 -139 26q-41 9 -43 10
q-24 7 -40 18q-16 -127 -26 -187q-2 -8 -11 -39q-8 -27 -8 -37q0 -40 157 -40q78 0 148 23q113 35 113 114z" />
    <glyph glyph-name="C" unicode="C" horiz-adv-x="1228" 
d="M1270 168q-152 -58 -432 -112q-304 -59 -501 -59q-305 0 -305 193q0 54 61 188q129 281 442 281q40 0 90 -25q59 -28 59 -66q0 -42 -104 -115q-82 -57 -117 -69h-32q21 19 57 43q64 43 87 62q57 47 57 79q0 55 -123 55q-118 0 -217 -71q-88 -64 -143 -170
q-38 -72 -51 -109q-14 -41 -14 -81q0 -87 84 -126q59 -28 143 -28q100 -8 156 0q16 4 47 9q333 22 753 130z" />
    <glyph glyph-name="D" unicode="D" horiz-adv-x="737" 
d="M718 372q0 -121 -28.5 -197.5t-117.5 -132.5q-82 -52 -151 -52q-93 0 -165 33q-99 45 -103 137l9 84q18 -55 18 -72q0 -3 3.5 -9.5t3.5 -10.5q3 -66 87 -103q65 -28 134 -28q30 0 112 35q25 11 59 39q38 32 55.5 60t31.5 89q13 58 13 101t-12 118q-24 159 -98 232
q-70 69 -195 69q-73 0 -188 -66q-123 -71 -139 -136q-6 -28 -5 -96q-5 0 -11.5 -2.5t-11.5 -2.5q-10 0 -15 7l-1 1q-6 8 -6 43q0 33 3 45q16 63 97 121q41 31 139 82q35 19 64 26q41 10 85 10q87 0 160 -38.5t108 -98.5q6 -10 22 -57q42 -124 43 -230zM426 595
q0 -13 -22 -100q-20 -76 -27 -100q-17 -62 -33 -123q-20 -73 -46 -119h-20q-8 2 -8 15q0 6 11 26.5t13 25.5q11 49 33 142q29 112 53 247q9 12 20 12q10 0 18 -8t8 -18z" />
    <glyph glyph-name="E" unicode="E" horiz-adv-x="902" 
d="M880 693q0 -6 -5 -10t-5 -6q-5 5 -33 48q-15 23 -73 35q-66 13 -145 13q-157 0 -271 -87q-121 -93 -138 -245q-1 -3 -4.5 -14.5t-3.5 -17.5v-41q43 0 134 3.5t136 3.5q48 0 146 -5q95 -4 145 -4l-114 -12q-50 -3 -205 -3q-49 0 -237 -15q-9 -36 -9.5 -116.5t-14.5 -138.5
q37 -19 118 -38q91 -21 157 -21h41q71 0 141 33l6 -6v-17q-37 -33 -198 -33q-66 0 -165 15q-151 23 -151 64q0 7 8 20.5t9 15.5q5 16 11 61q8 60 1 163q4 4 -7 4q-36 0 -102 -25q-11 -4 -13.5 -22.5t-17.5 -18.5q-8 0 -13.5 9.5t-5.5 18.5q0 35 32 50q27 12 77 14h54
q-3 194 128 314q126 117 321 117q4 0 39 -4q39 -4 57 -4q68 -4 117 -22q12 -5 32.5 -33.5t20.5 -42.5z" />
    <glyph glyph-name="F" unicode="F" horiz-adv-x="780" 
d="M732 695q-4 3 -18.5 22.5t-27.5 24.5q-55 24 -195 24q-97 0 -201 -20q-23 -4 -52 -13q-80 -24 -123 -57q-38 -28 -65.5 -71t-43.5 -55v37q0 11 19 41q51 82 176 118q143 42 274 42q62 0 98 -8q49 -7 99 -14q61 -15 61 -58q0 -6 -1 -13zM526 367q-5 -7 -5 -11
q-16 0 -44.5 6.5t-41.5 6.5q1 0 -54.5 -5.5t-81.5 -5.5q-12 1 -54 -14q-5 -31 -77 -354q-16 0 -29.5 2.5l-13.5 2.5v54q0 9 25 24q59 255 59 254v21q-22 1 -95 -11t-82 -12q-27 0 -35 5q0 10 14 19q98 22 202 32q1 4 -1.5 35.5t-2.5 47.5q0 28 6 28q29 0 31 -44
q3 -55 10 -62q26 0 76.5 4.5t52.5 4.5q36 0 84 -10q45 -9 57 -18z" />
    <glyph glyph-name="G" unicode="G" horiz-adv-x="664" 
d="M652 582q0 -26 -34.5 -52t-55.5 -21q18 16 36 31q28 28 28 46t-24 35q-56 40 -157 40q-5 0 -16.5 -3.5t-17.5 -4.5q-169 -17 -350 -281q-8 -10 -15 -43q-7 -28 -7 -39q0 -40 36 -70q28 -23 64 -29q14 -3 59 -3q108 0 217 37q24 8 38 15q42 21 48 21q8 0 18 -14t12 -26
q19 -102 19 -214q0 -45 -16 -186q1 -2 7 -9v-19q-17 -2 -29.5 10t-12.5 25q0 6 8.5 90t8.5 89q0 33 -15 179q-1 11 -18 36q-149 -55 -287 -55q-191 0 -191 121q0 67 103 196q41 51 105 101q73 58 134 78q15 6 57 13q38 6 48 6q48 0 112 -22q88 -30 88 -78z" />
    <glyph glyph-name="H" unicode="H" horiz-adv-x="633" 
d="M574 734q-5 -164 -11 -328q-8 -176 -37 -312q-17 0 -42 12q15 47 19 59q9 35 11 59q21 310 22 509q12 15 25 15q8 0 9 -3q2 -6 4 -11zM505 398q-31 -3 -116 -3q-72 0 -115.5 -8t-58.5 -13q-33 -11 -54 -31q-16 -15 -50 -120l-59 -177q20 -7 46 1l7 -6v-14
q-27 -17 -48 -17t-46 16q9 50 56 166q45 111 45 112q0 5 -10.5 16.5t-10.5 17.5t25.5 28t30.5 35q18 43 49 152q39 138 48 167q7 23 17 23l16 -1q0 -2 3 -7.5t3 -13.5q0 -29 -101 -314q40 2 149 10q93 7 100 7q58 0 74 -26z" />
    <glyph glyph-name="I" unicode="I" horiz-adv-x="218" 
d="M184 730q0 -3 -21 -79q-24 -84 -31 -128q-21 -105 -41 -211q-29 -156 -29 -213q0 -52 28 -66v-23q-72 6 -72 82q0 99 59 357l70 284q1 2 20 21q17 -17 17 -24z" />
    <glyph glyph-name="J" unicode="J" horiz-adv-x="939" 
d="M931 747q0 -8 -8 -17t-17 -9q-6 0 -21.5 6.5t-21.5 6.5q-4 0 -41.5 -6t-50.5 -6q-41 -1 -134 -6q-83 -4 -87.5 -4t-49 -4.5t-50.5 -4.5h-171q-6 0 -162 -6q-15 -1 -44 -6.5t-44 -5.5l-5 26q27 4 118 7l379 9q66 3 200 13q23 2 97 15q67 11 74 11q10 0 39 -19zM525 606
q0 -64 -43 -416q-9 -77 -41 -127q-38 -59 -117 -59q-84 0 -182 37q-132 50 -132 134q0 19 22 53q20 31 39 46q7 -5 11 -5q0 -1 -20 -35t-20 -55q0 -75 128 -117q84 -27 145 -27q70 0 105 58q26 42 35 121q5 52 9 103q23 128 27 253q-2 26 -1 81q4 8 13 24q11 0 20 -14
q2 -10 2 -55z" />
    <glyph glyph-name="K" unicode="K" horiz-adv-x="659" 
d="M632 748q0 -35 -127 -137q-76 -61 -137 -102q-101 -68 -225 -86h-1q53 -22 107 -43q84 -35 146 -68q207 -112 207 -228q0 -26 -14 -41t-34 -15q-35 0 -45 35q13 -2 21 -2q21 0 21 23q0 71 -101 149q-80 61 -198 109q-104 43 -131 38q-13 -33 -21 -91q-10 -75 -14 -93
q-4 -14 -19 -49q-8 -18 -23 -59q-37 8 -37 31q0 7 13 34t15 37q26 112 33 202q-6 2 -34 21q-7 5 -18 10q4 18 25 24q12 3 34 8q33 84 45 254q4 0 16 1q11 1 17 0q9 0 16 -4q-1 -74 -35 -238q10 -2 27 0q20 2 26 2q25 0 83 31q73 39 164 110q121 95 156 164h37
q0 -5 2.5 -13.5t2.5 -13.5z" />
    <glyph glyph-name="L" unicode="L" horiz-adv-x="959" 
d="M961 -27h-30q-5 0 -25 3q-52 11 -156 29q-32 4 -375 40q-97 6 -193 13q-103 12 -183 67q-4 47 26 120q25 58 50 117q16 44 47 144q13 47 33 169q1 8 29 36q14 -45 14 -57q0 -38 -33 -153q-23 -81 -39 -124q-72 -201 -72 -213q0 -35 65 -53q37 -10 82 -13q249 -14 691 -83
q25 -4 69 -42z" />
    <glyph glyph-name="M" unicode="M" horiz-adv-x="907" 
d="M899 -13q-7 -9 -25 -9q-35 0 -45.5 26.5t-23.5 74.5q-18 70 -20 76q-30 102 -90 307q-36 -52 -72 -105q-55 -75 -98 -115q-59 -55 -106 -55q-18 11 -18 49q0 9 1.5 25t1.5 19q3 69 -4 101q-23 115 -31 147q-21 84 -47 141q-105 -181 -113 -194q-63 -114 -100 -198
l-32 -72q-18 -42 -25 -74q0 -22 -12 -63q-8 -12 -48 -12v31q0 6 14 37q16 36 17 40q44 122 135 288q78 138 156 277h26q80 -198 99 -355q0 -48 8 -141l1 -1q75 45 121 107q24 32 61 109q34 69 66 105h20q6 -5 13 -17q20 -103 65 -260q36 -126 73 -252q2 -8 32 -18v-19z" />
    <glyph glyph-name="N" unicode="N" horiz-adv-x="749" 
d="M733 680q-11 -6 -31 -17q-4 -99 -1 -116q2 -17 2 -35q0 9 -9 -110q-8 -88 -68 -230q-74 -176 -148 -176q-26 0 -134 196q-130 234 -179 293q-3 -35 -7 -70q-5 -39 -14 -72q-88 -309 -98 -309t-16 -4q-7 1 -7 14q0 50 17.5 108t49.5 186q39 158 47.5 189t26.5 30
q10 -1 82 -134q100 -184 138 -246q81 -133 112 -133q21 0 69 74q66 102 97 338q3 24 5 133q2 86 14 115h22q8 0 15.5 -8t14.5 -16z" />
    <glyph glyph-name="O" unicode="O" horiz-adv-x="587" 
d="M565 258q0 -112 -107 -179q-86 -55 -183 -55q-119 0 -161 70q-27 45 -45 192q-2 21 -19 74q-15 50 -15 55q0 28 24 28l14 -6q0 13 -3.5 38.5t-3.5 32.5q0 56 23 102q35 67 106 67q86 0 168.5 -62t134.5 -167l48 -92q19 -44 19 -98zM522 255q0 65 -46 165q-40 88 -85 143
q-23 28 -76.5 52.5t-91.5 24.5q-62 0 -93 -60q-21 -43 -21 -94q0 -52 20 -115q3 -9 19 -29.5t16 -27.5q0 -9 -4 -13q-11 0 -44 31v-22q12 -65 24 -131q11 -60 35 -83q30 -29 100 -29q79 0 153 43q94 54 94 145z" />
    <glyph glyph-name="P" unicode="P" horiz-adv-x="533" 
d="M505 532q0 -12 -12 -55q-13 -48 -23 -63q-61 -87 -172 -111q-38 -9 -187 -14q-9 -5 -13 -23q-7 -44 -35 -251q-15 6 -39 -3q1 46 19 156t18 117q0 11 -22 21q6 10 13.5 14.5t11.5 9.5q11 60 3 135q10 4 24 17q8 16 19.5 64t16.5 60q44 103 61 125q35 45 100 45
q111 0 170 -87q47 -68 47 -157zM456 537q0 76 -38 134q-47 72 -133 72q-57 0 -82 -39q-18 -28 -48 -134q-25 -86 -37 -144q-13 -64 -13 -92q0 -13 3 -15q8 -6 38 -6q112 0 198 46q112 61 112 178z" />
    <glyph glyph-name="Q" unicode="Q" horiz-adv-x="835" 
d="M841 -144q2 -12 -11 -12q-50 0 -114 13.5t-106 33.5q-27 13 -53 53q-20 33 -41 66q-6 14 -30 44q-92 -11 -146 -11q-125 0 -206 39q-115 55 -115 179q0 100 78 251q1 20 9 62q12 47 29 63q52 51 83 64q25 11 82 11q129 0 244 -64t174 -170q25 -45 50 -89q28 -55 28 -97
q0 -86 -89 -149q-45 -31 -166 -82q19 -59 66 -113q54 -62 107 -68q39 -5 127 -24zM751 303q0 79 -82 203q-62 94 -165 140q-84 37 -176 37q-93 0 -143 -58q-47 -54 -47 -149q0 -127 87 -239q11 -13 21.5 -25t10.5 -19q0 -9 -4 -10q6 1 -9 1q-58 52 -97 122q-36 64 -45 122
q-12 -35 -25 -92q-12 -53 -12 -64q0 -195 294 -195q46 0 113 12q-50 162 -50 220q0 85 34 85q18 0 20 -20q2 -16 0 -43q-2 -32 -2 -42q5 -111 52 -189q118 42 154 68q71 49 71 135z" />
    <glyph glyph-name="R" unicode="R" horiz-adv-x="613" 
d="M662 -68q-8 -19 -33 -19q-11 0 -49 8q-43 9 -66 18q-34 13 -196 132q-168 122 -168 140q0 8 11 15t20 7q6 0 23 -10t23 -10q87 0 125 84q25 54 25 127q0 36 -11 90q-13 60 -31 93l-12 26q-13 26 -26 26q-23 0 -89 -122q-51 -95 -72 -148q-15 -33 -29 -67q-19 -45 -24 -74
t-7 -81q-3 -68 -5 -84q-34 3 -41 0q-6 41 -6 68q0 44 13 80q1 5 3 52q2 62 -31 119q4 6 8 12.5t12 6.5q15 0 29 -40q8 -23 16 -47q22 41 64 120q21 39 63 116q65 132 106 132q15 0 47 -49q22 -35 34 -80q8 -36 16 -71q7 -29 7 -81q0 -77 -29 -137q-39 -80 -118 -92
q-9 0 -27 -10l204 -162q133 -98 221 -88z" />
    <glyph glyph-name="S" unicode="S" horiz-adv-x="633" 
d="M622 103q0 -66 -135 -66q-146 0 -384 65q-20 5 -31 22.5t-22 35.5q4 3 8.5 10.5t7.5 11.5q27 -27 33 -32q21 -19 37 -24q54 -15 147 -31q80 -14 97 -14q6 0 49 -3t52 -3q49 0 78 29q-23 46 -87 101q-60 53 -150 113q-85 50 -169 100q-134 85 -134 131q0 62 117 116
q85 38 124 42q89 9 111 9q188 0 188 -85q0 -21 -52 -71h-35q18 26 31 77q-19 16 -70.5 28.5t-90.5 12.5q-48 0 -148 -39q-119 -46 -119 -93q0 -34 93 -93q14 -9 107 -61q71 -39 188 -126q159 -118 159 -163z" />
    <glyph glyph-name="T" unicode="T" horiz-adv-x="1156" 
d="M1135 691q-7 -8 -21 -20q-144 -6 -409 -13q-59 0 -316 -5q66 -5 114 -181q39 -138 39 -224q0 -40 -19 -110q-17 -56 -34 -113h-22q-21 20 -21 41q0 2 30 103q8 29 8 95q0 74 -15 146q-9 44 -32 114q-6 21 -33 61q-23 33 -23 53q0 6 2 13q-124 3 -369 18q-8 8 -8 23l8 10
t14 5q5 0 37 -9.5t52 -9.5q489 -6 650 0q29 1 91 7q58 6 64 6t89.5 12.5t91.5 12.5q14 0 32 -35z" />
    <glyph glyph-name="U" unicode="U" horiz-adv-x="982" 
d="M934 422q0 -206 -108 -315.5t-307 -109.5q-205 0 -347 104q-162 119 -162 328q0 4 12 108q13 114 16 162h45q0 -6 4 -23t4 -26q0 -8 -13.5 -107t-13.5 -107q0 -197 146 -303q123 -89 302 -89q190 0 285 105q90 100 90 287q0 31 -6 92q-10 85 -24 85q-10 0 -13.5 -4.5
t-6.5 -8.5q-23 34 -23 70q0 50 36 50q38 0 64 -137q20 -102 20 -161z" />
    <glyph glyph-name="V" unicode="V" horiz-adv-x="772" 
d="M734 690q-19 -11 -46 -37l-166 -304q-109 -197 -203 -328q-16 4 -50 14q-24 94 -50 153q-30 69 -122 254q-76 155 -76 162q0 24 26 24q22 0 125 -228q67 -149 129 -302q35 34 80 101q37 58 74 115q28 50 82 148q35 62 69 124q70 113 107 113q12 0 21 -9z" />
    <glyph glyph-name="W" unicode="W" horiz-adv-x="881" 
d="M831 369q0 -49 -16 -129.5t-80 -147.5q-68 -70 -139 -70q-23 0 -64 52q-37 49 -75 98q-47 52 -84 52q-17 0 -141.5 -86.5t-174.5 -86.5q-6 0 -22.5 3.5t-25.5 3.5q90 298 119 425q10 43 16 133q6 77 22 123h26q7 -20 7 -54q0 -108 -51 -292l-82 -292q-5 -4 9 -4
q33 0 150.5 87t153.5 87q43 0 95 -53q12 -12 80 -97q41 -53 62 -53q43 0 92 60q40 48 51.5 83.5t23 92.5t7.5 143q-1 19 -8 79q-6 54 -6 84q0 22 16 37h26q0 -6 -8 -21t-8 -22q0 -8 14.5 -118t14.5 -117z" />
    <glyph glyph-name="X" unicode="X" horiz-adv-x="706" 
d="M679 60q-8 -35 -53 -35q-47 0 -69 15q-46 30 -123 110q-58 61 -117 123l-130 -140q-105 -108 -132 -108q-10 0 -34 13q0 4 -2.5 15.5t-2.5 16.5q0 9 6 9q3 0 19 -4q11 -2 18 2q34 19 128 114q99 100 99 124q0 12 -120 155l-144 170q15 19 27 19q6 0 99 -111
q55 -67 170 -197q44 61 89 123q50 73 75 133q15 33 31 99l17 19q10 -2 20.5 -12t10.5 -20q0 8 -25 -78q-15 -53 -70 -131q-42 -55 -119 -169q69 -75 137 -151q104 -109 148 -109q9 0 24 2.5t23 2.5z" />
    <glyph glyph-name="Y" unicode="Y" horiz-adv-x="557" 
d="M520 671q0 -6 -42 -89q-48 -97 -63 -132q-63 -153 -90 -280q-9 -47 -22 -140q-11 -84 -11 -98v-18q-1 -11 -1 -14q0 -20 15.5 -29.5t69.5 -18.5l6 -8q-12 -10 -31 -10q-101 0 -101 93q0 12 9 85q10 84 19 132q18 97 60 221q48 140 101 235q1 1 1 2q0 4 -5 11
q-39 -19 -178 -93q-114 -61 -121 -61q-5 0 -23.5 3.5t-25.5 3.5q-5 13 -32 116q-21 77 -49 112v18q7 7 21 7q28 0 57 -84q19 -56 29 -114q4 -7 13 -20q32 5 96 40q95 52 98 54q53 24 122 61q5 3 29 24q21 18 28 18q21 0 21 -27z" />
    <glyph glyph-name="Z" unicode="Z" horiz-adv-x="1080" 
d="M1073 57q-55 4 -162 4q-217 0 -483 -27t-307 -27q-34 0 -108 20q-3 8 -3 17q0 39 63 100q51 45 103 91q103 96 161 176q115 158 115 243q0 55 -48 72q-22 7 -76 7q-58 0 -100 -16q-69 -26 -72 -89q-22 1 -33 -3q-12 11 -12 17q0 64 95 100q69 26 130 26q62 0 103 -20
q57 -28 57 -91q0 -1 -8 -36q-33 -131 -202 -325q-49 -58 -146 -141q-66 -56 -83 -101q3 -3 24 -10t32 -7q-6 0 198 19q220 21 354 28q38 2 333 2q25 0 75 -19v-10z" />
    <glyph glyph-name="bracketleft" unicode="[" 
d="M715 563q-10 7 -29 24q-7 7 -19 43q2 -2 14 -8q4 4 -5 22l21 -19q7 -14 18 -46v-16zM723 481q-3 -20 -15 -58q0 3 -3 15t-3 18q0 7 10 14.5t11 10.5zM334 797l-30 4v8l30 -5v-7zM661 498q-3 -2 -48 -4q-25 -2 -45 -17q0 9 16 16l-5.5 5.5l-5.5 5.5q-12 -7 -17 -15
q-1 -3 -17 -3t-29 18q-11 -13 -39 -22q2 2 10 8.5t13 11.5q-4 3 -22 -6l13 15l-8 7q-10 -5 -37 -23q3 14 6 27q4 19 13 27q23 18 60 18q28 0 71 -18q7 7 14 32q1 -2 32 -24q26 -19 25 -38q-10 0 -25 -5q-3 -1 -11 -7q18 -9 36 -9zM290 806q-11 -11 -11 -16q-7 7 -7 16h18z
M828 2h-89q13 27 13 29q0 13 -16 29q-7 -7 -14 -26q-8 -23 -14 -33q0 34 -8 104q-1 -8 -4 -26q-12 -8 -34 -27q-6 -7 -29 -50h-166q41 2 81 23q13 6 37 39q21 31 30 32q-3 -25 -1 -32q16 15 17 30q4 0 11 6q9 22 30 63q18 24 51 77q10 18 3 43q8 12 8 27q0 4 -6 37
q-4 22 4 35q-1 -19 -1 -37q0 -27 23 -27q15 0 26 11.5t11 27.5q0 12 -4 53q-4 35 -2 56q0 3 8.5 28.5t8.5 32.5q0 24 -16 54q-9 -14 -23 -45q0 14 -4 18q-13 -13 -15 -13q2 8 2 24q-5 15 -14 45q0 -4 13 -11q2 2 -6 18l22 -20q-7 -8 -15 -2q-5 -8 4 -23q8 10 29 30
q-6 1 -17 3q-8 17 -21 30q-5 -4 -5 -9q1 5 -4.5 16.5t-5.5 17.5q0 21 5 46q3 19 -13 43q-2 -2 -5 -7.5t-6 -5.5q9 43 -25 62q-6 -6 10 -24v-21q-11 13 -21 26q-15 18 -13 28h170v-805zM597 448h-30v8h30v-8zM661 186l-6 -22q-9 0 -19 -21l-14 -28q0 1 14 43q9 27 25 28z
M130 658q-4 1 -12 6q7 6 7 10q0 -2 2.5 -7.5t2.5 -8.5zM688 292q-7 1 -23.5 -2.5t-23.5 -25.5q0 5 -9 13q-86 -72 -91 -72q-6 0 -4 3q2 4 0 6q-9 -9 -16 -9q-6 0 -5.5 6t-1.5 8q-15 -14 -12 -23q-9 14 -17 14q-6 0 -24 -9.5t-24 -9.5q2 0 -53 10q-6 -11 -7 -19v15
q-1 0 -3.5 1.5t-8.5 1.5q-8 0 -8 -17q-28 9 -94 37q1 2 1.5 7t7.5 5q14 0 33 18q3 -1 24 -22q5 2 12 2q7 -9 15 -15q15 0 50.5 -2.5t39.5 -2.5q11 0 38 7q33 9 52 21q10 13 29 35q0 -1 -1 -5q-1 -2 0 -3q2 -1 7 -1t10 2t10.5 2t9 7t8.5 7q7 0 9.5 -2.5t3.5 -2.5l3 3v9
q-19 20 -25 20t-10 -2t-5 -2q0 3 8 11q-2 2 -63 51q16 -8 68 -40q44 -27 50 -27q3 0 3 1t-2 3.5t-2 3.5t3 1q6 0 7 -4.5t7 -4.5q11 0 18 14zM369 333h-8l-5 34h8zM525 306q-7 -3 -18.5 -17t-14.5 -22l-8 -6.5t-8 -11.5q0 -3 4 -6q-61 -24 -79 -24q-5 0 -16.5 6t-19.5 6
q-5 0 -11 -3q0 2 -2.5 10t-1.5 10q-5 2 -11 4q-6 9 -26 50v47q8 5 21 14q0 -4 -4 -14.5t-4 -16.5q0 -11 8 -18q12 -3 41 -16q4 -2 21 -18t23 -16q34 0 61 23q36 32 45 35v-16zM245 415h-32l6 7zM439 2h-438v805h148q-4 -13 -15 -30q1 -6 5 -21q-21 -25 -21 -39q0 -16 11 -16
l-9 -3q-8 -27 -3 -47q-6 -1 -3 -12q-1 -4 2 -13q5 7 19 18q2 -19 1 -34q-2 -19 -2 -13q0 11 -9 11q-6 0 -6 -4.5t-6 -4.5q-9 0 -9 -4q0 -13 23 -41q-15 -9 0 -9q7 0 8.5 3t3.5 6q0 -3 -12 -16q11 -4 10 -8t2 -8q2 1 12 11q8 7 14 7t13.5 -3.5t10.5 -4.5q5 -1 16.5 1.5
t17 2.5t30 4.5t30.5 4.5t15 -8t13 -9q40 -15 57 -36t17 -60q0 -21 -11 -55q1 2 -6 7.5t-9 12.5q-3 10 0 29q5 29 5 32q-10 18 -32 40q-43 15 -101 15q-36 0 -56 -12q0 -1 -7 -8q6 -7 13 -7q13 0 5 8h104q-3 3 -18 3q30 6 68 -19q-1 0 -16.5 6t-24.5 6q-5 0 -9 -2
q16 -11 41 -23q-5 0 -18 6t-19 6q-5 0 -9 -9t-9 -9q-24 0 -38 9l-11 -12q8 -8 13 -8q-10 -1 -29 2q-7 -8 2 -17q-14 -1 -36 10q9 0 18 9q2 2 -2 7q-3 -3 -10 -5t-9 -4q0 8 7 15q-5 2 -20 7q-11 -13 -13 -16q-9 -9 -18 -11q-3 2 -8 -2q9 -9 23 -9q-5 -2 -16 -2.5t-16 -2.5
q9 -8 21 -23q3 -7 0 -32q-2 -19 4 -19q7 0 8.5 1.5t2.5 1.5l-6 -46q1 -2 -3 -3.5t-4 -8.5q0 -14 27 -24q31 -12 32 -15.5t2.5 -11.5t1.5 -10q-1 -28 4 -38q-15 25 -40 37q-3 1 -7.5 15.5t-15.5 15.5q0 -6 -2 -18.5t-2 -18.5q0 -31 22 -55q6 -7 39 -33q3 -6 10 -16q3 0 4 5
q1 4 -2 8q8 -5 12 -5q0 -2 -8 -10q7 -10 26 -27q15 -4 32 -13l14 -13q123 -67 132 -67q19 0 22 -4zM171 434h-12v8h12v-8zM760 623l-7 30h-7l7 -30h7zM695 609v17h-8v-17h8zM611 524q-9 9 -9 11q-71 -5 -58 -6q11 0 33.5 -2.5t33.5 -2.5zM110 776l-4 6l-16 -11l3 -6z
M100 753l-2 6l-11 -5v-7zM51 760l-6 3l-6 -12l6 -3zM94 730q-11 -13 -11.5 -35t-14.5 -36q8 0 16 8q4 -4 4 -13q6 17 6 76zM83 642l-6 3l-6 -12l6 -3zM70 631q0 -10 -8 -18q-3 5 -1 12q1 6 1 8q4 3 4 23q0 5 -4.5 13t-4.5 9q0 -7 -3 -22t-3 -21q-4 4 -4 9q0 -2 -3 -10.5
t-3 -10.5q17 -9 25 -28q11 22 4 36zM83 585h-8l-4 -30h7zM100 445q0 4 -2 16q-2 9 -1 13q-11 -1 -14 11q-2 9 -4 19q0 -16 -1 -41t-1 -29q0 -2 6.5 -6t6.5 -24q10 20 10 41zM97 307l-7 3l-6 -12l7 -3zM565 179q0 -9 -14 -14q-21 -7 -22 -7q4 -4 9 -4q-15 -17 -25 -17
q-30 0 -37 -4.5t-8 -4.5q-5 0 -13 7t-14 7t-14 -9t-13 -9q-10 0 -27.5 6t-27.5 6q-7 0 -14 -3q-3 6 -9.5 10.5t-9.5 9.5q9 0 31 4.5t34 4.5q11 0 18 -6.5t11 -6.5q23 0 58 18q6 2 16 9q7 5 26 5q13 -2 23 5.5t17 7.5q0 -1 2.5 -5.5t2.5 -9.5z" />
    <glyph glyph-name="backslash" unicode="\" horiz-adv-x="1000" 
d="M748 -194h-747v998h747v-998zM551 650l-19 6v-7l16 -5zM562 603v17h-8v-17h8zM419 721v8h-17v-8h17zM357 715v9l-23 5v-8zM284 689q0 3 -2.5 9.5t-2.5 9.5q-17 -9 -17 -23q2 0 11 2t11 2zM667 360q0 16 -18 34q-2 -12 -7 -36t-7 -36q-3 6 -6 32q-1 12 -20 15q8 -21 5 -43
q-4 0 -5 2.5t-8 2.5q-8 0 -17 -33q-9 -29 -9 -42q0 -7 7 -15q8 -11 22 -11q20 0 27 26q4 13 21 59q15 40 15 45zM584 482v26q-33 46 -33 58q0 4 7 12q14 -14 22 -11q-23 35 -65 93q-8 -7 -8 -18q3 -2 10 -6.5t10 -6.5q-4 -1 -8 -1q-11 0 -24.5 16.5t-17.5 18.5q-23 9 -71 20
q-44 11 -53 11q-7 0 -16.5 -6.5t-13.5 -7.5q-7 -14 -21 -19q-4 3 -7 -1q0 -17 -2 -20q-10 20 -20 20q-14 0 -21 -14l-8 -20q-19 17 -13 33q-4 -2 -13 -8t-12 -6q0 7 -3 20q-32 -55 -65 -109q-27 -49 -27 -109q0 -40 4 -47q12 -23 14 -28q4 -14 3.5 -45t5.5 -40.5t15 -21.5
q4 -12 4.5 -39.5t3.5 -37.5q27 -106 79 -151q0 2 -2 9.5t-2 10.5q23 -6 51 -6q-8 0 103 21q3 4 7 8.5t11 4.5q8 0 33 -29q20 5 37 45.5t30 46.5v-12q-11 -15 -19 -35q-3 -10 -2 -30q2 -34 2 -32q0 -14 -8 -29l-11 -22h-6q-4 0 -4 -14q27 8 69 42q38 32 50 53q-9 0 -11 5
q-10 11 -19 23q-13 16 -13 22q0 3 12 73q14 74 16 111q3 0 1 4q-2 6 -2 7q0 -7 -8 -7q-6 0 -7 8q-2 14 -3 16q-2 0 -7 -3q-4 -2 -7 1q5 17 16 48q-1 4 -7 39q-3 18 -1 27q8 3 19.5 11.5t15.5 8.5q-10 20 -6 28q9 -9 16 -9zM401 -82q0 10 -12 22q-5 -5 -10 -5q-2 0 -33 6
q-33 28 -94 86v-36q-1 -17 16.5 -36t34.5 -38q8 -10 13 -32q7 -26 9 -31q5 -10 41 -25q35 71 35 89zM459 406q-11 -12 -34 -12q-6 0 -20.5 7.5t-20.5 7.5t-9.5 -5t-9.5 -5t-8.5 5t-8.5 5t-8.5 -7.5t-8.5 -7.5q-14 0 -34 10q-2 -3 -2 -12q0 -6 5 -26q6 -23 7 -32
q5 -12 16 -18q-15 5 -32 -4q0 6 7 17q-5 9 -12 29q-1 9 -1 64q21 20 43 20q6 0 29 -9.5t29 -9.5t7 9.5t8 9.5q22 0 58 -36zM246 401q0 -17 -12 -17q-6 0 -9.5 5t-9.5 5q-5 0 -10.5 -7t-11.5 -7t-7 4.5t-7 4.5q-8 0 -11.5 -6.5t-7.5 -12.5q4 7 10 42q4 21 28 21
q9 0 28.5 -13.5t19.5 -18.5zM147 391h-6v22q13 -6 6 -22zM401 227q-10 -19 -10 -45q-12 0 -57 -6q-38 -4 -61 -4q-22 0 -40 3l-6 10q14 8 53 12q55 4 61 6t13 5q13 5 25 2q7 7 7 22q0 10 -10 28t-19 18q-24 0 -84 -48q-18 19 -48 39q-5 -8 -15.5 -24.5t-14.5 -24.5
q8 35 25 68q10 -19 26 -19q7 0 19 6q17 9 22 11q15 6 42 6q0 4 1 20q11 -7 39 -37q32 -34 32 -48zM362 146q-13 -12 -23 -12q-5 4 -5 13h12q11 -1 16 -1z" />
    <glyph glyph-name="bracketright" unicode="]" horiz-adv-x="1463" 
d="M601 725l-1 -8l-6 3l1 4zM551 732l-4 -7l-3 2l3 6zM531 684l-6 -9l-3 3l5 8zM524 673l-3 -14l-4 -10l2 24h5zM525 632l-1 -13l-3 -7l1 14zM1157 -18l-3 -7l-4 2l3 6zM532 588l-4 -3q2 8 0 12q-5 0 1 12q3 -5 3 -21zM695 501q-12 2 -39 2q-1 -10 -1.5 -20.5t-8.5 -18.5
q5 -8 14 -8q2 0 12.5 1t17.5 1q3 0 3 -6q0 -7 -10 -11t-10 -17q-2 -1 -5 -5h-17q-14 0 -19 4v1q-3 0 -6 -1.5t-6 -1.5h-7q-3 1 -4 1q4 3 10 14h-27q0 1 -2.5 6t-2.5 6h17l4 -5q6 0 9 2q-1 3 -14 20q15 9 51 29l-3 7q-3 4 -6 4q-15 0 -10 -1h9v8q19 -6 51 -11zM599 538
q-5 -5 -6 -3q-2 0 -7 5q-6 -12 -18 -12q-3 0 -13.5 9.5t-13.5 9.5q-16 0 -15 -19q1 0 -11 6q1 0 19 30q19 6 28 6q15 0 28 -11q3 -1 9 -21zM595 506l-6 -6h-3l10 12zM582 497h-7l-3 3l10 1v-4zM1398 -197h-148v116h-16q-2 0 -384.5 -30t-385.5 -30h-86q-1 0 -7 -4
q-33 -6 -61 -6q-11 0 -16 3q-3 -21 1 -49h-141v23q0 7 31 77q3 2 5 5q10 1 15 12t10 21q0 -14 5 -23q2 1 4 -2q7 7 5 15q-3 9 -3 10q13 0 37 19l34 30v9q-4 4 -8 4q-3 0 -29 -17.5t-29 -17.5t-8.5 6.5t-9.5 6.5q-3 0 -4 -1.5t-4 -1.5l-37.5 32.5l-37.5 32.5q-3 0 -2.5 -1.5
t-2.5 -1.5q-5 0 -14 17.5t-9 21.5v13q2 -2 12 -24q8 -18 18 -18q18 0 49 18q-4 3 -15 -3q7 7 14 7q3 0 4 -1t4 -1q4 0 12.5 5t11.5 6q24 9 77 22q4 2 14 8q10 1 30 4q42 9 36 9q14 0 23 -24q6 -20 12 -41q29 -68 54 -118q5 0 5 4t-35 88q-8 10 -19 30q-8 27 -29 80
q-30 -1 -87 4q2 6 18 65q1 15 7 40q25 58 82 86q61 28 168 76q7 4 7 12q10 -5 17 -13q-8 4 -13 3q8 -25 24 -30q2 2 -3 13q7 -9 14 -17q3 -3 17 -3q3 0 11.5 1.5t12.5 1.5l2 3.5t5 3.5t3 -1.5t4 -1.5q12 0 26 24q12 21 12 30q1 14 -1 17q7 3 19 13q5 9 1 17q4 1 9 5
q-9 17 -65 24l-36 9h-3q3 -5 10 -12q-7 3 -18 10q-1 3 -2 5q-1 6 -4 9l2.5 1.5t5.5 1.5q4 0 6.5 -3.5t4.5 -6.5q8 -5 16 -5q4 0 10.5 1.5t9.5 1.5t20 -5t20 -5q6 0 18 17.5t14 26.5q0 -2 5 -7q9 4 9 10q0 22 -10 22q-7 0 -17 -16l-10 -16q-4 0 -7 -1.5t-6 -1.5t-3 3v0
q0 2 -3 2t-18.5 -10t-18.5 -10t-20 5t-20 5t-4 -2t-2 -2q1 8 -2 21q7 7 13 7q99 6 89 6l14 14q-4 3 -4 13q3 0 5 -2q4 8 21 27q3 4 3 16v15q-1 2 -12 14q0 24 1 18q-4 11 -11 34l-4 -5q-8 9 -25 21q-28 6 -71 6q-9 0 -31.5 -12.5l-22.5 -12.5q-4 0 -3.5 2t-0.5 3
q-2 -5 -8 -13t-14 -14q-11 -10 -11 -19q0 -2 1 -4q7 3 21 7q0 2 -1 7t-1 7q9 12 23 22q10 -10 13 -10t5 1t3 1q0 -6 -10 -11q7 -3 15 1q-8 -9 -27 -17q-23 -9 -30 -14q7 -7 7 -5q0 -3 -6 -3q-2 0 -6 3.5t-7 3.5q-6 0 -14 -12q0 4 3 12.5t3 11.5q0 6 -9 6q9 15 13 29
q0 -1 3 -5q5 8 18 18q2 -1 5 1q1 4 -10 10q1 0 23 22q14 13 30 13q3 0 6.5 -1t6.5 -1q6 0 8 6q2 1 12.5 3.5t13.5 2.5l6 -4q4 0 16.5 -1.5t15.5 -1.5t3 -1.5t3 -1.5q2 0 10 1.5t11 1.5q2 0 6 -3.5t7 -3.5t3 1t4 1q2 0 14 -12q4 3 12 5h-6q0 -1 -1 -2t-1 -5q0 -1 15.5 -14.5
t20.5 -21.5q18 -27 25 -70q8 -47 8 -64q0 -13 -6 -30l-10 -30q-2 -8 -9 -23q-3 -3 -9 -7.5t-6 -5.5q0 -56 13 -72q8 -9 36 -16l45 -10q14 0 40 -4q63 -22 91 -42q37 -26 69 -74q10 -15 20 -52q6 -22 9 -53q3 -26 11 -49q5 -15 15 -89v-26q3 -17 18 -16q-4 -2 -13 -1
q-2 -2 -2 -5q0 -15 14 -15q5 0 5 6q0 -1 1.5 -5t1.5 -8q-16 -6 -28 -6q-17 0 -18 23h-14q-34 -1 -89 -6q-55 -8 -163 -21q-81 -8 -185 -14q-5 -8 -5 -13q-56 -4 -159 -12q-10 -1 -34 -6t-27 -5t-3.5 2.5t-4.5 2.5q-13 0 -24 -4q9 -3 22 -2q-25 0 -40 -3q4 -1 10 3
q-5 1 -31 1q-17 0 -83 -8q-4 -4 -4 -12t2 -10q1 5 4 13q0 -13 3 -13q4 0 4 5q1 -2 4 -6q-8 0 -10 -2q-6 1 56 1q8 0 178 11q43 4 136 10q38 3 119 8q31 2 101 7q24 2 69 5q26 2 80 5q71 6 214 16q4 5 5 34q49 -5 150 -10v-155zM581 453q-6 7 -6 8q0 3 3 5.5l3 2.5v-16z
M814 -70h-14v4h14v-4zM277 112l-10 -3l-4 4l26 4zM285 135q-23 -1 -51 -10q-24 -7 -47 -15q0 7 2 8q14 6 44 13.5t35 7.5q13 0 17 -4zM255 104l-22 -7l13 7l14 6zM136 216q-1 -1 -3 -4q-22 -11 -65 -31l1 7q29 18 58 28h9zM102 100q-3 0 -7 7t-19 33q-12 23 -12 25l-4 11h9
q10 -23 33 -68v-8zM303 -155l-6 -10l-3 7l6 6zM756 698l-4 3l-2 -2l9 -16zM676 763q-16 12 -25 12q-3 0 -10.5 -2t-11.5 -2q12 -3 22 -3q4 0 6.5 -2.5t5.5 -2.5h13zM654 751q-4 1 -9 6.5t-9 5.5q-7 0 -14 -12q13 1 32 0zM780 582q-1 1 -14 15q0 -3 -3 -7t-3 -5zM824 583
l-3 11q-3 -4 -5.5 -21.5t-9.5 -22.5v22q-1 -4 -12.5 -22.5t-11.5 -28.5q0 -11 10 -11q12 0 26 53q3 13 6 20zM603 742l-10 -3l-9 -6l2 -3zM730 504l-5 7l-11 3l3 -4zM676 555l-6 7q-2 0 -6 -3q3 -4 12 -4zM658 562q-4 0 -8 -2t-5 -2q6 0 10 -3q2 2 3 7zM577 543q0 4 -3 9
q-6 1 -19 -1q11 -11 10 -11q3 0 7 1.5t5 1.5zM540 556l-5 -1l-3 -6l3 1zM319 -32l3 6h-9v-4zM260 -97q-1 1 -4.5 3.5t-5.5 3.5q5 5 10 5q-2 2 -16 4q-3 -7 -10 -18q-1 4 -4 9q-2 1 -7 -2q4 -14 15 -16q-4 4 -1 7l6 -6t3 -4q10 5 14 14zM256 -119l-4 5l-2 -4l9 -7z" />
    <glyph glyph-name="asciicircum" unicode="^" 
d="M715 563q-10 7 -29 24q-7 7 -19 43q2 -2 14 -8q4 4 -5 22l21 -19q7 -14 18 -46v-16zM723 481q-3 -20 -15 -58q0 3 -3 15t-3 18q0 7 10 14.5t11 10.5zM334 797l-30 4v8l30 -5v-7zM661 498q-3 -2 -48 -4q-25 -2 -45 -17q0 9 16 16l-5.5 5.5l-5.5 5.5q-12 -7 -17 -15
q-1 -3 -17 -3t-29 18q-11 -13 -39 -22q2 2 10 8.5t13 11.5q-4 3 -22 -6l13 15l-8 7q-10 -5 -37 -23q3 14 6 27q4 19 13 27q23 18 60 18q28 0 71 -18q7 7 14 32q1 -2 32 -24q26 -19 25 -38q-10 0 -25 -5q-3 -1 -11 -7q18 -9 36 -9zM290 806q-11 -11 -11 -16q-7 7 -7 16h18z
M828 2h-89q13 27 13 29q0 13 -16 29q-7 -7 -14 -26q-8 -23 -14 -33q0 34 -8 104q-1 -8 -4 -26q-12 -8 -34 -27q-6 -7 -29 -50h-166q41 2 81 23q13 6 37 39q21 31 30 32q-3 -25 -1 -32q16 15 17 30q4 0 11 6q9 22 30 63q18 24 51 77q10 18 3 43q8 12 8 27q0 4 -6 37
q-4 22 4 35q-1 -19 -1 -37q0 -27 23 -27q15 0 26 11.5t11 27.5q0 12 -4 53q-4 35 -2 56q0 3 8.5 28.5t8.5 32.5q0 24 -16 54q-9 -14 -23 -45q0 14 -4 18q-13 -13 -15 -13q2 8 2 24q-5 15 -14 45q0 -4 13 -11q2 2 -6 18l22 -20q-7 -8 -15 -2q-5 -8 4 -23q8 10 29 30
q-6 1 -17 3q-8 17 -21 30q-5 -4 -5 -9q1 5 -4.5 16.5t-5.5 17.5q0 21 5 46q3 19 -13 43q-2 -2 -5 -7.5t-6 -5.5q9 43 -25 62q-6 -6 10 -24v-21q-11 13 -21 26q-15 18 -13 28h170v-805zM597 448h-30v8h30v-8zM661 186l-6 -22q-9 0 -19 -21l-14 -28q0 1 14 43q9 27 25 28z
M130 658q-4 1 -12 6q7 6 7 10q0 -2 2.5 -7.5t2.5 -8.5zM688 292q-7 1 -23.5 -2.5t-23.5 -25.5q0 5 -9 13q-86 -72 -91 -72q-6 0 -4 3q2 4 0 6q-9 -9 -16 -9q-6 0 -5.5 6t-1.5 8q-15 -14 -12 -23q-9 14 -17 14q-6 0 -24 -9.5t-24 -9.5q2 0 -53 10q-6 -11 -7 -19v15
q-1 0 -3.5 1.5t-8.5 1.5q-8 0 -8 -17q-28 9 -94 37q1 2 1.5 7t7.5 5q14 0 33 18q3 -1 24 -22q5 2 12 2q7 -9 15 -15q15 0 50.5 -2.5t39.5 -2.5q11 0 38 7q33 9 52 21q10 13 29 35q0 -1 -1 -5q-1 -2 0 -3q2 -1 7 -1t10 2t10.5 2t9 7t8.5 7q7 0 9.5 -2.5t3.5 -2.5l3 3v9
q-19 20 -25 20t-10 -2t-5 -2q0 3 8 11q-2 2 -63 51q16 -8 68 -40q44 -27 50 -27q3 0 3 1t-2 3.5t-2 3.5t3 1q6 0 7 -4.5t7 -4.5q11 0 18 14zM369 333h-8l-5 34h8zM525 306q-7 -3 -18.5 -17t-14.5 -22l-8 -6.5t-8 -11.5q0 -3 4 -6q-61 -24 -79 -24q-5 0 -16.5 6t-19.5 6
q-5 0 -11 -3q0 2 -2.5 10t-1.5 10q-5 2 -11 4q-6 9 -26 50v47q8 5 21 14q0 -4 -4 -14.5t-4 -16.5q0 -11 8 -18q12 -3 41 -16q4 -2 21 -18t23 -16q34 0 61 23q36 32 45 35v-16zM245 415h-32l6 7zM439 2h-438v805h148q-4 -13 -15 -30q1 -6 5 -21q-21 -25 -21 -39q0 -16 11 -16
l-9 -3q-8 -27 -3 -47q-6 -1 -3 -12q-1 -4 2 -13q5 7 19 18q2 -19 1 -34q-2 -19 -2 -13q0 11 -9 11q-6 0 -6 -4.5t-6 -4.5q-9 0 -9 -4q0 -13 23 -41q-15 -9 0 -9q7 0 8.5 3t3.5 6q0 -3 -12 -16q11 -4 10 -8t2 -8q2 1 12 11q8 7 14 7t13.5 -3.5t10.5 -4.5q5 -1 16.5 1.5
t17 2.5t30 4.5t30.5 4.5t15 -8t13 -9q40 -15 57 -36t17 -60q0 -21 -11 -55q1 2 -6 7.5t-9 12.5q-3 10 0 29q5 29 5 32q-10 18 -32 40q-43 15 -101 15q-36 0 -56 -12q0 -1 -7 -8q6 -7 13 -7q13 0 5 8h104q-3 3 -18 3q30 6 68 -19q-1 0 -16.5 6t-24.5 6q-5 0 -9 -2
q16 -11 41 -23q-5 0 -18 6t-19 6q-5 0 -9 -9t-9 -9q-24 0 -38 9l-11 -12q8 -8 13 -8q-10 -1 -29 2q-7 -8 2 -17q-14 -1 -36 10q9 0 18 9q2 2 -2 7q-3 -3 -10 -5t-9 -4q0 8 7 15q-5 2 -20 7q-11 -13 -13 -16q-9 -9 -18 -11q-3 2 -8 -2q9 -9 23 -9q-5 -2 -16 -2.5t-16 -2.5
q9 -8 21 -23q3 -7 0 -32q-2 -19 4 -19q7 0 8.5 1.5t2.5 1.5l-6 -46q1 -2 -3 -3.5t-4 -8.5q0 -14 27 -24q31 -12 32 -15.5t2.5 -11.5t1.5 -10q-1 -28 4 -38q-15 25 -40 37q-3 1 -7.5 15.5t-15.5 15.5q0 -6 -2 -18.5t-2 -18.5q0 -31 22 -55q6 -7 39 -33q3 -6 10 -16q3 0 4 5
q1 4 -2 8q8 -5 12 -5q0 -2 -8 -10q7 -10 26 -27q15 -4 32 -13l14 -13q123 -67 132 -67q19 0 22 -4zM171 434h-12v8h12v-8zM760 623l-7 30h-7l7 -30h7zM695 609v17h-8v-17h8zM611 524q-9 9 -9 11q-71 -5 -58 -6q11 0 33.5 -2.5t33.5 -2.5zM110 776l-4 6l-16 -11l3 -6z
M100 753l-2 6l-11 -5v-7zM51 760l-6 3l-6 -12l6 -3zM94 730q-11 -13 -11.5 -35t-14.5 -36q8 0 16 8q4 -4 4 -13q6 17 6 76zM83 642l-6 3l-6 -12l6 -3zM70 631q0 -10 -8 -18q-3 5 -1 12q1 6 1 8q4 3 4 23q0 5 -4.5 13t-4.5 9q0 -7 -3 -22t-3 -21q-4 4 -4 9q0 -2 -3 -10.5
t-3 -10.5q17 -9 25 -28q11 22 4 36zM83 585h-8l-4 -30h7zM100 445q0 4 -2 16q-2 9 -1 13q-11 -1 -14 11q-2 9 -4 19q0 -16 -1 -41t-1 -29q0 -2 6.5 -6t6.5 -24q10 20 10 41zM97 307l-7 3l-6 -12l7 -3zM565 179q0 -9 -14 -14q-21 -7 -22 -7q4 -4 9 -4q-15 -17 -25 -17
q-30 0 -37 -4.5t-8 -4.5q-5 0 -13 7t-14 7t-14 -9t-13 -9q-10 0 -27.5 6t-27.5 6q-7 0 -14 -3q-3 6 -9.5 10.5t-9.5 9.5q9 0 31 4.5t34 4.5q11 0 18 -6.5t11 -6.5q23 0 58 18q6 2 16 9q7 5 26 5q13 -2 23 5.5t17 7.5q0 -1 2.5 -5.5t2.5 -9.5z" />
    <glyph glyph-name="underscore" unicode="_" horiz-adv-x="1000" 
d="M748 -194h-747v998h747v-998zM551 650l-19 6v-7l16 -5zM562 603v17h-8v-17h8zM419 721v8h-17v-8h17zM357 715v9l-23 5v-8zM284 689q0 3 -2.5 9.5t-2.5 9.5q-17 -9 -17 -23q2 0 11 2t11 2zM667 360q0 16 -18 34q-2 -12 -7 -36t-7 -36q-3 6 -6 32q-1 12 -20 15q8 -21 5 -43
q-4 0 -5 2.5t-8 2.5q-8 0 -17 -33q-9 -29 -9 -42q0 -7 7 -15q8 -11 22 -11q20 0 27 26q4 13 21 59q15 40 15 45zM584 482v26q-33 46 -33 58q0 4 7 12q14 -14 22 -11q-23 35 -65 93q-8 -7 -8 -18q3 -2 10 -6.5t10 -6.5q-4 -1 -8 -1q-11 0 -24.5 16.5t-17.5 18.5q-23 9 -71 20
q-44 11 -53 11q-7 0 -16.5 -6.5t-13.5 -7.5q-7 -14 -21 -19q-4 3 -7 -1q0 -17 -2 -20q-10 20 -20 20q-14 0 -21 -14l-8 -20q-19 17 -13 33q-4 -2 -13 -8t-12 -6q0 7 -3 20q-32 -55 -65 -109q-27 -49 -27 -109q0 -40 4 -47q12 -23 14 -28q4 -14 3.5 -45t5.5 -40.5t15 -21.5
q4 -12 4.5 -39.5t3.5 -37.5q27 -106 79 -151q0 2 -2 9.5t-2 10.5q23 -6 51 -6q-8 0 103 21q3 4 7 8.5t11 4.5q8 0 33 -29q20 5 37 45.5t30 46.5v-12q-11 -15 -19 -35q-3 -10 -2 -30q2 -34 2 -32q0 -14 -8 -29l-11 -22h-6q-4 0 -4 -14q27 8 69 42q38 32 50 53q-9 0 -11 5
q-10 11 -19 23q-13 16 -13 22q0 3 12 73q14 74 16 111q3 0 1 4q-2 6 -2 7q0 -7 -8 -7q-6 0 -7 8q-2 14 -3 16q-2 0 -7 -3q-4 -2 -7 1q5 17 16 48q-1 4 -7 39q-3 18 -1 27q8 3 19.5 11.5t15.5 8.5q-10 20 -6 28q9 -9 16 -9zM401 -82q0 10 -12 22q-5 -5 -10 -5q-2 0 -33 6
q-33 28 -94 86v-36q-1 -17 16.5 -36t34.5 -38q8 -10 13 -32q7 -26 9 -31q5 -10 41 -25q35 71 35 89zM459 406q-11 -12 -34 -12q-6 0 -20.5 7.5t-20.5 7.5t-9.5 -5t-9.5 -5t-8.5 5t-8.5 5t-8.5 -7.5t-8.5 -7.5q-14 0 -34 10q-2 -3 -2 -12q0 -6 5 -26q6 -23 7 -32
q5 -12 16 -18q-15 5 -32 -4q0 6 7 17q-5 9 -12 29q-1 9 -1 64q21 20 43 20q6 0 29 -9.5t29 -9.5t7 9.5t8 9.5q22 0 58 -36zM246 401q0 -17 -12 -17q-6 0 -9.5 5t-9.5 5q-5 0 -10.5 -7t-11.5 -7t-7 4.5t-7 4.5q-8 0 -11.5 -6.5t-7.5 -12.5q4 7 10 42q4 21 28 21
q9 0 28.5 -13.5t19.5 -18.5zM147 391h-6v22q13 -6 6 -22zM401 227q-10 -19 -10 -45q-12 0 -57 -6q-38 -4 -61 -4q-22 0 -40 3l-6 10q14 8 53 12q55 4 61 6t13 5q13 5 25 2q7 7 7 22q0 10 -10 28t-19 18q-24 0 -84 -48q-18 19 -48 39q-5 -8 -15.5 -24.5t-14.5 -24.5
q8 35 25 68q10 -19 26 -19q7 0 19 6q17 9 22 11q15 6 42 6q0 4 1 20q11 -7 39 -37q32 -34 32 -48zM362 146q-13 -12 -23 -12q-5 4 -5 13h12q11 -1 16 -1z" />
    <glyph glyph-name="grave" unicode="`" horiz-adv-x="174" 
d="M54 673q7 63 72 68v-23q-15 -2 -19 -15t-6 -25q26 -5 26 -45q0 -14 -7 -26q-7 -16 -13 -19t-26 -3q-23 0 -31 10q-6 6 -10 27q-9 40 14 51z" />
    <glyph glyph-name="a" unicode="a" horiz-adv-x="760" 
d="M813 394q-52 -17 -80 -20q-31 -3 -63 -5q-40 -6 -56 -19q17 -6 19 -27l2 -34q3 -22 10 -60q22 -86 76 -281q-26 -3 -41 0q-23 4 -40.5 23t-33 37t-29.5 49.5t-28 49.5q16 -13 33 -34q19 -25 23 -29q15 -14 27 -12q14 2 17 1q-17 90 -49 258q-5 29 -17 60
q-209 -30 -355 -62q-5 -2 -34 -22q7 -4 17 -9t48 -23q-22 0 -53 3.5t-32 3.5q-18 0 -60 -86q-34 -70 -45 -107q-9 -31 -52 -36q-2 2 -2 3h-2q-5 4 -5 15q0 18 122 214q-12 8 -12 17q0 13 47 49q17 12 86 111q43 63 87 126q86 120 162 244q18 0 26 -13q18 -71 27 -110
q15 -57 49 -187q5 -32 21 -94q47 1 190 6zM579 384q-29 128 -86 339q-91 -132 -267 -394q33 1 97 12q51 14 69 14q27 0 96 13q33 6 91 16z" />
    <glyph glyph-name="b" unicode="b" horiz-adv-x="770" 
d="M752 167q0 -184 -316 -184q-69 0 -90 2q-52 7 -82 33l-6 -7q-12 2 -31 10q8 16 20 49q8 27 22 112q16 100 16 151q0 43 -18 116q0 3 -5.5 13t-5.5 17q0 12 8 18l13 13q25 -21 32 -55l8 -62q3 -14 8 -22q12 18 17 32q42 137 42 241q0 124 -77 124q-91 0 -183.5 -104.5
t-84.5 -195.5q0 -14 2 -46q1 -8 4 -28h-32q-20 34 -20 81q0 102 110 215t212 113q104 0 104 -143q0 -56 -23 -161q-10 -51 -43 -152q20 -5 47 -13q36 -11 136 -33q75 -17 141 -43q27 -10 51 -41t24 -50zM701 150q0 38 -21 54q-52 40 -130 58q-69 13 -139 26q-41 9 -43 10
q-24 7 -40 18q-16 -127 -26 -187q-2 -8 -11 -39q-8 -27 -8 -37q0 -40 157 -40q78 0 148 23q113 35 113 114z" />
    <glyph glyph-name="c" unicode="c" horiz-adv-x="1228" 
d="M1270 168q-152 -58 -432 -112q-304 -59 -501 -59q-305 0 -305 193q0 54 61 188q129 281 442 281q40 0 90 -25q59 -28 59 -66q0 -42 -104 -115q-82 -57 -117 -69h-32q21 19 57 43q64 43 87 62q57 47 57 79q0 55 -123 55q-118 0 -217 -71q-88 -64 -143 -170
q-38 -72 -51 -109q-14 -41 -14 -81q0 -87 84 -126q59 -28 143 -28q100 -8 156 0q16 4 47 9q333 22 753 130z" />
    <glyph glyph-name="d" unicode="d" horiz-adv-x="737" 
d="M718 372q0 -121 -28.5 -197.5t-117.5 -132.5q-82 -52 -151 -52q-93 0 -165 33q-99 45 -103 137l9 84q18 -55 18 -72q0 -3 3.5 -9.5t3.5 -10.5q3 -66 87 -103q65 -28 134 -28q30 0 112 35q25 11 59 39q38 32 55.5 60t31.5 89q13 58 13 101t-12 118q-24 159 -98 232
q-70 69 -195 69q-73 0 -188 -66q-123 -71 -139 -136q-6 -28 -5 -96q-5 0 -11.5 -2.5t-11.5 -2.5q-10 0 -15 7l-1 1q-6 8 -6 43q0 33 3 45q16 63 97 121q41 31 139 82q35 19 64 26q41 10 85 10q87 0 160 -38.5t108 -98.5q6 -10 22 -57q42 -124 43 -230zM426 595
q0 -13 -22 -100q-20 -76 -27 -100q-17 -62 -33 -123q-20 -73 -46 -119h-20q-8 2 -8 15q0 6 11 26.5t13 25.5q11 49 33 142q29 112 53 247q9 12 20 12q10 0 18 -8t8 -18z" />
    <glyph glyph-name="e" unicode="e" horiz-adv-x="902" 
d="M880 693q0 -6 -5 -10t-5 -6q-5 5 -33 48q-15 23 -73 35q-66 13 -145 13q-157 0 -271 -87q-121 -93 -138 -245q-1 -3 -4.5 -14.5t-3.5 -17.5v-41q43 0 134 3.5t136 3.5q48 0 146 -5q95 -4 145 -4l-114 -12q-50 -3 -205 -3q-49 0 -237 -15q-9 -36 -9.5 -116.5t-14.5 -138.5
q37 -19 118 -38q91 -21 157 -21h41q71 0 141 33l6 -6v-17q-37 -33 -198 -33q-66 0 -165 15q-151 23 -151 64q0 7 8 20.5t9 15.5q5 16 11 61q8 60 1 163q4 4 -7 4q-36 0 -102 -25q-11 -4 -13.5 -22.5t-17.5 -18.5q-8 0 -13.5 9.5t-5.5 18.5q0 35 32 50q27 12 77 14h54
q-3 194 128 314q126 117 321 117q4 0 39 -4q39 -4 57 -4q68 -4 117 -22q12 -5 32.5 -33.5t20.5 -42.5z" />
    <glyph glyph-name="f" unicode="f" horiz-adv-x="780" 
d="M732 695q-4 3 -18.5 22.5t-27.5 24.5q-55 24 -195 24q-97 0 -201 -20q-23 -4 -52 -13q-80 -24 -123 -57q-38 -28 -65.5 -71t-43.5 -55v37q0 11 19 41q51 82 176 118q143 42 274 42q62 0 98 -8q49 -7 99 -14q61 -15 61 -58q0 -6 -1 -13zM526 367q-5 -7 -5 -11
q-16 0 -44.5 6.5t-41.5 6.5q1 0 -54.5 -5.5t-81.5 -5.5q-12 1 -54 -14q-5 -31 -77 -354q-16 0 -29.5 2.5l-13.5 2.5v54q0 9 25 24q59 255 59 254v21q-22 1 -95 -11t-82 -12q-27 0 -35 5q0 10 14 19q98 22 202 32q1 4 -1.5 35.5t-2.5 47.5q0 28 6 28q29 0 31 -44
q3 -55 10 -62q26 0 76.5 4.5t52.5 4.5q36 0 84 -10q45 -9 57 -18z" />
    <glyph glyph-name="g" unicode="g" horiz-adv-x="664" 
d="M652 582q0 -26 -34.5 -52t-55.5 -21q18 16 36 31q28 28 28 46t-24 35q-56 40 -157 40q-5 0 -16.5 -3.5t-17.5 -4.5q-169 -17 -350 -281q-8 -10 -15 -43q-7 -28 -7 -39q0 -40 36 -70q28 -23 64 -29q14 -3 59 -3q108 0 217 37q24 8 38 15q42 21 48 21q8 0 18 -14t12 -26
q19 -102 19 -214q0 -45 -16 -186q1 -2 7 -9v-19q-17 -2 -29.5 10t-12.5 25q0 6 8.5 90t8.5 89q0 33 -15 179q-1 11 -18 36q-149 -55 -287 -55q-191 0 -191 121q0 67 103 196q41 51 105 101q73 58 134 78q15 6 57 13q38 6 48 6q48 0 112 -22q88 -30 88 -78z" />
    <glyph glyph-name="h" unicode="h" horiz-adv-x="633" 
d="M574 734q-5 -164 -11 -328q-8 -176 -37 -312q-17 0 -42 12q15 47 19 59q9 35 11 59q21 310 22 509q12 15 25 15q8 0 9 -3q2 -6 4 -11zM505 398q-31 -3 -116 -3q-72 0 -115.5 -8t-58.5 -13q-33 -11 -54 -31q-16 -15 -50 -120l-59 -177q20 -7 46 1l7 -6v-14
q-27 -17 -48 -17t-46 16q9 50 56 166q45 111 45 112q0 5 -10.5 16.5t-10.5 17.5t25.5 28t30.5 35q18 43 49 152q39 138 48 167q7 23 17 23l16 -1q0 -2 3 -7.5t3 -13.5q0 -29 -101 -314q40 2 149 10q93 7 100 7q58 0 74 -26z" />
    <glyph glyph-name="i" unicode="i" horiz-adv-x="218" 
d="M184 730q0 -3 -21 -79q-24 -84 -31 -128q-21 -105 -41 -211q-29 -156 -29 -213q0 -52 28 -66v-23q-72 6 -72 82q0 99 59 357l70 284q1 2 20 21q17 -17 17 -24z" />
    <glyph glyph-name="j" unicode="j" horiz-adv-x="939" 
d="M931 747q0 -8 -8 -17t-17 -9q-6 0 -21.5 6.5t-21.5 6.5q-4 0 -41.5 -6t-50.5 -6q-41 -1 -134 -6q-83 -4 -87.5 -4t-49 -4.5t-50.5 -4.5h-171q-6 0 -162 -6q-15 -1 -44 -6.5t-44 -5.5l-5 26q27 4 118 7l379 9q66 3 200 13q23 2 97 15q67 11 74 11q10 0 39 -19zM525 606
q0 -64 -43 -416q-9 -77 -41 -127q-38 -59 -117 -59q-84 0 -182 37q-132 50 -132 134q0 19 22 53q20 31 39 46q7 -5 11 -5q0 -1 -20 -35t-20 -55q0 -75 128 -117q84 -27 145 -27q70 0 105 58q26 42 35 121q5 52 9 103q23 128 27 253q-2 26 -1 81q4 8 13 24q11 0 20 -14
q2 -10 2 -55z" />
    <glyph glyph-name="k" unicode="k" horiz-adv-x="659" 
d="M632 748q0 -35 -127 -137q-76 -61 -137 -102q-101 -68 -225 -86h-1q53 -22 107 -43q84 -35 146 -68q207 -112 207 -228q0 -26 -14 -41t-34 -15q-35 0 -45 35q13 -2 21 -2q21 0 21 23q0 71 -101 149q-80 61 -198 109q-104 43 -131 38q-13 -33 -21 -91q-10 -75 -14 -93
q-4 -14 -19 -49q-8 -18 -23 -59q-37 8 -37 31q0 7 13 34t15 37q26 112 33 202q-6 2 -34 21q-7 5 -18 10q4 18 25 24q12 3 34 8q33 84 45 254q4 0 16 1q11 1 17 0q9 0 16 -4q-1 -74 -35 -238q10 -2 27 0q20 2 26 2q25 0 83 31q73 39 164 110q121 95 156 164h37
q0 -5 2.5 -13.5t2.5 -13.5z" />
    <glyph glyph-name="l" unicode="l" horiz-adv-x="959" 
d="M961 -27h-30q-5 0 -25 3q-52 11 -156 29q-32 4 -375 40q-97 6 -193 13q-103 12 -183 67q-4 47 26 120q25 58 50 117q16 44 47 144q13 47 33 169q1 8 29 36q14 -45 14 -57q0 -38 -33 -153q-23 -81 -39 -124q-72 -201 -72 -213q0 -35 65 -53q37 -10 82 -13q249 -14 691 -83
q25 -4 69 -42z" />
    <glyph glyph-name="m" unicode="m" horiz-adv-x="907" 
d="M899 -13q-7 -9 -25 -9q-35 0 -45.5 26.5t-23.5 74.5q-18 70 -20 76q-30 102 -90 307q-36 -52 -72 -105q-55 -75 -98 -115q-59 -55 -106 -55q-18 11 -18 49q0 9 1.5 25t1.5 19q3 69 -4 101q-23 115 -31 147q-21 84 -47 141q-105 -181 -113 -194q-63 -114 -100 -198
l-32 -72q-18 -42 -25 -74q0 -22 -12 -63q-8 -12 -48 -12v31q0 6 14 37q16 36 17 40q44 122 135 288q78 138 156 277h26q80 -198 99 -355q0 -48 8 -141l1 -1q75 45 121 107q24 32 61 109q34 69 66 105h20q6 -5 13 -17q20 -103 65 -260q36 -126 73 -252q2 -8 32 -18v-19z" />
    <glyph glyph-name="n" unicode="n" horiz-adv-x="749" 
d="M733 680q-11 -6 -31 -17q-4 -99 -1 -116q2 -17 2 -35q0 9 -9 -110q-8 -88 -68 -230q-74 -176 -148 -176q-26 0 -134 196q-130 234 -179 293q-3 -35 -7 -70q-5 -39 -14 -72q-88 -309 -98 -309t-16 -4q-7 1 -7 14q0 50 17.5 108t49.5 186q39 158 47.5 189t26.5 30
q10 -1 82 -134q100 -184 138 -246q81 -133 112 -133q21 0 69 74q66 102 97 338q3 24 5 133q2 86 14 115h22q8 0 15.5 -8t14.5 -16z" />
    <glyph glyph-name="o" unicode="o" horiz-adv-x="587" 
d="M565 258q0 -112 -107 -179q-86 -55 -183 -55q-119 0 -161 70q-27 45 -45 192q-2 21 -19 74q-15 50 -15 55q0 28 24 28l14 -6q0 13 -3.5 38.5t-3.5 32.5q0 56 23 102q35 67 106 67q86 0 168.5 -62t134.5 -167l48 -92q19 -44 19 -98zM522 255q0 65 -46 165q-40 88 -85 143
q-23 28 -76.5 52.5t-91.5 24.5q-62 0 -93 -60q-21 -43 -21 -94q0 -52 20 -115q3 -9 19 -29.5t16 -27.5q0 -9 -4 -13q-11 0 -44 31v-22q12 -65 24 -131q11 -60 35 -83q30 -29 100 -29q79 0 153 43q94 54 94 145z" />
    <glyph glyph-name="p" unicode="p" horiz-adv-x="533" 
d="M505 532q0 -12 -12 -55q-13 -48 -23 -63q-61 -87 -172 -111q-38 -9 -187 -14q-9 -5 -13 -23q-7 -44 -35 -251q-15 6 -39 -3q1 46 19 156t18 117q0 11 -22 21q6 10 13.5 14.5t11.5 9.5q11 60 3 135q10 4 24 17q8 16 19.5 64t16.5 60q44 103 61 125q35 45 100 45
q111 0 170 -87q47 -68 47 -157zM456 537q0 76 -38 134q-47 72 -133 72q-57 0 -82 -39q-18 -28 -48 -134q-25 -86 -37 -144q-13 -64 -13 -92q0 -13 3 -15q8 -6 38 -6q112 0 198 46q112 61 112 178z" />
    <glyph glyph-name="q" unicode="q" horiz-adv-x="835" 
d="M841 -144q2 -12 -11 -12q-50 0 -114 13.5t-106 33.5q-27 13 -53 53q-20 33 -41 66q-6 14 -30 44q-92 -11 -146 -11q-125 0 -206 39q-115 55 -115 179q0 100 78 251q1 20 9 62q12 47 29 63q52 51 83 64q25 11 82 11q129 0 244 -64t174 -170q25 -45 50 -89q28 -55 28 -97
q0 -86 -89 -149q-45 -31 -166 -82q19 -59 66 -113q54 -62 107 -68q39 -5 127 -24zM751 303q0 79 -82 203q-62 94 -165 140q-84 37 -176 37q-93 0 -143 -58q-47 -54 -47 -149q0 -127 87 -239q11 -13 21.5 -25t10.5 -19q0 -9 -4 -10q6 1 -9 1q-58 52 -97 122q-36 64 -45 122
q-12 -35 -25 -92q-12 -53 -12 -64q0 -195 294 -195q46 0 113 12q-50 162 -50 220q0 85 34 85q18 0 20 -20q2 -16 0 -43q-2 -32 -2 -42q5 -111 52 -189q118 42 154 68q71 49 71 135z" />
    <glyph glyph-name="r" unicode="r" horiz-adv-x="613" 
d="M662 -68q-8 -19 -33 -19q-11 0 -49 8q-43 9 -66 18q-34 13 -196 132q-168 122 -168 140q0 8 11 15t20 7q6 0 23 -10t23 -10q87 0 125 84q25 54 25 127q0 36 -11 90q-13 60 -31 93l-12 26q-13 26 -26 26q-23 0 -89 -122q-51 -95 -72 -148q-15 -33 -29 -67q-19 -45 -24 -74
t-7 -81q-3 -68 -5 -84q-34 3 -41 0q-6 41 -6 68q0 44 13 80q1 5 3 52q2 62 -31 119q4 6 8 12.5t12 6.5q15 0 29 -40q8 -23 16 -47q22 41 64 120q21 39 63 116q65 132 106 132q15 0 47 -49q22 -35 34 -80q8 -36 16 -71q7 -29 7 -81q0 -77 -29 -137q-39 -80 -118 -92
q-9 0 -27 -10l204 -162q133 -98 221 -88z" />
    <glyph glyph-name="s" unicode="s" horiz-adv-x="633" 
d="M622 103q0 -66 -135 -66q-146 0 -384 65q-20 5 -31 22.5t-22 35.5q4 3 8.5 10.5t7.5 11.5q27 -27 33 -32q21 -19 37 -24q54 -15 147 -31q80 -14 97 -14q6 0 49 -3t52 -3q49 0 78 29q-23 46 -87 101q-60 53 -150 113q-85 50 -169 100q-134 85 -134 131q0 62 117 116
q85 38 124 42q89 9 111 9q188 0 188 -85q0 -21 -52 -71h-35q18 26 31 77q-19 16 -70.5 28.5t-90.5 12.5q-48 0 -148 -39q-119 -46 -119 -93q0 -34 93 -93q14 -9 107 -61q71 -39 188 -126q159 -118 159 -163z" />
    <glyph glyph-name="t" unicode="t" horiz-adv-x="1156" 
d="M1135 691q-7 -8 -21 -20q-144 -6 -409 -13q-59 0 -316 -5q66 -5 114 -181q39 -138 39 -224q0 -40 -19 -110q-17 -56 -34 -113h-22q-21 20 -21 41q0 2 30 103q8 29 8 95q0 74 -15 146q-9 44 -32 114q-6 21 -33 61q-23 33 -23 53q0 6 2 13q-124 3 -369 18q-8 8 -8 23l8 10
t14 5q5 0 37 -9.5t52 -9.5q489 -6 650 0q29 1 91 7q58 6 64 6t89.5 12.5t91.5 12.5q14 0 32 -35z" />
    <glyph glyph-name="u" unicode="u" horiz-adv-x="982" 
d="M934 422q0 -206 -108 -315.5t-307 -109.5q-205 0 -347 104q-162 119 -162 328q0 4 12 108q13 114 16 162h45q0 -6 4 -23t4 -26q0 -8 -13.5 -107t-13.5 -107q0 -197 146 -303q123 -89 302 -89q190 0 285 105q90 100 90 287q0 31 -6 92q-10 85 -24 85q-10 0 -13.5 -4.5
t-6.5 -8.5q-23 34 -23 70q0 50 36 50q38 0 64 -137q20 -102 20 -161z" />
    <glyph glyph-name="v" unicode="v" horiz-adv-x="772" 
d="M734 690q-19 -11 -46 -37l-166 -304q-109 -197 -203 -328q-16 4 -50 14q-24 94 -50 153q-30 69 -122 254q-76 155 -76 162q0 24 26 24q22 0 125 -228q67 -149 129 -302q35 34 80 101q37 58 74 115q28 50 82 148q35 62 69 124q70 113 107 113q12 0 21 -9z" />
    <glyph glyph-name="w" unicode="w" horiz-adv-x="881" 
d="M831 369q0 -49 -16 -129.5t-80 -147.5q-68 -70 -139 -70q-23 0 -64 52q-37 49 -75 98q-47 52 -84 52q-17 0 -141.5 -86.5t-174.5 -86.5q-6 0 -22.5 3.5t-25.5 3.5q90 298 119 425q10 43 16 133q6 77 22 123h26q7 -20 7 -54q0 -108 -51 -292l-82 -292q-5 -4 9 -4
q33 0 150.5 87t153.5 87q43 0 95 -53q12 -12 80 -97q41 -53 62 -53q43 0 92 60q40 48 51.5 83.5t23 92.5t7.5 143q-1 19 -8 79q-6 54 -6 84q0 22 16 37h26q0 -6 -8 -21t-8 -22q0 -8 14.5 -118t14.5 -117z" />
    <glyph glyph-name="x" unicode="x" horiz-adv-x="706" 
d="M679 60q-8 -35 -53 -35q-47 0 -69 15q-46 30 -123 110q-58 61 -117 123l-130 -140q-105 -108 -132 -108q-10 0 -34 13q0 4 -2.5 15.5t-2.5 16.5q0 9 6 9q3 0 19 -4q11 -2 18 2q34 19 128 114q99 100 99 124q0 12 -120 155l-144 170q15 19 27 19q6 0 99 -111
q55 -67 170 -197q44 61 89 123q50 73 75 133q15 33 31 99l17 19q10 -2 20.5 -12t10.5 -20q0 8 -25 -78q-15 -53 -70 -131q-42 -55 -119 -169q69 -75 137 -151q104 -109 148 -109q9 0 24 2.5t23 2.5z" />
    <glyph glyph-name="y" unicode="y" horiz-adv-x="557" 
d="M520 671q0 -6 -42 -89q-48 -97 -63 -132q-63 -153 -90 -280q-9 -47 -22 -140q-11 -84 -11 -98v-18q-1 -11 -1 -14q0 -20 15.5 -29.5t69.5 -18.5l6 -8q-12 -10 -31 -10q-101 0 -101 93q0 12 9 85q10 84 19 132q18 97 60 221q48 140 101 235q1 1 1 2q0 4 -5 11
q-39 -19 -178 -93q-114 -61 -121 -61q-5 0 -23.5 3.5t-25.5 3.5q-5 13 -32 116q-21 77 -49 112v18q7 7 21 7q28 0 57 -84q19 -56 29 -114q4 -7 13 -20q32 5 96 40q95 52 98 54q53 24 122 61q5 3 29 24q21 18 28 18q21 0 21 -27z" />
    <glyph glyph-name="z" unicode="z" horiz-adv-x="1080" 
d="M1073 57q-55 4 -162 4q-217 0 -483 -27t-307 -27q-34 0 -108 20q-3 8 -3 17q0 39 63 100q51 45 103 91q103 96 161 176q115 158 115 243q0 55 -48 72q-22 7 -76 7q-58 0 -100 -16q-69 -26 -72 -89q-22 1 -33 -3q-12 11 -12 17q0 64 95 100q69 26 130 26q62 0 103 -20
q57 -28 57 -91q0 -1 -8 -36q-33 -131 -202 -325q-49 -58 -146 -141q-66 -56 -83 -101q3 -3 24 -10t32 -7q-6 0 198 19q220 21 354 28q38 2 333 2q25 0 75 -19v-10z" />
    <glyph glyph-name="braceleft" unicode="{" 
d="M715 563q-10 7 -29 24q-7 7 -19 43q2 -2 14 -8q4 4 -5 22l21 -19q7 -14 18 -46v-16zM723 481q-3 -20 -15 -58q0 3 -3 15t-3 18q0 7 10 14.5t11 10.5zM334 797l-30 4v8l30 -5v-7zM661 498q-3 -2 -48 -4q-25 -2 -45 -17q0 9 16 16l-5.5 5.5l-5.5 5.5q-12 -7 -17 -15
q-1 -3 -17 -3t-29 18q-11 -13 -39 -22q2 2 10 8.5t13 11.5q-4 3 -22 -6l13 15l-8 7q-10 -5 -37 -23q3 14 6 27q4 19 13 27q23 18 60 18q28 0 71 -18q7 7 14 32q1 -2 32 -24q26 -19 25 -38q-10 0 -25 -5q-3 -1 -11 -7q18 -9 36 -9zM290 806q-11 -11 -11 -16q-7 7 -7 16h18z
M828 2h-89q13 27 13 29q0 13 -16 29q-7 -7 -14 -26q-8 -23 -14 -33q0 34 -8 104q-1 -8 -4 -26q-12 -8 -34 -27q-6 -7 -29 -50h-166q41 2 81 23q13 6 37 39q21 31 30 32q-3 -25 -1 -32q16 15 17 30q4 0 11 6q9 22 30 63q18 24 51 77q10 18 3 43q8 12 8 27q0 4 -6 37
q-4 22 4 35q-1 -19 -1 -37q0 -27 23 -27q15 0 26 11.5t11 27.5q0 12 -4 53q-4 35 -2 56q0 3 8.5 28.5t8.5 32.5q0 24 -16 54q-9 -14 -23 -45q0 14 -4 18q-13 -13 -15 -13q2 8 2 24q-5 15 -14 45q0 -4 13 -11q2 2 -6 18l22 -20q-7 -8 -15 -2q-5 -8 4 -23q8 10 29 30
q-6 1 -17 3q-8 17 -21 30q-5 -4 -5 -9q1 5 -4.5 16.5t-5.5 17.5q0 21 5 46q3 19 -13 43q-2 -2 -5 -7.5t-6 -5.5q9 43 -25 62q-6 -6 10 -24v-21q-11 13 -21 26q-15 18 -13 28h170v-805zM597 448h-30v8h30v-8zM661 186l-6 -22q-9 0 -19 -21l-14 -28q0 1 14 43q9 27 25 28z
M130 658q-4 1 -12 6q7 6 7 10q0 -2 2.5 -7.5t2.5 -8.5zM688 292q-7 1 -23.5 -2.5t-23.5 -25.5q0 5 -9 13q-86 -72 -91 -72q-6 0 -4 3q2 4 0 6q-9 -9 -16 -9q-6 0 -5.5 6t-1.5 8q-15 -14 -12 -23q-9 14 -17 14q-6 0 -24 -9.5t-24 -9.5q2 0 -53 10q-6 -11 -7 -19v15
q-1 0 -3.5 1.5t-8.5 1.5q-8 0 -8 -17q-28 9 -94 37q1 2 1.5 7t7.5 5q14 0 33 18q3 -1 24 -22q5 2 12 2q7 -9 15 -15q15 0 50.5 -2.5t39.5 -2.5q11 0 38 7q33 9 52 21q10 13 29 35q0 -1 -1 -5q-1 -2 0 -3q2 -1 7 -1t10 2t10.5 2t9 7t8.5 7q7 0 9.5 -2.5t3.5 -2.5l3 3v9
q-19 20 -25 20t-10 -2t-5 -2q0 3 8 11q-2 2 -63 51q16 -8 68 -40q44 -27 50 -27q3 0 3 1t-2 3.5t-2 3.5t3 1q6 0 7 -4.5t7 -4.5q11 0 18 14zM369 333h-8l-5 34h8zM525 306q-7 -3 -18.5 -17t-14.5 -22l-8 -6.5t-8 -11.5q0 -3 4 -6q-61 -24 -79 -24q-5 0 -16.5 6t-19.5 6
q-5 0 -11 -3q0 2 -2.5 10t-1.5 10q-5 2 -11 4q-6 9 -26 50v47q8 5 21 14q0 -4 -4 -14.5t-4 -16.5q0 -11 8 -18q12 -3 41 -16q4 -2 21 -18t23 -16q34 0 61 23q36 32 45 35v-16zM245 415h-32l6 7zM439 2h-438v805h148q-4 -13 -15 -30q1 -6 5 -21q-21 -25 -21 -39q0 -16 11 -16
l-9 -3q-8 -27 -3 -47q-6 -1 -3 -12q-1 -4 2 -13q5 7 19 18q2 -19 1 -34q-2 -19 -2 -13q0 11 -9 11q-6 0 -6 -4.5t-6 -4.5q-9 0 -9 -4q0 -13 23 -41q-15 -9 0 -9q7 0 8.5 3t3.5 6q0 -3 -12 -16q11 -4 10 -8t2 -8q2 1 12 11q8 7 14 7t13.5 -3.5t10.5 -4.5q5 -1 16.5 1.5
t17 2.5t30 4.5t30.5 4.5t15 -8t13 -9q40 -15 57 -36t17 -60q0 -21 -11 -55q1 2 -6 7.5t-9 12.5q-3 10 0 29q5 29 5 32q-10 18 -32 40q-43 15 -101 15q-36 0 -56 -12q0 -1 -7 -8q6 -7 13 -7q13 0 5 8h104q-3 3 -18 3q30 6 68 -19q-1 0 -16.5 6t-24.5 6q-5 0 -9 -2
q16 -11 41 -23q-5 0 -18 6t-19 6q-5 0 -9 -9t-9 -9q-24 0 -38 9l-11 -12q8 -8 13 -8q-10 -1 -29 2q-7 -8 2 -17q-14 -1 -36 10q9 0 18 9q2 2 -2 7q-3 -3 -10 -5t-9 -4q0 8 7 15q-5 2 -20 7q-11 -13 -13 -16q-9 -9 -18 -11q-3 2 -8 -2q9 -9 23 -9q-5 -2 -16 -2.5t-16 -2.5
q9 -8 21 -23q3 -7 0 -32q-2 -19 4 -19q7 0 8.5 1.5t2.5 1.5l-6 -46q1 -2 -3 -3.5t-4 -8.5q0 -14 27 -24q31 -12 32 -15.5t2.5 -11.5t1.5 -10q-1 -28 4 -38q-15 25 -40 37q-3 1 -7.5 15.5t-15.5 15.5q0 -6 -2 -18.5t-2 -18.5q0 -31 22 -55q6 -7 39 -33q3 -6 10 -16q3 0 4 5
q1 4 -2 8q8 -5 12 -5q0 -2 -8 -10q7 -10 26 -27q15 -4 32 -13l14 -13q123 -67 132 -67q19 0 22 -4zM171 434h-12v8h12v-8zM760 623l-7 30h-7l7 -30h7zM695 609v17h-8v-17h8zM611 524q-9 9 -9 11q-71 -5 -58 -6q11 0 33.5 -2.5t33.5 -2.5zM110 776l-4 6l-16 -11l3 -6z
M100 753l-2 6l-11 -5v-7zM51 760l-6 3l-6 -12l6 -3zM94 730q-11 -13 -11.5 -35t-14.5 -36q8 0 16 8q4 -4 4 -13q6 17 6 76zM83 642l-6 3l-6 -12l6 -3zM70 631q0 -10 -8 -18q-3 5 -1 12q1 6 1 8q4 3 4 23q0 5 -4.5 13t-4.5 9q0 -7 -3 -22t-3 -21q-4 4 -4 9q0 -2 -3 -10.5
t-3 -10.5q17 -9 25 -28q11 22 4 36zM83 585h-8l-4 -30h7zM100 445q0 4 -2 16q-2 9 -1 13q-11 -1 -14 11q-2 9 -4 19q0 -16 -1 -41t-1 -29q0 -2 6.5 -6t6.5 -24q10 20 10 41zM97 307l-7 3l-6 -12l7 -3zM565 179q0 -9 -14 -14q-21 -7 -22 -7q4 -4 9 -4q-15 -17 -25 -17
q-30 0 -37 -4.5t-8 -4.5q-5 0 -13 7t-14 7t-14 -9t-13 -9q-10 0 -27.5 6t-27.5 6q-7 0 -14 -3q-3 6 -9.5 10.5t-9.5 9.5q9 0 31 4.5t34 4.5q11 0 18 -6.5t11 -6.5q23 0 58 18q6 2 16 9q7 5 26 5q13 -2 23 5.5t17 7.5q0 -1 2.5 -5.5t2.5 -9.5z" />
    <glyph glyph-name="bar" unicode="|" horiz-adv-x="1000" 
d="M748 -194h-747v998h747v-998zM551 650l-19 6v-7l16 -5zM562 603v17h-8v-17h8zM419 721v8h-17v-8h17zM357 715v9l-23 5v-8zM284 689q0 3 -2.5 9.5t-2.5 9.5q-17 -9 -17 -23q2 0 11 2t11 2zM667 360q0 16 -18 34q-2 -12 -7 -36t-7 -36q-3 6 -6 32q-1 12 -20 15q8 -21 5 -43
q-4 0 -5 2.5t-8 2.5q-8 0 -17 -33q-9 -29 -9 -42q0 -7 7 -15q8 -11 22 -11q20 0 27 26q4 13 21 59q15 40 15 45zM584 482v26q-33 46 -33 58q0 4 7 12q14 -14 22 -11q-23 35 -65 93q-8 -7 -8 -18q3 -2 10 -6.5t10 -6.5q-4 -1 -8 -1q-11 0 -24.5 16.5t-17.5 18.5q-23 9 -71 20
q-44 11 -53 11q-7 0 -16.5 -6.5t-13.5 -7.5q-7 -14 -21 -19q-4 3 -7 -1q0 -17 -2 -20q-10 20 -20 20q-14 0 -21 -14l-8 -20q-19 17 -13 33q-4 -2 -13 -8t-12 -6q0 7 -3 20q-32 -55 -65 -109q-27 -49 -27 -109q0 -40 4 -47q12 -23 14 -28q4 -14 3.5 -45t5.5 -40.5t15 -21.5
q4 -12 4.5 -39.5t3.5 -37.5q27 -106 79 -151q0 2 -2 9.5t-2 10.5q23 -6 51 -6q-8 0 103 21q3 4 7 8.5t11 4.5q8 0 33 -29q20 5 37 45.5t30 46.5v-12q-11 -15 -19 -35q-3 -10 -2 -30q2 -34 2 -32q0 -14 -8 -29l-11 -22h-6q-4 0 -4 -14q27 8 69 42q38 32 50 53q-9 0 -11 5
q-10 11 -19 23q-13 16 -13 22q0 3 12 73q14 74 16 111q3 0 1 4q-2 6 -2 7q0 -7 -8 -7q-6 0 -7 8q-2 14 -3 16q-2 0 -7 -3q-4 -2 -7 1q5 17 16 48q-1 4 -7 39q-3 18 -1 27q8 3 19.5 11.5t15.5 8.5q-10 20 -6 28q9 -9 16 -9zM401 -82q0 10 -12 22q-5 -5 -10 -5q-2 0 -33 6
q-33 28 -94 86v-36q-1 -17 16.5 -36t34.5 -38q8 -10 13 -32q7 -26 9 -31q5 -10 41 -25q35 71 35 89zM459 406q-11 -12 -34 -12q-6 0 -20.5 7.5t-20.5 7.5t-9.5 -5t-9.5 -5t-8.5 5t-8.5 5t-8.5 -7.5t-8.5 -7.5q-14 0 -34 10q-2 -3 -2 -12q0 -6 5 -26q6 -23 7 -32
q5 -12 16 -18q-15 5 -32 -4q0 6 7 17q-5 9 -12 29q-1 9 -1 64q21 20 43 20q6 0 29 -9.5t29 -9.5t7 9.5t8 9.5q22 0 58 -36zM246 401q0 -17 -12 -17q-6 0 -9.5 5t-9.5 5q-5 0 -10.5 -7t-11.5 -7t-7 4.5t-7 4.5q-8 0 -11.5 -6.5t-7.5 -12.5q4 7 10 42q4 21 28 21
q9 0 28.5 -13.5t19.5 -18.5zM147 391h-6v22q13 -6 6 -22zM401 227q-10 -19 -10 -45q-12 0 -57 -6q-38 -4 -61 -4q-22 0 -40 3l-6 10q14 8 53 12q55 4 61 6t13 5q13 5 25 2q7 7 7 22q0 10 -10 28t-19 18q-24 0 -84 -48q-18 19 -48 39q-5 -8 -15.5 -24.5t-14.5 -24.5
q8 35 25 68q10 -19 26 -19q7 0 19 6q17 9 22 11q15 6 42 6q0 4 1 20q11 -7 39 -37q32 -34 32 -48zM362 146q-13 -12 -23 -12q-5 4 -5 13h12q11 -1 16 -1z" />
    <glyph glyph-name="braceright" unicode="}" horiz-adv-x="1480" 
d="M601 725l-1 -8l-6 3l1 4zM551 732l-4 -7l-3 2l3 6zM531 684l-6 -9l-3 3l5 8zM524 673l-3 -14l-4 -10l2 24h5zM525 632l-1 -13l-3 -7l1 14zM1157 -18l-3 -7l-4 2l3 6zM532 588l-4 -3q2 8 0 12q-5 0 1 12q3 -5 3 -21zM695 501q-12 2 -39 2q-1 -10 -1.5 -20.5t-8.5 -18.5
q5 -8 14 -8q2 0 12.5 1t17.5 1q3 0 3 -6q0 -7 -10 -11t-10 -17q-2 -1 -5 -5h-17q-14 0 -19 4v1q-3 0 -6 -1.5t-6 -1.5h-7q-3 1 -4 1q4 3 10 14h-27q0 1 -2.5 6t-2.5 6h17l4 -5q6 0 9 2q-1 3 -14 20q15 9 51 29l-3 7q-3 4 -6 4q-15 0 -10 -1h9v8q19 -6 51 -11zM599 538
q-5 -5 -6 -3q-2 0 -7 5q-6 -12 -18 -12q-3 0 -13.5 9.5t-13.5 9.5q-16 0 -15 -19q1 0 -11 6q1 0 19 30q19 6 28 6q15 0 28 -11q3 -1 9 -21zM595 506l-6 -6h-3l10 12zM582 497h-7l-3 3l10 1v-4zM1398 -197h-148v116h-16q-2 0 -384.5 -30t-385.5 -30h-86q-1 0 -7 -4
q-33 -6 -61 -6q-11 0 -16 3q-3 -21 1 -49h-141v23q0 7 31 77q3 2 5 5q10 1 15 12t10 21q0 -14 5 -23q2 1 4 -2q7 7 5 15q-3 9 -3 10q13 0 37 19l34 30v9q-4 4 -8 4q-3 0 -29 -17.5t-29 -17.5t-8.5 6.5t-9.5 6.5q-3 0 -4 -1.5t-4 -1.5l-37.5 32.5l-37.5 32.5q-3 0 -2.5 -1.5
t-2.5 -1.5q-5 0 -14 17.5t-9 21.5v13q2 -2 12 -24q8 -18 18 -18q18 0 49 18q-4 3 -15 -3q7 7 14 7q3 0 4 -1t4 -1q4 0 12.5 5t11.5 6q24 9 77 22q4 2 14 8q10 1 30 4q42 9 36 9q14 0 23 -24q6 -20 12 -41q29 -68 54 -118q5 0 5 4t-35 88q-8 10 -19 30q-8 27 -29 80
q-30 -1 -87 4q2 6 18 65q1 15 7 40q25 58 82 86q61 28 168 76q7 4 7 12q10 -5 17 -13q-8 4 -13 3q8 -25 24 -30q2 2 -3 13q7 -9 14 -17q3 -3 17 -3q3 0 11.5 1.5t12.5 1.5l2 3.5t5 3.5t3 -1.5t4 -1.5q12 0 26 24q12 21 12 30q1 14 -1 17q7 3 19 13q5 9 1 17q4 1 9 5
q-9 17 -65 24l-36 9h-3q3 -5 10 -12q-7 3 -18 10q-1 3 -2 5q-1 6 -4 9l2.5 1.5t5.5 1.5q4 0 6.5 -3.5t4.5 -6.5q8 -5 16 -5q4 0 10.5 1.5t9.5 1.5t20 -5t20 -5q6 0 18 17.5t14 26.5q0 -2 5 -7q9 4 9 10q0 22 -10 22q-7 0 -17 -16l-10 -16q-4 0 -7 -1.5t-6 -1.5t-3 3v0
q0 2 -3 2t-18.5 -10t-18.5 -10t-20 5t-20 5t-4 -2t-2 -2q1 8 -2 21q7 7 13 7q99 6 89 6l14 14q-4 3 -4 13q3 0 5 -2q4 8 21 27q3 4 3 16v15q-1 2 -12 14q0 24 1 18q-4 11 -11 34l-4 -5q-8 9 -25 21q-28 6 -71 6q-9 0 -31.5 -12.5l-22.5 -12.5q-4 0 -3.5 2t-0.5 3
q-2 -5 -8 -13t-14 -14q-11 -10 -11 -19q0 -2 1 -4q7 3 21 7q0 2 -1 7t-1 7q9 12 23 22q10 -10 13 -10t5 1t3 1q0 -6 -10 -11q7 -3 15 1q-8 -9 -27 -17q-23 -9 -30 -14q7 -7 7 -5q0 -3 -6 -3q-2 0 -6 3.5t-7 3.5q-6 0 -14 -12q0 4 3 12.5t3 11.5q0 6 -9 6q9 15 13 29
q0 -1 3 -5q5 8 18 18q2 -1 5 1q1 4 -10 10q1 0 23 22q14 13 30 13q3 0 6.5 -1t6.5 -1q6 0 8 6q2 1 12.5 3.5t13.5 2.5l6 -4q4 0 16.5 -1.5t15.5 -1.5t3 -1.5t3 -1.5q2 0 10 1.5t11 1.5q2 0 6 -3.5t7 -3.5t3 1t4 1q2 0 14 -12q4 3 12 5h-6q0 -1 -1 -2t-1 -5q0 -1 15.5 -14.5
t20.5 -21.5q18 -27 25 -70q8 -47 8 -64q0 -13 -6 -30l-10 -30q-2 -8 -9 -23q-3 -3 -9 -7.5t-6 -5.5q0 -56 13 -72q8 -9 36 -16l45 -10q14 0 40 -4q63 -22 91 -42q37 -26 69 -74q10 -15 20 -52q6 -22 9 -53q3 -26 11 -49q5 -15 15 -89v-26q3 -17 18 -16q-4 -2 -13 -1
q-2 -2 -2 -5q0 -15 14 -15q5 0 5 6q0 -1 1.5 -5t1.5 -8q-16 -6 -28 -6q-17 0 -18 23h-14q-34 -1 -89 -6q-55 -8 -163 -21q-81 -8 -185 -14q-5 -8 -5 -13q-56 -4 -159 -12q-10 -1 -34 -6t-27 -5t-3.5 2.5t-4.5 2.5q-13 0 -24 -4q9 -3 22 -2q-25 0 -40 -3q4 -1 10 3
q-5 1 -31 1q-17 0 -83 -8q-4 -4 -4 -12t2 -10q1 5 4 13q0 -13 3 -13q4 0 4 5q1 -2 4 -6q-8 0 -10 -2q-6 1 56 1q8 0 178 11q43 4 136 10q38 3 119 8q31 2 101 7q24 2 69 5q26 2 80 5q71 6 214 16q4 5 5 34q49 -5 150 -10v-155zM581 453q-6 7 -6 8q0 3 3 5.5l3 2.5v-16z
M814 -70h-14v4h14v-4zM277 112l-10 -3l-4 4l26 4zM285 135q-23 -1 -51 -10q-24 -7 -47 -15q0 7 2 8q14 6 44 13.5t35 7.5q13 0 17 -4zM255 104l-22 -7l13 7l14 6zM136 216q-1 -1 -3 -4q-22 -11 -65 -31l1 7q29 18 58 28h9zM102 100q-3 0 -7 7t-19 33q-12 23 -12 25l-4 11h9
q10 -23 33 -68v-8zM303 -155l-6 -10l-3 7l6 6zM756 698l-4 3l-2 -2l9 -16zM676 763q-16 12 -25 12q-3 0 -10.5 -2t-11.5 -2q12 -3 22 -3q4 0 6.5 -2.5t5.5 -2.5h13zM654 751q-4 1 -9 6.5t-9 5.5q-7 0 -14 -12q13 1 32 0zM780 582q-1 1 -14 15q0 -3 -3 -7t-3 -5zM824 583
l-3 11q-3 -4 -5.5 -21.5t-9.5 -22.5v22q-1 -4 -12.5 -22.5t-11.5 -28.5q0 -11 10 -11q12 0 26 53q3 13 6 20zM603 742l-10 -3l-9 -6l2 -3zM730 504l-5 7l-11 3l3 -4zM676 555l-6 7q-2 0 -6 -3q3 -4 12 -4zM658 562q-4 0 -8 -2t-5 -2q6 0 10 -3q2 2 3 7zM577 543q0 4 -3 9
q-6 1 -19 -1q11 -11 10 -11q3 0 7 1.5t5 1.5zM540 556l-5 -1l-3 -6l3 1zM319 -32l3 6h-9v-4zM260 -97q-1 1 -4.5 3.5t-5.5 3.5q5 5 10 5q-2 2 -16 4q-3 -7 -10 -18q-1 4 -4 9q-2 1 -7 -2q4 -14 15 -16q-4 4 -1 7l6 -6t3 -4q10 5 14 14zM256 -119l-4 5l-2 -4l9 -7z" />
    <glyph glyph-name="asciitilde" unicode="~" 
d="M715 563q-10 7 -29 24q-7 7 -19 43q2 -2 14 -8q4 4 -5 22l21 -19q7 -14 18 -46v-16zM723 481q-3 -20 -15 -58q0 3 -3 15t-3 18q0 7 10 14.5t11 10.5zM334 797l-30 4v8l30 -5v-7zM661 498q-3 -2 -48 -4q-25 -2 -45 -17q0 9 16 16l-5.5 5.5l-5.5 5.5q-12 -7 -17 -15
q-1 -3 -17 -3t-29 18q-11 -13 -39 -22q2 2 10 8.5t13 11.5q-4 3 -22 -6l13 15l-8 7q-10 -5 -37 -23q3 14 6 27q4 19 13 27q23 18 60 18q28 0 71 -18q7 7 14 32q1 -2 32 -24q26 -19 25 -38q-10 0 -25 -5q-3 -1 -11 -7q18 -9 36 -9zM290 806q-11 -11 -11 -16q-7 7 -7 16h18z
M828 2h-89q13 27 13 29q0 13 -16 29q-7 -7 -14 -26q-8 -23 -14 -33q0 34 -8 104q-1 -8 -4 -26q-12 -8 -34 -27q-6 -7 -29 -50h-166q41 2 81 23q13 6 37 39q21 31 30 32q-3 -25 -1 -32q16 15 17 30q4 0 11 6q9 22 30 63q18 24 51 77q10 18 3 43q8 12 8 27q0 4 -6 37
q-4 22 4 35q-1 -19 -1 -37q0 -27 23 -27q15 0 26 11.5t11 27.5q0 12 -4 53q-4 35 -2 56q0 3 8.5 28.5t8.5 32.5q0 24 -16 54q-9 -14 -23 -45q0 14 -4 18q-13 -13 -15 -13q2 8 2 24q-5 15 -14 45q0 -4 13 -11q2 2 -6 18l22 -20q-7 -8 -15 -2q-5 -8 4 -23q8 10 29 30
q-6 1 -17 3q-8 17 -21 30q-5 -4 -5 -9q1 5 -4.5 16.5t-5.5 17.5q0 21 5 46q3 19 -13 43q-2 -2 -5 -7.5t-6 -5.5q9 43 -25 62q-6 -6 10 -24v-21q-11 13 -21 26q-15 18 -13 28h170v-805zM597 448h-30v8h30v-8zM661 186l-6 -22q-9 0 -19 -21l-14 -28q0 1 14 43q9 27 25 28z
M130 658q-4 1 -12 6q7 6 7 10q0 -2 2.5 -7.5t2.5 -8.5zM688 292q-7 1 -23.5 -2.5t-23.5 -25.5q0 5 -9 13q-86 -72 -91 -72q-6 0 -4 3q2 4 0 6q-9 -9 -16 -9q-6 0 -5.5 6t-1.5 8q-15 -14 -12 -23q-9 14 -17 14q-6 0 -24 -9.5t-24 -9.5q2 0 -53 10q-6 -11 -7 -19v15
q-1 0 -3.5 1.5t-8.5 1.5q-8 0 -8 -17q-28 9 -94 37q1 2 1.5 7t7.5 5q14 0 33 18q3 -1 24 -22q5 2 12 2q7 -9 15 -15q15 0 50.5 -2.5t39.5 -2.5q11 0 38 7q33 9 52 21q10 13 29 35q0 -1 -1 -5q-1 -2 0 -3q2 -1 7 -1t10 2t10.5 2t9 7t8.5 7q7 0 9.5 -2.5t3.5 -2.5l3 3v9
q-19 20 -25 20t-10 -2t-5 -2q0 3 8 11q-2 2 -63 51q16 -8 68 -40q44 -27 50 -27q3 0 3 1t-2 3.5t-2 3.5t3 1q6 0 7 -4.5t7 -4.5q11 0 18 14zM369 333h-8l-5 34h8zM525 306q-7 -3 -18.5 -17t-14.5 -22l-8 -6.5t-8 -11.5q0 -3 4 -6q-61 -24 -79 -24q-5 0 -16.5 6t-19.5 6
q-5 0 -11 -3q0 2 -2.5 10t-1.5 10q-5 2 -11 4q-6 9 -26 50v47q8 5 21 14q0 -4 -4 -14.5t-4 -16.5q0 -11 8 -18q12 -3 41 -16q4 -2 21 -18t23 -16q34 0 61 23q36 32 45 35v-16zM245 415h-32l6 7zM439 2h-438v805h148q-4 -13 -15 -30q1 -6 5 -21q-21 -25 -21 -39q0 -16 11 -16
l-9 -3q-8 -27 -3 -47q-6 -1 -3 -12q-1 -4 2 -13q5 7 19 18q2 -19 1 -34q-2 -19 -2 -13q0 11 -9 11q-6 0 -6 -4.5t-6 -4.5q-9 0 -9 -4q0 -13 23 -41q-15 -9 0 -9q7 0 8.5 3t3.5 6q0 -3 -12 -16q11 -4 10 -8t2 -8q2 1 12 11q8 7 14 7t13.5 -3.5t10.5 -4.5q5 -1 16.5 1.5
t17 2.5t30 4.5t30.5 4.5t15 -8t13 -9q40 -15 57 -36t17 -60q0 -21 -11 -55q1 2 -6 7.5t-9 12.5q-3 10 0 29q5 29 5 32q-10 18 -32 40q-43 15 -101 15q-36 0 -56 -12q0 -1 -7 -8q6 -7 13 -7q13 0 5 8h104q-3 3 -18 3q30 6 68 -19q-1 0 -16.5 6t-24.5 6q-5 0 -9 -2
q16 -11 41 -23q-5 0 -18 6t-19 6q-5 0 -9 -9t-9 -9q-24 0 -38 9l-11 -12q8 -8 13 -8q-10 -1 -29 2q-7 -8 2 -17q-14 -1 -36 10q9 0 18 9q2 2 -2 7q-3 -3 -10 -5t-9 -4q0 8 7 15q-5 2 -20 7q-11 -13 -13 -16q-9 -9 -18 -11q-3 2 -8 -2q9 -9 23 -9q-5 -2 -16 -2.5t-16 -2.5
q9 -8 21 -23q3 -7 0 -32q-2 -19 4 -19q7 0 8.5 1.5t2.5 1.5l-6 -46q1 -2 -3 -3.5t-4 -8.5q0 -14 27 -24q31 -12 32 -15.5t2.5 -11.5t1.5 -10q-1 -28 4 -38q-15 25 -40 37q-3 1 -7.5 15.5t-15.5 15.5q0 -6 -2 -18.5t-2 -18.5q0 -31 22 -55q6 -7 39 -33q3 -6 10 -16q3 0 4 5
q1 4 -2 8q8 -5 12 -5q0 -2 -8 -10q7 -10 26 -27q15 -4 32 -13l14 -13q123 -67 132 -67q19 0 22 -4zM171 434h-12v8h12v-8zM760 623l-7 30h-7l7 -30h7zM695 609v17h-8v-17h8zM611 524q-9 9 -9 11q-71 -5 -58 -6q11 0 33.5 -2.5t33.5 -2.5zM110 776l-4 6l-16 -11l3 -6z
M100 753l-2 6l-11 -5v-7zM51 760l-6 3l-6 -12l6 -3zM94 730q-11 -13 -11.5 -35t-14.5 -36q8 0 16 8q4 -4 4 -13q6 17 6 76zM83 642l-6 3l-6 -12l6 -3zM70 631q0 -10 -8 -18q-3 5 -1 12q1 6 1 8q4 3 4 23q0 5 -4.5 13t-4.5 9q0 -7 -3 -22t-3 -21q-4 4 -4 9q0 -2 -3 -10.5
t-3 -10.5q17 -9 25 -28q11 22 4 36zM83 585h-8l-4 -30h7zM100 445q0 4 -2 16q-2 9 -1 13q-11 -1 -14 11q-2 9 -4 19q0 -16 -1 -41t-1 -29q0 -2 6.5 -6t6.5 -24q10 20 10 41zM97 307l-7 3l-6 -12l7 -3zM565 179q0 -9 -14 -14q-21 -7 -22 -7q4 -4 9 -4q-15 -17 -25 -17
q-30 0 -37 -4.5t-8 -4.5q-5 0 -13 7t-14 7t-14 -9t-13 -9q-10 0 -27.5 6t-27.5 6q-7 0 -14 -3q-3 6 -9.5 10.5t-9.5 9.5q9 0 31 4.5t34 4.5q11 0 18 -6.5t11 -6.5q23 0 58 18q6 2 16 9q7 5 26 5q13 -2 23 5.5t17 7.5q0 -1 2.5 -5.5t2.5 -9.5z" />
    <glyph glyph-name="exclamdown" unicode="&#xa1;" horiz-adv-x="218" 
d="M45 48q0 3 21 79q23 84 31 128q14 64 28 127q15 73 15 128q0 52 -28 67v22q72 -6 72 -82q0 -98 -45 -273q-29 -99 -57 -199q-1 -2 -20 -21q-17 17 -17 24zM101 710q-6 9 -6 17q0 27 48 27q25 0 32.5 -10.5t7.5 -35.5q0 -13 -6.5 -27t-13 -17.5t-25.5 -3.5q-20 0 -24 13
q-13 36 -13 37z" />
    <glyph glyph-name="section" unicode="&#xa7;" horiz-adv-x="835" 
d="M808 384q0 -76 -20 -130q-30 -79 -66 -121q-23 -27 -55 -55q-10 -9 -50 -34q-51 -31 -68 -31q-2 0 -22 -7.5t-33 -7.5q-3 0 -8.5 -1.5t-9.5 -1.5t-11.5 -2t-10.5 -3q-42 -3 -85 0q-14 1 -24 1q-30 0 -86 26q-43 19 -72 39q-40 28 -80 74q-54 62 -72 133q-17 68 -17 121
q0 137 84 245q91 117 243 144q30 6 109 6q4 0 11 -3t10.5 -3t27.5 -6.5t27 -6.5q20 0 100 -44q91 -60 138 -156q40 -84 40 -176zM790 384q0 43 -19 117q-15 56 -68 122q-58 72 -119 97q-55 22 -63 22q-4 0 -37 9t-37 9q-119 0 -200 -37q-98 -47 -163 -158q-48 -82 -48 -181
q0 -66 23 -127q35 -97 115.5 -165t179.5 -82q28 -3 93 -3q4 0 12 1.5t12 1.5t8.5 1.5t8.5 1.5t27.5 7.5t25.5 7.5t44 19q69 32 119 94q25 32 47 76q39 79 39 167zM644 633q0 -8 -16 -45t-22 -37q-5 0 -19 7q0 2 1 6q5 2 17 10q-2 12 -11.5 39t-9.5 30q0 4 4 8q19 -12 19 -40
q3 0 8 -6q6 12 18 37q11 0 11 -9zM577 619q0 -29 -25 -29q-4 0 -15.5 2t-16.5 2v41.5v42.5q15 -8 15 -25q3 -1 8.5 1.5t8.5 2.5q8 0 16.5 -15t8.5 -23zM438 637q-7 -8 -25 -9t-18 -10q0 -5 8 -13q5 0 14 9h11q0 -8 -1 -11q-5 -10 -15 -10h-11q-13 0 -21 16q-6 12 -6 19
q0 38 44 38q4 0 9.5 -10t10.5 -19zM371 594q-40 -10 -47 -10q-17 0 -17 27q0 22 19 35q7 2 23 10q3 10 3 12t5 7q1 0 9 -5q5 -18 5 -17v-59zM297 657q-1 0 -6.5 -1.5t-6.5 -1.5q-7 6 -1 18h14v-15zM495 446q0 -11 -12 -11q-4 0 -18 7v11q10 0 23 6q7 -7 7 -13zM304 637
q0 -2 -6 -9q-1 -11 -1 -53q-1 0 -7.5 -1.5t-9.5 -1.5q0 3 -1.5 8.5t-1.5 9.5q0 24 7 56q4 1 12 5q8 -8 8 -14zM431 448q-8 -5 -26 -16l-1.5 7.5t-1.5 16.5l8 1.5t18 1.5l3 -3v-8zM272 638l-10 -38q-6 -22 -17 -37q-15 5 -32 57q1 0 3.5 2t6.5 2t8.5 -10t7.5 -18
q11 3 16.5 21.5t16.5 20.5zM204 638l-4 -14h-14v9q-1 5 2.5 6t3.5 2q8 0 12 -3zM538 270l-11 5l5 31zM206 555q-5 -9 -20 -16q-1 46 3 73l-3 5h20v-62zM656 336q0 -24 -7 -34q-17 -16 -47 -52q0 -5 -5 -15q-18 -22 -54 -24q-30 -1 -61 -2q-6 -4 -4 -9q-37 -23 -48 -23
q-3 0 -17 7.5t-18 7.5t-40.5 -6t-39.5 -6q-34 0 -73 16.5t-58 16.5q-22 0 -62 -11q6 7 46 23t46 16q8 0 35 -24.5t43 -24.5h39q27 0 59 13q5 2 6 3.5t1 3.5q-2 4 -2 7q54 2 153 7q25 2 38 17q3 3 7 43q0 -5 7 -18q11 15 11 24q0 4 -6 21.5t-6 21.5q0 11 12 23q2 7 -11 7
q-17 0 -45 -25q1 -3 4 -3q-8 -9 -16 -10q-32 -7 -70 -7q4 0 -66 20q31 2 31 19q0 13 -18 24q5 -2 19 -8.5t18 -6.5q10 0 17 12q4 10 8 19v-31h24q11 6 35 15q-8 -8 -15 -22v-17l0.5 -1.5t5.5 -1.5l28 20q6 4 39 18q0 7 -4 17q-54 64 -146 106l-6 -6q-18 -3 -81 -24
q20 17 43 29q10 3 20 5q14 5 19 15h-50q-5 -1 -49 -20q-49 -21 -75 -36q-3 -2 -50 -36q-40 -30 -46 -30h-65q20 12 23 12q4 0 5 -1.5t4 -1.5q29 0 39 6q22 19 73 56q45 29 79 43q63 25 78 25q47 0 95 -31q38 -26 64 -60q13 -13 37 -46q6 -9 -4 -19q3 -6 16 -9t14 -3
q24 -20 24 -34zM179 539q-41 -25 -47 -25q-15 0 -13 26q0 23 23 46q12 2 14.5 8t8.5 23h11q3 -26 3 -78zM571 107q0 -23 -10 -42q-3 -4 -9 -9q-2 0 -8 -3.5t-11 -3.5q-18 0 -29 23q-9 18 -9 38q0 10 2 17q4 12 20.5 23.5t24.5 11.5q17 0 24 -26q5 -15 5 -29zM486 117l-7 -7
q-2 1 -9 16q-5 11 -10 11q-21 0 -21 -44q0 -27 5 -46q-13 -7 -21 -3v79q-1 6 12.5 19.5t18.5 13.5q32 0 32 -23v-16zM407 98q-6 0 -23.5 1.5t-20.5 1.5q-10 0 -10 -9q0 -34 23.5 -34t27.5 -4q-8 -11 -24 -11q-20 0 -31.5 18t-11.5 35q0 29 11 39.5t39 10.5q6 0 13 -11t7 -17
v-20zM325 135q-17 -17 -52 -56q33 -9 37 -9q11 0 15 -4v-10q-35 5 -50 5l-9 -3q-6 0 -20 7v14q12 20 52 54q-3 7 -25.5 10.5t-26.5 10.5v10q29 -6 79 -15v-14zM559 606v29q-7 7 -12 7q-4 0 -12 -7v-26q8 -7 14 -7t10 4zM412 640q3 8 -10 14l-7 -7v-11h14zM517 487l-17 10
l-2 -4l17 -10zM349 618q0 17 -10 18q-14 3 -14 -22q0 -11 4 -18h13q7 8 7 22zM641 324v20q-5 0 -12 1.5t-11 1.5q-10 0 -10 -18q0 -11 7 -31q1 1 13 4q13 11 13 22zM161 558q0 15 -11 20q-16 -19 -16 -30q0 -4 1.5 -9t1.5 -6q1 0 2 1t5 1q17 0 17 23zM465 209q-5 0 -16 2
t-14 2q-12 0 -19 -14q8 -4 19 -4q18 0 30 14zM556 107q0 39 -15 39q-13 0 -21.5 -12t-8.5 -29q4 -38 21 -38q4 0 4 1.5t3 1.5q17 0 17 37zM395 114q-3 6 -10.5 13t-10.5 7q-15 0 -18 -20q40 0 39 0z" />
    <glyph glyph-name="questiondown" unicode="&#xbf;" horiz-adv-x="700" 
d="M147 356q48 61 167 61q68 0 85 -4q13 -3 98 -34q25 37 25 105q0 6 -6 61t-6 60q0 12 18.5 24t35.5 10v-19q-4 -4 -8 -9q12 -97 12 -128q0 -45 -9 -89q-11 -64 -34 -64q-5 0 -48 21q-14 7 -38 15q-49 16 -58 18q-15 3 -66 3t-55 -1q-31 -4 -60.5 -28t-35.5 -70
q-3 -21 5 -41.5t17 -40.5q67 -160 241 -185q41 -6 69 -6q68 0 122 38q24 17 24 35t-28 46q-18 15 -36 31q21 5 58.5 -23t37.5 -54q0 -50 -67 -77q-53 -20 -133 -23q-45 -1 -105 19q-95 31 -146 87q-102 110 -102 188q0 40 26 74zM500 738q-5 9 -5 17q0 28 48 28q24 0 32 -11
t8 -36q0 -13 -6.5 -27t-13 -17t-25.5 -3q-20 0 -25 12q-12 37 -13 37z" />
    <glyph glyph-name="quoteleft" unicode="&#x2018;" horiz-adv-x="174" 
d="M54 673q7 63 72 68v-23q-15 -2 -19 -15t-6 -25q26 -5 26 -45q0 -14 -7 -26q-7 -16 -13 -19t-26 -3q-23 0 -31 10q-6 6 -10 27q-9 40 14 51z" />
    <glyph glyph-name="quoteright" unicode="&#x2019;" horiz-adv-x="174" 
d="M112 653q-6 -63 -71 -68v23q15 2 19 15t6 25q-26 5 -26 45q0 14 7 26q7 16 13 19t26 3q23 0 31 -10q5 -6 10 -27q9 -40 -15 -51z" />
    <glyph glyph-name="quotedblleft" unicode="&#x201c;" horiz-adv-x="290" 
d="M54 673q7 63 72 68v-23q-15 -2 -19 -15t-6 -25q26 -5 26 -45q0 -14 -7 -26q-7 -16 -13 -19t-26 -3q-23 0 -31 10q-6 6 -10 27q-9 40 14 51zM187 679q7 63 72 68v-23q-15 -2 -19 -15t-6 -25q26 -5 26 -45q0 -14 -7 -26q-7 -16 -13 -19t-26 -3q-23 0 -31 10q-6 6 -10 27
q-9 40 14 51z" />
    <glyph glyph-name="quotedblright" unicode="&#x201d;" horiz-adv-x="301" 
d="M112 653q-6 -63 -71 -68v23q15 2 19 15t6 25q-26 5 -26 45q0 14 7 26q7 16 13 19t26 3q23 0 31 -10q5 -6 10 -27q9 -40 -15 -51zM256 653q-6 -63 -71 -68v23q15 2 19 15t6 25q-26 5 -26 45q0 14 7 26q7 16 13 19t26 3q23 0 31 -10q5 -6 10 -27q9 -40 -15 -51z" />
    <glyph glyph-name="ellipsis" unicode="&#x2026;" horiz-adv-x="517" 
d="M128 68q5 -9 5 -17q0 -27 -47 -27q-25 0 -33 12q-8 9 -8 34q0 14 7 26q7 16 13 19t26 3t24 -13q13 -36 13 -37zM295 81q5 -9 5 -17q0 -27 -47 -27q-25 0 -33 10.5t-8 35.5q0 13 7 27t13 17t26 3t24 -12q13 -36 13 -37zM462 74q5 -9 5 -17q0 -27 -47 -27q-25 0 -33 10.5
t-8 35.5q0 13 7 27t13 17t25 3q20 0 25 -12z" />
  </font>
</defs>
</svg>
