<?xml version="1.0" standalone="no"?>
<!DOCTYPE svg PUBLIC "-//W3C//DTD SVG 1.1//EN" "http://www.w3.org/Graphics/SVG/1.1/DTD/svg11.dtd" >
<svg xmlns="http://www.w3.org/2000/svg" xmlns:xlink="http://www.w3.org/1999/xlink" version="1.1">
<metadata>
Created by FontForge 20230101 at Thu Nov 20 15:24:02 1997
 By Glenn Lewis
http://members.aol.com/vroomfonde/ttf/ - Donner Copyright (c) 1997 Tom Murphy 7 - Freeware! But not to be resold (on CD, for example!) - ImightbeTM@aol.com - Tom 7 - 339 Still Hill Rd - Hamden CT 06518 - USA - Enjoy! - It keeps us off the streets...
</metadata>
<defs>
<font id="Donner" horiz-adv-x="386" >
  <font-face 
    font-family="Donner"
    font-weight="400"
    font-stretch="normal"
    units-per-em="1000"
    panose-1="0 0 4 0 0 0 0 0 0 0"
    ascent="800"
    descent="-200"
    x-height="419"
    cap-height="616"
    bbox="0 -149 510 800"
    underline-thickness="20"
    underline-position="-143"
    unicode-range="U+0020-201D"
  />
<missing-glyph horiz-adv-x="500" 
d="M63 0v800h375v-800h-375zM125 63h250v675h-250v-675z" />
    <glyph glyph-name=".notdef" horiz-adv-x="500" 
d="M63 0v800h375v-800h-375zM125 63h250v675h-250v-675z" />
    <glyph glyph-name=".null" horiz-adv-x="0" 
 />
    <glyph glyph-name="nonmarkingreturn" horiz-adv-x="500" 
 />
    <glyph glyph-name="space" unicode=" " horiz-adv-x="500" 
 />
    <glyph glyph-name="glyph4" horiz-adv-x="1000" 
 />
    <glyph glyph-name="quotedbl" unicode="&#x22;" horiz-adv-x="475" 
d="M411 625q-12 -19 -28 -19q-9 0 -13 7.5t-8 14.5q-14 -59 -12 -106q7 -2 19 -6q-2 -4 -14 -10.5t-19 -5.5l-4 34l5 49q1 8 6 25t5 21t-18.5 18t-18.5 17q0 14 31 26q24 8 33 8q6 0 12 -5t6 -8h-4q-3 -2 -3 -14q-1 12 -14 12q-6 0 -16.5 -6t-10.5 -13q0 -4 14 -20
q22 -23 24 -26q8 4 17.5 8t9.5 14q2 -5 1 -15zM209 614l-4 -19q-8 2 -31 10q-19 7 -23 7q-9 0 -18 -5q-13 -103 -13 -92q0 -14 6 -14l21 3v-18h-20h-22q0 1 -1.5 7t-1.5 10q0 9 15 101q1 -1 -14 -1q-26 0 -26 31q0 21 10 42q12 25 30 25q8 0 18 -9l4 -2q-3 -50 -1 -61
q4 2 19 12q12 8 17 8q13 0 19 -10q15 -24 16 -25zM190 616v5q-5 6 -12 12h-8l-2 -6q16 -7 22 -11zM132 682q-7 7 -14 7q-9 0 -20 -28q-9 -24 -9 -30q0 -5 2 -8t2 -4q21 3 26 3q4 20 13 60z" />
    <glyph glyph-name="quotesingle" unicode="'" horiz-adv-x="244" 
d="M209 614l-4 -19q-8 2 -31 10q-19 7 -23 7q-9 0 -18 -5q-13 -103 -13 -92q0 -14 6 -14l21 3v-18h-20h-22q0 1 -1.5 7t-1.5 10q0 9 15 101q1 -1 -14 -1q-26 0 -26 31q0 21 10 42q12 25 30 25q8 0 18 -9l4 -2q-3 -50 -1 -61q4 2 19 12q12 8 17 8q13 0 19 -10q15 -24 16 -25z
M190 616v5q-5 6 -12 12h-8l-2 -6q16 -7 22 -11zM132 682q-7 7 -14 7q-9 0 -20 -28q-9 -24 -9 -30q0 -5 2 -8t2 -4q21 3 26 3q4 20 13 60z" />
    <glyph glyph-name="comma" unicode="," horiz-adv-x="189" 
d="M162 45l-4 -19q-8 2 -31 10q-19 7 -23 7q-9 0 -18 -6q-13 -102 -13 -91q0 -14 6 -14l21 3v-18h-20h-22q0 1 -1.5 7t-1.5 10q0 8 15 101q1 -1 -14 -1q-26 0 -26 30q0 22 10 43q12 25 30 25q8 0 18 -9l4 -2q-3 -51 -1 -61q4 1 19 11q12 9 17 9q13 0 19 -10q15 -24 16 -25z
M143 46v5q-5 7 -12 13h-8l-2 -6q16 -7 22 -12zM85 112q-7 8 -13 8q-10 0 -21 -28q-9 -24 -9 -31q0 -4 2 -7.5t2 -4.5q21 4 26 3q4 21 13 60z" />
    <glyph glyph-name="period" unicode="." horiz-adv-x="178" 
d="M0 55q0 23 20 39t48 16q27 0 47 -16t20 -39t-20 -39t-47 -16q-28 0 -48 16t-20 39z" />
    <glyph glyph-name="slash" unicode="/" horiz-adv-x="259" 
d="M226 725q-9 -5 -10 -18q-1 -74 -13 -185q-1 -9 -6 -13q-5 -28 -18 -85q-8 -25 -23 -77q-18 -65 -54 -194q-5 -5 -14 -16q-13 6 -29 6q-11 0 -33 -132q-4 -6 -11 -6q13 55 27 153l134 485q1 2 -3 11q7 15 15 14q1 -4 3 -1q25 74 23 85q5 7 10 7q-1 -29 2 -34zM212 694
q-21 -64 -56 -188q-33 -173 -47 -269q25 80 75 238q9 44 28 219zM135 455l-75 -297q15 -7 19 -2q-8 8 -8 21q-1 12 4 17l2 -2q6 -29 14 -42q5 24 11 66h4v29q0 40 12 109q16 89 17 101zM81 214h-5v14h5v-14z" />
    <glyph glyph-name="zero" unicode="0" horiz-adv-x="507" 
d="M479 212q0 -64 -48 -104q-10 -7 -31 -12l-30 -6q-16 -8 -48 -20q-67 -20 -84 -20q-87 0 -118 10h-5q-2 -3 -15 0q-12 19 -34 57q-15 30 -33 122q3 105 0 108q55 278 170 305q51 12 42 12q17 0 46 -14h-16q22 -12 59 -35q40 -26 64 -80q15 -41 31 -82q11 -25 23 -50
q13 -29 16 -49q11 -69 11 -142zM463 228q0 22 -5 41q-1 -33 -15 -75q-15 -50 -39 -77q10 2 22 7q37 38 37 104zM444 311q0 52 -13 92q-11 35 -47 104q-39 76 -81 108q-14 11 -45 23q-27 10 -32 10q-9 0 -18 -8q14 -5 29 -21q-41 17 -38 17q-30 0 -60 -47q-24 -37 -31 -71
q-7 -50 -10 -145q-3 -102 -8 -140v-99q5 -49 43 -63q17 -5 62 -5q41 0 92 11q55 13 82 31q75 50 75 203zM99 513q-17 -21 -36 -103q-17 -78 -17 -125q0 -80 31 -148q-4 16 -4 33q0 16 4 46.5t4 46.5q0 33 4 119q1 34 2 67q3 39 12 64zM374 341q0 -3 -3 -33q-2 -33 -3 -47
q0 -35 -6 -99l-4 -20q-3 -16 -10 -21q-10 -8 -34 -17.5t-38 -9.5h-18q-24 0 -46.5 28t-23.5 53q-1 21 -3 68q-2 42 -2 46q0 71 10 154q18 145 57 145q12 0 23 -19q0 6 -19 6q-24 0 -34 -56q-9 -47 -21 -149l2 -56q0 6 5 15q2 18 28 217q1 0 4.5 -4.5t7.5 -7.5
q80 -52 104 -89t24 -104zM358 341q0 60 -19 92q-23 39 -98 88q-8 -56 -16 -111q-14 -99 -14 -123q0 -3 6 -54q6 -56 8 -81q47 -2 120 -6q13 133 13 195zM325 132h-4q-37 2 -100 6q2 -13 25 -21q17 -7 27 -7q14 0 31 8t21 14z" />
    <glyph glyph-name="one" unicode="1" horiz-adv-x="360" 
d="M348 65l-26 -4q-23 -6 -27 -28q2 19 -1 31q-3 3 -11 3q-6 0 -6 -2q-2 -5 -3 -5h-33q-4 0 -8.5 -6t-7.5 -8q1 -8 0 -22q-8 25 -18 42q-26 2 -52 3q-35 3 -47 11q17 0 52 1t37 1q6 0 6 11q0 3 -4 24.5t-5 31.5v91q0 3 1 14t1 15v152q0 3 -6 87q-6 95 -8 141
q-33 -35 -73 -109l-66 -126l2 -16q28 57 61 116q6 3 11 2q2 -6 1 -11q-29 -48 -77 -132q0 1 -6.5 7t-6.5 11q0 19 9 35q49 94 83 156q2 4 24 32q16 21 16 31q0 5 -4 9q6 4 18 13q3 3 12 22q1 -1 3 -8t7 -7q-1 0 42 15q8 -10 6 -14q-5 -28 -5 -48q0 -4 9 -56.5t9 -57.5v-236
q9 -2 21 -11q6 -11 17 -69q5 -23 11 -46q7 -32 7 -51q0 -9 -1 -16q4 -2 23 -4q11 -1 13 -15zM243 463q0 63 -14 126q-4 21 -4 34q0 4 3 23.5t3 27.5q-5 -4 -39 -15v-19q1 20 23 -215q6 -67 -1 -146q16 1 24 -4zM301 94q-11 51 -31 154q-2 4 -12 12v-23q-4 -81 22 -152
q9 3 21 9zM261 86q-11 44 -20 173q-9 11 -27 11v-139q6 -16 11 -45h36z" />
    <glyph glyph-name="two" unicode="2" horiz-adv-x="469" 
d="M454 60q0 -10 -6 -28q-8 -23 -18 -23q-5 0 -15 2t-16 2q-6 6 0 21q2 -2 28 -6q10 -3 10 11v40q-27 -6 -55 -6q-14 0 -59.5 3.5t-82.5 3.5q-4 0 -22.5 -2.5t-28.5 -2.5q-6 -8 -13 -16q-9 -11 -18 -9q-3 -8 -18 -30q-10 2 -31 23q7 0 19 -6q5 10 17 30q-13 1 -39 6
q2 9 25 12.5t23 16.5q1 143 69 283q27 56 27 98q0 28 -11 80q-13 66 -31 66q-32 0 -44 -2q-42 -4 -66 -20q-10 -7 -36 -37q-22 -26 -28 -26q-5 0 -10.5 4.5t-7.5 4.5q7 56 54 93q42 32 90 32q11 0 34 -17q12 -9 23 -17q36 -7 71 -13q61 -16 61 -50q0 -24 -42 -110
q-5 -10 -35 -81q-28 -66 -63 -214l-19 -80q69 -6 141 -6q4 0 47.5 2t47.5 2q28 0 28 -34zM201 644q-32 23 -48 23q-35 0 -73 -25q-47 -31 -55 -82q7 -4 13 -4q35 46 80 69t83 19zM331 593q-19 16 -49 23q-25 4 -49 9q9 -17 21 -68q14 -55 14 -83q0 -29 -25 -89l-34 -78
q-33 -94 -34 -159q0 -7 -2.5 -23t-2.5 -20v-15q33 139 61 237q8 27 48 123q16 35 33 70q20 46 19 73zM170 71l-5 2l-4 -9l5 -2z" />
    <glyph glyph-name="three" unicode="3" horiz-adv-x="429" 
d="M402 452q0 -39 -39.5 -96.5t-87.5 -82.5q28 -37 43 -87q8 -39 30 -106q-16 2 -22 26q-3 18 -7 35q-7 25 -15 49q-11 34 -24 52q-2 -5 -10.5 -20.5t-8.5 -18.5t4.5 -37t4.5 -38v-27q5 -1 13 4.5t12 5.5q3 0 6 -2q-9 -14 -31 -32.5t-35 -23.5q-18 -8 -112 -24
q-26 -4 -29 -4h-61q-20 0 -29 12l3 5q69 16 149 16q3 0 7.5 -3t8.5 -3q11 0 46 16.5t37 21.5q6 14 6 38q0 40 -21 120q-20 -9 -18 -9q-3 0 -17 8.5t-18 8.5q-13 0 -19 -25t-17 -25h-18q2 21 -24 30q-21 6 -43 13q0 2 -2 9q33 -6 45 -10q30 -10 40 -28q4 0 5 3t10 23
q7 15 7 22q0 4 -1 6q11 15 27 15q9 0 17 -6q-8 -2 -25 -7v-2q36 -5 77 37q47 46 63 48q-8 99 -43 211q-2 7 -24 14q-50 17 -87 17q-20 -1 -47 -13q-34 -16 -40 -18q47 43 91 43q56 0 100 -24q2 1 3.5 5t2.5 6q12 -17 48.5 -44.5t47.5 -42.5q21 -30 21 -61zM367 71
q-2 -6 -2 -58q-4 0 -16.5 8.5t-15.5 8.5h-36q-14 0 -39 -4.5t-29 -9.5q-3 4 -12 4l8 14q-1 -4 1 -6l76 16h11q8 0 23.5 -6t18.5 -11q3 11 -1 44h13zM388 451q0 33 -20 57q-14 18 -64 56l43 -206q41 56 41 93zM273 245q0 4 -2 6.5t-2 3.5h-16q3 -17 7 -43q13 25 13 33z
M239 269q-36 -9 -33 -9q10 -10 13 -10q7 0 19 10q1 1 1 9z" />
    <glyph glyph-name="four" unicode="4" horiz-adv-x="311" 
d="M284 296q-10 -7 -38 -6q-49 2 -40 2q-9 -8 3 -56q6 3 21.5 11t25.5 14q-1 -9 -46 -33q18 -111 31 -174q-2 -1 -10.5 -7.5t-12.5 -6.5q-16 0 -14 28q6 0 19 -9q2 24 -10 71q-14 57 -15 63q-13 -6 -41 -18q7 -23 33 -123q4 -15 1 -24q-9 0 -14 7q-13 41 -19 76t-16 75
q38 12 56 24q-12 54 -15 81h-6q-7 -7 -6 -35q2 -19 3 -39q-2 22 -11 67q-15 0 -44 -6q-4 -1 -20.5 -9t-20.5 -8q-3 0 -8 3t-9 3q-2 0 -21 -9q-7 7 -7 21q0 -9 -2 52q-1 56 -1 96q1 56 6 75q1 -17 16 -101t15 -103q57 11 94 12q-6 61 -14 232q-1 11 -8 44.5t-7 36.5
q0 7 7.5 13.5t14.5 6.5q3 0 8 -5t9 -5q7 0 19 7q3 -3 9 -14q33 -143 33 -142q0 -18 -10 -18q-4 0 -15 7q-14 8 -18 10q-4 -44 8 -170q25 -6 58 -6q3 0 6 1v9q9 -7 23 -21zM219 478v15q0 1 -32 124q-2 3 -14 4q5 -45 16 -132q10 -4 30 -11z" />
    <glyph glyph-name="five" unicode="5" horiz-adv-x="489" 
d="M457 244q0 -28 -31 -67q4 -20 4 -42q0 -66 -41 -66q-4 0 -28 -4q28 8 39 15q20 12 21 33q1 1 2 4q-2 9 -3 7q5 -4 5 3q0 4 -1.5 6.5t-1 4.5t-1.5 9.5t-2 12.5q1 2 -1 5q-13 -16 -38.5 -50t-38.5 -50q6 0 14 -4q-8 0 -11 -1q-6 -19 -21 -22q-101 -21 -99 -21h-63
q-4 0 -11.5 3t-11.5 3t-25 11.5t-23 16.5l3 6q7 18 17 18t28.5 -12t22.5 -19q-15 11 -36 19h-4q2 -8 8 -19q17 -9 55 -9q43 0 98 12q40 9 49 36q7 19 7 86q0 33 -15 107q-4 16 -8 33.5t-14 21.5q-14 7 -60 7q-38 0 -64 -17l11 12q-9 3 -20 3q-17 0 -49 -8q-35 -10 -45 -11
q11 7 36 24q-2 1 -27 1l10 8q6 -4 17 1l-6 140q-5 74 -18 115q1 5 -4 31q-15 1 -15 -16q0 -9 2 -32t2 -36q0 -21 6 -57q7 -43 8 -60q1 3 -5 21q-7 -48 -17 -141q-7 -4 -19 3q23 46 23 145q0 60 -4.5 75t-23.5 49q-19 31 -19 33q0 10 8 13l21 6q-5 3 -14 3q6 -1 11 -1
q13 0 24 10q8 9 15 18q12 -12 10 -26q111 4 335 11v-14q-4 0 -95 1q-1 -6 -1 -12q-1 -9 -13 -19q10 -3 32 -11q-12 -8 -21 -8q-3 0 -15.5 5t-17.5 6q-57 12 -124 12q2 0 -71 -8v-16q4 -23 10 -69q2 -35 6 -104q1 -16 1 -66q16 -5 31 -5q3 0 8.5 -1.5t8.5 -1.5q4 0 36.5 4
t36.5 4q1 0 28 -3q19 -3 28 2l2 2q4 -6 28 -9q28 -4 30 -4q12 -10 40 -27q59 -33 59 -69zM330 633q0 4 -105 5h-129q6 -20 6 -25q56 11 76 11q3 0 27 -1.5t27.5 -1.5t23.5 -3t23 -3h20q3 0 5.5 -2.5t6.5 -2.5q5 0 12 8.5t7 14.5zM439 246q0 16 -34 43q14 -45 18 -90
q16 27 16 47zM57 574q1 9 0 26q-2 22 -2 27q-20 -4 -23 -4q10 -19 25 -49zM413 195q0 11 -10 54.5t-14 49.5q-7 4 -20 11q-19 11 -54 16q35 -84 35 -180q0 -25 -2 -51q17 24 34 47q31 44 31 53zM121 46q0 3 -1.5 10t-1.5 10h-16q-2 -9 7 -15q6 -2 12 -5z" />
    <glyph glyph-name="six" unicode="6" horiz-adv-x="409" 
d="M380 202q0 -37 -17 -72q-20 -42 -52 -48q-30 -2 -86 -8q-25 -3 -66 -18q-1 0 23 0q-57 -16 -66 -16q-3 0 -11.5 3t-11.5 3t-10.5 -4.5t-11.5 -4.5q-12 0 -27 19q-12 16 -17 30q7 7 12 7l1 32q1 37 1 93q1 82 2 101q2 49 9 87q1 4 21 85q13 54 13 86v23v22q5 -1 17 12
q16 17 18.5 18.5t81.5 45.5q-13 -12 -38 -33q17 -1 56 -3q22 -1 80 -15q73 -18 73 -32q0 -8 -11 -55q1 8 -2 51q-3 5 -7 7q-40 13 -66 21q-36 10 -86 16q-6 0 -22.5 1t-19.5 1q-7 0 -45 -30q32 0 95 -2q21 -2 36 -10q21 -1 54 -16q37 -17 53 -37q-69 42 -125 51
q-20 3 -110 3q-7 0 -15 -4.5t-8 -8.5q2 -12 4 -35q0 -3 -22 -92q-4 -15 -11 -53q-13 -79 -13 -114v-226q5 -5 16 -5q18 0 29 40q8 30 8 50v149q-5 9 -7 28q-3 31 -4 33q7 -23 17 -77q3 -3 6 -3v-151q0 -3 -2.5 -9t-2.5 -9q1 -13 1 -38q-2 -13 -14 -37q3 -2 18 -2
q13 0 37.5 13t34.5 15q54 12 79 11q65 -4 86 57q10 28 10 54q0 46 -22 62q-3 -46 -36 -98q-36 -55 -72 -55q-30 0 -47 30q-14 26 -14 59q0 28 8 74.5t16 64.5q3 6 3 22q-19 -11 -50 -42q-1 3 -1 7q0 10 20 27q25 21 27 23q-21 16 -57 18h-60q12 0 44 4t34 4t24.5 -7.5
t26.5 -7.5q1 0 20.5 10.5t33.5 10.5q20 0 36.5 -20.5t34.5 -72.5q0 -9 5 -26q41 -49 41 -87zM195 60l-9 -3v4l7 4zM320 308l-20 52q-17 33 -40 33q-16 0 -33 -16q32 -23 93 -69zM330 259q0 23 -43 56q-34 26 -68 51q-31 -59 -31 -145q0 -46 6 -64q11 -33 44 -35
q25 3 58.5 53t33.5 84zM99 90q-13 -26 -27 -26q-8 0 -19 5q17 -11 28 -11q5 0 11.5 13t6.5 19z" />
    <glyph glyph-name="seven" unicode="7" horiz-adv-x="530" 
d="M510 622q-26 -3 -70 -15q-6 -2 -14 -27q-5 -21 -16 -60q-5 -15 -28 -93q-20 -67 -73 -188q-75 -173 -81 -189q-9 -21 -24 -21q-4 0 -28 7q-27 9 -40 10q19 23 54 75q11 20 28 92q11 45 32 126q22 93 43 151q19 55 39 109q-24 -2 -84 -8q-55 -6 -57 -6q-4 0 -46.5 3.5
t-46.5 3.5q-8 0 -8 4q46 1 92 1q32 1 70 10q-97 14 -136 14q-52 0 -63 -5q10 -7 19 -13q11 -9 11 -20q0 -4 -5.5 -9.5t-7.5 -8.5t-5 -26q-2 -19 -13 -30q-21 4 -32 78q4 4 4 8q5 0 11 -7l0.5 -0.5t0.5 0.5q1 2 1 5q0 10 -13 28q6 -6 18 -6q7 0 9 11q24 9 47 9q4 0 94.5 -8
t94.5 -8h52q5 24 17 62l8 -2q1 -9 -13 -61q20 0 62 2t41 2q3 0 17 3t20 4.5t15 1.5q4 -6 4 -9zM77 583q-9 21 -36 25q12 -39 12 -64q0 -14 -2 -19q-3 0 -7 4q0 -4 4 -10q8 6 12.5 31.5t16.5 32.5zM424 604q-54 1 -79 -3q-6 -41 -11 -82q-8 -51 -20 -83q-3 25 5 59
q10 42 11 64q-38 -98 -63 -178q-7 -46 -29 -110q-7 -36 -18 -101q-6 -40 -64 -110q36 -18 43 -18q10 0 48 91q39 81 106 245q25 69 71 226zM44 533l-10 45h-5l10 -45h5zM316 432l-4 -13l-5 2l4 11h5zM313 412l-4 -13l-5 2l4 11h5zM309 389l-4 -13l-4 2l4 11h4z" />
    <glyph glyph-name="eight" unicode="8" horiz-adv-x="455" 
d="M430 289q0 -71 -86.5 -175t-141.5 -104q-4 0 -7 -1.5t-7 -1.5q-60 0 -89 78q-19 53 -19 111q0 30 7 68q8 43 18 57q-3 13 31 76q0 6 -37 40q-13 2 -36 17q-39 41 -39 67q0 36 116 66q5 1 27 22q-5 2 -18 -4q2 13 12 17q91 29 94 29t31 -9q10 0 31 -2q45 -7 67 -45
q18 -31 18 -71q0 -87 -31 -122q41 -43 50 -59.5t9 -53.5zM389 524q0 38 -18 67q-24 38 -70 38q-47 0 -66 -3q-43 -7 -68 -33h13q27 3 74 4q3 -2 0 -2q-27 -7 -72 -14q87 0 122 -15q9 -4 28 -26q23 -28 23 -47q0 -17 -42 -33l-66 -24q22 -4 62 -12q10 -2 27.5 -10t20.5 -8
q5 0 15 20q17 35 17 98zM337 487v14q0 27 -36 46q-32 18 -65 16q-48 -2 -90 7q-16 -25 -31 -50q-10 -20 -10 -44q0 -36 34 -36q4 0 17.5 1.5t17 1.5t24.5 19t43 19q16 0 22 -7q-19 0 -42 -5q-2 -2 -7.5 -6.5t-6.5 -5.5q-5 -1 49 -1q14 0 81 31zM340 399q-15 5 -52 13
q12 -24 18 -24q2 0 34 11zM240 448v6h-33v-6h33zM284 389q-18 27 -25 27q-3 0 -5 -1.5t-6 -1.5h-28q-4 0 -10.5 -3.5t-10.5 -3.5q-3 0 -11 8q2 2 3 4l2 4q7 0 19.5 2t19.5 2q-5 0 -14 2.5t-13 2.5q-18 0 -24 -9q-5 -14 -11 -27q56 -10 45 -10q45 0 69 4zM132 573
q-11 -1 -50 -18q-45 -20 -45 -36q0 -17 21 -40q18 -18 34 -26q0 3 1 8q-1 8 -1 16q0 37 40 96zM160 427q-25 0 -43 3q21 -21 26 -21q9 0 17 18zM337 267q0 23 -17 59q-12 25 -24 49q3 0 -103 0q-2 0 -29 9q-19 -105 -19 -131q0 -48 15 -81q21 -44 64 -44q45 0 81 54
q32 47 32 85zM417 292q0 -1 -4 32q-1 7 -23 35.5t-35 28.5q-4 0 -8.5 -1.5t-8 -1.5t-13.5 -3.5t-13 -3.5q40 -78 40 -114q0 -30 -26 -79q-30 -55 -62 -63q-43 -10 -34 -10q-3 0 -9 1.5t-10 1.5q-24 0 -49 30q-23 27 -26 49q-7 54 -7 45q0 44 21 155q-58 -88 -58 -198
q0 -64 17 -108q26 -66 84 -66q59 0 141.5 100t82.5 170z" />
    <glyph glyph-name="nine" unicode="9" horiz-adv-x="374" 
d="M336 179q0 -18 -11 -19v-88q0 -3 4 -28t4 -28q0 -8 -6 -20q-6 1 -19 9q9 1 11 6q2 3 0 9q-2 8 -2 9q0 -9 -5 33q-2 13 1 36q3 27 3 36q0 18 -6.5 32t-33.5 22q-23 7 -23 19q0 3 14 66.5t14 65.5v16q-19 -11 -56 -33q-6 -3 -37 -14q-39 -13 -53 -13h-27q-16 0 -44.5 16
t-34.5 30q-20 50 -20 75q0 38 21 81q27 55 71 76q13 4 36 13l12 16q12 15 22 15q22 0 42 -17.5t39 -34.5l17 7q6 -16 10 -56q5 -47 9 -61q6 5 10 2q-1 51 3 96q2 -20 8 -73q5 -47 5 -50v-124q0 -23 11 -73t11 -54zM266 507q-1 16 -6 45q-5 1 -15 10q7 -14 21 -55zM192 589
q-6 14 -14 14q-5 0 -14.5 -6.5t-13.5 -7.5h42zM301 374v35h-5v-35h5zM258 480q0 10 -12 42t-17 37q-17 22 -47 22q5 0 -36 -3q-8 -18 -16 -43q-21 -67 -21 -84q0 -49 46 -49q30 0 66.5 25t36.5 53zM283 394q-7 31 -12 80q1 -3 1 -5q0 -21 -41.5 -50t-73.5 -29q-25 0 -42 14
t-17 37q0 50 35 133q-54 -13 -85 -69q-25 -44 -25 -87q0 -111 101 -111q35 0 95 25q3 1 31 20q22 14 29 11zM308 183v21q1 10 -15 117q-15 -66 -26 -116q15 -7 41 -22z" />
    <glyph glyph-name="question" unicode="?" horiz-adv-x="432" 
d="M297 563l-13 -3v5l13 3v-5zM403 520q0 -7 -6.5 -33.5t-8.5 -29.5q-4 10 0 30q4 27 4 33q0 25 -17 42.5t-42 17.5q-11 0 -15 -4q12 -6 34 -19q22 -18 22 -64q0 -25 -11 -84q-5 -3 -7 -3q-10 10 -17 10q-3 0 -29.5 -9t-29.5 -9h-7h-5q-4 -160 1 -221q-1 -2 -5 -6
q-6 5 -5 14t-2 12q-3 -17 -12 -52q-9 5 -9 9q0 3 7 54t7 54v134q-6 1 -20 4q-7 -7 -7 -35q0 -3 8 -57.5t8 -58.5v-62q-3 4 -7 11q-2 23 -8 90q-6 62 -6 64v49q-14 4 -33 8q4 4 36 4q6 0 36 13q3 7 0 20q-3 11 4 20q6 -5 6 -17q1 -16 3 -21q32 5 58 24q32 22 32 50
q0 18 -15.5 39.5t-32.5 21.5q-5 0 -9 -2q0 -1 7 7q-6 6 -43 6q-99 0 -184 -93q9 -2 28 -11q2 -5 -1 -17t-3 -16q0 -10 12 -12q1 -4 -8 -9q-4 4 -11 13q-5 -5 -13 -5q-6 0 -37 19q1 -4 0 -15q-4 -1 -9 -3.5t-6 -9.5q4 8 4 15t-6.5 19t-8.5 20q-5 -4 -14 -10q38 40 112 93
q52 38 227 38q22 0 39 -28q15 -23 15 -42zM276 46q-2 -6 -6 -16q-2 -2 -15.5 -9.5t-13.5 -18.5q3 8 3 14q0 9 -11.5 17t-11.5 18q0 5 13 11t18 6q1 0 24 -22zM357 466q-24 -33 -89 -52h27q4 0 24 7.5t23 7.5t7.5 -1t5.5 -1q2 11 2 39zM257 410v4h-15v-4h15zM166 558
q-81 -36 -104 -67q7 -6 12 -6l36.5 31t55.5 42zM104 460q-12 12 -25 12q-1 0 -22 -20q26 -22 42 -20q-1 10 5 28zM67 476q-8 8 -8 19q-4 -4 -14 -11t-14 -11q16 -12 22 -17q7 8 14 20zM263 44q-1 0 -6 1.5t-9 1.5q-8 -8 -3 -13q13 0 18 10z" />
    <glyph glyph-name="A" unicode="A" horiz-adv-x="411" 
d="M399 186q0 -20 -22 -36q3 -19 10 -58q-7 17 -21 49q-45 -51 -99 -84q-63 -38 -115 -38q-4 0 -8.5 -1.5t-6.5 -1.5q-9 0 -31 23q-13 13 -19 42l-10 50v106q9 44 13 58q9 35 20 57q4 8 21.5 22.5t23.5 24.5q1 3 8 45q6 38 25 59h22q24 -27 45 -111q63 -50 61 -66
q-17 18 -52 39q-2 -2 -2 -9q2 -7 46 -247q10 8 53 49q-44 151 -53 394q-1 28 -4 38q-7 21 -27 23q-3 -2 -1 -6q2 -8 2 -13q-5 -1 -43 -10q-27 -6 -40 -17v-26q15 -2 19 5q-5 -10 -17 -24q-16 9 -16 31q0 9 -7 9q-6 0 -77 -31q0 -2 4 -7.5t5 -8.5l-3 -8q-10 10 -49 23
q-32 10 -32 26t19 31q27 21 31 26q-14 -15 -28 -31q-18 -20 -18 -26q0 -11 17 -16.5t26 -3.5q34 11 100 38q6 4 7 18v25l24 -26q22 5 46 19q20 12 46 13q10 -4 10 12q0 25 -18 25q-5 0 -56 -15q-61 -18 -83 -24q-2 16 12 22q22 4 67 14q19 8 38 15q27 11 39 8q20 -19 23 -61
l10 -226q9 -135 37 -225q6 6 28 18zM238 397l-14 49q-9 31 -31 41q-11 -17 -16 -40.5t-9 -45.5q35 4 70 -4zM293 101v34q1 8 -18 95q-20 91 -34 145q-29 11 -73 9v-64q0 -8 11 -66q12 -61 21 -96q6 -22 23 -54q-5 0 -11 8q-60 125 -57 257q-31 -18 -49 -92q-13 -55 -13 -101
q0 -76 29 -124q8 -14 36 -14q22 0 64.5 18t59.5 35q-6 9 -20.5 19t-17.5 14q5 1 9 1q12 0 24 -9q8 -7 16 -15z" />
    <glyph glyph-name="B" unicode="B" horiz-adv-x="501" 
d="M487 402q0 -35 -55 -103q-43 -54 -82 -86q-15 -8 -36 -28q-9 -17 -3 -72q-5 -4 -12 -2q-4 -2 -30 -13q-21 -9 -26 -9q-10 0 -21 26q-13 31 -19 36q-26 -4 -109 2q-4 -77 12 -146q-2 -2 -9 -4.5t-9 -4.5q-3 10 -5 20q-6 14 -19 22q-6 3 -15 7q-1 0 -3.5 2t-2.5 8
q0 5 10 15t11 13q-4 -9 -13 -25q22 -11 24 -11q0 55 -8 107q-3 -15 -13 -49q-7 -1 -10 3q4 14 3 139q-4 98 -27 277q-11 -3 -11 -28q0 9 -1 26q4 4 10 12q-5 131 -1 196q9 -14 12 -56q4 -72 5 -73q0 -20 2 -59q23 -13 53 -51q50 15 90 17q4 6 13 43q6 24 26 24q4 0 39 -29
q-24 13 -37 13q-18 0 -18 -38q0 -10 6 -10q65 0 83 1q-4 43 -5 45q-6 22 -28 39q27 -10 37 -40q1 -5 9 -53q12 0 31 -5q31 -12 95 -33q57 -15 57 -65zM22 327l-13 1l3 11l3 -6zM468 404q0 23 -17.5 32.5t-137.5 48.5v-269q25 13 84 75q71 74 71 113zM297 205q-1 -17 -1 284
h-98l4 -132q-1 -14 -1 -30q0 -72 18 -146q3 -3 8 -3q41 9 70 27zM201 173q-23 139 -23 241q0 74 -1 79q-44 -5 -82 -12q19 -59 19 -108q0 -14 -23 -200h110zM99 373q0 21 -8.5 57.5t-14.5 41.5q0 -5 3 -10t1 -6q-20 -2 -20 6q0 6 13 22q-7 19 -33 45l29 -361q4 37 18 124
q12 76 12 81zM296 176q-47 -16 -70 -21q7 -15 16 -46q33 8 45 17q2 22 9 50z" />
    <glyph glyph-name="C" unicode="C" 
d="M368 143q-14 -28 -62 -52t-84 -24q-58 0 -117.5 51.5t-73.5 111.5q-1 4 -1 41q0 61 37 183q-3 12 -2 35q18 42 20 77q23 12 73 25q2 1 14 9.5t17 8.5t8 -3.5t8 -3.5q101 0 109 -1q0 -9 8 -17q-6 -10 -20 -24q-11 -5 -32 -5q-5 0 -13.5 -1.5t-13.5 -1.5t-37.5 9.5
t-37.5 9.5q-9 0 -32 -45q-23 -41 -45 -82q-31 -58 -31 -85q0 -41 21 -54q15 30 30 76q31 95 55 163q-2 -44 -28 -123q-42 -125 -43 -129q34 -19 65 -49q0 -14 -13 -14q-5 0 -7 -2t-7 -2q6 0 -63 11q-15 1 -25 -1q11 -22 31 -61q16 -27 52.5 -54t58.5 -28l2 2q3 0 11.5 -2
t13.5 -2q109 0 109 102q0 3 11 25q-3 -31 -13 -97q8 6 29 28zM112 164h-6l-5 13l6 2zM306 586q-38 4 -98 4q-15 0 -28 -14q24 -11 60 -12h62q0 1 4 22zM145 574q-17 -4 -49 -16q-1 -21 -11 -60q12 18 60 76zM104 496l-6 2l-8 -18l5 -2zM81 489h-6l-4 -13l5 -2zM93 478h-7
l-4 -18h6zM145 238q-35 27 -61 40q0 -6 -4 -18t-4 -15q35 -9 69 -7zM76 290q0 5 -12 19t-13 20q-7 -34 -5 -65q4 0 10 -4t7 -4q13 37 13 34z" />
    <glyph glyph-name="D" unicode="D" horiz-adv-x="469" 
d="M455 690q-9 -53 -34 -157q-4 -9 -34 -17q-4 -5 -13 -12l-4 5q-14 7 -14 -19q0 -4 5 -46q5 -47 7 -65q6 -89 6 -173q0 -73 -4 -120q-15 0 -46 -4q-34 -4 -47 -5q-14 -18 -27 -36q-25 -29 -38 -29q-18 0 -31 28q-6 17 -13 33q-25 3 -51 6q-29 6 -48 26q-11 11 -26.5 61.5
t-15.5 75.5q0 51 66 131q5 17 24 43q5 4 23 7t25 6q6 10 19 24q22 16 41 16q4 0 14.5 -12.5t14.5 -12.5q2 0 15.5 5.5t27.5 5.5q13 0 48 -15q0 19 -7.5 57t-7.5 41v138l9 -18q0 12 4 33q2 -55 4 -109q3 -65 9 -65q8 0 22 14q1 44 -13 168q-4 6 -17 6q-17 0 -33 -10
q5 7 22 16q6 -2 11 4q-3 4 -18 3q12 6 31 6q4 0 13.5 -8.5t12.5 -9.5q23 -6 68 -16zM440 687q-4 0 -65 11q14 -84 11 -165h20q10 22 34 154zM237 440q0 6 -8 15q-16 -3 -43 -21q41 6 51 6zM363 101v83q3 155 -15 236q-3 16 -20 19q-3 1 -26 1q2 0 -46 -12v-41
q0 -5 20.5 -125t20.5 -125q0 -18 -19 -51q31 4 85 15zM278 145q0 23 -14.5 103t-14.5 76q0 3 -4 42t-5 53l8 5h-27q-20 2 -45 -12q-7 -3 -12 -34q-4 -25 -4 -43q0 -3 12 -98q14 -104 18 -151h73l14 32q1 5 1 27zM171 86v46q0 5 -13 101t-13 100q0 37 9 77q-23 -7 -33 -9
q-11 -22 -55 -79q-28 -36 -28 -78q0 -39 29 -109q4 -12 13 -26q35 -23 69 -23q23 0 22 0zM256 74h-70q9 -47 26 -47q9 0 44 47z" />
    <glyph glyph-name="E" unicode="E" horiz-adv-x="484" 
d="M450 50q-23 -15 -37 -15h-55q-4 0 -104 -2t-104 -2t-13 -1.5t-13 -1.5q-9 0 -29 8q-12 16 -21 55q-6 32 -13 64q-9 41 -15 106q-9 101 -9.5 106t-12.5 10q5 0 11 3q7 40 2 65q-1 3 -5.5 10t-4.5 13q0 10 10 34q43 109 219 109q22 0 43 -15q31 -23 42 -59q7 -21 10 -69
t11 -73q-9 21 -14.5 72.5t-14.5 73.5q-16 37 -56 50q-15 3 -43 10q-23 -1 -64 -8q-39 -12 -76 -33q6 -123 6 -194q19 -5 61 -14q2 42 11 125q2 15 14 39q14 29 25 29q9 0 13 -8.5t7 -16.5q1 -2 11 -8q20 -33 28 -73q9 -47 17 -119q5 -6 25 -6q5 0 11 -1.5t10 -1.5
q29 0 27 13q5 -2 17 -7q0 -7 -4 -16q-24 -8 -41 -8q5 0 -36 4q-2 -8 -4 -23q-45 -33 -70 -33q-28 0 -43 34q-12 25 -13 58q-21 6 -62 20q-2 -71 6 -128l6 -4l8 -7q-4 -2 -14 -49q-2 -10 -23 -40q0 -52 19 -52q4 0 19.5 5t19.5 5q6 0 33 -8q-47 -6 -81 -15q0 -9 12 -13.5
t36 -4.5q3 0 18.5 2t22.5 2q57 2 162 2h37q4 0 17.5 2t17.5 3q7 5 3 9q10 -3 27 -12zM272 318v19q1 17 -15 91q-4 19 -7 39q-6 24 -17 31q-7 4 -28 4q5 15 11 17q5 -1 11 -1q-9 16 -17 16q-14 -11 -24 -62q-8 -44 -8 -83q0 -34 4 -40t27 -10q31 -5 63 -21zM86 367v188
q-15 -18 -37 -51q8 -8 4 -23q-5 -19 -5 -29q0 -49 5 -78q12 0 33 -7zM279 280q-2 10 -5 22q-32 9 -92 29q5 -22 11 -43q8 -30 32 -30q10 0 54 22zM97 181q0 2 -7 70q-9 73 -11 108q-19 0 -26 7q7 -73 25 -209q0 23 3 28q2 -7 4 -21l3 -21q9 19 9 38zM235 472h-6l-4 23h6z
" />
    <glyph glyph-name="F" unicode="F" horiz-adv-x="423" 
d="M401 448q0 -19 -12 -50q-3 13 -4 49q0 31 -9 45q-6 11 -26 13q-15 1 -30 1q-39 8 -78.5 24t-40.5 17q-24 8 -57 14q-2 -2 -2 -14q0 1 4 -22q8 -4 24 -16h-19q-8 0 -9 -1v-8q0 -56 13 -175l46 3q-12 6 -26 6q3 0 11 1t14.5 1t40.5 17q3 -14 12 -40q-15 -15 -28 -15
q-4 0 -12.5 1.5t-13.5 1.5q-5 4 -40 4q-2 -5 -2 -15q0 -19 6.5 -58.5l6.5 -39.5q0 -18 -15 -25q-32 -16 -41 -23l5 -38q2 -14 5 -27q4 -19 3 -51q-13 31 -21 63l-11 4q-3 18 -12 53l5 4q9 42 9 47q0 32 -6 89q-5 0 -5 -11q-14 14 -36 18q-35 6 -39 7q4 10 30 44
q-8 -15 -7 -29q25 -11 43 -16q15 17 16 22q1 1 1 20q0 3 -13 108q-2 26 -3 51q-3 31 -19 42q10 -5 14 -5q0 6 1.5 14.5t1.5 9.5l22 32q17 24 36 28q7 -21 8 -42q54 -21 165 -58q19 0 56 -2q7 -6 23 -20q5 -4 10 -23.5t5 -29.5zM121 579q-1 -2 -1 27q-12 -10 -30 -27h31z
M125 531q-12 10 -21 14q2 2 3 4.5t3 4.5q4 0 8.5 -3.5t5.5 -3.5v17h-30l-3 -30q5 0 16.5 -1.5t17.5 -1.5zM226 321v6h-11v-6h11zM135 322v37q0 21 -12 156q-4 2 -33 11v-29q0 -4 6 -31q5 -31 7 -42q9 -85 8 -105q6 0 14.5 1.5t9.5 1.5zM156 186q-14 75 -18 118
q-10 -2 -27 -7q0 -65 2 -104q2 -31 2 -30q15 7 41 23z" />
    <glyph glyph-name="G" unicode="G" horiz-adv-x="368" 
d="M343 404v-132q-8 -60 -17 -120q-9 -73 -7 -125q-4 -6 -9 -11q-7 -9 -17 -9q-23 0 -57 21q-25 15 -49 29q-15 8 -44 22q-22 9 -67 22q-25 7 -40 21q7 14 37 24q23 7 34 7q34 0 71 -8q-3 -1 -25 -6q-2 -13 -3 -25q-1 -13 7 -19q23 -21 64 -39l72 -30q1 1 3 6q5 63 28 237
l-2 78q-26 -15 -26 -35q0 -7 4 -20.5t4 -20.5q0 -4 -1 -8q-3 18 -14 55q-48 -29 -65 -29q-51 0 -98 50q-43 47 -56 104q-8 37 -8 85q0 43 23 71q14 18 67 58q5 3 14 22q0 -6 -6 -19q39 7 66 14q-25 45 -47 45q-13 0 -30 -32q-10 -21 -20 -41q-1 12 12 46q16 42 39 42
q16 0 38 -27q12 -17 25 -35l40 -2q27 -4 45 -18q-4 -5 -18 -12q13 -67 33 -236zM279 655q-5 0 -17 3q-9 1 -12 0v-5q5 -4 9 -4q3 0 9 3t11 3zM328 358v35q2 42 -26 249q-20 0 -34 -2t-12 -2q37 -127 44 -291q4 8 15 18q4 -2 13 -7zM255 555q0 16 -8.5 54t-14.5 48
q-31 -3 -40 -5q-24 -4 -38 -14q-2 -18 -8 -28q36 11 65 8q-3 -3 -5 -4q-45 -4 -54.5 -14.5t-9.5 -53.5q0 -51 12 -88q4 -12 17 -28.5t18 -16.5q28 0 49 60q17 49 17 82zM145 631q-19 -4 -44 -33t-20 -43q23 19 59 55q5 6 5 21zM292 351q0 55 -24 189q-5 -31 -14 -63
q-5 -17 -19 -39q-23 -36 -46 -36q-58 0 -58 162q0 5 1.5 14.5t1.5 12.5q-19 -7 -38.5 -37.5t-19.5 -44.5q0 -12 11.5 -32.5t23.5 -31.5l2 2h2q22 -48 111 -91q-31 -2 -79 35q-44 33 -66 69q13 -58 47 -101q43 -56 105 -56q59 12 59 48zM141 99v43q-25 -2 -50 -5
q-17 -2 -37 -11q31 -10 87 -27z" />
    <glyph glyph-name="H" unicode="H" horiz-adv-x="423" 
d="M401 215q0 -34 -16 -61t-16 -66q1 -57 -1 -68q-1 8 -43 273q-32 2 -95 26q-58 22 -86 22q0 -6 21 -122q16 -86 16 -138q0 -61 -25 -71q1 3 1 6q0 10 -13 30q-12 16 -24 33q-3 -20 -15 -60q1 32 -3 95q-11 35 -25 103q-10 93 -10 87q0 31 2 38q5 13 28 23v46q-6 1 -12 1
q-11 0 -24.5 -4.5t-15.5 -4.5q-18 0 -18 22q0 4 7 44.5t7 45.5q0 61 -29 129q11 16 42 16q8 0 39 -21q-7 0 -21 6l-44 -4q7 -28 15 -56q13 -50 13 -68q0 4 -15 -93q7 0 25 2t27 2q2 35 6.5 105t6.5 105q-1 -40 1 -108q1 -84 1 -103q1 -1 5 -4q0 -1 -3 -3t-3 -8v-47
q8 -1 24 -6q2 3 2 14t2 15q9 -17 9 -34q55 -14 173 -44q-8 11 -29 24q-31 18 -34 20q28 2 69 -26q6 -10 19 -28q6 -1 18 -6q41 -29 41 -79zM387 213q0 13 -13 38q-14 29 -31 34l23 -140q21 58 21 68zM102 138q0 35 -3 106.5t-3 106.5q-22 -4 -22 -46q0 -56 28 -167zM166 92
q0 50 -13 131q-19 111 -20 124q-7 0 -17 4l-5 -60q5 -46 8 -114q-1 -37 0 -85q4 -16 21 -37q18 -24 21 -31q5 35 5 68z" />
    <glyph glyph-name="I" unicode="I" horiz-adv-x="322" 
d="M295 529q0 -19 -11.5 -36t-27.5 -17q-15 0 -27 13.5t-12 25.5q0 7 8 16q4 -4 16 -23q8 -12 17 -12q17 0 17 36q0 21 -14 42.5t-34 21.5q-24 0 -24 -19q0 -16 28 -29q23 -10 40 -12q-3 -2 -10 -2q-23 0 -47 12q-28 13 -28 33q0 12 16 24.5t25 12.5q28 0 50 -36
q18 -29 18 -51zM265 332q0 -50 -22 -132q-17 -56 -33 -113q1 -10 37 -12v-16q-5 -2 -19 0q-17 3 -18 3q-11 0 -11 -14l7 -33q-7 -8 -17 -8q-11 0 -16.5 29t-9.5 31q-9 5 -49 5q-4 0 -23 -2t-23 -2q-23 0 -50 14l5 5q61 7 140 2q2 7 5 84q2 84 1 161q0 16 -5 51
q-11 13 -29 40q-21 45 -21 63v22q10 0 12 -4q3 -15 23 -69q2 -5 14 -7q4 -10 13 -30q24 -44 58 -44q4 0 5.5 1.5t6.5 1.5q19 0 19 -27zM249 336q-14 5 -20 3q-13 5 -27 11.5t-22 19.5q7 -55 6 -280h7q50 146 56 246z" />
    <glyph glyph-name="J" unicode="J" horiz-adv-x="435" 
d="M413 546q0 -7 -12 -20t-17 -14q0 14 6 18q-8 9 -9 9q-4 0 -8 -3q-23 5 -23 22q0 4 2.5 18t1.5 22q-6 -6 -6 -11q0 1 -2.5 3.5t-2.5 7.5q0 7 10 13.5t15 6.5q29 0 36 -55q0 -1 4.5 -7t4.5 -10zM383 428q0 -20 -22 -150q-20 -121 -28 -153q-3 -24 -7 -48q-5 -27 -16 -40
q17 95 63 399q-9 12 -27 16q-11 2 -22 3q-7 3 -46 26q0 -19 -3 -58t-3 -40q0 -4 4.5 -16.5t4.5 -17.5q12 -126 12 -179q0 -69 -11 -150q-19 -141 -61 -141q-4 0 -17.5 8.5t-20.5 10.5q-12 5 -39 5q-4 0 -18.5 -2t-18.5 -2q-9 0 -85 39q4 3 4 5q0 -3 110 2q-12 12 -54.5 30
t-69.5 50q1 2 3.5 6t4.5 5q8 -9 31 -29q16 -12 59 -27q3 2 -4 16q31 -33 68 -47q33 -11 66 -23q3 8 9 21q-11 3 -80 33q8 -2 39 -12q26 -8 29 -8q17 0 20 38v45q0 -10 7 -33q10 47 9 102q0 8 1.5 30t1.5 25q0 78 -9 147h-3q-4 -28 -19 -119q-13 -81 -13 -85q0 -1 20 -31
l-4 -29q-7 10 -10 31l-12.5 12.5t-6.5 11.5q0 1 16 97q17 104 23 154q1 14 -4 50.5l-5 36.5v21h7q7 -8 6 -21q-1 -2 2 -5q3 12 1 38q-6 0 -6 7v18q23 -12 66 -32q15 -4 43 -13q15 -5 15 -28zM271 93l-4 -16h-6l4 16h6zM264 54h-6v15h6v-15zM386 572v18q-3 7 -19 15l-4 -30
q1 0 9 -1.5t14 -1.5zM379 550v6h-16v-6h16zM236 -85q-10 3 -31.5 10t-31.5 11q5 -12 21 -16l22 -6q-5 -2 -17 -2q12 -13 20 -13q9 0 17 16zM159 -80q-10 20 -22 20q-1 0 -33 -3t-46 -2q60 -12 52 -12q4 0 12 -1.5t12 -1.5h25z" />
    <glyph glyph-name="K" unicode="K" horiz-adv-x="345" 
d="M321 41l-4 -4l-37 5q-25 8 -39 35q-3 13 -9 35q-7 17 -35 44q1 -1 0 -54q-1 -33 15 -49v-6q-1 0 -13 3q-12 15 -12 49v53q-1 11 -4 19q-15 19 -39 55q-2 3 0 6v17q-2 -3 -2 -7q0 -12 19 -31q23 -24 25 -28q5 18 5 51q0 30 -11 44q-6 9 -29 21t-37 26q-8 -17 -7 -47
q1 -39 0 -48q-1 -17 -3 -49q-4 -6 -8 -20v-26q4 5 19 13q-14 -12 -14 -44q0 -29 10 -48q-7 8 -10 36q-4 37 -5 40q-11 -38 -14 -72q-3 -22 -24 -22q-9 0 -32 24q8 -4 22 -17q8 6 7 24q-1 15 13 21q9 29 17 80q8 44 8 54v106q-6 4 -11 8t-4 14q1 0 11 -10q0 86 -2 202
q-2 3 -6 0q3 28 16 65q8 -72 8 -98v-119q0 -18 5 -53q6 8 130 145q0 5 -6 11t-7 8q-4 11 -4 25q0 10 10 24.5t22 14.5q5 0 14 -5q2 -5 6 -16q7 -4 19 -14q0 -1 2.5 -2.5t2.5 -7.5q0 -7 -122 -125q-20 -19 -58 -63q18 -21 43 -25q29 -5 40.5 -13.5t24.5 -64.5q4 -37 17 -111
q13 -16 39 -46q13 -14 35 -26zM278 522q-14 0 -18 13q-2 9 -4 19q-20 -16 -20 -30q0 -15 9 -40q13 13 33 38zM225 140q-3 35 -7 70q-6 41 -21 73q-5 10 -19 10q23 -24 23 -70v-11.5v-10.5q0 -43 24 -61z" />
    <glyph glyph-name="L" unicode="L" horiz-adv-x="181" 
d="M139 690q-10 -65 -23 -168q-1 -65 -5 -196q-2 -34 -11.5 -100.5t-9.5 -68.5q33 -60 33 -90q0 -31 -22 -35q14 9 14 29q0 22 -26 67q-3 -17 -10 -55q-2 -19 -3 -38q-4 -24 -21 -37q0 1 -2.5 7.5t-2.5 12.5q0 5 12 63.5t12 63.5q0 6 -48 82q-1 2 -1 22q0 2 24 77
q27 83 36 127q9 65 24.5 167t15.5 120zM85 377q-6 -20 -29 -77q-19 -48 -19 -53q0 -9 36 -66q12 97 12 196z" />
    <glyph glyph-name="M" unicode="M" 
d="M364 455q0 -5 -10.5 -65t-10.5 -65v-212q0 -33 -3 -40t-19 -14q-23 -11 -45 -30q-15 0 -15 11q0 1 9 26.5t12 51.5q6 84 11 168q7 97 30 174q-10 8 -20 16.5t-7 23.5q-2 3 -2 5q0 3 12 -7q17 -13 18 -14q11 16 11 38q-30 14 -87 36q-14 0 -20 -7q-8 -39 -19 -119
q0 -6 10 -26q-2 0 -26 12l-12 -112q-15 9 -15 25q0 5 8 88.5t8 89.5q0 38 -7 48q-10 13 -47 13q-18 0 -21 -1q-9 -5 -19 -30q-8 -19 -10 -51l-2 -56q-6 -73 -14 -194q3 -3 27 -8q19 -27 19 -110q0 -70 -23 -70q-5 0 -12 3t-11 3q33 -3 33 54q0 39 -15 101h-19
q-1 -51 -10 -157q-2 -2 -7 -8q-8 6 -8 22q0 8 3 24.5t3 21.5v194q0 4 -2.5 20t-3.5 25q-3 4 -10 12q-1 10 -1 59q0 61 9 132q6 40 1 60q20 -35 12 -73q-3 -11 -3 -59l34 60q23 39 46 39q38 0 57 -14q12 -9 13 -38q-1 -22 -1 -44q1 -6 4 -12q7 20 7.5 49t5.5 37q8 14 36 14
q24 0 88 -27q18 -7 20 -21q0 -2 -4 -40q14 -13 14 -32zM341 463q-15 -65 -22 -190q-8 -129 -25 -210q11 3 27 9q2 8 2 79v149q0 40 18 163zM65 500q-5 -10 -14 -29h-5q-6 -71 2 -136q6 56 17 165z" />
    <glyph glyph-name="N" unicode="N" horiz-adv-x="443" 
d="M415 290q0 -58 -16 -192q-2 -17 -37 -16q0 -15 -8 -31q-9 -19 -21 -19q-3 0 -23.5 4.5t-32.5 5.5q-17 2 -23 8q1 -7 2 28q0 19 -10 19q-4 0 -7.5 -1.5t-7.5 -1.5q-16 0 -16 19q0 -10 13 53q13 60 13 110v87q0 3 6 36.5t6 37.5q0 65 -106 149q-5 4 -21 9l-63 -531
q0 50 1 100q2 35 11 67q2 24 8 71q8 42 12 109q6 99 7 103q3 22 9 65l-3 15q-9 3 -23 -4q12 11 27 11q0 17 10 27q6 -12 1 -22q28 -14 34 -14t11 4q-10 6 -30 19h16q4 1 16 -6.5t15 -7.5t13.5 1.5t14.5 1.5q49 0 110 -60q58 -56 71 -105l12 3q9 -29 9 -28v-124zM79 511
q0 -121 -7 -206q-5 -36 -13 -107q-1 -10 -6 -42q-4 -27 -4 -43q0 -22 6 -39h-17q-3 12 -3 37q0 3 9 75q10 81 13 116q4 43 8 183q2 77 10 131q4 -48 4 -105zM344 498q-26 34 -63 63q-44 34 -69 34q-4 0 -8 -2t-7 -2q51 -33 147 -93zM374 442q-2 9 -8 20q-3 3 -111 72
q-25 19 -74 55h-16q28 -25 78 -79q8 -10 22 -59q21 3 37 3q3 0 18.5 -4.5t19.5 -4.5t16.5 -1.5t17.5 -1.5zM384 383v29h-5v-29h5zM391 342q-1 4 -5.5 10.5t-4.5 9.5q0 2 0 -118q0 2 7 49q4 30 3 49zM396 209v17h-6v-17h6zM393 186v13h-5v-13h5zM368 145v243q0 4 -2 16t-2 15
q-37 23 -96 20q-12 -31 -12 -49v-144q0 -20 -8 -62q-5 -24 -18 -72q63 1 107 -12q11 -3 16 4q1 27 15 41zM344 82q-48 12 -73 13q-12 3 -12 -6q0 -3 1.5 -16t1.5 -17q39 0 73 -9q13 27 9 35z" />
    <glyph glyph-name="O" unicode="O" horiz-adv-x="486" 
d="M191 40q-22 6 -43 12q-29 10 -53 28q26 -47 52 -47q4 0 5.5 1.5t5 1.5t17 2t16.5 2zM82 91v0v0v0zM335 566v5h-16v-5h16zM341 520q0 16 -1.5 26t-1.5 9h-24q3 0 -39 -12q7 10 21 15q18 7 19 8q-13 8 -48 25q-43 20 -56 20q-28 0 -32 -31q-2 -26 -5 -51q12 11 26 11
q26 0 141 -20zM342 314v196q-51 6 -150 18q-21 -18 -25 -52q-4 -40 -9 -81q-23 -110 -23 -127q0 -4 2 -11t2 -8q18 3 39 10q12 4 41 4q4 0 27.5 -1.5t26.5 -1.5q69 0 69 54zM442 338q0 174 -85 211v-37l14 -14q-3 0 -8 2t-6 2q0 -14 2 -78q1 -48 -1 -77q-1 -42 -3 -50
q-6 -30 -27 -42q-16 -10 -57 -10q-3 0 -35 1.5t-36 1.5q-3 0 -29.5 -8.5t-30.5 -8.5q-19 0 -19 32q0 25 31 206q-77 -95 -92 -173q8 21 20 32v-3q-36 -86 -36 -100q0 -16 26 -26q0 8 4 8q2 -3 3 -13q43 -28 91 -39l84 -14q76 -16 68 -16h23q19 0 26 6q10 68 8 108q-5 2 -4 4
q1 3 8 3q6 -86 -3 -115q18 4 31.5 21.5t10.5 30.5q4 1 6 4q16 119 16 151zM454 356q0 -93 -19 -186q-3 -14 -34 -61q12 -8 34 4q3 -15 -16 -16q-29 -3 -44 -16q-1 -11 4 -35q-7 -16 -64 -16q-4 0 -24 1.5t-23 1.5q-4 0 -10.5 -3.5t-8.5 -4.5q-43 -13 -71 -13q-3 0 -20 4.5
t-21 4.5t-5.5 -1.5t-4.5 -1.5q-22 0 -35 16q-1 12 -8 32q-15 21 -45 59q-14 18 -20 57q-1 7 -10 31q3 -6 11 -18q3 16 8 46q9 48 29 101q9 25 44 77q27 40 54 79q1 14 5 38q2 20 4 41.5t11 35t33 13.5q8 0 33 -11q30 -14 35 -15q21 -3 62 -14q6 -7 18 -22q5 -1 15 -4
q83 -54 83 -204zM397 127q-11 -6 -19 -6q0 -10 -3 -13q15 5 22 19zM368 48q-6 19 -6 29q-10 -4 -33.5 -16.5t-33.5 -17.5l45 2q4 0 15 1.5t13 1.5zM368 115q3 1 -41 1q-7 0 -73 12q-73 14 -114 24q-26 6 -60 28v-15q0 -4 3 -14t3 -13q4 -36 9 -45q11 -19 57 -31
q39 -11 72 -11q32 0 64 12q38 16 76 33q1 6 4 19zM226 29v5h-13v-5h13zM209 29v5l-23 -3v-5zM84 104q-11 50 -12 82q-20 11 -33 27q-4 -12 -4 -28q0 -22 12 -39q7 -11 37 -42z" />
    <glyph glyph-name="P" unicode="P" horiz-adv-x="432" 
d="M401 334q0 -27 -7 -44q-19 -43 -49 -66q-11 -5 -28 -19q-7 -17 -15 -34q-11 -26 -23 -37q-46 -44 -66 -44q-25 0 -34 31l-6 48h-19q0 1 0 -154h-16q-3 0 -15 7t-21 8q-1 -46 -9 -140q-1 -7 -34 -14q-8 7 -5 32.5t-1 33.5l-5 2h-3q-5 11 -5 23q0 3 12 76q13 85 18 120
q-8 2 -27 0l-23 -3q-13 0 -13 18q0 10 17 21q0 -5 -6 -22q7 0 24 1.5t28 1.5q6 67 6 108v295q1 5 16 10.5t20 5.5q24 0 61 -13q26 -11 53 -21q3 -1 12.5 -7.5t13.5 -6.5t5.5 1.5t5.5 1.5q7 0 13 -9.5t11 -18.5q44 -47 55 -60q38 -44 46 -67q13 -35 13 -65zM383 334
q0 43 -20 76q-1 1 -66 87q0 -4 16 -143q-3 -7 -4 -19q17 -87 15 -106q33 27 46 49.5t13 55.5zM308 250q0 4 -9 44.5t-9 44t-4 37.5q-4 39 -5 53q3 2 12 2v17q0 14 -16 66q-2 6 -22 16q-30 -55 -44 -160q-10 -91 -20 -183q28 5 55 10q34 7 54 18q8 17 8 35zM242 541
q-94 46 -131 46q-4 0 -13.5 -1.5t-12.5 -1.5v-398h51q-2 65 -1 104v40q1 13 1 9q-3 37 -8 111q-1 10 1 27.5t2 25.5q0 27 -12 56q-4 9 1 13q15 -10 18 -20q10 -32 10 -57q0 -59 -1 -88q-1 -19 -1 -17q4 -103 10 -206q13 0 19 3q19 174 21 186q16 108 46 168zM295 196
q-42 -18 -67 -18q-3 0 -17 -3.5t-20 -3.5v-43q-1 -4 6 -13.5t15 -9.5q15 0 51 38.5t32 52.5zM145 24q-10 64 -9 144q-10 0 -28 -1.5t-23 -1.5q-1 -26 -11 -81q-10 -51 -10 -53v-142q16 1 18.5 1.5t3.5 8.5l5 137q-10 0 -12 1q6 4 19 11q0 -11 11 -15q18 -4 36 -9z" />
    <glyph glyph-name="Q" unicode="Q" horiz-adv-x="458" 
d="M427 -89q0 -60 -50 -60q-3 0 -33 1.5t-34 1.5q-25 0 -25 20q0 26 13 96q18 94 18 150q0 20 -2 26q-31 -19 -45 -19q-4 0 -11 1.5t-11 1.5t-49 -12t-49 -12q-28 0 -90 25q-20 9 -30 28q-14 24 -14 54q0 -3 12 54q15 78 59 134q50 64 114 64q32 0 72 -17q30 -15 61 -29
q9 8 9 18q0 -21 8 -34q-4 1 -6 -2q-10 -122 -10 -154q0 -6 5 -13q1 -17 2.5 -35t9.5 -18q-2 -9 -3 -28q-4 -2 -13 -10q0 -4 -3 -12q0 -42 -8 -110q-3 -23 -12 -79q-8 -51 -8 -54q0 -14 2 -19q13 2 39 0q30 -2 28 -2q20 0 18 -1q7 3 17 27l-2 20q-19 -28 -72 -28q-13 0 -20 4
v5q21 3 64 16q3 1 16.5 12.5t18.5 11.5q14 0 14 -23zM334 409q-24 5 -70 15q6 -22 6 -49q0 -34 -12 -101.5t-12 -96.5q33 -7 50 -7t22 -3q3 71 16 242zM295 153q-44 6 -48 7q-20 7 -20 30q0 -4 14 64q14 65 14 116q0 5 -4 50q-5 8 -11 22q-17 7 -37 7q-76 0 -128 -95
q-41 -77 -41 -142q0 -41 33 -64.5t78 -23.5h22q4 0 32.5 11t32.5 11t20 -1.5t20 -1.5q5 0 12.5 5t10.5 5zM233 373q0 -29 -18 -78q-22 -57 -46 -57q-44 0 -44 52v16q1 10 1 13q0 51 0 48q2 27 16 45q8 9 32 20t37 11q9 -5 16 -31q6 -22 6 -39zM218 373q0 12 -5 29
q-6 23 -15 23q-44 0 -56 -59q-4 -19 -4 -78q0 -4 2 -10.5t2 -8.5q22 -16 25 -16q17 0 36 56q15 47 15 64z" />
    <glyph glyph-name="R" unicode="R" horiz-adv-x="357" 
d="M341 396q0 -15 -14 -32q-22 -27 -29 -41h-6q0 6 -2 26t-2 24t6.5 24.5t6.5 24.5q0 8 -12 24q-19 -1 -56 5q-19 10 -54 24q13 5 35 5q4 0 10.5 -4t10.5 -5q-5 8 -28 18.5t-40 10.5q-56 0 -98 -38v-3q-5 -34 -5 -106v-106q0 -3 1 -71.5t1 -76.5q0 -4 -3.5 -14t-3.5 -18
q26 25 46 42q-1 10 2 29t3 20q0 4 -7 20t-9 23q-11 48 -11 79q0 8 2 31q2 19 0 35q0 1 -4 4t-4 4q1 1 4 0.5t4 2.5q3 36 3 106q12 -16 14 -52q1 -29 2 -57q11 -4 35 -17q10 -9 10 -27q0 -5 -22 -132q2 -28 -5 -80q-5 -11 -22.5 -18.5t-32.5 -14.5q4 -7 23 -19q-46 7 -57 26
q-6 8 -6 38q0 5 5 99t5 98v171q0 16 12 42q-3 -10 1 -17q3 0 7.5 5t11.5 8q0 -12 3 -36q54 36 91 36q23 0 91 -35q2 -1 40 -13q30 -8 35 -18q12 -21 12 -54zM328 389l-12 35q-1 -4 -13 -38q-8 -25 -8 -38q0 -6 1 -10q3 8 18 29q14 18 14 22zM55 461v25h-6v-25h6zM136 315
q0 10 -11.5 15.5t-23.5 10.5q0 -9 -2 -30t-2 -24q0 -28 14 -91q25 99 25 119zM52 78v78h-6v-78h6z" />
    <glyph glyph-name="S" unicode="S" horiz-adv-x="411" 
d="M391 455q0 -11 -28 -27t-35 -16q-13 0 -16 21q0 4 9 27q10 29 13 39q-24 21 -103 21q-26 0 -80.5 -53t-54.5 -76q0 -20 18 -26q138 -48 155 -48q4 0 10 1.5t9 1.5q5 0 21 -13t16 -68v-108q0 -4 -8.5 -14t-10.5 -15q-3 -16 -11 -42q-10 -3 -28 -11q-1 -1 -17 -24
q-8 3 -8 9q0 3 2 8.5t2 8.5q-7 3 -31 4q-44 4 -92 16q-27 7 -28 8q-19 6 -26 16q-1 6 -3 17q-12 18 -25 36q-24 37 -24 47q0 20 46 20q4 0 17 -15q-32 0 -47 -6q12 -23 43 -63q2 -9 8 -25q2 -4 30.5 -14t40.5 -10q3 0 20 -3t21 -3t19 -2t19 -2q13 0 17 6q12 76 29 189
q-17 13 -125 20q-31 -1 -62 7q-41 12 -41 34q0 3 10 33q15 2 15 -3q0 -4 -6.5 -14.5t-6.5 -14.5q0 -13 30 -22l30 -6l55 2q-2 1 -6.5 3t-6.5 3q6 2 20.5 5t20.5 5q-15 11 -61 22q-40 9 -51.5 23.5t-11.5 26.5q0 27 35 57q40 34 40 35q-5 13 -1 20q10 16 48 26q28 7 51 7
q13 0 61 -11q2 0 10.5 -5.5t12.5 -5.5q5 0 8 4.5t4 4.5q0 -5 2 -17q37 -40 37 -51zM375 454v15q-9 8 -16 5q-12 3 -17 8q-7 -19 -15 -54q26 10 48 26zM189 504l-3 4l-21 -17l3 -4zM301 291l-7 7l3 -20q6 7 4 13zM283 282v18q-73 0 -85 1q29 -5 85 -19zM309 172q0 35 -10 89
q-9 -58 -27 -173q15 13 35 39q2 4 2 45z" />
    <glyph glyph-name="T" unicode="T" 
d="M365 344q0 -5 -10.5 -13.5t-16.5 -9.5q-11 6 -8 16q-32 0 -47 3q0 -5 1.5 -16t1.5 -16q-13 13 -41 36q-1 2 -1 15q-2 0 -35 -1q-12 -88 -43 -277q-1 1 2 -2q12 0 38.5 2t38.5 2q32 0 51 -10q-14 0 -49 -2.5t-36.5 -2.5t-21 -2.5t-30.5 -2.5q0 -1 -1.5 -3.5t-1.5 -6.5
q0 -6 8.5 -14t15.5 -8q14 0 51.5 17t51.5 17q8 0 13 -4v-14q-12 0 -47 -11q-9 -3 -39 -14q-23 -10 -27 -10q-10 0 -26.5 10t-18.5 20q-13 81 -13 172v102q0 41 -8 50q-50 7 -67 12q-34 10 -43 32h6q15 -17 48 -22l56 -8q1 1 4 5q-2 42 5 203q3 3 7 9q5 71 5 88l35 -2l2 -16
q-9 -4 -21 -15q-10 -17 -10 -30v-25q27 -6 60 -6q22 0 27.5 -7t5.5 -41q0 -24 -9 -76q-14 -74 -16 -88q3 -1 43 -5l56 -4q54 -7 54 -26zM222 502v74q-9 0 -27.5 1.5t-21.5 1.5q-23 0 -32 3q-6 -42 -6 -57q0 -59 1 -103q2 -40 2 -42q9 0 30.5 -1.5t30.5 -1.5q0 5 9 66
q1 10 8 35q6 22 6 24zM312 351v5h-24v-5h24zM287 354v5h-18v-5h18zM196 361h-58q0 -17 1.5 -24.5t1.5 -8.5v-99q0 -3 4 -58q5 -59 7 -81q14 92 44 271z" />
    <glyph glyph-name="U" unicode="U" horiz-adv-x="394" 
d="M348 90q0 -8 -7 -22q-1 0 -7 3t-10 3t-11.5 -5t-11.5 -4h-23q0 38 -4 38q-2 0 -92 -27q13 -5 38 -12q0 -12 -11 -12q-4 0 -13 3t-13 3q-23 0 -42 11q-30 16 -37 21q-23 14 -36 29q-8 9 -8 38q0 8 25 165q5 27 13 83q-1 -6 -1 81q4 -10 10 -29q5 7 10.5 23t15.5 25v-18
q1 -3 -3 -14t-5 -14q-2 -31 -8 -93q-15 -128 -15 -150q0 -132 46 -132q4 0 10 3t9 3q15 0 18 1q-8 4 -22 14q3 0 9.5 -1t10.5 -1q29 0 89 19q6 15 6 33q0 4 -5 79q-5 88 -6 119q-3 61 -21 174q5 0 8.5 -1.5t7.5 -1.5q3 0 13 5t14 5q28 0 54 -27q-1 -13 -4.5 -44.5
t-3.5 -35.5v-240q0 -4 6.5 -48.5t6.5 -48.5zM332 502q-35 16 -43 16q-4 0 -15 -2t-15 -2q0 -1 1.5 -7t1.5 -8q12 6 16 1q0 -8 -3.5 -29.5t-2.5 -30.5q5 -37 11 -103q9 -208 8 -260q14 4 38 10v30q0 5 -4.5 22.5t-4.5 22.5v105q0 13 1 40.5t1 29.5v100q0 7 10 65zM101 114
q-15 52 -13 136q-2 -14 -7 -51q-5 -31 -5 -36q0 -45 25 -49z" />
    <glyph glyph-name="V" unicode="V" horiz-adv-x="311" 
d="M273 442q0 2 -59 -183l-28 -104q-17 -60 -42 -105q0 2 4 12t4 14t-9 16t-12 19q-14 43 -41 119l-2 2q6 -32 30 -99q22 -61 22 -62v-15q-10 0 -15 7q-29 64 -62 200q-2 7 -12 35q-9 24 -9 28q0 10 9 13h7q3 -3 5 0q-9 54 -24 161l4 37q10 -43 24 -130q10 -59 24 -92l-3 -3
q18 -69 28 -100q18 -60 41 -106q22 81 43 162q31 117 61 183q12 0 12 -9zM84 246q-6 27 -19 77q-5 -1 -7 -6q11 -25 26 -71z" />
    <glyph glyph-name="W" unicode="W" horiz-adv-x="527" 
d="M499 560l-4 -15q-9 2 -23 23q-27 -85 -65 -233q-3 -43 -15 -122q-7 -29 -31 -70l2 -21q16 23 29 74q-2 -24 -5 -48q-5 -31 -18 -41q-7 -2 -21 -8q-2 -8 -7 -21h-14q-2 48 -31 148q5 10 3 16q-2 7 -45 111q-24 -50 -65 -144h-3l-26 -42q-19 -30 -19 -48q0 -9 4 -16h5
q0 -3 -2 -17t-2 -21q-6 0 -14.5 -8.5t-12.5 -8.5q-14 0 -23 30q-3 24 -7 48q-6 35 -23 54q-6 7 -23 15t-21 11q-1 22 28 51.5t29 47.5q0 3 -8 67q-11 73 -14 104q3 117 6 117q7 -77 7 -114q0 -12 10 -88q12 -83 17 -83q4 0 5.5 3t5.5 3q10 0 16 -28q5 -20 5 -31q1 -2 10 -88
q32 42 103 201q-1 14 -1 41q5 8 14 6q3 -1 6 4q14 32 18 62q-23 -26 -45 -63q-10 -17 -19 -48q-3 -12 -5 -24q-5 -17 -14 -24q-3 -1 -6 1t-5 2q23 68 35 91q23 48 66 91q11 -12 11 -18q0 -4 -14 -45.5t-14 -45.5t8 -19q11 -20 16 -30q17 -39 28 -81q8 -34 29 -104
q16 26 23 53q6 46 18 128q6 34 28 106q32 108 36 125q2 8 17 8q7 0 27 -24zM287 319q-7 27 -24 55v-7q13 -24 24 -48zM295 305l-4 13l-4 -2l3 -11h5zM127 143q0 -11 -18 148q-1 3 -10 7v-17q0 -5 2.5 -16t2.5 -13q6 -61 5 -139q18 18 18 30zM88 169q0 75 -7 107
q-3 -5 -27 -29q-19 -20 -19 -24v-14q13 -2 30.5 -14t22.5 -26z" />
    <glyph glyph-name="X" unicode="X" horiz-adv-x="414" 
d="M392 45q-11 -10 -33 -18l-23 6q13 0 31 6l-149 86q-5 0 -5 -4v0q0 -3 -4 -3q-5 0 -6 2t-2 2q-18 60 -28 119q0 2 1.5 5.5t1.5 7.5q1 0 -5 7q-22 -41 -61 -121q-16 -36 -53 -98h-6v14q-1 13 23 55q-4 -9 -7 -17q-5 -11 -5 -22q0 -5 1 -10q123 257 123 258q0 10 -62 114
q-66 110 -77 160q5 2 14 2q-2 3 -4 -2q-2 -6 1 -10q6 -7 23 -8q23 -42 128 -207q20 26 50 82q37 69 47 85q19 0 33 -41q-15 1 -21 -5q-21 -30 -67 -92q-21 -28 -30 -47l159 -268q0 -6 5 -17zM89 136l-2 -4l-4 2l5 6zM82 125l-4 -6v-3l-3 4zM316 498l-5 5l-7 -4l8 -5z
M198 353q-45 74 -129 214q2 -5 118 -212q8 -9 11 -2zM314 170q-38 60 -101 164l-4 -3q30 -75 105 -161zM324 163l-1 4l-5 -2l5 -5zM334 146l-1 6l-7 2l5 -4zM344 133l-8 7l3 -7l3 -5zM360 62q-11 16 -87 126q-51 73 -74 118q-16 -24 -16 -35q0 -5 2 -15t2 -11q4 -21 11 -60
q5 -5 11 -14q12 -35 63 -63z" />
    <glyph glyph-name="Y" unicode="Y" horiz-adv-x="469" 
d="M442 375l2 -13q1 -11 0 -19q-1 -11 -7 -18q-37 -43 -208 -205q5 -5 14 0q-21 -10 -37 -35q0 -7 -2 -21q-2 1 -5.5 3t-5.5 4l-36 -42q-20 -25 -30 -52q11 3 24 27q17 28 25 36l5 -5q0 -10 2 -13v-3q7 6 12 6l-12 -13l-10 10q-29 -49 -90 -147l-11 -3q4 22 17 52q-2 3 -5 1
q-32 -35 -57 -57q24 26 67 82q17 25 38.5 68.5t21.5 50.5q0 4 -10 17q-13 17 -17 23q-19 36 -48 116q-45 124 -45 125q11 4 33 13q6 -10 9 -38q3 -37 5 -45q-3 2 -4 2q-9 0 19 -45.5t34 -45.5q3 0 17.5 8.5t19.5 8.5q17 0 23 -25q3 -20 7 -40q38 59 98 124q59 61 119 123
q7 7 2 26q2 2 9 3q8 0 12 -4q5 -47 5 -40zM424 336v37q-187 -185 -228 -268zM174 194q-15 -3 -37 -15q13 -39 36 -74q6 47 1 89zM131 169l-5 5l-4 -4l3 -9zM115 184l-11 5l4 -4l6 -7zM130 141v9l-5 -2zM141 123l-4 13l-5 -2l5 -5z" />
    <glyph glyph-name="Z" unicode="Z" horiz-adv-x="520" 
d="M421 41h-17v4h17v-4zM392 43l4 7l3 -6l-1 -4zM386 45l-16 -1l10 3l6 2v-4zM486 41q0 -1 -1 -5.5t-1 -5.5h-51q-40 0 -35 0q-2 0 -7.5 2.5t-8.5 2.5h-24q-2 0 -8 3t-10 3q-1 0 -7 -4q-5 0 -19.5 -1t-17 -1t-55.5 -2q-58 -2 -84 -2t-81 -4q-3 -1 -10.5 -5t-10.5 -4
q-30 0 -30 21q0 8 7 17q-3 2 -15 7q6 4 26 9q6 2 18 13q0 -6 3 -8.5t6 -2.5q43 47 118 126q29 29 138 156q13 15 28 46q10 22 22 26q1 16 6 49h-15q0 3 5 7q-8 2 -42 2q-9 0 -96 19.5t-116 19.5q-12 0 -39 -31q-16 -19 -31 -38q0 3 -5 11.5t-5 12.5q-3 27 -3 46q0 9 8 18
q-1 0 13 -7h20q3 0 7.5 1t7.5 1t15.5 -3t16.5 -3q68 -6 100 -13q106 -23 100 -23h12q3 0 9 1.5t9 1.5q33 0 35 -25v-49q8 7 12 5l8 4h11q-14 -17 -34 -50q-2 -4 -5 -29q-2 -19 -9 -28q-6 4 -6 8q0 2 2.5 9t2.5 14q-4 0 -5 -2q-56 -84 -92 -144q-15 -25 -30 -43
q-69 -84 -69 -85t3 -3q3 -1 0 -9q20 -6 84 -6l4.5 -3t7.5 -3.5t15 -0.5q1 0 61 -3t71 -3h23q15 1 21 1q4 12 1 23q-3 14 -3 16v19q21 -8 21 -48q0 -14 -4 -20q0 -4 7 -4zM367 391l-5 -8l-5 -2l8 -5zM358 369l-9 -7l-8 -11l10 7zM94 527q-6 0 -11 -2q-10 5 -12 5
q-4 0 -9.5 -1.5t-6.5 -1.5q5 -27 0 -48q9 14 39 48zM48 498l-2 34h-5l3 -34h4zM476 51q1 19 -6 48q0 -5 3 -19t3 -20q0 -18 -23 -17q8 -1 23 8zM311 319q-32 -46 -109 -123q-60 -61 -120 -121q8 0 10 -2q-5 -1 -12 -3q-7 -8 -8 -8l-4 7q-9 0 -16 -6q38 -1 100 -2q-1 0 -17 2
q-6 1 -10 5q6 6 15 6q14 0 21 -2l8 22q-7 3 -7 11q13 6 16 11q16 26 47 72q25 31 50 63q27 38 36 68zM340 45q-10 0 -29 1.5t-20 1.5q-4 0 -12 1.5t-11 1.5q-2 0 -22 -4t-28 -4h40q15 0 44.5 1t37.5 1zM164 61l-12 -6l4 8zM169 50q-9 0 -45 -1q-27 -1 -43 0q-5 0 -17 2
t-14 2q-18 0 -18 -14q0 -3 4 -6.5t4 -4.5q9 0 26 5t25 5l58 3q13 0 20 9zM44 66v4l-11 -2v-4z" />
    <glyph glyph-name="a" unicode="a" horiz-adv-x="411" 
d="M399 186q0 -20 -22 -36q3 -19 10 -58q-7 17 -21 49q-45 -51 -99 -84q-63 -38 -115 -38q-4 0 -8.5 -1.5t-6.5 -1.5q-9 0 -31 23q-13 13 -19 42l-10 50v106q9 44 13 58q9 35 20 57q4 8 21.5 22.5t23.5 24.5q1 3 8 45q6 38 25 59h22q24 -27 45 -111q63 -50 61 -66
q-17 18 -52 39q-2 -2 -2 -9q2 -7 46 -247q10 8 53 49q-44 151 -53 394q-1 28 -4 38q-7 21 -27 23q-3 -2 -1 -6q2 -8 2 -13q-5 -1 -43 -10q-27 -6 -40 -17v-26q15 -2 19 5q-5 -10 -17 -24q-16 9 -16 31q0 9 -7 9q-6 0 -77 -31q0 -2 4 -7.5t5 -8.5l-3 -8q-10 10 -49 23
q-32 10 -32 26t19 31q27 21 31 26q-14 -15 -28 -31q-18 -20 -18 -26q0 -11 17 -16.5t26 -3.5q34 11 100 38q6 4 7 18v25l24 -26q22 5 46 19q20 12 46 13q10 -4 10 12q0 25 -18 25q-5 0 -56 -15q-61 -18 -83 -24q-2 16 12 22q22 4 67 14q19 8 38 15q27 11 39 8q20 -19 23 -61
l10 -226q9 -135 37 -225q6 6 28 18zM238 397l-14 49q-9 31 -31 41q-11 -17 -16 -40.5t-9 -45.5q35 4 70 -4zM293 101v34q1 8 -18 95q-20 91 -34 145q-29 11 -73 9v-64q0 -8 11 -66q12 -61 21 -96q6 -22 23 -54q-5 0 -11 8q-60 125 -57 257q-31 -18 -49 -92q-13 -55 -13 -101
q0 -76 29 -124q8 -14 36 -14q22 0 64.5 18t59.5 35q-6 9 -20.5 19t-17.5 14q5 1 9 1q12 0 24 -9q8 -7 16 -15z" />
    <glyph glyph-name="b" unicode="b" horiz-adv-x="501" 
d="M487 402q0 -35 -55 -103q-43 -54 -82 -86q-15 -8 -36 -28q-9 -17 -3 -72q-5 -4 -12 -2q-4 -2 -30 -13q-21 -9 -26 -9q-10 0 -21 26q-13 31 -19 36q-26 -4 -109 2q-4 -77 12 -146q-2 -2 -9 -4.5t-9 -4.5q-3 10 -5 20q-6 14 -19 22q-6 3 -15 7q-1 0 -3.5 2t-2.5 8
q0 5 10 15t11 13q-4 -9 -13 -25q22 -11 24 -11q0 55 -8 107q-3 -15 -13 -49q-7 -1 -10 3q4 14 3 139q-4 98 -27 277q-11 -3 -11 -28q0 9 -1 26q4 4 10 12q-5 131 -1 196q9 -14 12 -56q4 -72 5 -73q0 -20 2 -59q23 -13 53 -51q50 15 90 17q4 6 13 43q6 24 26 24q4 0 39 -29
q-24 13 -37 13q-18 0 -18 -38q0 -10 6 -10q65 0 83 1q-4 43 -5 45q-6 22 -28 39q27 -10 37 -40q1 -5 9 -53q12 0 31 -5q31 -12 95 -33q57 -15 57 -65zM22 327l-13 1l3 11l3 -6zM468 404q0 23 -17.5 32.5t-137.5 48.5v-269q25 13 84 75q71 74 71 113zM297 205q-1 -17 -1 284
h-98l4 -132q-1 -14 -1 -30q0 -72 18 -146q3 -3 8 -3q41 9 70 27zM201 173q-23 139 -23 241q0 74 -1 79q-44 -5 -82 -12q19 -59 19 -108q0 -14 -23 -200h110zM99 373q0 21 -8.5 57.5t-14.5 41.5q0 -5 3 -10t1 -6q-20 -2 -20 6q0 6 13 22q-7 19 -33 45l29 -361q4 37 18 124
q12 76 12 81zM296 176q-47 -16 -70 -21q7 -15 16 -46q33 8 45 17q2 22 9 50z" />
    <glyph glyph-name="c" unicode="c" 
d="M368 143q-14 -28 -62 -52t-84 -24q-58 0 -117.5 51.5t-73.5 111.5q-1 4 -1 41q0 61 37 183q-3 12 -2 35q18 42 20 77q23 12 73 25q2 1 14 9.5t17 8.5t8 -3.5t8 -3.5q101 0 109 -1q0 -9 8 -17q-6 -10 -20 -24q-11 -5 -32 -5q-5 0 -13.5 -1.5t-13.5 -1.5t-37.5 9.5
t-37.5 9.5q-9 0 -32 -45q-23 -41 -45 -82q-31 -58 -31 -85q0 -41 21 -54q15 30 30 76q31 95 55 163q-2 -44 -28 -123q-42 -125 -43 -129q34 -19 65 -49q0 -14 -13 -14q-5 0 -7 -2t-7 -2q6 0 -63 11q-15 1 -25 -1q11 -22 31 -61q16 -27 52.5 -54t58.5 -28l2 2q3 0 11.5 -2
t13.5 -2q109 0 109 102q0 3 11 25q-3 -31 -13 -97q8 6 29 28zM112 164h-6l-5 13l6 2zM306 586q-38 4 -98 4q-15 0 -28 -14q24 -11 60 -12h62q0 1 4 22zM145 574q-17 -4 -49 -16q-1 -21 -11 -60q12 18 60 76zM104 496l-6 2l-8 -18l5 -2zM81 489h-6l-4 -13l5 -2zM93 478h-7
l-4 -18h6zM145 238q-35 27 -61 40q0 -6 -4 -18t-4 -15q35 -9 69 -7zM76 290q0 5 -12 19t-13 20q-7 -34 -5 -65q4 0 10 -4t7 -4q13 37 13 34z" />
    <glyph glyph-name="d" unicode="d" horiz-adv-x="469" 
d="M455 690q-9 -53 -34 -157q-4 -9 -34 -17q-4 -5 -13 -12l-4 5q-14 7 -14 -19q0 -4 5 -46q5 -47 7 -65q6 -89 6 -173q0 -73 -4 -120q-15 0 -46 -4q-34 -4 -47 -5q-14 -18 -27 -36q-25 -29 -38 -29q-18 0 -31 28q-6 17 -13 33q-25 3 -51 6q-29 6 -48 26q-11 11 -26.5 61.5
t-15.5 75.5q0 51 66 131q5 17 24 43q5 4 23 7t25 6q6 10 19 24q22 16 41 16q4 0 14.5 -12.5t14.5 -12.5q2 0 15.5 5.5t27.5 5.5q13 0 48 -15q0 19 -7.5 57t-7.5 41v138l9 -18q0 12 4 33q2 -55 4 -109q3 -65 9 -65q8 0 22 14q1 44 -13 168q-4 6 -17 6q-17 0 -33 -10
q5 7 22 16q6 -2 11 4q-3 4 -18 3q12 6 31 6q4 0 13.5 -8.5t12.5 -9.5q23 -6 68 -16zM440 687q-4 0 -65 11q14 -84 11 -165h20q10 22 34 154zM237 440q0 6 -8 15q-16 -3 -43 -21q41 6 51 6zM363 101v83q3 155 -15 236q-3 16 -20 19q-3 1 -26 1q2 0 -46 -12v-41
q0 -5 20.5 -125t20.5 -125q0 -18 -19 -51q31 4 85 15zM278 145q0 23 -14.5 103t-14.5 76q0 3 -4 42t-5 53l8 5h-27q-20 2 -45 -12q-7 -3 -12 -34q-4 -25 -4 -43q0 -3 12 -98q14 -104 18 -151h73l14 32q1 5 1 27zM171 86v46q0 5 -13 101t-13 100q0 37 9 77q-23 -7 -33 -9
q-11 -22 -55 -79q-28 -36 -28 -78q0 -39 29 -109q4 -12 13 -26q35 -23 69 -23q23 0 22 0zM256 74h-70q9 -47 26 -47q9 0 44 47z" />
    <glyph glyph-name="e" unicode="e" horiz-adv-x="484" 
d="M450 50q-23 -15 -37 -15h-55q-4 0 -104 -2t-104 -2t-13 -1.5t-13 -1.5q-9 0 -29 8q-12 16 -21 55q-6 32 -13 64q-9 41 -15 106q-9 101 -9.5 106t-12.5 10q5 0 11 3q7 40 2 65q-1 3 -5.5 10t-4.5 13q0 10 10 34q43 109 219 109q22 0 43 -15q31 -23 42 -59q7 -21 10 -69
t11 -73q-9 21 -14.5 72.5t-14.5 73.5q-16 37 -56 50q-15 3 -43 10q-23 -1 -64 -8q-39 -12 -76 -33q6 -123 6 -194q19 -5 61 -14q2 42 11 125q2 15 14 39q14 29 25 29q9 0 13 -8.5t7 -16.5q1 -2 11 -8q20 -33 28 -73q9 -47 17 -119q5 -6 25 -6q5 0 11 -1.5t10 -1.5
q29 0 27 13q5 -2 17 -7q0 -7 -4 -16q-24 -8 -41 -8q5 0 -36 4q-2 -8 -4 -23q-45 -33 -70 -33q-28 0 -43 34q-12 25 -13 58q-21 6 -62 20q-2 -71 6 -128l6 -4l8 -7q-4 -2 -14 -49q-2 -10 -23 -40q0 -52 19 -52q4 0 19.5 5t19.5 5q6 0 33 -8q-47 -6 -81 -15q0 -9 12 -13.5
t36 -4.5q3 0 18.5 2t22.5 2q57 2 162 2h37q4 0 17.5 2t17.5 3q7 5 3 9q10 -3 27 -12zM272 318v19q1 17 -15 91q-4 19 -7 39q-6 24 -17 31q-7 4 -28 4q5 15 11 17q5 -1 11 -1q-9 16 -17 16q-14 -11 -24 -62q-8 -44 -8 -83q0 -34 4 -40t27 -10q31 -5 63 -21zM86 367v188
q-15 -18 -37 -51q8 -8 4 -23q-5 -19 -5 -29q0 -49 5 -78q12 0 33 -7zM279 280q-2 10 -5 22q-32 9 -92 29q5 -22 11 -43q8 -30 32 -30q10 0 54 22zM97 181q0 2 -7 70q-9 73 -11 108q-19 0 -26 7q7 -73 25 -209q0 23 3 28q2 -7 4 -21l3 -21q9 19 9 38zM235 472h-6l-4 23h6z
" />
    <glyph glyph-name="f" unicode="f" horiz-adv-x="423" 
d="M401 448q0 -19 -12 -50q-3 13 -4 49q0 31 -9 45q-6 11 -26 13q-15 1 -30 1q-39 8 -78.5 24t-40.5 17q-24 8 -57 14q-2 -2 -2 -14q0 1 4 -22q8 -4 24 -16h-19q-8 0 -9 -1v-8q0 -56 13 -175l46 3q-12 6 -26 6q3 0 11 1t14.5 1t40.5 17q3 -14 12 -40q-15 -15 -28 -15
q-4 0 -12.5 1.5t-13.5 1.5q-5 4 -40 4q-2 -5 -2 -15q0 -19 6.5 -58.5l6.5 -39.5q0 -18 -15 -25q-32 -16 -41 -23l5 -38q2 -14 5 -27q4 -19 3 -51q-13 31 -21 63l-11 4q-3 18 -12 53l5 4q9 42 9 47q0 32 -6 89q-5 0 -5 -11q-14 14 -36 18q-35 6 -39 7q4 10 30 44
q-8 -15 -7 -29q25 -11 43 -16q15 17 16 22q1 1 1 20q0 3 -13 108q-2 26 -3 51q-3 31 -19 42q10 -5 14 -5q0 6 1.5 14.5t1.5 9.5l22 32q17 24 36 28q7 -21 8 -42q54 -21 165 -58q19 0 56 -2q7 -6 23 -20q5 -4 10 -23.5t5 -29.5zM121 579q-1 -2 -1 27q-12 -10 -30 -27h31z
M125 531q-12 10 -21 14q2 2 3 4.5t3 4.5q4 0 8.5 -3.5t5.5 -3.5v17h-30l-3 -30q5 0 16.5 -1.5t17.5 -1.5zM226 321v6h-11v-6h11zM135 322v37q0 21 -12 156q-4 2 -33 11v-29q0 -4 6 -31q5 -31 7 -42q9 -85 8 -105q6 0 14.5 1.5t9.5 1.5zM156 186q-14 75 -18 118
q-10 -2 -27 -7q0 -65 2 -104q2 -31 2 -30q15 7 41 23z" />
    <glyph glyph-name="g" unicode="g" horiz-adv-x="368" 
d="M343 404v-132q-8 -60 -17 -120q-9 -73 -7 -125q-4 -6 -9 -11q-7 -9 -17 -9q-23 0 -57 21q-25 15 -49 29q-15 8 -44 22q-22 9 -67 22q-25 7 -40 21q7 14 37 24q23 7 34 7q34 0 71 -8q-3 -1 -25 -6q-2 -13 -3 -25q-1 -13 7 -19q23 -21 64 -39l72 -30q1 1 3 6q5 63 28 237
l-2 78q-26 -15 -26 -35q0 -7 4 -20.5t4 -20.5q0 -4 -1 -8q-3 18 -14 55q-48 -29 -65 -29q-51 0 -98 50q-43 47 -56 104q-8 37 -8 85q0 43 23 71q14 18 67 58q5 3 14 22q0 -6 -6 -19q39 7 66 14q-25 45 -47 45q-13 0 -30 -32q-10 -21 -20 -41q-1 12 12 46q16 42 39 42
q16 0 38 -27q12 -17 25 -35l40 -2q27 -4 45 -18q-4 -5 -18 -12q13 -67 33 -236zM279 655q-5 0 -17 3q-9 1 -12 0v-5q5 -4 9 -4q3 0 9 3t11 3zM328 358v35q2 42 -26 249q-20 0 -34 -2t-12 -2q37 -127 44 -291q4 8 15 18q4 -2 13 -7zM255 555q0 16 -8.5 54t-14.5 48
q-31 -3 -40 -5q-24 -4 -38 -14q-2 -18 -8 -28q36 11 65 8q-3 -3 -5 -4q-45 -4 -54.5 -14.5t-9.5 -53.5q0 -51 12 -88q4 -12 17 -28.5t18 -16.5q28 0 49 60q17 49 17 82zM145 631q-19 -4 -44 -33t-20 -43q23 19 59 55q5 6 5 21zM292 351q0 55 -24 189q-5 -31 -14 -63
q-5 -17 -19 -39q-23 -36 -46 -36q-58 0 -58 162q0 5 1.5 14.5t1.5 12.5q-19 -7 -38.5 -37.5t-19.5 -44.5q0 -12 11.5 -32.5t23.5 -31.5l2 2h2q22 -48 111 -91q-31 -2 -79 35q-44 33 -66 69q13 -58 47 -101q43 -56 105 -56q59 12 59 48zM141 99v43q-25 -2 -50 -5
q-17 -2 -37 -11q31 -10 87 -27z" />
    <glyph glyph-name="h" unicode="h" horiz-adv-x="423" 
d="M401 215q0 -34 -16 -61t-16 -66q1 -57 -1 -68q-1 8 -43 273q-32 2 -95 26q-58 22 -86 22q0 -6 21 -122q16 -86 16 -138q0 -61 -25 -71q1 3 1 6q0 10 -13 30q-12 16 -24 33q-3 -20 -15 -60q1 32 -3 95q-11 35 -25 103q-10 93 -10 87q0 31 2 38q5 13 28 23v46q-6 1 -12 1
q-11 0 -24.5 -4.5t-15.5 -4.5q-18 0 -18 22q0 4 7 44.5t7 45.5q0 61 -29 129q11 16 42 16q8 0 39 -21q-7 0 -21 6l-44 -4q7 -28 15 -56q13 -50 13 -68q0 4 -15 -93q7 0 25 2t27 2q2 35 6.5 105t6.5 105q-1 -40 1 -108q1 -84 1 -103q1 -1 5 -4q0 -1 -3 -3t-3 -8v-47
q8 -1 24 -6q2 3 2 14t2 15q9 -17 9 -34q55 -14 173 -44q-8 11 -29 24q-31 18 -34 20q28 2 69 -26q6 -10 19 -28q6 -1 18 -6q41 -29 41 -79zM387 213q0 13 -13 38q-14 29 -31 34l23 -140q21 58 21 68zM102 138q0 35 -3 106.5t-3 106.5q-22 -4 -22 -46q0 -56 28 -167zM166 92
q0 50 -13 131q-19 111 -20 124q-7 0 -17 4l-5 -60q5 -46 8 -114q-1 -37 0 -85q4 -16 21 -37q18 -24 21 -31q5 35 5 68z" />
    <glyph glyph-name="i" unicode="i" horiz-adv-x="322" 
d="M295 529q0 -19 -11.5 -36t-27.5 -17q-15 0 -27 13.5t-12 25.5q0 7 8 16q4 -4 16 -23q8 -12 17 -12q17 0 17 36q0 21 -14 42.5t-34 21.5q-24 0 -24 -19q0 -16 28 -29q23 -10 40 -12q-3 -2 -10 -2q-23 0 -47 12q-28 13 -28 33q0 12 16 24.5t25 12.5q28 0 50 -36
q18 -29 18 -51zM265 332q0 -50 -22 -132q-17 -56 -33 -113q1 -10 37 -12v-16q-5 -2 -19 0q-17 3 -18 3q-11 0 -11 -14l7 -33q-7 -8 -17 -8q-11 0 -16.5 29t-9.5 31q-9 5 -49 5q-4 0 -23 -2t-23 -2q-23 0 -50 14l5 5q61 7 140 2q2 7 5 84q2 84 1 161q0 16 -5 51
q-11 13 -29 40q-21 45 -21 63v22q10 0 12 -4q3 -15 23 -69q2 -5 14 -7q4 -10 13 -30q24 -44 58 -44q4 0 5.5 1.5t6.5 1.5q19 0 19 -27zM249 336q-14 5 -20 3q-13 5 -27 11.5t-22 19.5q7 -55 6 -280h7q50 146 56 246z" />
    <glyph glyph-name="j" unicode="j" horiz-adv-x="435" 
d="M413 546q0 -7 -12 -20t-17 -14q0 14 6 18q-8 9 -9 9q-4 0 -8 -3q-23 5 -23 22q0 4 2.5 18t1.5 22q-6 -6 -6 -11q0 1 -2.5 3.5t-2.5 7.5q0 7 10 13.5t15 6.5q29 0 36 -55q0 -1 4.5 -7t4.5 -10zM383 428q0 -20 -22 -150q-20 -121 -28 -153q-3 -24 -7 -48q-5 -27 -16 -40
q17 95 63 399q-9 12 -27 16q-11 2 -22 3q-7 3 -46 26q0 -19 -3 -58t-3 -40q0 -4 4.5 -16.5t4.5 -17.5q12 -126 12 -179q0 -69 -11 -150q-19 -141 -61 -141q-4 0 -17.5 8.5t-20.5 10.5q-12 5 -39 5q-4 0 -18.5 -2t-18.5 -2q-9 0 -85 39q4 3 4 5q0 -3 110 2q-12 12 -54.5 30
t-69.5 50q1 2 3.5 6t4.5 5q8 -9 31 -29q16 -12 59 -27q3 2 -4 16q31 -33 68 -47q33 -11 66 -23q3 8 9 21q-11 3 -80 33q8 -2 39 -12q26 -8 29 -8q17 0 20 38v45q0 -10 7 -33q10 47 9 102q0 8 1.5 30t1.5 25q0 78 -9 147h-3q-4 -28 -19 -119q-13 -81 -13 -85q0 -1 20 -31
l-4 -29q-7 10 -10 31l-12.5 12.5t-6.5 11.5q0 1 16 97q17 104 23 154q1 14 -4 50.5l-5 36.5v21h7q7 -8 6 -21q-1 -2 2 -5q3 12 1 38q-6 0 -6 7v18q23 -12 66 -32q15 -4 43 -13q15 -5 15 -28zM271 93l-4 -16h-6l4 16h6zM264 54h-6v15h6v-15zM386 572v18q-3 7 -19 15l-4 -30
q1 0 9 -1.5t14 -1.5zM379 550v6h-16v-6h16zM236 -85q-10 3 -31.5 10t-31.5 11q5 -12 21 -16l22 -6q-5 -2 -17 -2q12 -13 20 -13q9 0 17 16zM159 -80q-10 20 -22 20q-1 0 -33 -3t-46 -2q60 -12 52 -12q4 0 12 -1.5t12 -1.5h25z" />
    <glyph glyph-name="k" unicode="k" horiz-adv-x="345" 
d="M321 41l-4 -4l-37 5q-25 8 -39 35q-3 13 -9 35q-7 17 -35 44q1 -1 0 -54q-1 -33 15 -49v-6q-1 0 -13 3q-12 15 -12 49v53q-1 11 -4 19q-15 19 -39 55q-2 3 0 6v17q-2 -3 -2 -7q0 -12 19 -31q23 -24 25 -28q5 18 5 51q0 30 -11 44q-6 9 -29 21t-37 26q-8 -17 -7 -47
q1 -39 0 -48q-1 -17 -3 -49q-4 -6 -8 -20v-26q4 5 19 13q-14 -12 -14 -44q0 -29 10 -48q-7 8 -10 36q-4 37 -5 40q-11 -38 -14 -72q-3 -22 -24 -22q-9 0 -32 24q8 -4 22 -17q8 6 7 24q-1 15 13 21q9 29 17 80q8 44 8 54v106q-6 4 -11 8t-4 14q1 0 11 -10q0 86 -2 202
q-2 3 -6 0q3 28 16 65q8 -72 8 -98v-119q0 -18 5 -53q6 8 130 145q0 5 -6 11t-7 8q-4 11 -4 25q0 10 10 24.5t22 14.5q5 0 14 -5q2 -5 6 -16q7 -4 19 -14q0 -1 2.5 -2.5t2.5 -7.5q0 -7 -122 -125q-20 -19 -58 -63q18 -21 43 -25q29 -5 40.5 -13.5t24.5 -64.5q4 -37 17 -111
q13 -16 39 -46q13 -14 35 -26zM278 522q-14 0 -18 13q-2 9 -4 19q-20 -16 -20 -30q0 -15 9 -40q13 13 33 38zM225 140q-3 35 -7 70q-6 41 -21 73q-5 10 -19 10q23 -24 23 -70v-11.5v-10.5q0 -43 24 -61z" />
    <glyph glyph-name="l" unicode="l" horiz-adv-x="181" 
d="M139 690q-10 -65 -23 -168q-1 -65 -5 -196q-2 -34 -11.5 -100.5t-9.5 -68.5q33 -60 33 -90q0 -31 -22 -35q14 9 14 29q0 22 -26 67q-3 -17 -10 -55q-2 -19 -3 -38q-4 -24 -21 -37q0 1 -2.5 7.5t-2.5 12.5q0 5 12 63.5t12 63.5q0 6 -48 82q-1 2 -1 22q0 2 24 77
q27 83 36 127q9 65 24.5 167t15.5 120zM85 377q-6 -20 -29 -77q-19 -48 -19 -53q0 -9 36 -66q12 97 12 196z" />
    <glyph glyph-name="m" unicode="m" 
d="M364 455q0 -5 -10.5 -65t-10.5 -65v-212q0 -33 -3 -40t-19 -14q-23 -11 -45 -30q-15 0 -15 11q0 1 9 26.5t12 51.5q6 84 11 168q7 97 30 174q-10 8 -20 16.5t-7 23.5q-2 3 -2 5q0 3 12 -7q17 -13 18 -14q11 16 11 38q-30 14 -87 36q-14 0 -20 -7q-8 -39 -19 -119
q0 -6 10 -26q-2 0 -26 12l-12 -112q-15 9 -15 25q0 5 8 88.5t8 89.5q0 38 -7 48q-10 13 -47 13q-18 0 -21 -1q-9 -5 -19 -30q-8 -19 -10 -51l-2 -56q-6 -73 -14 -194q3 -3 27 -8q19 -27 19 -110q0 -70 -23 -70q-5 0 -12 3t-11 3q33 -3 33 54q0 39 -15 101h-19
q-1 -51 -10 -157q-2 -2 -7 -8q-8 6 -8 22q0 8 3 24.5t3 21.5v194q0 4 -2.5 20t-3.5 25q-3 4 -10 12q-1 10 -1 59q0 61 9 132q6 40 1 60q20 -35 12 -73q-3 -11 -3 -59l34 60q23 39 46 39q38 0 57 -14q12 -9 13 -38q-1 -22 -1 -44q1 -6 4 -12q7 20 7.5 49t5.5 37q8 14 36 14
q24 0 88 -27q18 -7 20 -21q0 -2 -4 -40q14 -13 14 -32zM341 463q-15 -65 -22 -190q-8 -129 -25 -210q11 3 27 9q2 8 2 79v149q0 40 18 163zM65 500q-5 -10 -14 -29h-5q-6 -71 2 -136q6 56 17 165z" />
    <glyph glyph-name="n" unicode="n" horiz-adv-x="443" 
d="M415 290q0 -58 -16 -192q-2 -17 -37 -16q0 -15 -8 -31q-9 -19 -21 -19q-3 0 -23.5 4.5t-32.5 5.5q-17 2 -23 8q1 -7 2 28q0 19 -10 19q-4 0 -7.5 -1.5t-7.5 -1.5q-16 0 -16 19q0 -10 13 53q13 60 13 110v87q0 3 6 36.5t6 37.5q0 65 -106 149q-5 4 -21 9l-63 -531
q0 50 1 100q2 35 11 67q2 24 8 71q8 42 12 109q6 99 7 103q3 22 9 65l-3 15q-9 3 -23 -4q12 11 27 11q0 17 10 27q6 -12 1 -22q28 -14 34 -14t11 4q-10 6 -30 19h16q4 1 16 -6.5t15 -7.5t13.5 1.5t14.5 1.5q49 0 110 -60q58 -56 71 -105l12 3q9 -29 9 -28v-124zM79 511
q0 -121 -7 -206q-5 -36 -13 -107q-1 -10 -6 -42q-4 -27 -4 -43q0 -22 6 -39h-17q-3 12 -3 37q0 3 9 75q10 81 13 116q4 43 8 183q2 77 10 131q4 -48 4 -105zM344 498q-26 34 -63 63q-44 34 -69 34q-4 0 -8 -2t-7 -2q51 -33 147 -93zM374 442q-2 9 -8 20q-3 3 -111 72
q-25 19 -74 55h-16q28 -25 78 -79q8 -10 22 -59q21 3 37 3q3 0 18.5 -4.5t19.5 -4.5t16.5 -1.5t17.5 -1.5zM384 383v29h-5v-29h5zM391 342q-1 4 -5.5 10.5t-4.5 9.5q0 2 0 -118q0 2 7 49q4 30 3 49zM396 209v17h-6v-17h6zM393 186v13h-5v-13h5zM368 145v243q0 4 -2 16t-2 15
q-37 23 -96 20q-12 -31 -12 -49v-144q0 -20 -8 -62q-5 -24 -18 -72q63 1 107 -12q11 -3 16 4q1 27 15 41zM344 82q-48 12 -73 13q-12 3 -12 -6q0 -3 1.5 -16t1.5 -17q39 0 73 -9q13 27 9 35z" />
    <glyph glyph-name="o" unicode="o" horiz-adv-x="486" 
d="M191 40q-22 6 -43 12q-29 10 -53 28q26 -47 52 -47q4 0 5.5 1.5t5 1.5t17 2t16.5 2zM82 91v0v0v0zM335 566v5h-16v-5h16zM341 520q0 16 -1.5 26t-1.5 9h-24q3 0 -39 -12q7 10 21 15q18 7 19 8q-13 8 -48 25q-43 20 -56 20q-28 0 -32 -31q-2 -26 -5 -51q12 11 26 11
q26 0 141 -20zM342 314v196q-51 6 -150 18q-21 -18 -25 -52q-4 -40 -9 -81q-23 -110 -23 -127q0 -4 2 -11t2 -8q18 3 39 10q12 4 41 4q4 0 27.5 -1.5t26.5 -1.5q69 0 69 54zM442 338q0 174 -85 211v-37l14 -14q-3 0 -8 2t-6 2q0 -14 2 -78q1 -48 -1 -77q-1 -42 -3 -50
q-6 -30 -27 -42q-16 -10 -57 -10q-3 0 -35 1.5t-36 1.5q-3 0 -29.5 -8.5t-30.5 -8.5q-19 0 -19 32q0 25 31 206q-77 -95 -92 -173q8 21 20 32v-3q-36 -86 -36 -100q0 -16 26 -26q0 8 4 8q2 -3 3 -13q43 -28 91 -39l84 -14q76 -16 68 -16h23q19 0 26 6q10 68 8 108q-5 2 -4 4
q1 3 8 3q6 -86 -3 -115q18 4 31.5 21.5t10.5 30.5q4 1 6 4q16 119 16 151zM454 356q0 -93 -19 -186q-3 -14 -34 -61q12 -8 34 4q3 -15 -16 -16q-29 -3 -44 -16q-1 -11 4 -35q-7 -16 -64 -16q-4 0 -24 1.5t-23 1.5q-4 0 -10.5 -3.5t-8.5 -4.5q-43 -13 -71 -13q-3 0 -20 4.5
t-21 4.5t-5.5 -1.5t-4.5 -1.5q-22 0 -35 16q-1 12 -8 32q-15 21 -45 59q-14 18 -20 57q-1 7 -10 31q3 -6 11 -18q3 16 8 46q9 48 29 101q9 25 44 77q27 40 54 79q1 14 5 38q2 20 4 41.5t11 35t33 13.5q8 0 33 -11q30 -14 35 -15q21 -3 62 -14q6 -7 18 -22q5 -1 15 -4
q83 -54 83 -204zM397 127q-11 -6 -19 -6q0 -10 -3 -13q15 5 22 19zM368 48q-6 19 -6 29q-10 -4 -33.5 -16.5t-33.5 -17.5l45 2q4 0 15 1.5t13 1.5zM368 115q3 1 -41 1q-7 0 -73 12q-73 14 -114 24q-26 6 -60 28v-15q0 -4 3 -14t3 -13q4 -36 9 -45q11 -19 57 -31
q39 -11 72 -11q32 0 64 12q38 16 76 33q1 6 4 19zM226 29v5h-13v-5h13zM209 29v5l-23 -3v-5zM84 104q-11 50 -12 82q-20 11 -33 27q-4 -12 -4 -28q0 -22 12 -39q7 -11 37 -42z" />
    <glyph glyph-name="p" unicode="p" horiz-adv-x="432" 
d="M401 334q0 -27 -7 -44q-19 -43 -49 -66q-11 -5 -28 -19q-7 -17 -15 -34q-11 -26 -23 -37q-46 -44 -66 -44q-25 0 -34 31l-6 48h-19q0 1 0 -154h-16q-3 0 -15 7t-21 8q-1 -46 -9 -140q-1 -7 -34 -14q-8 7 -5 32.5t-1 33.5l-5 2h-3q-5 11 -5 23q0 3 12 76q13 85 18 120
q-8 2 -27 0l-23 -3q-13 0 -13 18q0 10 17 21q0 -5 -6 -22q7 0 24 1.5t28 1.5q6 67 6 108v295q1 5 16 10.5t20 5.5q24 0 61 -13q26 -11 53 -21q3 -1 12.5 -7.5t13.5 -6.5t5.5 1.5t5.5 1.5q7 0 13 -9.5t11 -18.5q44 -47 55 -60q38 -44 46 -67q13 -35 13 -65zM383 334
q0 43 -20 76q-1 1 -66 87q0 -4 16 -143q-3 -7 -4 -19q17 -87 15 -106q33 27 46 49.5t13 55.5zM308 250q0 4 -9 44.5t-9 44t-4 37.5q-4 39 -5 53q3 2 12 2v17q0 14 -16 66q-2 6 -22 16q-30 -55 -44 -160q-10 -91 -20 -183q28 5 55 10q34 7 54 18q8 17 8 35zM242 541
q-94 46 -131 46q-4 0 -13.5 -1.5t-12.5 -1.5v-398h51q-2 65 -1 104v40q1 13 1 9q-3 37 -8 111q-1 10 1 27.5t2 25.5q0 27 -12 56q-4 9 1 13q15 -10 18 -20q10 -32 10 -57q0 -59 -1 -88q-1 -19 -1 -17q4 -103 10 -206q13 0 19 3q19 174 21 186q16 108 46 168zM295 196
q-42 -18 -67 -18q-3 0 -17 -3.5t-20 -3.5v-43q-1 -4 6 -13.5t15 -9.5q15 0 51 38.5t32 52.5zM145 24q-10 64 -9 144q-10 0 -28 -1.5t-23 -1.5q-1 -26 -11 -81q-10 -51 -10 -53v-142q16 1 18.5 1.5t3.5 8.5l5 137q-10 0 -12 1q6 4 19 11q0 -11 11 -15q18 -4 36 -9z" />
    <glyph glyph-name="q" unicode="q" horiz-adv-x="458" 
d="M427 -89q0 -60 -50 -60q-3 0 -33 1.5t-34 1.5q-25 0 -25 20q0 26 13 96q18 94 18 150q0 20 -2 26q-31 -19 -45 -19q-4 0 -11 1.5t-11 1.5t-49 -12t-49 -12q-28 0 -90 25q-20 9 -30 28q-14 24 -14 54q0 -3 12 54q15 78 59 134q50 64 114 64q32 0 72 -17q30 -15 61 -29
q9 8 9 18q0 -21 8 -34q-4 1 -6 -2q-10 -122 -10 -154q0 -6 5 -13q1 -17 2.5 -35t9.5 -18q-2 -9 -3 -28q-4 -2 -13 -10q0 -4 -3 -12q0 -42 -8 -110q-3 -23 -12 -79q-8 -51 -8 -54q0 -14 2 -19q13 2 39 0q30 -2 28 -2q20 0 18 -1q7 3 17 27l-2 20q-19 -28 -72 -28q-13 0 -20 4
v5q21 3 64 16q3 1 16.5 12.5t18.5 11.5q14 0 14 -23zM334 409q-24 5 -70 15q6 -22 6 -49q0 -34 -12 -101.5t-12 -96.5q33 -7 50 -7t22 -3q3 71 16 242zM295 153q-44 6 -48 7q-20 7 -20 30q0 -4 14 64q14 65 14 116q0 5 -4 50q-5 8 -11 22q-17 7 -37 7q-76 0 -128 -95
q-41 -77 -41 -142q0 -41 33 -64.5t78 -23.5h22q4 0 32.5 11t32.5 11t20 -1.5t20 -1.5q5 0 12.5 5t10.5 5zM233 373q0 -29 -18 -78q-22 -57 -46 -57q-44 0 -44 52v16q1 10 1 13q0 51 0 48q2 27 16 45q8 9 32 20t37 11q9 -5 16 -31q6 -22 6 -39zM218 373q0 12 -5 29
q-6 23 -15 23q-44 0 -56 -59q-4 -19 -4 -78q0 -4 2 -10.5t2 -8.5q22 -16 25 -16q17 0 36 56q15 47 15 64z" />
    <glyph glyph-name="r" unicode="r" horiz-adv-x="357" 
d="M341 396q0 -15 -14 -32q-22 -27 -29 -41h-6q0 6 -2 26t-2 24t6.5 24.5t6.5 24.5q0 8 -12 24q-19 -1 -56 5q-19 10 -54 24q13 5 35 5q4 0 10.5 -4t10.5 -5q-5 8 -28 18.5t-40 10.5q-56 0 -98 -38v-3q-5 -34 -5 -106v-106q0 -3 1 -71.5t1 -76.5q0 -4 -3.5 -14t-3.5 -18
q26 25 46 42q-1 10 2 29t3 20q0 4 -7 20t-9 23q-11 48 -11 79q0 8 2 31q2 19 0 35q0 1 -4 4t-4 4q1 1 4 0.5t4 2.5q3 36 3 106q12 -16 14 -52q1 -29 2 -57q11 -4 35 -17q10 -9 10 -27q0 -5 -22 -132q2 -28 -5 -80q-5 -11 -22.5 -18.5t-32.5 -14.5q4 -7 23 -19q-46 7 -57 26
q-6 8 -6 38q0 5 5 99t5 98v171q0 16 12 42q-3 -10 1 -17q3 0 7.5 5t11.5 8q0 -12 3 -36q54 36 91 36q23 0 91 -35q2 -1 40 -13q30 -8 35 -18q12 -21 12 -54zM328 389l-12 35q-1 -4 -13 -38q-8 -25 -8 -38q0 -6 1 -10q3 8 18 29q14 18 14 22zM55 461v25h-6v-25h6zM136 315
q0 10 -11.5 15.5t-23.5 10.5q0 -9 -2 -30t-2 -24q0 -28 14 -91q25 99 25 119zM52 78v78h-6v-78h6z" />
    <glyph glyph-name="s" unicode="s" horiz-adv-x="411" 
d="M391 455q0 -11 -28 -27t-35 -16q-13 0 -16 21q0 4 9 27q10 29 13 39q-24 21 -103 21q-26 0 -80.5 -53t-54.5 -76q0 -20 18 -26q138 -48 155 -48q4 0 10 1.5t9 1.5q5 0 21 -13t16 -68v-108q0 -4 -8.5 -14t-10.5 -15q-3 -16 -11 -42q-10 -3 -28 -11q-1 -1 -17 -24
q-8 3 -8 9q0 3 2 8.5t2 8.5q-7 3 -31 4q-44 4 -92 16q-27 7 -28 8q-19 6 -26 16q-1 6 -3 17q-12 18 -25 36q-24 37 -24 47q0 20 46 20q4 0 17 -15q-32 0 -47 -6q12 -23 43 -63q2 -9 8 -25q2 -4 30.5 -14t40.5 -10q3 0 20 -3t21 -3t19 -2t19 -2q13 0 17 6q12 76 29 189
q-17 13 -125 20q-31 -1 -62 7q-41 12 -41 34q0 3 10 33q15 2 15 -3q0 -4 -6.5 -14.5t-6.5 -14.5q0 -13 30 -22l30 -6l55 2q-2 1 -6.5 3t-6.5 3q6 2 20.5 5t20.5 5q-15 11 -61 22q-40 9 -51.5 23.5t-11.5 26.5q0 27 35 57q40 34 40 35q-5 13 -1 20q10 16 48 26q28 7 51 7
q13 0 61 -11q2 0 10.5 -5.5t12.5 -5.5q5 0 8 4.5t4 4.5q0 -5 2 -17q37 -40 37 -51zM375 454v15q-9 8 -16 5q-12 3 -17 8q-7 -19 -15 -54q26 10 48 26zM189 504l-3 4l-21 -17l3 -4zM301 291l-7 7l3 -20q6 7 4 13zM283 282v18q-73 0 -85 1q29 -5 85 -19zM309 172q0 35 -10 89
q-9 -58 -27 -173q15 13 35 39q2 4 2 45z" />
    <glyph glyph-name="t" unicode="t" 
d="M365 344q0 -5 -10.5 -13.5t-16.5 -9.5q-11 6 -8 16q-32 0 -47 3q0 -5 1.5 -16t1.5 -16q-13 13 -41 36q-1 2 -1 15q-2 0 -35 -1q-12 -88 -43 -277q-1 1 2 -2q12 0 38.5 2t38.5 2q32 0 51 -10q-14 0 -49 -2.5t-36.5 -2.5t-21 -2.5t-30.5 -2.5q0 -1 -1.5 -3.5t-1.5 -6.5
q0 -6 8.5 -14t15.5 -8q14 0 51.5 17t51.5 17q8 0 13 -4v-14q-12 0 -47 -11q-9 -3 -39 -14q-23 -10 -27 -10q-10 0 -26.5 10t-18.5 20q-13 81 -13 172v102q0 41 -8 50q-50 7 -67 12q-34 10 -43 32h6q15 -17 48 -22l56 -8q1 1 4 5q-2 42 5 203q3 3 7 9q5 71 5 88l35 -2l2 -16
q-9 -4 -21 -15q-10 -17 -10 -30v-25q27 -6 60 -6q22 0 27.5 -7t5.5 -41q0 -24 -9 -76q-14 -74 -16 -88q3 -1 43 -5l56 -4q54 -7 54 -26zM222 502v74q-9 0 -27.5 1.5t-21.5 1.5q-23 0 -32 3q-6 -42 -6 -57q0 -59 1 -103q2 -40 2 -42q9 0 30.5 -1.5t30.5 -1.5q0 5 9 66
q1 10 8 35q6 22 6 24zM312 351v5h-24v-5h24zM287 354v5h-18v-5h18zM196 361h-58q0 -17 1.5 -24.5t1.5 -8.5v-99q0 -3 4 -58q5 -59 7 -81q14 92 44 271z" />
    <glyph glyph-name="u" unicode="u" horiz-adv-x="394" 
d="M348 90q0 -8 -7 -22q-1 0 -7 3t-10 3t-11.5 -5t-11.5 -4h-23q0 38 -4 38q-2 0 -92 -27q13 -5 38 -12q0 -12 -11 -12q-4 0 -13 3t-13 3q-23 0 -42 11q-30 16 -37 21q-23 14 -36 29q-8 9 -8 38q0 8 25 165q5 27 13 83q-1 -6 -1 81q4 -10 10 -29q5 7 10.5 23t15.5 25v-18
q1 -3 -3 -14t-5 -14q-2 -31 -8 -93q-15 -128 -15 -150q0 -132 46 -132q4 0 10 3t9 3q15 0 18 1q-8 4 -22 14q3 0 9.5 -1t10.5 -1q29 0 89 19q6 15 6 33q0 4 -5 79q-5 88 -6 119q-3 61 -21 174q5 0 8.5 -1.5t7.5 -1.5q3 0 13 5t14 5q28 0 54 -27q-1 -13 -4.5 -44.5
t-3.5 -35.5v-240q0 -4 6.5 -48.5t6.5 -48.5zM332 502q-35 16 -43 16q-4 0 -15 -2t-15 -2q0 -1 1.5 -7t1.5 -8q12 6 16 1q0 -8 -3.5 -29.5t-2.5 -30.5q5 -37 11 -103q9 -208 8 -260q14 4 38 10v30q0 5 -4.5 22.5t-4.5 22.5v105q0 13 1 40.5t1 29.5v100q0 7 10 65zM101 114
q-15 52 -13 136q-2 -14 -7 -51q-5 -31 -5 -36q0 -45 25 -49z" />
    <glyph glyph-name="v" unicode="v" horiz-adv-x="311" 
d="M273 442q0 2 -59 -183l-28 -104q-17 -60 -42 -105q0 2 4 12t4 14t-9 16t-12 19q-14 43 -41 119l-2 2q6 -32 30 -99q22 -61 22 -62v-15q-10 0 -15 7q-29 64 -62 200q-2 7 -12 35q-9 24 -9 28q0 10 9 13h7q3 -3 5 0q-9 54 -24 161l4 37q10 -43 24 -130q10 -59 24 -92l-3 -3
q18 -69 28 -100q18 -60 41 -106q22 81 43 162q31 117 61 183q12 0 12 -9zM84 246q-6 27 -19 77q-5 -1 -7 -6q11 -25 26 -71z" />
    <glyph glyph-name="w" unicode="w" horiz-adv-x="527" 
d="M499 560l-4 -15q-9 2 -23 23q-27 -85 -65 -233q-3 -43 -15 -122q-7 -29 -31 -70l2 -21q16 23 29 74q-2 -24 -5 -48q-5 -31 -18 -41q-7 -2 -21 -8q-2 -8 -7 -21h-14q-2 48 -31 148q5 10 3 16q-2 7 -45 111q-24 -50 -65 -144h-3l-26 -42q-19 -30 -19 -48q0 -9 4 -16h5
q0 -3 -2 -17t-2 -21q-6 0 -14.5 -8.5t-12.5 -8.5q-14 0 -23 30q-3 24 -7 48q-6 35 -23 54q-6 7 -23 15t-21 11q-1 22 28 51.5t29 47.5q0 3 -8 67q-11 73 -14 104q3 117 6 117q7 -77 7 -114q0 -12 10 -88q12 -83 17 -83q4 0 5.5 3t5.5 3q10 0 16 -28q5 -20 5 -31q1 -2 10 -88
q32 42 103 201q-1 14 -1 41q5 8 14 6q3 -1 6 4q14 32 18 62q-23 -26 -45 -63q-10 -17 -19 -48q-3 -12 -5 -24q-5 -17 -14 -24q-3 -1 -6 1t-5 2q23 68 35 91q23 48 66 91q11 -12 11 -18q0 -4 -14 -45.5t-14 -45.5t8 -19q11 -20 16 -30q17 -39 28 -81q8 -34 29 -104
q16 26 23 53q6 46 18 128q6 34 28 106q32 108 36 125q2 8 17 8q7 0 27 -24zM287 319q-7 27 -24 55v-7q13 -24 24 -48zM295 305l-4 13l-4 -2l3 -11h5zM127 143q0 -11 -18 148q-1 3 -10 7v-17q0 -5 2.5 -16t2.5 -13q6 -61 5 -139q18 18 18 30zM88 169q0 75 -7 107
q-3 -5 -27 -29q-19 -20 -19 -24v-14q13 -2 30.5 -14t22.5 -26z" />
    <glyph glyph-name="x" unicode="x" horiz-adv-x="414" 
d="M392 45q-11 -10 -33 -18l-23 6q13 0 31 6l-149 86q-5 0 -5 -4v0q0 -3 -4 -3q-5 0 -6 2t-2 2q-18 60 -28 119q0 2 1.5 5.5t1.5 7.5q1 0 -5 7q-22 -41 -61 -121q-16 -36 -53 -98h-6v14q-1 13 23 55q-4 -9 -7 -17q-5 -11 -5 -22q0 -5 1 -10q123 257 123 258q0 10 -62 114
q-66 110 -77 160q5 2 14 2q-2 3 -4 -2q-2 -6 1 -10q6 -7 23 -8q23 -42 128 -207q20 26 50 82q37 69 47 85q19 0 33 -41q-15 1 -21 -5q-21 -30 -67 -92q-21 -28 -30 -47l159 -268q0 -6 5 -17zM89 136l-2 -4l-4 2l5 6zM82 125l-4 -6v-3l-3 4zM316 498l-5 5l-7 -4l8 -5z
M198 353q-45 74 -129 214q2 -5 118 -212q8 -9 11 -2zM314 170q-38 60 -101 164l-4 -3q30 -75 105 -161zM324 163l-1 4l-5 -2l5 -5zM334 146l-1 6l-7 2l5 -4zM344 133l-8 7l3 -7l3 -5zM360 62q-11 16 -87 126q-51 73 -74 118q-16 -24 -16 -35q0 -5 2 -15t2 -11q4 -21 11 -60
q5 -5 11 -14q12 -35 63 -63z" />
    <glyph glyph-name="y" unicode="y" horiz-adv-x="469" 
d="M442 375l2 -13q1 -11 0 -19q-1 -11 -7 -18q-37 -43 -208 -205q5 -5 14 0q-21 -10 -37 -35q0 -7 -2 -21q-2 1 -5.5 3t-5.5 4l-36 -42q-20 -25 -30 -52q11 3 24 27q17 28 25 36l5 -5q0 -10 2 -13v-3q7 6 12 6l-12 -13l-10 10q-29 -49 -90 -147l-11 -3q4 22 17 52q-2 3 -5 1
q-32 -35 -57 -57q24 26 67 82q17 25 38.5 68.5t21.5 50.5q0 4 -10 17q-13 17 -17 23q-19 36 -48 116q-45 124 -45 125q11 4 33 13q6 -10 9 -38q3 -37 5 -45q-3 2 -4 2q-9 0 19 -45.5t34 -45.5q3 0 17.5 8.5t19.5 8.5q17 0 23 -25q3 -20 7 -40q38 59 98 124q59 61 119 123
q7 7 2 26q2 2 9 3q8 0 12 -4q5 -47 5 -40zM424 336v37q-187 -185 -228 -268zM174 194q-15 -3 -37 -15q13 -39 36 -74q6 47 1 89zM131 169l-5 5l-4 -4l3 -9zM115 184l-11 5l4 -4l6 -7zM130 141v9l-5 -2zM141 123l-4 13l-5 -2l5 -5z" />
    <glyph glyph-name="z" unicode="z" horiz-adv-x="520" 
d="M421 41h-17v4h17v-4zM392 43l4 7l3 -6l-1 -4zM386 45l-16 -1l10 3l6 2v-4zM486 41q0 -1 -1 -5.5t-1 -5.5h-51q-40 0 -35 0q-2 0 -7.5 2.5t-8.5 2.5h-24q-2 0 -8 3t-10 3q-1 0 -7 -4q-5 0 -19.5 -1t-17 -1t-55.5 -2q-58 -2 -84 -2t-81 -4q-3 -1 -10.5 -5t-10.5 -4
q-30 0 -30 21q0 8 7 17q-3 2 -15 7q6 4 26 9q6 2 18 13q0 -6 3 -8.5t6 -2.5q43 47 118 126q29 29 138 156q13 15 28 46q10 22 22 26q1 16 6 49h-15q0 3 5 7q-8 2 -42 2q-9 0 -96 19.5t-116 19.5q-12 0 -39 -31q-16 -19 -31 -38q0 3 -5 11.5t-5 12.5q-3 27 -3 46q0 9 8 18
q-1 0 13 -7h20q3 0 7.5 1t7.5 1t15.5 -3t16.5 -3q68 -6 100 -13q106 -23 100 -23h12q3 0 9 1.5t9 1.5q33 0 35 -25v-49q8 7 12 5l8 4h11q-14 -17 -34 -50q-2 -4 -5 -29q-2 -19 -9 -28q-6 4 -6 8q0 2 2.5 9t2.5 14q-4 0 -5 -2q-56 -84 -92 -144q-15 -25 -30 -43
q-69 -84 -69 -85t3 -3q3 -1 0 -9q20 -6 84 -6l4.5 -3t7.5 -3.5t15 -0.5q1 0 61 -3t71 -3h23q15 1 21 1q4 12 1 23q-3 14 -3 16v19q21 -8 21 -48q0 -14 -4 -20q0 -4 7 -4zM367 391l-5 -8l-5 -2l8 -5zM358 369l-9 -7l-8 -11l10 7zM94 527q-6 0 -11 -2q-10 5 -12 5
q-4 0 -9.5 -1.5t-6.5 -1.5q5 -27 0 -48q9 14 39 48zM48 498l-2 34h-5l3 -34h4zM476 51q1 19 -6 48q0 -5 3 -19t3 -20q0 -18 -23 -17q8 -1 23 8zM311 319q-32 -46 -109 -123q-60 -61 -120 -121q8 0 10 -2q-5 -1 -12 -3q-7 -8 -8 -8l-4 7q-9 0 -16 -6q38 -1 100 -2q-1 0 -17 2
q-6 1 -10 5q6 6 15 6q14 0 21 -2l8 22q-7 3 -7 11q13 6 16 11q16 26 47 72q25 31 50 63q27 38 36 68zM340 45q-10 0 -29 1.5t-20 1.5q-4 0 -12 1.5t-11 1.5q-2 0 -22 -4t-28 -4h40q15 0 44.5 1t37.5 1zM164 61l-12 -6l4 8zM169 50q-9 0 -45 -1q-27 -1 -43 0q-5 0 -17 2
t-14 2q-18 0 -18 -14q0 -3 4 -6.5t4 -4.5q9 0 26 5t25 5l58 3q13 0 20 9zM44 66v4l-11 -2v-4z" />
    <glyph glyph-name="quoteleft" unicode="&#x2018;" horiz-adv-x="244" 
d="M209 614l-4 -19q-8 2 -31 10q-19 7 -23 7q-9 0 -18 -5q-13 -103 -13 -92q0 -14 6 -14l21 3v-18h-20h-22q0 1 -1.5 7t-1.5 10q0 9 15 101q1 -1 -14 -1q-26 0 -26 31q0 21 10 42q12 25 30 25q8 0 18 -9l4 -2q-3 -50 -1 -61q4 2 19 12q12 8 17 8q13 0 19 -10q15 -24 16 -25z
M190 616v5q-5 6 -12 12h-8l-2 -6q16 -7 22 -11zM132 682q-7 7 -14 7q-9 0 -20 -28q-9 -24 -9 -30q0 -5 2 -8t2 -4q21 3 26 3q4 20 13 60z" />
    <glyph glyph-name="quoteright" unicode="&#x2019;" horiz-adv-x="230" 
d="M77 562q12 20 28 20q9 0 13 -7.5t8 -14.5q14 58 11 106q-6 1 -18 6q1 3 13.5 9.5t19.5 5.5l3 -33q0 -1 -5 -50q0 -8 -5 -25t-5 -20q0 -4 18.5 -18t18.5 -18q0 -14 -32 -25q-24 -9 -33 -9q-5 0 -11.5 5t-6.5 9h4q4 1 4 14q1 -12 14 -12q6 0 16.5 5.5t10.5 12.5q0 5 -14 20
q-22 23 -24 26l-16 -6q-12 -6 -12 -15q-1 5 0 14z" />
    <glyph glyph-name="quotedblleft" unicode="&#x201c;" horiz-adv-x="475" 
d="M411 625q-12 -19 -28 -19q-9 0 -13 7.5t-8 14.5q-14 -59 -12 -106q7 -2 19 -6q-2 -4 -14 -10.5t-19 -5.5l-4 34l5 49q1 8 6 25t5 21t-18.5 18t-18.5 17q0 14 31 26q24 8 33 8q6 0 12 -5t6 -8h-4q-3 -2 -3 -14q-1 12 -14 12q-6 0 -16.5 -6t-10.5 -13q0 -4 14 -20
q22 -23 24 -26q8 4 17.5 8t9.5 14q2 -5 1 -15zM209 614l-4 -19q-8 2 -31 10q-19 7 -23 7q-9 0 -18 -5q-13 -103 -13 -92q0 -14 6 -14l21 3v-18h-20h-22q0 1 -1.5 7t-1.5 10q0 9 15 101q1 -1 -14 -1q-26 0 -26 31q0 21 10 42q12 25 30 25q8 0 18 -9l4 -2q-3 -50 -1 -61
q4 2 19 12q12 8 17 8q13 0 19 -10q15 -24 16 -25zM190 616v5q-5 6 -12 12h-8l-2 -6q16 -7 22 -11zM132 682q-7 7 -14 7q-9 0 -20 -28q-9 -24 -9 -30q0 -5 2 -8t2 -4q21 3 26 3q4 20 13 60z" />
    <glyph glyph-name="quotedblright" unicode="&#x201d;" horiz-adv-x="475" 
d="M77 562q12 20 28 20q9 0 13 -7.5t8 -14.5q14 58 11 106q-6 1 -18 6q1 3 13.5 9.5t19.5 5.5l3 -33q0 -1 -5 -50q0 -8 -5 -25t-5 -20q0 -4 18.5 -18t18.5 -18q0 -14 -32 -25q-24 -9 -33 -9q-5 0 -11.5 5t-6.5 9h4q4 1 4 14q1 -12 14 -12q6 0 16.5 5.5t10.5 12.5q0 5 -14 20
q-22 23 -24 26l-16 -6q-12 -6 -12 -15q-1 5 0 14zM279 574l4 18q7 -2 31 -10q19 -7 23 -7q9 0 18 6q13 102 13 91q0 14 -6 14l-21 -2v17h20h22q0 -1 1.5 -6.5t1.5 -9.5q0 -9 -15 -102q-1 2 14 2q26 0 26 -31q0 -21 -10 -42q-12 -26 -30 -26q-8 0 -18 10l-4 2q3 50 1 61
q-5 -2 -18 -11t-18 -9q-13 0 -19 9q-16 25 -16 26zM298 572v-5q5 -6 12 -12h8l2 5q-16 7 -22 12zM355 506q8 -7 14 -7q10 0 21 28q9 23 9 30q0 4 -2 7.5t-2 4.5q-21 -4 -27 -3q-3 -21 -13 -60z" />
  </font>
</defs>
</svg>
