<?xml version="1.0" standalone="no"?>
<!DOCTYPE svg PUBLIC "-//W3C//DTD SVG 1.1//EN" "http://www.w3.org/Graphics/SVG/1.1/DTD/svg11.dtd" >
<svg xmlns="http://www.w3.org/2000/svg" xmlns:xlink="http://www.w3.org/1999/xlink" version="1.1">
<metadata>
Created by FontForge 20230101 at Thu Nov 20 15:21:52 1997
 By Glenn Lewis
http://members.aol.com/vroomfonde/ttf/ - Doctor Azul Copyright (c) 1997 Tom Murphy 7 - Free! But do not resell (on CD, for instance!) - ImightbeTM@aol.com - Tom 7 - 339 Still Hill Rd - Hamden CT 06518.1830 - USA - Enjoy! Doctor Azul has little patients..
</metadata>
<defs>
<font id="DoctorAzul" horiz-adv-x="619" >
  <font-face 
    font-family="Doctor Azul"
    font-weight="400"
    font-stretch="normal"
    units-per-em="1000"
    panose-1="0 0 4 0 0 0 0 0 0 0"
    ascent="800"
    descent="-200"
    x-height="718"
    cap-height="746"
    bbox="-3 -43 720 800"
    underline-thickness="20"
    underline-position="-143"
    unicode-range="U+0020-2026"
  />
<missing-glyph horiz-adv-x="500" 
d="M63 0v800h375v-800h-375zM125 63h250v675h-250v-675z" />
    <glyph glyph-name=".notdef" horiz-adv-x="500" 
d="M63 0v800h375v-800h-375zM125 63h250v675h-250v-675z" />
    <glyph glyph-name=".null" horiz-adv-x="0" 
 />
    <glyph glyph-name="nonmarkingreturn" horiz-adv-x="500" 
 />
    <glyph glyph-name="space" unicode=" " horiz-adv-x="500" 
 />
    <glyph glyph-name="exclam" unicode="!" horiz-adv-x="185" 
d="M94 768q18 -73 8 -162q-1 -14 6 -90q3 -24 3 -55q0 -33 -4.5 -100.5t-4.5 -96.5q0 -75 6 -114l-15 -2q-6 40 -6 116q0 29 4.5 96t4.5 101q0 29 -3 53q-7 78 -6 94q10 86 -7 156zM93 35q-7 10 -3 21q5 15 17 15q14 1 20 -18q8 -26 -14 -29q-12 -2 -20 11z" />
    <glyph glyph-name="quotedbl" unicode="&#x22;" horiz-adv-x="302" 
d="M91 722q-4 2 -9 4q-1 -16 8 -51l-6 -4q-8 15 -20 43q-6 24 -6 22q0 27 2 30q9 10 23 10q13 0 24.5 -9t11.5 -21q0 -23 -20 -23q-2 0 -5 -1h-3zM202 721q-4 2 -9 4q-1 -16 8 -51l-6 -4q-8 15 -20 43q-6 24 -6 22q0 2 -1 9.5t-1 11.5q1 5 4 9q9 10 23 10q13 0 24.5 -9
t11.5 -21q0 -23 -20 -23q-2 0 -5 -1h-3z" />
    <glyph glyph-name="quotesingle" unicode="'" horiz-adv-x="152" 
d="M70 684q3 -2 8 -4q2 16 -8 51l6 4q8 -14 20 -43q7 -24 7 -21q0 -28 -3 -31q-8 -10 -22 -10t-25 9t-11 22q0 22 19 22q2 0 5 1h4z" />
    <glyph glyph-name="parenleft" unicode="(" horiz-adv-x="319" 
d="M215 2q8 8 14 19q-50 35 -87 115q-65 142 -65 312q0 106 73 221q1 3 4 10q46 65 83 82q-8 13 -15 25l14 8q13 -25 39 -62l1 -1v0l-6 -14q-7 3 -25 31q-34 -14 -79 -77l-8 -8q-66 -105 -66 -215q0 -167 64 -306q34 -74 79 -107q5 11 17 33l12 -8q-8 -23 -37 -68z" />
    <glyph glyph-name="parenright" unicode=")" horiz-adv-x="362" 
d="M92 724q4 3 20 27t21 36l14 -6q-6 -13 -22 -38q21 -14 41 -38q17 -23 35 -45q111 -127 111 -311q0 -88 -43 -180q-47 -100 -117 -138q7 -9 23 -29l-12 -10q-2 2 -25 33q-4 -2 -7 -3l-6 14l3 1q-10 11 -24 21l8 12q18 -11 30 -27q67 34 112 130q43 90 43 176
q0 107 -38 189q-29 63 -105 158q-18 22 -38 35q-10 -16 -14 -19z" />
    <glyph glyph-name="plus" unicode="+" horiz-adv-x="429" 
d="M401 507q0 -1 9 -70l-14 -2q-1 4 -4 32q-28 2 -74 -4q-60 -9 -74 -9l-15 -1q8 -76 17 -122q11 4 21 8l6 -14q-22 -9 -53 -18l-4 14q9 3 16 5q-10 47 -18 126q-58 -2 -177 -14q4 -13 4 -22l-14 -2q-4 16 -9 53h14l2 -14q46 7 179 14q-7 67 -27 199q-11 -1 -17 -1v14
q52 3 50 3l-2 -14h-16q11 -56 26 -200h17q14 1 73 10q45 6 73 4q-1 12 -3 21z" />
    <glyph glyph-name="comma" unicode="," horiz-adv-x="152" 
d="M69 8q3 2 8 4q1 -16 -8 -51l6 -4q8 15 20 44q7 23 7 21q0 3 1 10t0 11q-1 5 -4 9q-9 11 -22 11q-14 0 -25 -9.5t-11 -21.5q0 -23 19 -23q15 0 9 -1z" />
    <glyph glyph-name="hyphen" unicode="-" horiz-adv-x="316" 
d="M39 438q42 0 117.5 3t116.5 3v-15q-41 0 -116.5 -3t-117.5 -3v15z" />
    <glyph glyph-name="hyphen" unicode="&#x2010;" horiz-adv-x="316" 
d="M39 438q42 0 117.5 3t116.5 3v-15q-41 0 -116.5 -3t-117.5 -3v15z" />
    <glyph glyph-name="hyphen" unicode="&#x2010;" horiz-adv-x="316" 
d="M39 438q42 0 117.5 3t116.5 3v-15q-41 0 -116.5 -3t-117.5 -3v15z" />
    <glyph glyph-name="period" unicode="." horiz-adv-x="138" 
d="M34 22q0 15 10 25.5t25 10.5q14 0 24 -10.5t10 -25.5t-10 -25.5t-24 -10.5q-15 0 -25 10.5t-10 25.5z" />
    <glyph glyph-name="slash" unicode="/" horiz-adv-x="443" 
d="M44 44q26 52 75 161q12 24 37 78q79 174 84 182q42 89 96 176q20 39 63 116l12 -8q-18 -37 -63 -116q-53 -86 -95 -175q-4 -7 -83 -181q-13 -25 -35.5 -78t-76.5 -161z" />
    <glyph glyph-name="zero" unicode="0" horiz-adv-x="584" 
d="M398 758q22 -11 39 -24q37 -29 71 -102q49 -104 49 -198q0 -58 -20 -200q-10 -71 -29 -107q-28 -54 -86 -85t-122 -31q-127 0 -194 113q-56 94 -56 231q0 187 53 300q25 56 72 91q51 40 111 40q56 0 112 -28zM395 743q-58 28 -109 28q-55 0 -102 -37q-43 -33 -68 -85
q-51 -110 -51 -294q0 -131 52 -220q62 -109 183 -109q60 0 114.5 29t80.5 78q17 34 27 103q20 141 20 198q0 91 -47 192q-24 50 -27 55q-14 24 -38 42q-13 10 -35 20z" />
    <glyph glyph-name="one" unicode="1" horiz-adv-x="417" 
d="M377 6q1 14 3 35q-5 0 -26 -1.5t-31 -1.5q-24 1 -65.5 5t-63.5 4q4 0 -48 3q-19 1 -45 -7q7 -16 16 -30l-12 -8q-25 35 -33 81l14 2q3 -16 9 -31q21 6 35 7q9 1 26 -1q21 -1 38 -1q12 0 26 -1v2l2 1q1 21 -1 52q-2 36 -2 51q0 28 -1 87t-1 86q0 60 -13 178t-13 182
q0 -6 1 34q-39 -39 -119 -98q9 -12 22 -36l-14 -6q-3 6 -23 39q-15 24 -17 41l14 2q2 -11 11 -27q88 66 127 108l13 -4q0 12 0 -53q0 -64 13 -182t13 -178q0 -27 1 -86t1 -87q0 1 2 -48q2 -44 1 -59q61 -2 79 -2q30 0 62 3q3 23 3 31h15v-86h-19z" />
    <glyph glyph-name="two" unicode="2" horiz-adv-x="541" 
d="M70 61q23 17 45 26l62 24q12 5 40 17q17 7 98 63q166 115 166 343q0 67 -42 134q-49 78 -122 87q-11 2 -26 2q-88 0 -155 -55q-71 -57 -71 -136q0 -9 1 -18q22 2 36 7l6 -14q-25 -9 -83 -9v15h26q-1 10 -1 21q0 90 77 149q71 55 163 55q47 0 48 -1q65 -14 113 -93
q45 -73 45 -144q0 -236 -173 -355q-28 -22 -98 -65q-3 -1 -26 -10q-30 -12 -61 -24q-22 -8 -38 -17q6 0 19 1q39 4 29 4q10 0 53 -1q36 0 65 -1h5h222q-2 15 -4 38l15 2q10 -77 3 -99l-15 5q2 4 1 39h-287q-12 -1 -29 0q-18 2 -29 2q-10 0 -74 -5z" />
    <glyph glyph-name="three" unicode="3" horiz-adv-x="449" 
d="M42 71q13 3 52 45l10 -10q-6 -8 -22 -24q10 -11 31 -30v0q37 -21 111 -21q33 0 64 11q8 3 29 11q34 16 55 60q19 40 19 83q0 35 -33 90q-36 60 -67 60q-5 0 -10 -2h-5q-22 -1 -65 -7q2 -15 9 -52l-15 -3q-14 75 -14 117h15q0 8 4 -47q26 0 78 10q113 46 113 158
q0 66 -26 138q-38 107 -137 107q-36 0 -77.5 -18t-70.5 -43q-4 -4 -20 -22q-7 -6 -25 -29q11 -18 18 -36l-14 -5q-3 8 -41 74l11 12l18 -32q7 11 28 33q7 7 15 16q31 27 73 45q46 20 85 20q110 0 151 -117q27 -74 27 -143q0 -111 -105 -163q37 -15 68 -73q27 -52 27 -88
q0 -46 -20 -89q-23 -49 -63 -67q-48 -23 -111 -23q-56 0 -87 12q-7 3 -19 9q-13 10 -35 34q-15 -13 -25 -15z" />
    <glyph glyph-name="four" unicode="4" horiz-adv-x="437" 
d="M89 715q-14 -21 -51 -61l-1 -205q19 4 29 4h53q41 0 164 -4q-2 94 -9 281h-45h-7q-3 10 -3 15l12 1l89 -1q5 0 12.5 -1t12.5 -1v-15q-5 0 -12.5 1t-12.5 1h-31q5 -83 9 -281q60 -2 98 -2v-15q-38 0 -98 2l1 -61q2 -53 15 -204q1 -4 7 -51q4 -33 4 -55q0 -17 -2 -31
q15 1 25 1h30l-2 -15q1 0 -28 0q-11 0 -33 -1t-36 -1q-5 0 -13 1t-13 1v15q5 0 13 -1t13 -1q12 0 28 1q3 13 3 32q0 20 -4 54q-6 46 -6 50q-7 66 -15 204l-2 62q-123 4 -164 4h-53q-3 0 -35 -6l-8 8q0 55 1 219q19 21 54 65q-24 21 -31 25l8 13q10 -7 39 -32q3 -3 25 -24
l-10 -11z" />
    <glyph glyph-name="five" unicode="5" horiz-adv-x="528" 
d="M408 635q19 7 42 19q-9 15 -25 68h-66q-33 -8 -81 -10q-72 -3 -88 -5q-48 -4 -82 -4q-15 0 -37 -2t-34 -2q0 -40 10 -129q9 -92 10 -136q40 14 119 14q105 0 191 -47q105 -56 105 -152t-74 -160q-70 -60 -165 -60q-38 0 -73 29l-60 52q-16 -15 -24 -23l-11 10
q23 21 66 66l11 -10q-10 -14 -31 -33q28 -24 56 -49q34 -27 66 -27q89 0 155 56q69 60 69 149q0 86 -97 139q-82 45 -184 45q-81 0 -124 -17l-10 7q0 48 -10 144t-10 136v9l11 2q19 0 58 2.5t58 2.5q-14 0 70 9q45 -1 138 8l2 1h72l7 -6q6 -24 25 -70q21 11 38 22l9 -12
q-51 -32 -97 -50z" />
    <glyph glyph-name="six" unicode="6" horiz-adv-x="469" 
d="M45 284q-2 -27 -2 -55q0 -42 26 -91q2 -4 11 -18q29 -43 93 -66q53 -18 116 -18q41 0 79 31q26 22 37 41q17 30 17 120q0 66 -37 129q-42 71 -97 71q-44 0 -72 -13q-28 -16 -55 -33q-21 -12 -65 -50q-14 -16 -51 -48zM27 227q0 149 49 257q9 27 43 101q33 59 83 95
q57 41 123 41q44 0 66 -5q4 10 25 41l10 -10l-39 -86l-16 5q6 3 15 35q-19 5 -61 5q-61 0 -114 -38q-48 -34 -78 -90q-14 -26 -24 -53q-13 -34 -19 -48q-35 -76 -45 -175q11 7 22 20q13 17 19 22q20 20 72 58q44 26 54 29q26 10 74 10q65 0 114 -79q43 -69 43 -136
q0 -95 -18 -127q-16 -28 -45 -52q-40 -33 -84 -33q-65 0 -126 22q-73 26 -104 74q-39 64 -39 117z" />
    <glyph glyph-name="seven" unicode="7" horiz-adv-x="579" 
d="M106 110q8 -15 18 -27q19 17 61 57q111 112 252 356q24 39 45 74q48 83 66 128h-64q-81 6 -274 11q-34 1 -95 -6q-17 -24 -47 -61q2 -3 26 -36l-12 -9q-17 24 -54 65l10 12q10 -9 20 -20q16 16 47 65q67 6 105 5q73 -1 193.5 -5t102.5 -5l52 -1l7 -10q-25 -71 -115 -215
q-38 -69 -76 -129q-91 -143 -164 -215l-17 -17q-21 -18 -59 -56q9 -10 24 -36l-13 -8q-17 22 -52 76z" />
    <glyph glyph-name="eight" unicode="8" horiz-adv-x="530" 
d="M374 421q56 41 56 143q0 105 -41 172q-29 37 -86 37q-97 0 -153.5 -54t-56.5 -147q0 -72 36 -121q39 -52 104 -55h9q105 5 132 25zM314 386q91 -25 136 -62q61 -51 61 -134q0 -95 -69.5 -155.5t-167.5 -60.5q-100 0 -148 43q-40 35 -62 100q-20 59 -20 119
q0 66 32.5 110.5t93.5 50.5q-44 22 -69 71q-23 46 -23 104q0 100 61 158t164 58q71 0 105 -52l-3 -2q40 -71 40 -170q0 -109 -62 -155q-20 -15 -69 -23zM158 380q-99 -24 -99 -144q0 -58 19 -114q21 -61 57 -93q44 -40 139 -40q92 0 157 56.5t65 144.5q0 62 -40 107
q-36 41 -98 59q-86 24 -88 24q-5 0 -13 1q-37 2 -99 -1z" />
    <glyph glyph-name="nine" unicode="9" horiz-adv-x="492" 
d="M408 484q3 55 2 104q-1 6 -6 120q-21 26 -63 41q-38 14 -78 14q-120 0 -167 -39q-64 -52 -64 -165q0 -80 61 -128q57 -45 141 -45q36 0 88.5 28t73.5 57zM360 36q24 -2 40 -2q0 30 -3 93q-2 59 -2 94q0 40 10 234q-23 -31 -77 -57.5t-94 -26.5q-89 0 -151 48
q-66 53 -66 140q0 120 69 177q51 42 177 42q42 0 82 -15q47 -16 70 -45h3l1 -5l1 -2l-1 -1q2 -38 5 -122q2 -62 -6 -183q-8 -133 -8 -184q0 -35 2 -94q3 -63 3 -93q12 0 30.5 1.5t28.5 1.5v-15q-9 0 -28 -1.5t-32 -1.5q-24 0 -56 3z" />
    <glyph glyph-name="colon" unicode=":" horiz-adv-x="158" 
d="M31 412q0 18 12.5 31t29.5 13t29.5 -13t12.5 -31q0 -19 -12.5 -32t-29.5 -13t-29.5 13t-12.5 32zM34 59q0 19 13.5 32.5t32.5 13.5t32.5 -13.5t13.5 -32.5q0 -20 -13.5 -33.5t-32.5 -13.5t-32.5 13.5t-13.5 33.5z" />
    <glyph glyph-name="semicolon" unicode=";" horiz-adv-x="152" 
d="M69 8q3 2 8 4q1 -16 -8 -51l6 -4q8 15 20 44q7 23 7 21q0 3 1 10t0 11q-1 5 -4 9q-9 11 -22 11q-14 0 -25 -9.5t-11 -21.5q0 -23 19 -23q15 0 9 -1zM35 323q0 17 12.5 29t30.5 12q17 0 29.5 -12t12.5 -29t-12.5 -29t-29.5 -12q-18 0 -30.5 12t-12.5 29z" />
    <glyph glyph-name="question" unicode="?" horiz-adv-x="504" 
d="M276 20q-3 -1 -7 -1q-13 -1 -21.5 10t-8.5 24q0 35 36 35q15 0 26 -16q5 -8 7 -17q3 -25 -32 -35zM246 135q-11 32 -18 87q-10 82 -11 89l7 9q91 0 163 73t72 163q0 92 -76 157q-71 64 -163 64q-67 0 -114 -33q-50 -35 -50 -94t49 -129q10 21 16 43l14 -4
q-14 -52 -50 -98l-12 10q14 17 24 35q-56 76 -56 143t57 107q51 35 122 35q97 0 173 -67q81 -70 81 -169q0 -94 -73 -170.5t-168 -80.5q5 -58 26 -165q-6 -2 -13 -5z" />
    <glyph glyph-name="A" unicode="A" horiz-adv-x="706" 
d="M230 415h2q3 0 10 -1h10h34q26 0 86 4t87 4q11 0 40 -4q-17 39 -52 121q-28 67 -33 78q-20 43 -41 74q-10 17 -33 48l-3 -9q-3 -11 -8 -25q-3 -9 -38 -94q-21 -50 -61 -196zM215 418v-1q25 91 29 102q16 58 33 98q13 29 38 92l12 39l2 5q2 6 8 7q9 0 27 -27
q11 -17 21 -34q28 -39 76 -154q20 -46 64 -151l21 -52q23 -41 68 -125q17 -43 56 -126q11 8 19 13l8 -12q-8 -6 -19 -14q2 -4 4 -7l-12 -8l-4 6q-11 -9 -25 -20l-10 12q15 11 27 20q-13 23 -30 65q-19 47 -28 65q-25 40 -67 127q-2 3 -5 8q-10 27 -23 57q-47 4 -46 4
q-27 0 -87 -4t-86 -4h-34q-4 0 -12 -1t-10 -1l-5 -1q-12 -44 -26 -84q-2 -3 -5 -7q-12 -45 -38 -133q-16 -53 -39 -90q7 -6 22 -18l-10 -12q-7 6 -20 17l-1 -1l-12 8l1 3q-17 14 -30 22l8 12q13 -8 30 -22q23 37 40 95q14 50 28 99q4 7 11 22q0 4 1 9q13 39 30 100v2z" />
    <glyph glyph-name="B" unicode="B" horiz-adv-x="499" 
d="M170 421q-2 -90 -2 -144q0 -26 -5 -137l-1 -21v-9v-15q38 -3 61 -3q168 0 168 137q0 166 -73 189q-40 -1 -44 -1q-11 0 -26.5 1t-26.5 1q-45 0 -50 -2zM427 558q0 -2 -6 51q-9 79 -94 111q-43 16 -155 27q-5 -26 -2 -76q4 -76 4 -77q0 -57 -4 -162q8 2 51 2q11 0 20 -1
h19l23 -1q3 0 18 1t19 0q39 0 73 37.5t34 87.5zM147 97v13v14q6 95 6 153q0 55 3 157t3 160q0 2 -4 77q-3 50 2 78q-44 4 -78 4q-14 0 -19 -3l-8 12q9 6 27 6q55 0 160 -14q183 -22 196 -143q7 -55 7 -53q0 -51 -26 -88.5t-71 -47.5q61 -36 61 -193q0 -152 -183 -152
q-25 0 -81.5 5.5t-85.5 5.5v15q29 0 91 -6z" />
    <glyph glyph-name="C" unicode="C" horiz-adv-x="527" 
d="M380 669q5 10 35 43q-37 30 -76 30q12 0 -71 -6q-50 -4 -93.5 -36.5t-69.5 -80.5q-41 -76 -55 -115q-20 -57 -20 -121q0 -98 53 -189q61 -103 148 -103q92 0 159.5 28.5t63.5 67.5h2q-18 16 -27 22l7 13q7 -4 68 -61l-11 -11l-24 24q-7 -43 -80 -71q-57 -23 -109 -24
q-9 0 -24 -1.5t-25 -1.5q-96 0 -160 110q-56 95 -56 197q0 66 21 126q14 40 56 117q27 51 72 84q48 37 103 41q83 6 72 6q45 0 86 -34q20 22 27 33l13 -7q-3 -4 -59 -70q-10 -12 -13 -17z" />
    <glyph glyph-name="D" unicode="D" horiz-adv-x="535" 
d="M150 21q0 27 -4 117q-3 74 -1 120q6 129 5 275q0 20 -5 113q-2 34 -8 102q-22 -1 -30 1h-65l5 4h-12v3l7 8l67 -1q-1 1 34 1q7 0 17.5 -2t16.5 -2q9 0 23 2t21 2q67 0 127 -41q55 -37 92 -99q74 -122 74 -333q0 -68 -55 -143q-47 -65 -107 -102q-31 -20 -89 -27
q-46 -4 -93 -9q-16 -2 -36 -2h-2q-11 3 -36 3q-8 0 -24 3.5t-23 3.5t-14 -2l-4 14q9 3 18 3q8 0 23 -3.5t24 -3.5q27 0 39 -4q4 0 15 -1zM152 748q3 -25 7 -102q1 -3 6 -111q5 -116 -3 -281q-2 -48 0 -119q2 -97 2 -115q128 6 180 38q58 36 103 98q52 72 52 135
q0 206 -71 325q-36 59 -89 95q-56 38 -118 38q-7 0 -21 -2t-23 -2z" />
    <glyph glyph-name="E" unicode="E" 
d="M560 80l36 -28l-36 28l-29.5 -24t-39.5 -24q-5 0 -8 4q-31 -4 -102 -8h-5q-44 -1 -48 0q-71 3 -295 3l2 23q43 0 92 -2q-6 26 -6 61q0 15 1.5 46t1.5 47q0 21 -2 38q-23 188 -23 284q1 9 0 17q-2 36 4 85q7 43 14 85q-24 -1 -41 -1q-9 0 -23.5 1.5t-23.5 1.5v15
q9 0 23.5 -1.5t23.5 -1.5q18 0 54.5 3t57.5 3q14 0 40 -5t38 -5q34 -2 96 4q68 6 91 6h12q8 1 12 1q20 -21 47 -43q6 7 27 30l11 -10q-10 -10 -28 -31l-8 -10v0q-16 -18 -26 -36l-13 8q11 18 27 38q-23 19 -43 39q-122 -11 -182 -11q-34 0 -63 5h-35q-7 0 -30 2h-29
q-7 -43 -13 -85q-7 -50 -5 -86v-18q0 -69 7 -143q85 -8 94 -8q14 0 33 1q24 1 32 1q0 28 1 62h15q-1 -47 -1 -63v-13h-1q0 -19 -3 -43l-12 9q-1 10 0 33q-7 0 -31 -1q-19 -1 -33 -1q-13 0 -92 8q0 -2 10 -81q6 -49 6 -81q0 -16 -1.5 -47t-1.5 -47q0 -37 7 -62q38 -2 186 -9
q3 -1 43 0h3q23 0 59 4t54 4q4 0 6 -3q18 16 56 44l-21 21l10 11q22 -23 65 -60l-8 -12z" />
    <glyph glyph-name="F" unicode="F" 
d="M223 38q-75 -3 -169 -3l2 22q-3 0 73 -2q-7 26 -7 61q0 15 2 46t2 47q0 21 -2 38q-9 70 -9 282q1 8 0 16q-7 102 3 173q-24 -1 -41 -1q-9 0 -23.5 1.5t-23.5 1.5v15q9 0 23.5 -1.5t23.5 -1.5q19 0 55.5 3t56.5 3q12 0 90 -4q35 -2 90 1q67 3 85 3h12q8 1 12 1
q20 -21 47 -43q6 7 28 30l10 -10q-9 -10 -28 -31l-8 -10v0q-15 -18 -26 -36l-12 8q10 18 26 38q-23 19 -43 39q-114 -11 -168 -11q-33 0 -63 6q3 -1 -53 -1q-7 0 -28 2h-27q-10 -75 -3 -174v-18q0 -127 2 -143q58 -5 84 -5q15 0 34 1q24 1 31 1q1 28 2 62h14q-1 -47 -1 -63
v-13l-1 -1q1 -18 -3 -42l-12 9q-1 10 0 33q-7 0 -31 -1q-18 -1 -33 -1q-29 0 -83 5q0 -39 5 -121q3 -17 3 -38q0 -16 -2 -47.5t-2 -46.5q0 -37 7 -63q59 -2 80 -1z" />
    <glyph glyph-name="G" unicode="G" horiz-adv-x="662" 
d="M624 343v0h-1h1zM627 317q1 6 -1 19q-24 -1 -84 -11q-28 -5 -59 -10q10 -30 10 -71q0 -80 -36 -140q-41 -69 -109 -69q-71 0 -98 4q-55 9 -93 26q-76 34 -104 143q-18 70 -18 188q0 199 150 293q70 45 129 45q101 0 188 -71q21 16 33 22l6 -14q-38 -19 -72 -59l-12 10
q12 13 33 31q-82 66 -176 66q-54 0 -121 -42q-143 -90 -143 -281q0 -281 148 -330q13 -4 61 -10t89 -6q62 0 98 64q32 56 32 130q0 41 -11 69q-16 -2 -40 -4q-39 -9 -126 -19q3 -16 7 -31l-14 -4q-7 25 -14 70l14 2q2 -8 4 -22q28 1 66 8q45 9 61 10q55 8 164 24q28 4 32 4
q-3 10 -7 26l14 2q5 -14 12 -38q2 -6 6 -35q-8 -3 -15 -3q-2 4 -4 14z" />
    <glyph glyph-name="H" unicode="H" horiz-adv-x="435" 
d="M40 763q35 -6 77 -21l-6 -14q-16 6 -35 11v-18q0 -10 -2 -34t-2 -38l-1 -32q-2 -36 -2 -57q1 -38 1 -148q33 2 28 2q33 0 85.5 -9t76.5 -9q26 0 67 5q-1 28 -1 52v219q2 23 0 69q-16 -2 -25 -1v14q35 -1 79 14l4 -14q-17 -6 -43 -11q3 -13 1 -35q-2 -26 -2 -36
q1 0 1 -219q0 -52 8 -136l14 -134q2 -18 -1 -49q-4 -36 -4 -48q0 -11 1 -20h9l2 -1q10 -2 32 -2v-15q-23 0 -35 3h-51v15h28q-1 8 -1 19q0 13 4 48q3 31 2 48q-8 68 -21 205q-41 -5 -68 -5q-24 0 -76.5 9t-85.5 9q6 0 -28 -2v-13q-1 -59 2 -155q3 -105 3 -153h8q22 0 32 -4
l-5 -14q-8 3 -27 3h-29q-20 0 -23 -3l-9 12q7 6 32 6h4q0 49 -2 153q-1 97 -1 155q0 41 1 84q2 48 2 75q1 77 0 106q-1 13 1 37.5t2 35.5t2 21q-9 2 -25 6z" />
    <glyph glyph-name="I" unicode="I" horiz-adv-x="241" 
d="M35 742q-11 0 70 0h18v2h15v-2q59 4 70 4v-15q-11 0 -70 -4q0 -28 3 -97q2 -62 2 -97q0 -73 -8 -130q-6 -42 -6 -85q0 -23 4 -68.5t4 -68.5q0 -20 -2 -38q-8 -63 -1 -89q34 0 70 8l3 -14q-39 -9 -82 -9q-9 0 -22.5 1t-22.5 1q-15 0 -27 -7l-7 14q16 8 34 8q9 0 21 -1
t17 -1q-6 27 2 91q2 17 2 37q0 23 -4 68t-4 68q0 44 6 87q8 56 8 129q0 34 -2 96q-3 68 -3 97h-18q-80 0 -69 0z" />
    <glyph glyph-name="J" unicode="J" horiz-adv-x="437" 
d="M335 758q12 6 46 7h1l45 -5l-1 -14l-33 4q0 -10 1.5 -29t1.5 -31q0 5 -5 -126q1 -106 -8 -311q-20 -226 -173 -226q-92 0 -138 115q-12 -8 -26 -10l-2 14q11 3 27 14q20 14 26 17l6 -14q-8 -4 -18 -12q42 -109 125 -109q139 0 159 213q5 62 5 160q0 132 1 161q0 18 3 58
q3 34 3 56q0 12 -1.5 31t-1.5 29q-16 -2 -36 -5z" />
    <glyph glyph-name="K" unicode="K" horiz-adv-x="380" 
d="M374 623l-11 -9q-13 15 -23 26q-33 -34 -100 -103q-49 -44 -142 -136q19 -18 41 -55q17 -30 33.5 -58.5t142.5 -213.5q18 17 30 23l6 -14q-11 -6 -27 -21l1 -3l-12 -8v0q-16 -14 -29 -20l-6 14q11 5 26 18q-48 67 -144 216q-16 28 -31 55q-21 36 -38 53q-6 -106 -3 -350
q20 -1 29 -1v-15q-42 0 -82 8l2 15q11 -2 36 -6q-7 262 5 375q5 46 5 110q1 42 -1 113q-1 82 -1 107h-4q-29 0 -32 -4l-3 -3l-11 11l3 3q8 8 43 8h54v-15h-35q0 -26 1 -105q2 -70 1 -112q0 -62 -5 -108q47 42 137 129l100 104q-13 15 -23 27l12 10q19 -22 55 -65z" />
    <glyph glyph-name="L" unicode="L" horiz-adv-x="567" 
d="M469 134q11 -6 76 -55l-9 -12q-11 9 -33 26q-39 -36 -43 -47l-11 -4q-1 1 -58 1q-25 0 -76 -2.5t-74 -2.5h-25h-27q-17 1 -27 1t-25 -1h-25q-15 0 -42 1.5t-42 1.5v15q49 0 47 0q0 81 -4 141l3 153q0 42 3.5 128t3.5 129q0 67 -6 121q-5 0 -14.5 -1.5t-15.5 -1.5v15
q7 0 17 1.5t16 1.5q11 0 27 -1.5t26 -1.5v-15q6 0 -41 3q6 -54 6 -120q0 -43 -3.5 -129.5t-3.5 -128.5q0 -20 -3 -110q4 -115 4 -186q11 -1 22 -1h25q15 1 25 1t27 -1h27h25q23 0 74 2.5t76 2.5q2 0 31 2q19 1 27 -1q8 11 42 43q-16 11 -29 18z" />
    <glyph glyph-name="M" unicode="M" horiz-adv-x="535" 
d="M430 39q35 -3 30 -3h2q0 36 2 134q1 88 1 137q0 3 -1 100q-2 57 1 97q9 112 2 172q1 10 0 30q-43 -64 -74 -105q-38 -48 -112 -126l-14 1q-34 35 -108 117q-33 35 -87 101v-24q0 -19 2 -51.5t2 -50.5q0 8 2 -172q2 -109 -3 -175q0 -4 -9 -83q-6 -50 -4 -83l26 -2v-14
l-66 3v14l25 -1q-2 34 4 84q9 78 10 84q4 65 2 174q-2 178 -2 171q0 18 -2 50.5t-2 51.5v23q1 13 1 22l13 5q30 -38 101 -120q36 -39 103 -102q33 32 104 110q35 52 83 115q6 4 18 0q1 -9 3 -25q-1 -8 -1 -21q7 -61 -2 -174q-3 -39 -1 -97q1 -96 1 -99q0 -49 -1 -136
q-2 -98 -2 -134q11 1 18 1q5 0 22 -2l-2 -15q-16 2 -20 2q-7 0 -17.5 -1t-17.5 -1q5 0 -32 3z" />
    <glyph glyph-name="N" unicode="N" horiz-adv-x="507" 
d="M363 764q15 0 39 4t38 4q42 0 60 -7l-5 -14q-16 6 -55 6q-3 0 -7 -1q-1 -88 0 -141q1 -46 5 -150q4 -33 10 -107q8 -114 -5 -289q-1 -23 -8 -35l-13 1q-10 26 -31 65q-24 42 -32 62q-48 114 -113 251q-16 32 -51 106q-31 81 -89 212q7 -38 7 -85q0 -36 -5.5 -107
t-5.5 -106q0 -78 -1 -196q-2 -127 -2 -192q16 -2 34 -6l-2 -14q-1 0 -36 7h-11v2q-18 4 -35 4q-4 -3 -10 -7l-4 14q11 3 14 3q19 -1 35 -2q0 65 2 192q1 117 1 195q0 -1 4 170q2 106 -3 145l26 5q15 -7 43 -86q41 -115 53 -142q15 -33 50 -108q40 -86 113 -249
q19 -35 55 -107q0 14 2 44q12 116 3 251q-3 33 -10 109q-5 68 -5 149v141q-50 -6 -55 -6v15z" />
    <glyph glyph-name="O" unicode="O" horiz-adv-x="567" 
d="M350 784q12 -2 24 -5q37 -11 55 -35q17 -27 35 -54q17 -23 33 -47.5t23 -54.5q11 -41 21 -82q13 -49 13 -83q0 -81 -40 -217q-11 -35 -16 -47q-10 -25 -26 -43q-11 -19 -39 -53q-20 -16 -76 -31q-52 -13 -83 -13q-61 0 -112 39q-49 36 -71 92q-56 136 -56 283
q0 7 -2 16.5t-2 16.5q0 110 37 186q45 92 138 113q78 19 115 19q33 0 29 0zM357 767q-9 2 -36 2q-35 0 -112 -18q-85 -20 -127 -106q-36 -72 -36 -179q0 -7 2 -17t2 -16q0 -144 54 -277q22 -52 68 -87t102 -35q29 0 80.5 13t69.5 28q8 7 19 24q12 21 18 27q20 23 38 84
q40 134 40 213q0 33 -13 81q-10 40 -21 80q-6 29 -21.5 52t-31 45t-28.5 44q-16 23 -35 32q-9 4 -32 10z" />
    <glyph glyph-name="P" unicode="P" horiz-adv-x="498" 
d="M78 328q12 0 34.5 3t37.5 3q13 0 50.5 -5t48.5 -5q145 0 191 97q15 30 15 89q0 47 -16 91q-16 50 -46 74q-60 50 -242 50q-5 0 -13 -1t-13 -1q-10 0 -41 6q3 -29 3 -67q0 -29 -3 -105q-4 -66 -3 -101q2 -50 -3 -128zM22 28v15q6 0 15.5 1.5t15.5 1.5q2 0 6 -1q4 56 2 90
q-3 32 -3 67q0 36 5 125q5 79 4 129q-2 35 2 101q3 75 3 104q0 40 -4 71q-5 1 -9 1q-30 0 -40 -12l-11 10q14 17 51 17q11 0 33 -5t33 -5q5 0 13 1t13 1q187 0 252 -53q32 -27 51 -81q16 -47 16 -96q0 -65 -17 -98q-52 -103 -204 -103q-11 0 -48.5 5t-50.5 5q-15 0 -37.5 -3
t-35.5 -3q-7 -112 -2 -176q3 -36 -1 -93q36 -5 47 -12l-8 -12q-9 5 -40 9q9 -1 -51 -1z" />
    <glyph glyph-name="Q" unicode="Q" horiz-adv-x="568" 
d="M542 448q4 -37 4 -46q0 -89 -67 -246q-16 -37 -39 -66q18 -38 35 -75q16 10 30 12l2 -14q-11 -2 -26 -12v-1l-5 -2q-13 -9 -41 -19l-2 14q11 2 29 13q-15 36 -33 71q-63 -70 -150 -70q-46 0 -121 32q-58 25 -94 68q-41 49 -41 109q0 144 23 313q3 33 18 97
q60 162 217 162q63 0 108 -24q40 -20 83.5 -68t59.5 -136q2 -13 10 -112zM281 773q-87 0 -146 -59q-55 -54 -69 -140q-28 -188 -28 -358q0 -108 126 -163q72 -31 115 -31q84 0 143 70q-39 79 -69 121q-16 -8 -26 -17l-10 12q13 11 36 21q28 11 37 17l8 -12q-9 -7 -30 -15
q28 -41 65 -114q19 26 32 57q66 154 66 240q0 9 -3 44q-9 99 -13 121q-16 78 -61 124q-42 43 -77 61q-41 21 -96 21z" />
    <glyph glyph-name="R" unicode="R" horiz-adv-x="515" 
d="M88 722q0 -104 -7 -198q-1 -18 1 -55q3 -44 3 -59v-31v-27v-3q52 -11 109 -11q117 0 222 49q18 9 22 13q41 45 41 107q0 84 -53 137q-20 19 -56 29q-31 7 -63 15q-76 27 -219 34zM27 45q13 -4 40 -7q0 68 1 186q2 113 2 186q0 15 -3 60q-2 37 0 56q6 92 6 196
q-11 1 -20 1q5 0 -33 -3l-2 14q40 4 35 4q160 0 260 -36l64 -16q37 -9 59 -32q58 -57 58 -147q0 -67 -45 -117q-12 -13 -55 -28q-85 -30 -154 -37q28 -49 47 -97q21 -52 34 -109q23 5 49 9l2 -14q-26 -4 -56 -12q-18 -4 -53 -14l-4 14q27 9 47 14q-26 111 -82 208
q-38 -3 -73 2q-24 2 -67 8q0 -32 -1 -143q-1 -89 -1 -154q43 -4 56 -13l-8 -12q-10 6 -50 10q-46 5 -57 9z" />
    <glyph glyph-name="S" unicode="S" horiz-adv-x="517" 
d="M498 499q-28 16 -81 52l10 12q12 -11 32 -23q3 30 0 46q-5 25 -25 56q-55 85 -223 85q-99 0 -125 -120q-2 -13 -2 -25q0 -75 28 -117q24 -34 77 -57q4 -2 109 -38q58 -20 92 -74.5t34 -118.5q0 -119 -132 -160q-8 -2 -15 -2q-36 0 -76 14q-46 16 -67 41q-12 15 -19 38
t-12 44q-20 -4 -32 -3v14q13 0 41.5 6t41.5 6v-15q-13 0 -37 -5q6 -20 11 -39q7 -23 18 -36q18 -22 60 -37q38 -13 71 -13q1 0 23 5q47 12 78 52t31 90q0 60 -31.5 110.5t-83.5 68.5q-104 35 -115 40q-55 25 -80 62q-30 45 -30 124q0 10 9 54q10 48 47 77t86 29
q202 0 250 -121q4 -9 12 -30q5 -19 2 -55l33 -25z" />
    <glyph glyph-name="T" unicode="T" horiz-adv-x="740" 
d="M86 716h-3q-15 -12 -36 -42q12 -8 33 -26l-11 -10q-25 17 -72 58l11 10q10 -11 27 -24q34 50 47 50q4 0 14.5 -2t16.5 -2q13 0 38 1t37 1q17 0 43 -1t43 -2q43 0 114 3q75 4 114 4q6 0 30.5 1.5t37.5 0.5q20 -1 30 -5q23 -11 55 -60q10 6 38 27l9 -12q-47 -36 -91 -59
l-7 14q4 2 38 22q-30 45 -49 54q-7 4 -26 4q-13 0 -36.5 -1t-28.5 -1q-16 0 -152 -5q0 -1 10 -79q5 -47 3 -79q0 -1 3 -74q-1 -30 1 -94q4 -57 5 -123q0 -45 -1 -119q-1 -92 -1 -120q10 2 16 2q29 0 54 -9l-5 -14q-23 8 -49 8q-6 0 -15 -1t-15 -1q-7 0 -24 3t-26 2l-1 14
q9 2 26 -1t24 -3q0 29 1 119q1 74 1 119q-1 66 -5 122q0 30 -1 97q0 46 -4 130q-4 31 -12 100q-33 -1 -61 0q-167 0 -188 3z" />
    <glyph glyph-name="U" unicode="U" horiz-adv-x="556" 
d="M427 722q14 2 52 12q32 9 53 9v-15q-20 0 -55 -10q6 -43 7 -99q1 -37 0 -106q-1 -80 -1 -119l3 -71q1 -39 -4 -71q-17 -101 -24 -121q-20 -59 -71 -87q-26 -13 -97 -13q-105 0 -156 56q-28 32 -41 98q-2 8 -18 129q-7 46 -8 160q2 50 3 165q-1 12 -5 43q-3 24 -2 39
q-13 -2 -27 -7l-6 14q33 12 87 12v-15q-27 0 -39 -2v0q-1 -15 2 -39q4 -33 4 -43q2 -36 0 -84q-3 -56 -3 -85q0 -48 9 -158q17 -122 17 -124q13 -64 39 -93q46 -51 144 -51q67 0 90 12t37 36q1 2 23 50q14 32 24 112q7 54 4 141q-1 30 1 159q1 98 -7 158q-20 -5 -33 -6z" />
    <glyph glyph-name="V" unicode="V" 
d="M510 689q-3 -20 -18 -53q-18 -41 -22 -54q-14 -45 -36 -102q-38 -96 -39 -99q-11 -30 -44 -174q-26 -112 -60 -164q-19 39 -38 106q-25 90 -31 107q-37 113 -113 340q-9 25 -30 81q-3 8 -7 14q29 19 45 26l-6 14q-16 -7 -46.5 -27.5t-48.5 -27.5l6 -14q16 7 38 21
q2 -1 9 -20q8 -22 26 -71l113 -340q4 -12 33 -115q20 -70 42 -112h13q40 53 67 169q37 157 46 181q26 64 75 203q17 34 40 105q4 -2 57 -38l11 11q-20 13 -66 41q-9 5 -37 19q-3 2 -11 6l-8 -11q15 -9 40 -22z" />
    <glyph glyph-name="W" unicode="W" horiz-adv-x="737" 
d="M611 739q17 -3 28 -9q22 -9 43 -18q32 -15 38 -26l-14 -7q-3 7 -34 21q-16 -66 -55 -164q-55 -135 -64 -161q-29 -81 -78 -236q-5 -32 -26 -91l-14 1q-11 23 -40 86q0 1 -24 68q-15 41 -33 65q-20 -50 -66 -113q-40 -53 -80 -105l-13 3q-4 19 -35 137q-21 83 -26 138
q-6 62 -23 149q-22 116 -26 147q-8 32 -15 88q-14 -5 -22 -12l-10 11q15 13 70 25l4 -15q-9 -1 -27 -5q-1 -12 6 -45l8 -44q20 -95 49 -298q5 -52 25 -129q16 -64 33 -128q62 82 77 103q47 66 62 110l13 2q25 -29 40 -71q13 -38 27 -76q12 -24 34 -70q6 24 18 72.5t78 237.5
q8 24 64 162q40 98 55 164q-11 4 -25 11q-10 5 -24 7z" />
    <glyph glyph-name="X" unicode="X" horiz-adv-x="544" 
d="M30 670q38 56 83 81l8 -14q-42 -22 -79 -75zM529 634l-12 -10l-42 42q-1 -1 -2 -3q-52 -74 -154 -212q-17 -21 -39 -49q49 -63 75 -113q17 -37 56 -109q12 -18 55 -97q11 6 31 16l6 -14q-25 -11 -41 -20l-3 -2v1q-16 -8 -30 -10l-2 14q10 2 25 9q-16 30 -53 95
q-4 5 -58 111q-24 47 -70 106q-33 -44 -102 -134l-40 -50q-22 -32 -28 -57l24 -21l-10 -12q-17 17 -54 46l8 12q9 -5 20 -14q9 31 68 106q12 15 105 137q-28 34 -82 104q-19 26 -56.5 90.5t-58.5 94.5l12 8q21 -29 58.5 -93.5t56.5 -91.5q7 -9 79 -100q20 26 36 47
q123 154 156 216q-22 23 -27 42l14 4q4 -14 35 -46q17 -16 44 -43z" />
    <glyph glyph-name="Y" unicode="Y" horiz-adv-x="507" 
d="M70 78q13 -5 32 -13q27 44 77 171q19 50 55 117q30 57 61 114q-18 15 -59 45q-118 79 -183 130q-9 -13 -18 -22l-11 10q11 13 42 60l13 -8q-6 -9 -18 -28q66 -50 184 -130q18 -15 56 -43q34 74 104 222q-5 5 -17 14l9 12q16 -13 54 -36l-6 -14q-15 6 -28 15
q-8 -16 -22 -46q-26 -51 -49 -105.5t-78 -157.5q-53 -98 -75 -155q-29 -73 -35 -87q-21 -50 -43 -85q15 -6 27 -11l-5 -14q-23 10 -72 31z" />
    <glyph glyph-name="Z" unicode="Z" horiz-adv-x="632" 
d="M503 154q52 -7 114 -34l-6 -14q-22 10 -48 18q-6 -17 -33 -53.5t-32 -37.5q-46 -5 -174 -5q-7 0 -32 2q-21 2 -51 2q-64 0 -143 -8l-12 12q59 62 210 270q21 29 162 237l100 147q-1 6 -47 6h-35q-23 1 -35 1q-4 0 -158 3q-138 3 -162 3q-11 -7 -42 -58q15 -15 28 -31
l-12 -10q-35 44 -70 65l8 12q16 -9 34 -26q38 63 54 63q47 0 70 -1l250 -5q12 0 35 -1h35q68 0 68 -20q0 -6 -4 -14q-16 -28 -48 -69q-45 -57 -58 -74q-47 -73 -160 -236q-100 -138 -102 -141q-53 -72 -95 -118q13 0 52.5 3.5t69.5 3.5l58 -1q6 0 16 -1t16 -1q30 0 81.5 3.5
t76.5 4.5q9 0 37 32t30 45q-27 9 -48 12z" />
    <glyph glyph-name="a" unicode="a" horiz-adv-x="706" 
d="M230 415h2q3 0 10 -1h10h34q26 0 86 4t87 4q11 0 40 -4q-17 39 -52 121q-28 67 -33 78q-20 43 -41 74q-10 17 -33 48l-3 -9q-3 -11 -8 -25q-3 -9 -38 -94q-21 -50 -61 -196zM215 418v-1q25 91 29 102q16 58 33 98q13 29 38 92l12 39l2 5q2 6 8 7q9 0 27 -27
q11 -17 21 -34q28 -39 76 -154q20 -46 64 -151l21 -52q23 -41 68 -125q17 -43 56 -126q11 8 19 13l8 -12q-8 -6 -19 -14q2 -4 4 -7l-12 -8l-4 6q-11 -9 -25 -20l-10 12q15 11 27 20q-13 23 -30 65q-19 47 -28 65q-25 40 -67 127q-2 3 -5 8q-10 27 -23 57q-47 4 -46 4
q-27 0 -87 -4t-86 -4h-34q-4 0 -12 -1t-10 -1l-5 -1q-12 -44 -26 -84q-2 -3 -5 -7q-12 -45 -38 -133q-16 -53 -39 -90q7 -6 22 -18l-10 -12q-7 6 -20 17l-1 -1l-12 8l1 3q-17 14 -30 22l8 12q13 -8 30 -22q23 37 40 95q14 50 28 99q4 7 11 22q0 4 1 9q13 39 30 100v2z" />
    <glyph glyph-name="b" unicode="b" horiz-adv-x="499" 
d="M170 421q-2 -90 -2 -144q0 -26 -5 -137l-1 -21v-9v-15q38 -3 61 -3q168 0 168 137q0 166 -73 189q-40 -1 -44 -1q-11 0 -26.5 1t-26.5 1q-45 0 -50 -2zM427 558q0 -2 -6 51q-9 79 -94 111q-43 16 -155 27q-5 -26 -2 -76q4 -76 4 -77q0 -57 -4 -162q8 2 51 2q11 0 20 -1
h19l23 -1q3 0 18 1t19 0q39 0 73 37.5t34 87.5zM147 97v13v14q6 95 6 153q0 55 3 157t3 160q0 2 -4 77q-3 50 2 78q-44 4 -78 4q-14 0 -19 -3l-8 12q9 6 27 6q55 0 160 -14q183 -22 196 -143q7 -55 7 -53q0 -51 -26 -88.5t-71 -47.5q61 -36 61 -193q0 -152 -183 -152
q-25 0 -81.5 5.5t-85.5 5.5v15q29 0 91 -6z" />
    <glyph glyph-name="c" unicode="c" horiz-adv-x="527" 
d="M380 669q5 10 35 43q-37 30 -76 30q12 0 -71 -6q-50 -4 -93.5 -36.5t-69.5 -80.5q-41 -76 -55 -115q-20 -57 -20 -121q0 -98 53 -189q61 -103 148 -103q92 0 159.5 28.5t63.5 67.5h2q-18 16 -27 22l7 13q7 -4 68 -61l-11 -11l-24 24q-7 -43 -80 -71q-57 -23 -109 -24
q-9 0 -24 -1.5t-25 -1.5q-96 0 -160 110q-56 95 -56 197q0 66 21 126q14 40 56 117q27 51 72 84q48 37 103 41q83 6 72 6q45 0 86 -34q20 22 27 33l13 -7q-3 -4 -59 -70q-10 -12 -13 -17z" />
    <glyph glyph-name="d" unicode="d" horiz-adv-x="535" 
d="M150 21q0 27 -4 117q-3 74 -1 120q6 129 5 275q0 20 -5 113q-2 34 -8 102q-22 -1 -30 1h-65l5 4h-12v3l7 8l67 -1q-1 1 34 1q7 0 17.5 -2t16.5 -2q9 0 23 2t21 2q67 0 127 -41q55 -37 92 -99q74 -122 74 -333q0 -68 -55 -143q-47 -65 -107 -102q-31 -20 -89 -27
q-46 -4 -93 -9q-16 -2 -36 -2h-2q-11 3 -36 3q-8 0 -24 3.5t-23 3.5t-14 -2l-4 14q9 3 18 3q8 0 23 -3.5t24 -3.5q27 0 39 -4q4 0 15 -1zM152 748q3 -25 7 -102q1 -3 6 -111q5 -116 -3 -281q-2 -48 0 -119q2 -97 2 -115q128 6 180 38q58 36 103 98q52 72 52 135
q0 206 -71 325q-36 59 -89 95q-56 38 -118 38q-7 0 -21 -2t-23 -2z" />
    <glyph glyph-name="e" unicode="e" 
d="M560 80l36 -28l-36 28l-29.5 -24t-39.5 -24q-5 0 -8 4q-31 -4 -102 -8h-5q-44 -1 -48 0q-71 3 -295 3l2 23q43 0 92 -2q-6 26 -6 61q0 15 1.5 46t1.5 47q0 21 -2 38q-23 188 -23 284q1 9 0 17q-2 36 4 85q7 43 14 85q-24 -1 -41 -1q-9 0 -23.5 1.5t-23.5 1.5v15
q9 0 23.5 -1.5t23.5 -1.5q18 0 54.5 3t57.5 3q14 0 40 -5t38 -5q34 -2 96 4q68 6 91 6h12q8 1 12 1q20 -21 47 -43q6 7 27 30l11 -10q-10 -10 -28 -31l-8 -10v0q-16 -18 -26 -36l-13 8q11 18 27 38q-23 19 -43 39q-122 -11 -182 -11q-34 0 -63 5h-35q-7 0 -30 2h-29
q-7 -43 -13 -85q-7 -50 -5 -86v-18q0 -69 7 -143q85 -8 94 -8q14 0 33 1q24 1 32 1q0 28 1 62h15q-1 -47 -1 -63v-13h-1q0 -19 -3 -43l-12 9q-1 10 0 33q-7 0 -31 -1q-19 -1 -33 -1q-13 0 -92 8q0 -2 10 -81q6 -49 6 -81q0 -16 -1.5 -47t-1.5 -47q0 -37 7 -62q38 -2 186 -9
q3 -1 43 0h3q23 0 59 4t54 4q4 0 6 -3q18 16 56 44l-21 21l10 11q22 -23 65 -60l-8 -12z" />
    <glyph glyph-name="f" unicode="f" 
d="M223 38q-75 -3 -169 -3l2 22q-3 0 73 -2q-7 26 -7 61q0 15 2 46t2 47q0 21 -2 38q-9 70 -9 282q1 8 0 16q-7 102 3 173q-24 -1 -41 -1q-9 0 -23.5 1.5t-23.5 1.5v15q9 0 23.5 -1.5t23.5 -1.5q19 0 55.5 3t56.5 3q12 0 90 -4q35 -2 90 1q67 3 85 3h12q8 1 12 1
q20 -21 47 -43q6 7 28 30l10 -10q-9 -10 -28 -31l-8 -10v0q-15 -18 -26 -36l-12 8q10 18 26 38q-23 19 -43 39q-114 -11 -168 -11q-33 0 -63 6q3 -1 -53 -1q-7 0 -28 2h-27q-10 -75 -3 -174v-18q0 -127 2 -143q58 -5 84 -5q15 0 34 1q24 1 31 1q1 28 2 62h14q-1 -47 -1 -63
v-13l-1 -1q1 -18 -3 -42l-12 9q-1 10 0 33q-7 0 -31 -1q-18 -1 -33 -1q-29 0 -83 5q0 -39 5 -121q3 -17 3 -38q0 -16 -2 -47.5t-2 -46.5q0 -37 7 -63q59 -2 80 -1z" />
    <glyph glyph-name="g" unicode="g" horiz-adv-x="662" 
d="M624 343v0h-1h1zM627 317q1 6 -1 19q-24 -1 -84 -11q-28 -5 -59 -10q10 -30 10 -71q0 -80 -36 -140q-41 -69 -109 -69q-71 0 -98 4q-55 9 -93 26q-76 34 -104 143q-18 70 -18 188q0 199 150 293q70 45 129 45q101 0 188 -71q21 16 33 22l6 -14q-38 -19 -72 -59l-12 10
q12 13 33 31q-82 66 -176 66q-54 0 -121 -42q-143 -90 -143 -281q0 -281 148 -330q13 -4 61 -10t89 -6q62 0 98 64q32 56 32 130q0 41 -11 69q-16 -2 -40 -4q-39 -9 -126 -19q3 -16 7 -31l-14 -4q-7 25 -14 70l14 2q2 -8 4 -22q28 1 66 8q45 9 61 10q55 8 164 24q28 4 32 4
q-3 10 -7 26l14 2q5 -14 12 -38q2 -6 6 -35q-8 -3 -15 -3q-2 4 -4 14z" />
    <glyph glyph-name="h" unicode="h" horiz-adv-x="435" 
d="M40 763q35 -6 77 -21l-6 -14q-16 6 -35 11v-18q0 -10 -2 -34t-2 -38l-1 -32q-2 -36 -2 -57q1 -38 1 -148q33 2 28 2q33 0 85.5 -9t76.5 -9q26 0 67 5q-1 28 -1 52v219q2 23 0 69q-16 -2 -25 -1v14q35 -1 79 14l4 -14q-17 -6 -43 -11q3 -13 1 -35q-2 -26 -2 -36
q1 0 1 -219q0 -52 8 -136l14 -134q2 -18 -1 -49q-4 -36 -4 -48q0 -11 1 -20h9l2 -1q10 -2 32 -2v-15q-23 0 -35 3h-51v15h28q-1 8 -1 19q0 13 4 48q3 31 2 48q-8 68 -21 205q-41 -5 -68 -5q-24 0 -76.5 9t-85.5 9q6 0 -28 -2v-13q-1 -59 2 -155q3 -105 3 -153h8q22 0 32 -4
l-5 -14q-8 3 -27 3h-29q-20 0 -23 -3l-9 12q7 6 32 6h4q0 49 -2 153q-1 97 -1 155q0 41 1 84q2 48 2 75q1 77 0 106q-1 13 1 37.5t2 35.5t2 21q-9 2 -25 6z" />
    <glyph glyph-name="i" unicode="i" horiz-adv-x="241" 
d="M35 742q-11 0 70 0h18v2h15v-2q59 4 70 4v-15q-11 0 -70 -4q0 -28 3 -97q2 -62 2 -97q0 -73 -8 -130q-6 -42 -6 -85q0 -23 4 -68.5t4 -68.5q0 -20 -2 -38q-8 -63 -1 -89q34 0 70 8l3 -14q-39 -9 -82 -9q-9 0 -22.5 1t-22.5 1q-15 0 -27 -7l-7 14q16 8 34 8q9 0 21 -1
t17 -1q-6 27 2 91q2 17 2 37q0 23 -4 68t-4 68q0 44 6 87q8 56 8 129q0 34 -2 96q-3 68 -3 97h-18q-80 0 -69 0z" />
    <glyph glyph-name="j" unicode="j" horiz-adv-x="437" 
d="M335 758q12 6 46 7h1l45 -5l-1 -14l-33 4q0 -10 1.5 -29t1.5 -31q0 5 -5 -126q1 -106 -8 -311q-20 -226 -173 -226q-92 0 -138 115q-12 -8 -26 -10l-2 14q11 3 27 14q20 14 26 17l6 -14q-8 -4 -18 -12q42 -109 125 -109q139 0 159 213q5 62 5 160q0 132 1 161q0 18 3 58
q3 34 3 56q0 12 -1.5 31t-1.5 29q-16 -2 -36 -5z" />
    <glyph glyph-name="k" unicode="k" horiz-adv-x="380" 
d="M374 623l-11 -9q-13 15 -23 26q-33 -34 -100 -103q-49 -44 -142 -136q19 -18 41 -55q17 -30 33.5 -58.5t142.5 -213.5q18 17 30 23l6 -14q-11 -6 -27 -21l1 -3l-12 -8v0q-16 -14 -29 -20l-6 14q11 5 26 18q-48 67 -144 216q-16 28 -31 55q-21 36 -38 53q-6 -106 -3 -350
q20 -1 29 -1v-15q-42 0 -82 8l2 15q11 -2 36 -6q-7 262 5 375q5 46 5 110q1 42 -1 113q-1 82 -1 107h-4q-29 0 -32 -4l-3 -3l-11 11l3 3q8 8 43 8h54v-15h-35q0 -26 1 -105q2 -70 1 -112q0 -62 -5 -108q47 42 137 129l100 104q-13 15 -23 27l12 10q19 -22 55 -65z" />
    <glyph glyph-name="l" unicode="l" horiz-adv-x="567" 
d="M469 134q11 -6 76 -55l-9 -12q-11 9 -33 26q-39 -36 -43 -47l-11 -4q-1 1 -58 1q-25 0 -76 -2.5t-74 -2.5h-25h-27q-17 1 -27 1t-25 -1h-25q-15 0 -42 1.5t-42 1.5v15q49 0 47 0q0 81 -4 141l3 153q0 42 3.5 128t3.5 129q0 67 -6 121q-5 0 -14.5 -1.5t-15.5 -1.5v15
q7 0 17 1.5t16 1.5q11 0 27 -1.5t26 -1.5v-15q6 0 -41 3q6 -54 6 -120q0 -43 -3.5 -129.5t-3.5 -128.5q0 -20 -3 -110q4 -115 4 -186q11 -1 22 -1h25q15 1 25 1t27 -1h27h25q23 0 74 2.5t76 2.5q2 0 31 2q19 1 27 -1q8 11 42 43q-16 11 -29 18z" />
    <glyph glyph-name="m" unicode="m" horiz-adv-x="535" 
d="M430 39q35 -3 30 -3h2q0 36 2 134q1 88 1 137q0 3 -1 100q-2 57 1 97q9 112 2 172q1 10 0 30q-43 -64 -74 -105q-38 -48 -112 -126l-14 1q-34 35 -108 117q-33 35 -87 101v-24q0 -19 2 -51.5t2 -50.5q0 8 2 -172q2 -109 -3 -175q0 -4 -9 -83q-6 -50 -4 -83l26 -2v-14
l-66 3v14l25 -1q-2 34 4 84q9 78 10 84q4 65 2 174q-2 178 -2 171q0 18 -2 50.5t-2 51.5v23q1 13 1 22l13 5q30 -38 101 -120q36 -39 103 -102q33 32 104 110q35 52 83 115q6 4 18 0q1 -9 3 -25q-1 -8 -1 -21q7 -61 -2 -174q-3 -39 -1 -97q1 -96 1 -99q0 -49 -1 -136
q-2 -98 -2 -134q11 1 18 1q5 0 22 -2l-2 -15q-16 2 -20 2q-7 0 -17.5 -1t-17.5 -1q5 0 -32 3z" />
    <glyph glyph-name="n" unicode="n" horiz-adv-x="507" 
d="M363 764q15 0 39 4t38 4q42 0 60 -7l-5 -14q-16 6 -55 6q-3 0 -7 -1q-1 -88 0 -141q1 -46 5 -150q4 -33 10 -107q8 -114 -5 -289q-1 -23 -8 -35l-13 1q-10 26 -31 65q-24 42 -32 62q-48 114 -113 251q-16 32 -51 106q-31 81 -89 212q7 -38 7 -85q0 -36 -5.5 -107
t-5.5 -106q0 -78 -1 -196q-2 -127 -2 -192q16 -2 34 -6l-2 -14q-1 0 -36 7h-11v2q-18 4 -35 4q-4 -3 -10 -7l-4 14q11 3 14 3q19 -1 35 -2q0 65 2 192q1 117 1 195q0 -1 4 170q2 106 -3 145l26 5q15 -7 43 -86q41 -115 53 -142q15 -33 50 -108q40 -86 113 -249
q19 -35 55 -107q0 14 2 44q12 116 3 251q-3 33 -10 109q-5 68 -5 149v141q-50 -6 -55 -6v15z" />
    <glyph glyph-name="o" unicode="o" horiz-adv-x="567" 
d="M350 784q12 -2 24 -5q37 -11 55 -35q17 -27 35 -54q17 -23 33 -47.5t23 -54.5q11 -41 21 -82q13 -49 13 -83q0 -81 -40 -217q-11 -35 -16 -47q-10 -25 -26 -43q-11 -19 -39 -53q-20 -16 -76 -31q-52 -13 -83 -13q-61 0 -112 39q-49 36 -71 92q-56 136 -56 283
q0 7 -2 16.5t-2 16.5q0 110 37 186q45 92 138 113q78 19 115 19q33 0 29 0zM357 767q-9 2 -36 2q-35 0 -112 -18q-85 -20 -127 -106q-36 -72 -36 -179q0 -7 2 -17t2 -16q0 -144 54 -277q22 -52 68 -87t102 -35q29 0 80.5 13t69.5 28q8 7 19 24q12 21 18 27q20 23 38 84
q40 134 40 213q0 33 -13 81q-10 40 -21 80q-6 29 -21.5 52t-31 45t-28.5 44q-16 23 -35 32q-9 4 -32 10z" />
    <glyph glyph-name="p" unicode="p" horiz-adv-x="498" 
d="M78 328q12 0 34.5 3t37.5 3q13 0 50.5 -5t48.5 -5q145 0 191 97q15 30 15 89q0 47 -16 91q-16 50 -46 74q-60 50 -242 50q-5 0 -13 -1t-13 -1q-10 0 -41 6q3 -29 3 -67q0 -29 -3 -105q-4 -66 -3 -101q2 -50 -3 -128zM22 28v15q6 0 15.5 1.5t15.5 1.5q2 0 6 -1q4 56 2 90
q-3 32 -3 67q0 36 5 125q5 79 4 129q-2 35 2 101q3 75 3 104q0 40 -4 71q-5 1 -9 1q-30 0 -40 -12l-11 10q14 17 51 17q11 0 33 -5t33 -5q5 0 13 1t13 1q187 0 252 -53q32 -27 51 -81q16 -47 16 -96q0 -65 -17 -98q-52 -103 -204 -103q-11 0 -48.5 5t-50.5 5q-15 0 -37.5 -3
t-35.5 -3q-7 -112 -2 -176q3 -36 -1 -93q36 -5 47 -12l-8 -12q-9 5 -40 9q9 -1 -51 -1z" />
    <glyph glyph-name="q" unicode="q" horiz-adv-x="568" 
d="M542 448q4 -37 4 -46q0 -89 -67 -246q-16 -37 -39 -66q18 -38 35 -75q16 10 30 12l2 -14q-11 -2 -26 -12v-1l-5 -2q-13 -9 -41 -19l-2 14q11 2 29 13q-15 36 -33 71q-63 -70 -150 -70q-46 0 -121 32q-58 25 -94 68q-41 49 -41 109q0 144 23 313q3 33 18 97
q60 162 217 162q63 0 108 -24q40 -20 83.5 -68t59.5 -136q2 -13 10 -112zM281 773q-87 0 -146 -59q-55 -54 -69 -140q-28 -188 -28 -358q0 -108 126 -163q72 -31 115 -31q84 0 143 70q-39 79 -69 121q-16 -8 -26 -17l-10 12q13 11 36 21q28 11 37 17l8 -12q-9 -7 -30 -15
q28 -41 65 -114q19 26 32 57q66 154 66 240q0 9 -3 44q-9 99 -13 121q-16 78 -61 124q-42 43 -77 61q-41 21 -96 21z" />
    <glyph glyph-name="r" unicode="r" horiz-adv-x="515" 
d="M88 722q0 -104 -7 -198q-1 -18 1 -55q3 -44 3 -59v-31v-27v-3q52 -11 109 -11q117 0 222 49q18 9 22 13q41 45 41 107q0 84 -53 137q-20 19 -56 29q-31 7 -63 15q-76 27 -219 34zM27 45q13 -4 40 -7q0 68 1 186q2 113 2 186q0 15 -3 60q-2 37 0 56q6 92 6 196
q-11 1 -20 1q5 0 -33 -3l-2 14q40 4 35 4q160 0 260 -36l64 -16q37 -9 59 -32q58 -57 58 -147q0 -67 -45 -117q-12 -13 -55 -28q-85 -30 -154 -37q28 -49 47 -97q21 -52 34 -109q23 5 49 9l2 -14q-26 -4 -56 -12q-18 -4 -53 -14l-4 14q27 9 47 14q-26 111 -82 208
q-38 -3 -73 2q-24 2 -67 8q0 -32 -1 -143q-1 -89 -1 -154q43 -4 56 -13l-8 -12q-10 6 -50 10q-46 5 -57 9z" />
    <glyph glyph-name="s" unicode="s" horiz-adv-x="517" 
d="M498 499q-28 16 -81 52l10 12q12 -11 32 -23q3 30 0 46q-5 25 -25 56q-55 85 -223 85q-99 0 -125 -120q-2 -13 -2 -25q0 -75 28 -117q24 -34 77 -57q4 -2 109 -38q58 -20 92 -74.5t34 -118.5q0 -119 -132 -160q-8 -2 -15 -2q-36 0 -76 14q-46 16 -67 41q-12 15 -19 38
t-12 44q-20 -4 -32 -3v14q13 0 41.5 6t41.5 6v-15q-13 0 -37 -5q6 -20 11 -39q7 -23 18 -36q18 -22 60 -37q38 -13 71 -13q1 0 23 5q47 12 78 52t31 90q0 60 -31.5 110.5t-83.5 68.5q-104 35 -115 40q-55 25 -80 62q-30 45 -30 124q0 10 9 54q10 48 47 77t86 29
q202 0 250 -121q4 -9 12 -30q5 -19 2 -55l33 -25z" />
    <glyph glyph-name="t" unicode="t" horiz-adv-x="740" 
d="M86 716h-3q-15 -12 -36 -42q12 -8 33 -26l-11 -10q-25 17 -72 58l11 10q10 -11 27 -24q34 50 47 50q4 0 14.5 -2t16.5 -2q13 0 38 1t37 1q17 0 43 -1t43 -2q43 0 114 3q75 4 114 4q6 0 30.5 1.5t37.5 0.5q20 -1 30 -5q23 -11 55 -60q10 6 38 27l9 -12q-47 -36 -91 -59
l-7 14q4 2 38 22q-30 45 -49 54q-7 4 -26 4q-13 0 -36.5 -1t-28.5 -1q-16 0 -152 -5q0 -1 10 -79q5 -47 3 -79q0 -1 3 -74q-1 -30 1 -94q4 -57 5 -123q0 -45 -1 -119q-1 -92 -1 -120q10 2 16 2q29 0 54 -9l-5 -14q-23 8 -49 8q-6 0 -15 -1t-15 -1q-7 0 -24 3t-26 2l-1 14
q9 2 26 -1t24 -3q0 29 1 119q1 74 1 119q-1 66 -5 122q0 30 -1 97q0 46 -4 130q-4 31 -12 100q-33 -1 -61 0q-167 0 -188 3z" />
    <glyph glyph-name="u" unicode="u" horiz-adv-x="556" 
d="M427 722q14 2 52 12q32 9 53 9v-15q-20 0 -55 -10q6 -43 7 -99q1 -37 0 -106q-1 -80 -1 -119l3 -71q1 -39 -4 -71q-17 -101 -24 -121q-20 -59 -71 -87q-26 -13 -97 -13q-105 0 -156 56q-28 32 -41 98q-2 8 -18 129q-7 46 -8 160q2 50 3 165q-1 12 -5 43q-3 24 -2 39
q-13 -2 -27 -7l-6 14q33 12 87 12v-15q-27 0 -39 -2v0q-1 -15 2 -39q4 -33 4 -43q2 -36 0 -84q-3 -56 -3 -85q0 -48 9 -158q17 -122 17 -124q13 -64 39 -93q46 -51 144 -51q67 0 90 12t37 36q1 2 23 50q14 32 24 112q7 54 4 141q-1 30 1 159q1 98 -7 158q-20 -5 -33 -6z" />
    <glyph glyph-name="v" unicode="v" 
d="M510 689q-3 -20 -18 -53q-18 -41 -22 -54q-14 -45 -36 -102q-38 -96 -39 -99q-11 -30 -44 -174q-26 -112 -60 -164q-19 39 -38 106q-25 90 -31 107q-37 113 -113 340q-9 25 -30 81q-3 8 -7 14q29 19 45 26l-6 14q-16 -7 -46.5 -27.5t-48.5 -27.5l6 -14q16 7 38 21
q2 -1 9 -20q8 -22 26 -71l113 -340q4 -12 33 -115q20 -70 42 -112h13q40 53 67 169q37 157 46 181q26 64 75 203q17 34 40 105q4 -2 57 -38l11 11q-20 13 -66 41q-9 5 -37 19q-3 2 -11 6l-8 -11q15 -9 40 -22z" />
    <glyph glyph-name="w" unicode="w" horiz-adv-x="737" 
d="M611 739q17 -3 28 -9q22 -9 43 -18q32 -15 38 -26l-14 -7q-3 7 -34 21q-16 -66 -55 -164q-55 -135 -64 -161q-29 -81 -78 -236q-5 -32 -26 -91l-14 1q-11 23 -40 86q0 1 -24 68q-15 41 -33 65q-20 -50 -66 -113q-40 -53 -80 -105l-13 3q-4 19 -35 137q-21 83 -26 138
q-6 62 -23 149q-22 116 -26 147q-8 32 -15 88q-14 -5 -22 -12l-10 11q15 13 70 25l4 -15q-9 -1 -27 -5q-1 -12 6 -45l8 -44q20 -95 49 -298q5 -52 25 -129q16 -64 33 -128q62 82 77 103q47 66 62 110l13 2q25 -29 40 -71q13 -38 27 -76q12 -24 34 -70q6 24 18 72.5t78 237.5
q8 24 64 162q40 98 55 164q-11 4 -25 11q-10 5 -24 7z" />
    <glyph glyph-name="x" unicode="x" horiz-adv-x="544" 
d="M30 670q38 56 83 81l8 -14q-42 -22 -79 -75zM529 634l-12 -10l-42 42q-1 -1 -2 -3q-52 -74 -154 -212q-17 -21 -39 -49q49 -63 75 -113q17 -37 56 -109q12 -18 55 -97q11 6 31 16l6 -14q-25 -11 -41 -20l-3 -2v1q-16 -8 -30 -10l-2 14q10 2 25 9q-16 30 -53 95
q-4 5 -58 111q-24 47 -70 106q-33 -44 -102 -134l-40 -50q-22 -32 -28 -57l24 -21l-10 -12q-17 17 -54 46l8 12q9 -5 20 -14q9 31 68 106q12 15 105 137q-28 34 -82 104q-19 26 -56.5 90.5t-58.5 94.5l12 8q21 -29 58.5 -93.5t56.5 -91.5q7 -9 79 -100q20 26 36 47
q123 154 156 216q-22 23 -27 42l14 4q4 -14 35 -46q17 -16 44 -43z" />
    <glyph glyph-name="y" unicode="y" horiz-adv-x="507" 
d="M70 78q13 -5 32 -13q27 44 77 171q19 50 55 117q30 57 61 114q-18 15 -59 45q-118 79 -183 130q-9 -13 -18 -22l-11 10q11 13 42 60l13 -8q-6 -9 -18 -28q66 -50 184 -130q18 -15 56 -43q34 74 104 222q-5 5 -17 14l9 12q16 -13 54 -36l-6 -14q-15 6 -28 15
q-8 -16 -22 -46q-26 -51 -49 -105.5t-78 -157.5q-53 -98 -75 -155q-29 -73 -35 -87q-21 -50 -43 -85q15 -6 27 -11l-5 -14q-23 10 -72 31z" />
    <glyph glyph-name="z" unicode="z" horiz-adv-x="632" 
d="M503 154q52 -7 114 -34l-6 -14q-22 10 -48 18q-6 -17 -33 -53.5t-32 -37.5q-46 -5 -174 -5q-7 0 -32 2q-21 2 -51 2q-64 0 -143 -8l-12 12q59 62 210 270q21 29 162 237l100 147q-1 6 -47 6h-35q-23 1 -35 1q-4 0 -158 3q-138 3 -162 3q-11 -7 -42 -58q15 -15 28 -31
l-12 -10q-35 44 -70 65l8 12q16 -9 34 -26q38 63 54 63q47 0 70 -1l250 -5q12 0 35 -1h35q68 0 68 -20q0 -6 -4 -14q-16 -28 -48 -69q-45 -57 -58 -74q-47 -73 -160 -236q-100 -138 -102 -141q-53 -72 -95 -118q13 0 52.5 3.5t69.5 3.5l58 -1q6 0 16 -1t16 -1q30 0 81.5 3.5
t76.5 4.5q9 0 37 32t30 45q-27 9 -48 12z" />
    <glyph glyph-name="paragraph" unicode="&#xb6;" horiz-adv-x="544" 
d="M300 566zM271 774q13 -8 37 -12q30 -5 39 -8l-4 -14q-6 2 -44 9q0 -5 8 -56v0q4 -32 10 -211q0 -6 1 -21q10 -89 28 -278q1 -2 3 -79q1 -52 9 -79q8 2 35 5l2 -14q-26 -4 -33 -5q-17 -3 -31 -12l-8 14q10 5 20 8q-8 29 -9 80q-2 79 -2 80q-9 92 -24 280q-3 6 -5 21
q-1 7 -3 78q-34 -23 -69 -46q-39 -23 -80 -23q-51 0 -80.5 36t-29.5 90q0 55 36 99q40 48 95 48q64 0 117 -50q-3 20 -6 38h1q-11 3 -21 8zM380 739q28 -2 84 -8l-2 -14q-15 2 -45 4q10 -57 23 -170q-2 -47 4 -140q7 -39 20 -124q2 -9 9 -117q5 -71 19 -115l7 1q-1 4 0 7
l14 -4q-1 0 0 3l3 -2q13 -11 -2 -15q-42 -12 -67 -9l2 14q14 -1 28 2q-13 44 -19 115q-7 108 -8 118q-11 51 -24 153q2 43 -2 129q-8 51 -22 155q-15 1 -24 3z" />
    <glyph glyph-name="quoteleft" unicode="&#x2018;" horiz-adv-x="175" 
d="M91 722q-4 2 -9 4q-1 -16 8 -51l-6 -4q-8 15 -20 43q-6 24 -6 22q0 27 2 30q9 10 23 10q13 0 24.5 -9t11.5 -21q0 -23 -20 -23q-2 0 -5 -1h-3z" />
    <glyph glyph-name="quoteright" unicode="&#x2019;" horiz-adv-x="152" 
d="M70 684q3 -2 8 -4q2 16 -8 51l6 4q8 -14 20 -43q7 -24 7 -21q0 -28 -3 -31q-8 -10 -22 -10t-25 9t-11 22q0 22 19 22q2 0 5 1h4z" />
    <glyph glyph-name="quotedblleft" unicode="&#x201c;" horiz-adv-x="282" 
d="M91 722q-4 2 -9 4q-1 -16 8 -51l-6 -4q-8 15 -20 43q-6 24 -6 22q0 27 2 30q9 10 23 10q13 0 24.5 -9t11.5 -21q0 -23 -20 -23q-2 0 -5 -1h-3zM202 721q-4 2 -9 4q-1 -16 8 -51l-6 -4q-8 15 -20 43q-6 24 -6 22q0 2 -1 9.5t-1 11.5q1 5 4 9q9 10 23 10q13 0 24.5 -9
t11.5 -21q0 -23 -20 -23q-2 0 -5 -1h-3z" />
    <glyph glyph-name="quotedblright" unicode="&#x201d;" horiz-adv-x="282" 
d="M181 683q3 -2 8 -4q2 16 -8 51l6 4q8 -14 20 -43q7 -24 7 -21q0 -28 -3 -31q-8 -10 -22 -10t-25 9t-11 22q0 22 19 22q2 0 5 1h4zM70 684q3 -2 8 -4q2 16 -8 51l6 4q8 -14 20 -43q7 -24 7 -21q0 -28 -3 -31q-8 -10 -22 -10t-25 9t-11 22q0 22 19 22q2 0 5 1h4z" />
    <glyph glyph-name="ellipsis" unicode="&#x2026;" horiz-adv-x="403" 
d="M25 53q0 16 12.5 28t29.5 12t29.5 -12t12.5 -28q0 -17 -12.5 -29t-29.5 -12t-29.5 12t-12.5 29zM142 58q0 20 13.5 34.5t33.5 14.5t34 -14.5t14 -34.5t-14 -34.5t-34 -14.5t-33.5 14.5t-13.5 34.5zM268 66q0 39 45 39q35 0 35 -44q0 -49 -32 -49q-20 0 -34 15.5t-14 38.5
z" />
    </font>
</defs>
</svg>
